%TF.GenerationSoftware,KiCad,Pcbnew,9.0.6*%
%TF.CreationDate,2026-01-25T18:40:06+01:00*%
%TF.ProjectId,dispo-board,64697370-6f2d-4626-9f61-72642e6b6963,rev?*%
%TF.SameCoordinates,Original*%
%TF.FileFunction,Legend,Top*%
%TF.FilePolarity,Positive*%
%FSLAX46Y46*%
G04 Gerber Fmt 4.6, Leading zero omitted, Abs format (unit mm)*
G04 Created by KiCad (PCBNEW 9.0.6) date 2026-01-25 18:40:06*
%MOMM*%
%LPD*%
G01*
G04 APERTURE LIST*
%ADD10C,0.150000*%
%ADD11C,0.120000*%
%ADD12C,0.100000*%
G04 APERTURE END LIST*
D10*
X39350000Y-47100000D02*
X39350000Y-51700000D01*
X80150000Y-51900000D02*
X80150000Y-47300000D01*
X80150000Y-51900000D02*
X79450000Y-52550000D01*
X39350000Y-51700000D02*
X40000000Y-52400000D01*
X79377255Y-37069819D02*
X79567731Y-37069819D01*
X79567731Y-37069819D02*
X79662969Y-37117438D01*
X79662969Y-37117438D02*
X79758207Y-37212676D01*
X79758207Y-37212676D02*
X79805826Y-37403152D01*
X79805826Y-37403152D02*
X79805826Y-37736485D01*
X79805826Y-37736485D02*
X79758207Y-37926961D01*
X79758207Y-37926961D02*
X79662969Y-38022200D01*
X79662969Y-38022200D02*
X79567731Y-38069819D01*
X79567731Y-38069819D02*
X79377255Y-38069819D01*
X79377255Y-38069819D02*
X79282017Y-38022200D01*
X79282017Y-38022200D02*
X79186779Y-37926961D01*
X79186779Y-37926961D02*
X79139160Y-37736485D01*
X79139160Y-37736485D02*
X79139160Y-37403152D01*
X79139160Y-37403152D02*
X79186779Y-37212676D01*
X79186779Y-37212676D02*
X79282017Y-37117438D01*
X79282017Y-37117438D02*
X79377255Y-37069819D01*
X80234398Y-37069819D02*
X80234398Y-37879342D01*
X80234398Y-37879342D02*
X80282017Y-37974580D01*
X80282017Y-37974580D02*
X80329636Y-38022200D01*
X80329636Y-38022200D02*
X80424874Y-38069819D01*
X80424874Y-38069819D02*
X80615350Y-38069819D01*
X80615350Y-38069819D02*
X80710588Y-38022200D01*
X80710588Y-38022200D02*
X80758207Y-37974580D01*
X80758207Y-37974580D02*
X80805826Y-37879342D01*
X80805826Y-37879342D02*
X80805826Y-37069819D01*
X81139160Y-37069819D02*
X81710588Y-37069819D01*
X81424874Y-38069819D02*
X81424874Y-37069819D01*
X80730180Y-45286779D02*
X81730180Y-45286779D01*
X81349228Y-45286779D02*
X81396847Y-45382017D01*
X81396847Y-45382017D02*
X81396847Y-45572493D01*
X81396847Y-45572493D02*
X81349228Y-45667731D01*
X81349228Y-45667731D02*
X81301609Y-45715350D01*
X81301609Y-45715350D02*
X81206371Y-45762969D01*
X81206371Y-45762969D02*
X80920657Y-45762969D01*
X80920657Y-45762969D02*
X80825419Y-45715350D01*
X80825419Y-45715350D02*
X80777800Y-45667731D01*
X80777800Y-45667731D02*
X80730180Y-45572493D01*
X80730180Y-45572493D02*
X80730180Y-45382017D01*
X80730180Y-45382017D02*
X80777800Y-45286779D01*
X81396847Y-46191541D02*
X80396847Y-46191541D01*
X81349228Y-46191541D02*
X81396847Y-46286779D01*
X81396847Y-46286779D02*
X81396847Y-46477255D01*
X81396847Y-46477255D02*
X81349228Y-46572493D01*
X81349228Y-46572493D02*
X81301609Y-46620112D01*
X81301609Y-46620112D02*
X81206371Y-46667731D01*
X81206371Y-46667731D02*
X80920657Y-46667731D01*
X80920657Y-46667731D02*
X80825419Y-46620112D01*
X80825419Y-46620112D02*
X80777800Y-46572493D01*
X80777800Y-46572493D02*
X80730180Y-46477255D01*
X80730180Y-46477255D02*
X80730180Y-46286779D01*
X80730180Y-46286779D02*
X80777800Y-46191541D01*
X80777800Y-47810589D02*
X80730180Y-47905827D01*
X80730180Y-47905827D02*
X80730180Y-48096303D01*
X80730180Y-48096303D02*
X80777800Y-48191541D01*
X80777800Y-48191541D02*
X80873038Y-48239160D01*
X80873038Y-48239160D02*
X80920657Y-48239160D01*
X80920657Y-48239160D02*
X81015895Y-48191541D01*
X81015895Y-48191541D02*
X81063514Y-48096303D01*
X81063514Y-48096303D02*
X81063514Y-47953446D01*
X81063514Y-47953446D02*
X81111133Y-47858208D01*
X81111133Y-47858208D02*
X81206371Y-47810589D01*
X81206371Y-47810589D02*
X81253990Y-47810589D01*
X81253990Y-47810589D02*
X81349228Y-47858208D01*
X81349228Y-47858208D02*
X81396847Y-47953446D01*
X81396847Y-47953446D02*
X81396847Y-48096303D01*
X81396847Y-48096303D02*
X81349228Y-48191541D01*
X81396847Y-48572494D02*
X80730180Y-48762970D01*
X80730180Y-48762970D02*
X81206371Y-48953446D01*
X81206371Y-48953446D02*
X80730180Y-49143922D01*
X80730180Y-49143922D02*
X81396847Y-49334398D01*
X80730180Y-49715351D02*
X81396847Y-49715351D01*
X81730180Y-49715351D02*
X81682561Y-49667732D01*
X81682561Y-49667732D02*
X81634942Y-49715351D01*
X81634942Y-49715351D02*
X81682561Y-49762970D01*
X81682561Y-49762970D02*
X81730180Y-49715351D01*
X81730180Y-49715351D02*
X81634942Y-49715351D01*
X81396847Y-50048684D02*
X81396847Y-50429636D01*
X81730180Y-50191541D02*
X80873038Y-50191541D01*
X80873038Y-50191541D02*
X80777800Y-50239160D01*
X80777800Y-50239160D02*
X80730180Y-50334398D01*
X80730180Y-50334398D02*
X80730180Y-50429636D01*
X80777800Y-51191541D02*
X80730180Y-51096303D01*
X80730180Y-51096303D02*
X80730180Y-50905827D01*
X80730180Y-50905827D02*
X80777800Y-50810589D01*
X80777800Y-50810589D02*
X80825419Y-50762970D01*
X80825419Y-50762970D02*
X80920657Y-50715351D01*
X80920657Y-50715351D02*
X81206371Y-50715351D01*
X81206371Y-50715351D02*
X81301609Y-50762970D01*
X81301609Y-50762970D02*
X81349228Y-50810589D01*
X81349228Y-50810589D02*
X81396847Y-50905827D01*
X81396847Y-50905827D02*
X81396847Y-51096303D01*
X81396847Y-51096303D02*
X81349228Y-51191541D01*
X80730180Y-51620113D02*
X81730180Y-51620113D01*
X80730180Y-52048684D02*
X81253990Y-52048684D01*
X81253990Y-52048684D02*
X81349228Y-52001065D01*
X81349228Y-52001065D02*
X81396847Y-51905827D01*
X81396847Y-51905827D02*
X81396847Y-51762970D01*
X81396847Y-51762970D02*
X81349228Y-51667732D01*
X81349228Y-51667732D02*
X81301609Y-51620113D01*
X38186779Y-37819819D02*
X38186779Y-36819819D01*
X38662969Y-37819819D02*
X38662969Y-36819819D01*
X38662969Y-36819819D02*
X39234397Y-37819819D01*
X39234397Y-37819819D02*
X39234397Y-36819819D01*
X38769819Y-52363220D02*
X37769819Y-52363220D01*
X38150771Y-52363220D02*
X38103152Y-52267982D01*
X38103152Y-52267982D02*
X38103152Y-52077506D01*
X38103152Y-52077506D02*
X38150771Y-51982268D01*
X38150771Y-51982268D02*
X38198390Y-51934649D01*
X38198390Y-51934649D02*
X38293628Y-51887030D01*
X38293628Y-51887030D02*
X38579342Y-51887030D01*
X38579342Y-51887030D02*
X38674580Y-51934649D01*
X38674580Y-51934649D02*
X38722200Y-51982268D01*
X38722200Y-51982268D02*
X38769819Y-52077506D01*
X38769819Y-52077506D02*
X38769819Y-52267982D01*
X38769819Y-52267982D02*
X38722200Y-52363220D01*
X38103152Y-51458458D02*
X39103152Y-51458458D01*
X38150771Y-51458458D02*
X38103152Y-51363220D01*
X38103152Y-51363220D02*
X38103152Y-51172744D01*
X38103152Y-51172744D02*
X38150771Y-51077506D01*
X38150771Y-51077506D02*
X38198390Y-51029887D01*
X38198390Y-51029887D02*
X38293628Y-50982268D01*
X38293628Y-50982268D02*
X38579342Y-50982268D01*
X38579342Y-50982268D02*
X38674580Y-51029887D01*
X38674580Y-51029887D02*
X38722200Y-51077506D01*
X38722200Y-51077506D02*
X38769819Y-51172744D01*
X38769819Y-51172744D02*
X38769819Y-51363220D01*
X38769819Y-51363220D02*
X38722200Y-51458458D01*
X38722200Y-49839410D02*
X38769819Y-49744172D01*
X38769819Y-49744172D02*
X38769819Y-49553696D01*
X38769819Y-49553696D02*
X38722200Y-49458458D01*
X38722200Y-49458458D02*
X38626961Y-49410839D01*
X38626961Y-49410839D02*
X38579342Y-49410839D01*
X38579342Y-49410839D02*
X38484104Y-49458458D01*
X38484104Y-49458458D02*
X38436485Y-49553696D01*
X38436485Y-49553696D02*
X38436485Y-49696553D01*
X38436485Y-49696553D02*
X38388866Y-49791791D01*
X38388866Y-49791791D02*
X38293628Y-49839410D01*
X38293628Y-49839410D02*
X38246009Y-49839410D01*
X38246009Y-49839410D02*
X38150771Y-49791791D01*
X38150771Y-49791791D02*
X38103152Y-49696553D01*
X38103152Y-49696553D02*
X38103152Y-49553696D01*
X38103152Y-49553696D02*
X38150771Y-49458458D01*
X38103152Y-49077505D02*
X38769819Y-48887029D01*
X38769819Y-48887029D02*
X38293628Y-48696553D01*
X38293628Y-48696553D02*
X38769819Y-48506077D01*
X38769819Y-48506077D02*
X38103152Y-48315601D01*
X38769819Y-47934648D02*
X38103152Y-47934648D01*
X37769819Y-47934648D02*
X37817438Y-47982267D01*
X37817438Y-47982267D02*
X37865057Y-47934648D01*
X37865057Y-47934648D02*
X37817438Y-47887029D01*
X37817438Y-47887029D02*
X37769819Y-47934648D01*
X37769819Y-47934648D02*
X37865057Y-47934648D01*
X38103152Y-47601315D02*
X38103152Y-47220363D01*
X37769819Y-47458458D02*
X38626961Y-47458458D01*
X38626961Y-47458458D02*
X38722200Y-47410839D01*
X38722200Y-47410839D02*
X38769819Y-47315601D01*
X38769819Y-47315601D02*
X38769819Y-47220363D01*
X38722200Y-46458458D02*
X38769819Y-46553696D01*
X38769819Y-46553696D02*
X38769819Y-46744172D01*
X38769819Y-46744172D02*
X38722200Y-46839410D01*
X38722200Y-46839410D02*
X38674580Y-46887029D01*
X38674580Y-46887029D02*
X38579342Y-46934648D01*
X38579342Y-46934648D02*
X38293628Y-46934648D01*
X38293628Y-46934648D02*
X38198390Y-46887029D01*
X38198390Y-46887029D02*
X38150771Y-46839410D01*
X38150771Y-46839410D02*
X38103152Y-46744172D01*
X38103152Y-46744172D02*
X38103152Y-46553696D01*
X38103152Y-46553696D02*
X38150771Y-46458458D01*
X38769819Y-46029886D02*
X37769819Y-46029886D01*
X38769819Y-45601315D02*
X38246009Y-45601315D01*
X38246009Y-45601315D02*
X38150771Y-45648934D01*
X38150771Y-45648934D02*
X38103152Y-45744172D01*
X38103152Y-45744172D02*
X38103152Y-45887029D01*
X38103152Y-45887029D02*
X38150771Y-45982267D01*
X38150771Y-45982267D02*
X38198390Y-46029886D01*
X38845180Y-31916666D02*
X38130895Y-31916666D01*
X38130895Y-31916666D02*
X37988038Y-31869047D01*
X37988038Y-31869047D02*
X37892800Y-31773809D01*
X37892800Y-31773809D02*
X37845180Y-31630952D01*
X37845180Y-31630952D02*
X37845180Y-31535714D01*
X38749942Y-32345238D02*
X38797561Y-32392857D01*
X38797561Y-32392857D02*
X38845180Y-32488095D01*
X38845180Y-32488095D02*
X38845180Y-32726190D01*
X38845180Y-32726190D02*
X38797561Y-32821428D01*
X38797561Y-32821428D02*
X38749942Y-32869047D01*
X38749942Y-32869047D02*
X38654704Y-32916666D01*
X38654704Y-32916666D02*
X38559466Y-32916666D01*
X38559466Y-32916666D02*
X38416609Y-32869047D01*
X38416609Y-32869047D02*
X37845180Y-32297619D01*
X37845180Y-32297619D02*
X37845180Y-32916666D01*
X63454819Y-91068333D02*
X64169104Y-91068333D01*
X64169104Y-91068333D02*
X64311961Y-91115952D01*
X64311961Y-91115952D02*
X64407200Y-91211190D01*
X64407200Y-91211190D02*
X64454819Y-91354047D01*
X64454819Y-91354047D02*
X64454819Y-91449285D01*
X63454819Y-90687380D02*
X63454819Y-90068333D01*
X63454819Y-90068333D02*
X63835771Y-90401666D01*
X63835771Y-90401666D02*
X63835771Y-90258809D01*
X63835771Y-90258809D02*
X63883390Y-90163571D01*
X63883390Y-90163571D02*
X63931009Y-90115952D01*
X63931009Y-90115952D02*
X64026247Y-90068333D01*
X64026247Y-90068333D02*
X64264342Y-90068333D01*
X64264342Y-90068333D02*
X64359580Y-90115952D01*
X64359580Y-90115952D02*
X64407200Y-90163571D01*
X64407200Y-90163571D02*
X64454819Y-90258809D01*
X64454819Y-90258809D02*
X64454819Y-90544523D01*
X64454819Y-90544523D02*
X64407200Y-90639761D01*
X64407200Y-90639761D02*
X64359580Y-90687380D01*
X79754819Y-62588094D02*
X79754819Y-62016666D01*
X80754819Y-62302380D02*
X79754819Y-62302380D01*
X80754819Y-61683332D02*
X79754819Y-61683332D01*
X79754819Y-61683332D02*
X79754819Y-61302380D01*
X79754819Y-61302380D02*
X79802438Y-61207142D01*
X79802438Y-61207142D02*
X79850057Y-61159523D01*
X79850057Y-61159523D02*
X79945295Y-61111904D01*
X79945295Y-61111904D02*
X80088152Y-61111904D01*
X80088152Y-61111904D02*
X80183390Y-61159523D01*
X80183390Y-61159523D02*
X80231009Y-61207142D01*
X80231009Y-61207142D02*
X80278628Y-61302380D01*
X80278628Y-61302380D02*
X80278628Y-61683332D01*
X80754819Y-60159523D02*
X80754819Y-60730951D01*
X80754819Y-60445237D02*
X79754819Y-60445237D01*
X79754819Y-60445237D02*
X79897676Y-60540475D01*
X79897676Y-60540475D02*
X79992914Y-60635713D01*
X79992914Y-60635713D02*
X80040533Y-60730951D01*
X79754819Y-59540475D02*
X79754819Y-59445237D01*
X79754819Y-59445237D02*
X79802438Y-59349999D01*
X79802438Y-59349999D02*
X79850057Y-59302380D01*
X79850057Y-59302380D02*
X79945295Y-59254761D01*
X79945295Y-59254761D02*
X80135771Y-59207142D01*
X80135771Y-59207142D02*
X80373866Y-59207142D01*
X80373866Y-59207142D02*
X80564342Y-59254761D01*
X80564342Y-59254761D02*
X80659580Y-59302380D01*
X80659580Y-59302380D02*
X80707200Y-59349999D01*
X80707200Y-59349999D02*
X80754819Y-59445237D01*
X80754819Y-59445237D02*
X80754819Y-59540475D01*
X80754819Y-59540475D02*
X80707200Y-59635713D01*
X80707200Y-59635713D02*
X80659580Y-59683332D01*
X80659580Y-59683332D02*
X80564342Y-59730951D01*
X80564342Y-59730951D02*
X80373866Y-59778570D01*
X80373866Y-59778570D02*
X80135771Y-59778570D01*
X80135771Y-59778570D02*
X79945295Y-59730951D01*
X79945295Y-59730951D02*
X79850057Y-59683332D01*
X79850057Y-59683332D02*
X79802438Y-59635713D01*
X79802438Y-59635713D02*
X79754819Y-59540475D01*
X38745180Y-59066666D02*
X38030895Y-59066666D01*
X38030895Y-59066666D02*
X37888038Y-59019047D01*
X37888038Y-59019047D02*
X37792800Y-58923809D01*
X37792800Y-58923809D02*
X37745180Y-58780952D01*
X37745180Y-58780952D02*
X37745180Y-58685714D01*
X38745180Y-59447619D02*
X38745180Y-60114285D01*
X38745180Y-60114285D02*
X37745180Y-59685714D01*
X39045180Y-80290476D02*
X38330895Y-80290476D01*
X38330895Y-80290476D02*
X38188038Y-80242857D01*
X38188038Y-80242857D02*
X38092800Y-80147619D01*
X38092800Y-80147619D02*
X38045180Y-80004762D01*
X38045180Y-80004762D02*
X38045180Y-79909524D01*
X38045180Y-81290476D02*
X38045180Y-80719048D01*
X38045180Y-81004762D02*
X39045180Y-81004762D01*
X39045180Y-81004762D02*
X38902323Y-80909524D01*
X38902323Y-80909524D02*
X38807085Y-80814286D01*
X38807085Y-80814286D02*
X38759466Y-80719048D01*
X39045180Y-81623810D02*
X39045180Y-82242857D01*
X39045180Y-82242857D02*
X38664228Y-81909524D01*
X38664228Y-81909524D02*
X38664228Y-82052381D01*
X38664228Y-82052381D02*
X38616609Y-82147619D01*
X38616609Y-82147619D02*
X38568990Y-82195238D01*
X38568990Y-82195238D02*
X38473752Y-82242857D01*
X38473752Y-82242857D02*
X38235657Y-82242857D01*
X38235657Y-82242857D02*
X38140419Y-82195238D01*
X38140419Y-82195238D02*
X38092800Y-82147619D01*
X38092800Y-82147619D02*
X38045180Y-82052381D01*
X38045180Y-82052381D02*
X38045180Y-81766667D01*
X38045180Y-81766667D02*
X38092800Y-81671429D01*
X38092800Y-81671429D02*
X38140419Y-81623810D01*
X45366666Y-29854819D02*
X45366666Y-30569104D01*
X45366666Y-30569104D02*
X45319047Y-30711961D01*
X45319047Y-30711961D02*
X45223809Y-30807200D01*
X45223809Y-30807200D02*
X45080952Y-30854819D01*
X45080952Y-30854819D02*
X44985714Y-30854819D01*
X46271428Y-29854819D02*
X46080952Y-29854819D01*
X46080952Y-29854819D02*
X45985714Y-29902438D01*
X45985714Y-29902438D02*
X45938095Y-29950057D01*
X45938095Y-29950057D02*
X45842857Y-30092914D01*
X45842857Y-30092914D02*
X45795238Y-30283390D01*
X45795238Y-30283390D02*
X45795238Y-30664342D01*
X45795238Y-30664342D02*
X45842857Y-30759580D01*
X45842857Y-30759580D02*
X45890476Y-30807200D01*
X45890476Y-30807200D02*
X45985714Y-30854819D01*
X45985714Y-30854819D02*
X46176190Y-30854819D01*
X46176190Y-30854819D02*
X46271428Y-30807200D01*
X46271428Y-30807200D02*
X46319047Y-30759580D01*
X46319047Y-30759580D02*
X46366666Y-30664342D01*
X46366666Y-30664342D02*
X46366666Y-30426247D01*
X46366666Y-30426247D02*
X46319047Y-30331009D01*
X46319047Y-30331009D02*
X46271428Y-30283390D01*
X46271428Y-30283390D02*
X46176190Y-30235771D01*
X46176190Y-30235771D02*
X45985714Y-30235771D01*
X45985714Y-30235771D02*
X45890476Y-30283390D01*
X45890476Y-30283390D02*
X45842857Y-30331009D01*
X45842857Y-30331009D02*
X45795238Y-30426247D01*
X68690476Y-94354819D02*
X68690476Y-95069104D01*
X68690476Y-95069104D02*
X68642857Y-95211961D01*
X68642857Y-95211961D02*
X68547619Y-95307200D01*
X68547619Y-95307200D02*
X68404762Y-95354819D01*
X68404762Y-95354819D02*
X68309524Y-95354819D01*
X69690476Y-95354819D02*
X69119048Y-95354819D01*
X69404762Y-95354819D02*
X69404762Y-94354819D01*
X69404762Y-94354819D02*
X69309524Y-94497676D01*
X69309524Y-94497676D02*
X69214286Y-94592914D01*
X69214286Y-94592914D02*
X69119048Y-94640533D01*
X70642857Y-95354819D02*
X70071429Y-95354819D01*
X70357143Y-95354819D02*
X70357143Y-94354819D01*
X70357143Y-94354819D02*
X70261905Y-94497676D01*
X70261905Y-94497676D02*
X70166667Y-94592914D01*
X70166667Y-94592914D02*
X70071429Y-94640533D01*
X51788095Y-62454819D02*
X52359523Y-62454819D01*
X52073809Y-63454819D02*
X52073809Y-62454819D01*
X52692857Y-63454819D02*
X52692857Y-62454819D01*
X52692857Y-62454819D02*
X53073809Y-62454819D01*
X53073809Y-62454819D02*
X53169047Y-62502438D01*
X53169047Y-62502438D02*
X53216666Y-62550057D01*
X53216666Y-62550057D02*
X53264285Y-62645295D01*
X53264285Y-62645295D02*
X53264285Y-62788152D01*
X53264285Y-62788152D02*
X53216666Y-62883390D01*
X53216666Y-62883390D02*
X53169047Y-62931009D01*
X53169047Y-62931009D02*
X53073809Y-62978628D01*
X53073809Y-62978628D02*
X52692857Y-62978628D01*
X54169047Y-62454819D02*
X53692857Y-62454819D01*
X53692857Y-62454819D02*
X53645238Y-62931009D01*
X53645238Y-62931009D02*
X53692857Y-62883390D01*
X53692857Y-62883390D02*
X53788095Y-62835771D01*
X53788095Y-62835771D02*
X54026190Y-62835771D01*
X54026190Y-62835771D02*
X54121428Y-62883390D01*
X54121428Y-62883390D02*
X54169047Y-62931009D01*
X54169047Y-62931009D02*
X54216666Y-63026247D01*
X54216666Y-63026247D02*
X54216666Y-63264342D01*
X54216666Y-63264342D02*
X54169047Y-63359580D01*
X54169047Y-63359580D02*
X54121428Y-63407200D01*
X54121428Y-63407200D02*
X54026190Y-63454819D01*
X54026190Y-63454819D02*
X53788095Y-63454819D01*
X53788095Y-63454819D02*
X53692857Y-63407200D01*
X53692857Y-63407200D02*
X53645238Y-63359580D01*
X65188095Y-58554819D02*
X65759523Y-58554819D01*
X65473809Y-59554819D02*
X65473809Y-58554819D01*
X66092857Y-59554819D02*
X66092857Y-58554819D01*
X66092857Y-58554819D02*
X66473809Y-58554819D01*
X66473809Y-58554819D02*
X66569047Y-58602438D01*
X66569047Y-58602438D02*
X66616666Y-58650057D01*
X66616666Y-58650057D02*
X66664285Y-58745295D01*
X66664285Y-58745295D02*
X66664285Y-58888152D01*
X66664285Y-58888152D02*
X66616666Y-58983390D01*
X66616666Y-58983390D02*
X66569047Y-59031009D01*
X66569047Y-59031009D02*
X66473809Y-59078628D01*
X66473809Y-59078628D02*
X66092857Y-59078628D01*
X66997619Y-58554819D02*
X67616666Y-58554819D01*
X67616666Y-58554819D02*
X67283333Y-58935771D01*
X67283333Y-58935771D02*
X67426190Y-58935771D01*
X67426190Y-58935771D02*
X67521428Y-58983390D01*
X67521428Y-58983390D02*
X67569047Y-59031009D01*
X67569047Y-59031009D02*
X67616666Y-59126247D01*
X67616666Y-59126247D02*
X67616666Y-59364342D01*
X67616666Y-59364342D02*
X67569047Y-59459580D01*
X67569047Y-59459580D02*
X67521428Y-59507200D01*
X67521428Y-59507200D02*
X67426190Y-59554819D01*
X67426190Y-59554819D02*
X67140476Y-59554819D01*
X67140476Y-59554819D02*
X67045238Y-59507200D01*
X67045238Y-59507200D02*
X66997619Y-59459580D01*
X65138095Y-61154819D02*
X65709523Y-61154819D01*
X65423809Y-62154819D02*
X65423809Y-61154819D01*
X66042857Y-62154819D02*
X66042857Y-61154819D01*
X66042857Y-61154819D02*
X66423809Y-61154819D01*
X66423809Y-61154819D02*
X66519047Y-61202438D01*
X66519047Y-61202438D02*
X66566666Y-61250057D01*
X66566666Y-61250057D02*
X66614285Y-61345295D01*
X66614285Y-61345295D02*
X66614285Y-61488152D01*
X66614285Y-61488152D02*
X66566666Y-61583390D01*
X66566666Y-61583390D02*
X66519047Y-61631009D01*
X66519047Y-61631009D02*
X66423809Y-61678628D01*
X66423809Y-61678628D02*
X66042857Y-61678628D01*
X67471428Y-61488152D02*
X67471428Y-62154819D01*
X67233333Y-61107200D02*
X66995238Y-61821485D01*
X66995238Y-61821485D02*
X67614285Y-61821485D01*
X80554819Y-58883333D02*
X81269104Y-58883333D01*
X81269104Y-58883333D02*
X81411961Y-58930952D01*
X81411961Y-58930952D02*
X81507200Y-59026190D01*
X81507200Y-59026190D02*
X81554819Y-59169047D01*
X81554819Y-59169047D02*
X81554819Y-59264285D01*
X80983390Y-58264285D02*
X80935771Y-58359523D01*
X80935771Y-58359523D02*
X80888152Y-58407142D01*
X80888152Y-58407142D02*
X80792914Y-58454761D01*
X80792914Y-58454761D02*
X80745295Y-58454761D01*
X80745295Y-58454761D02*
X80650057Y-58407142D01*
X80650057Y-58407142D02*
X80602438Y-58359523D01*
X80602438Y-58359523D02*
X80554819Y-58264285D01*
X80554819Y-58264285D02*
X80554819Y-58073809D01*
X80554819Y-58073809D02*
X80602438Y-57978571D01*
X80602438Y-57978571D02*
X80650057Y-57930952D01*
X80650057Y-57930952D02*
X80745295Y-57883333D01*
X80745295Y-57883333D02*
X80792914Y-57883333D01*
X80792914Y-57883333D02*
X80888152Y-57930952D01*
X80888152Y-57930952D02*
X80935771Y-57978571D01*
X80935771Y-57978571D02*
X80983390Y-58073809D01*
X80983390Y-58073809D02*
X80983390Y-58264285D01*
X80983390Y-58264285D02*
X81031009Y-58359523D01*
X81031009Y-58359523D02*
X81078628Y-58407142D01*
X81078628Y-58407142D02*
X81173866Y-58454761D01*
X81173866Y-58454761D02*
X81364342Y-58454761D01*
X81364342Y-58454761D02*
X81459580Y-58407142D01*
X81459580Y-58407142D02*
X81507200Y-58359523D01*
X81507200Y-58359523D02*
X81554819Y-58264285D01*
X81554819Y-58264285D02*
X81554819Y-58073809D01*
X81554819Y-58073809D02*
X81507200Y-57978571D01*
X81507200Y-57978571D02*
X81459580Y-57930952D01*
X81459580Y-57930952D02*
X81364342Y-57883333D01*
X81364342Y-57883333D02*
X81173866Y-57883333D01*
X81173866Y-57883333D02*
X81078628Y-57930952D01*
X81078628Y-57930952D02*
X81031009Y-57978571D01*
X81031009Y-57978571D02*
X80983390Y-58073809D01*
X49156666Y-94454819D02*
X49156666Y-95169104D01*
X49156666Y-95169104D02*
X49109047Y-95311961D01*
X49109047Y-95311961D02*
X49013809Y-95407200D01*
X49013809Y-95407200D02*
X48870952Y-95454819D01*
X48870952Y-95454819D02*
X48775714Y-95454819D01*
X50109047Y-94454819D02*
X49632857Y-94454819D01*
X49632857Y-94454819D02*
X49585238Y-94931009D01*
X49585238Y-94931009D02*
X49632857Y-94883390D01*
X49632857Y-94883390D02*
X49728095Y-94835771D01*
X49728095Y-94835771D02*
X49966190Y-94835771D01*
X49966190Y-94835771D02*
X50061428Y-94883390D01*
X50061428Y-94883390D02*
X50109047Y-94931009D01*
X50109047Y-94931009D02*
X50156666Y-95026247D01*
X50156666Y-95026247D02*
X50156666Y-95264342D01*
X50156666Y-95264342D02*
X50109047Y-95359580D01*
X50109047Y-95359580D02*
X50061428Y-95407200D01*
X50061428Y-95407200D02*
X49966190Y-95454819D01*
X49966190Y-95454819D02*
X49728095Y-95454819D01*
X49728095Y-95454819D02*
X49632857Y-95407200D01*
X49632857Y-95407200D02*
X49585238Y-95359580D01*
X80654819Y-85333333D02*
X81369104Y-85333333D01*
X81369104Y-85333333D02*
X81511961Y-85380952D01*
X81511961Y-85380952D02*
X81607200Y-85476190D01*
X81607200Y-85476190D02*
X81654819Y-85619047D01*
X81654819Y-85619047D02*
X81654819Y-85714285D01*
X81654819Y-84809523D02*
X81654819Y-84619047D01*
X81654819Y-84619047D02*
X81607200Y-84523809D01*
X81607200Y-84523809D02*
X81559580Y-84476190D01*
X81559580Y-84476190D02*
X81416723Y-84380952D01*
X81416723Y-84380952D02*
X81226247Y-84333333D01*
X81226247Y-84333333D02*
X80845295Y-84333333D01*
X80845295Y-84333333D02*
X80750057Y-84380952D01*
X80750057Y-84380952D02*
X80702438Y-84428571D01*
X80702438Y-84428571D02*
X80654819Y-84523809D01*
X80654819Y-84523809D02*
X80654819Y-84714285D01*
X80654819Y-84714285D02*
X80702438Y-84809523D01*
X80702438Y-84809523D02*
X80750057Y-84857142D01*
X80750057Y-84857142D02*
X80845295Y-84904761D01*
X80845295Y-84904761D02*
X81083390Y-84904761D01*
X81083390Y-84904761D02*
X81178628Y-84857142D01*
X81178628Y-84857142D02*
X81226247Y-84809523D01*
X81226247Y-84809523D02*
X81273866Y-84714285D01*
X81273866Y-84714285D02*
X81273866Y-84523809D01*
X81273866Y-84523809D02*
X81226247Y-84428571D01*
X81226247Y-84428571D02*
X81178628Y-84380952D01*
X81178628Y-84380952D02*
X81083390Y-84333333D01*
X80254819Y-28309523D02*
X80969104Y-28309523D01*
X80969104Y-28309523D02*
X81111961Y-28357142D01*
X81111961Y-28357142D02*
X81207200Y-28452380D01*
X81207200Y-28452380D02*
X81254819Y-28595237D01*
X81254819Y-28595237D02*
X81254819Y-28690475D01*
X81254819Y-27309523D02*
X81254819Y-27880951D01*
X81254819Y-27595237D02*
X80254819Y-27595237D01*
X80254819Y-27595237D02*
X80397676Y-27690475D01*
X80397676Y-27690475D02*
X80492914Y-27785713D01*
X80492914Y-27785713D02*
X80540533Y-27880951D01*
X80350057Y-26928570D02*
X80302438Y-26880951D01*
X80302438Y-26880951D02*
X80254819Y-26785713D01*
X80254819Y-26785713D02*
X80254819Y-26547618D01*
X80254819Y-26547618D02*
X80302438Y-26452380D01*
X80302438Y-26452380D02*
X80350057Y-26404761D01*
X80350057Y-26404761D02*
X80445295Y-26357142D01*
X80445295Y-26357142D02*
X80540533Y-26357142D01*
X80540533Y-26357142D02*
X80683390Y-26404761D01*
X80683390Y-26404761D02*
X81254819Y-26976189D01*
X81254819Y-26976189D02*
X81254819Y-26357142D01*
X51788095Y-65054819D02*
X52359523Y-65054819D01*
X52073809Y-66054819D02*
X52073809Y-65054819D01*
X52692857Y-66054819D02*
X52692857Y-65054819D01*
X52692857Y-65054819D02*
X53073809Y-65054819D01*
X53073809Y-65054819D02*
X53169047Y-65102438D01*
X53169047Y-65102438D02*
X53216666Y-65150057D01*
X53216666Y-65150057D02*
X53264285Y-65245295D01*
X53264285Y-65245295D02*
X53264285Y-65388152D01*
X53264285Y-65388152D02*
X53216666Y-65483390D01*
X53216666Y-65483390D02*
X53169047Y-65531009D01*
X53169047Y-65531009D02*
X53073809Y-65578628D01*
X53073809Y-65578628D02*
X52692857Y-65578628D01*
X53645238Y-65150057D02*
X53692857Y-65102438D01*
X53692857Y-65102438D02*
X53788095Y-65054819D01*
X53788095Y-65054819D02*
X54026190Y-65054819D01*
X54026190Y-65054819D02*
X54121428Y-65102438D01*
X54121428Y-65102438D02*
X54169047Y-65150057D01*
X54169047Y-65150057D02*
X54216666Y-65245295D01*
X54216666Y-65245295D02*
X54216666Y-65340533D01*
X54216666Y-65340533D02*
X54169047Y-65483390D01*
X54169047Y-65483390D02*
X53597619Y-66054819D01*
X53597619Y-66054819D02*
X54216666Y-66054819D01*
X80754819Y-32133333D02*
X81469104Y-32133333D01*
X81469104Y-32133333D02*
X81611961Y-32180952D01*
X81611961Y-32180952D02*
X81707200Y-32276190D01*
X81707200Y-32276190D02*
X81754819Y-32419047D01*
X81754819Y-32419047D02*
X81754819Y-32514285D01*
X81088152Y-31228571D02*
X81754819Y-31228571D01*
X80707200Y-31466666D02*
X81421485Y-31704761D01*
X81421485Y-31704761D02*
X81421485Y-31085714D01*
X39145180Y-67990476D02*
X38430895Y-67990476D01*
X38430895Y-67990476D02*
X38288038Y-67942857D01*
X38288038Y-67942857D02*
X38192800Y-67847619D01*
X38192800Y-67847619D02*
X38145180Y-67704762D01*
X38145180Y-67704762D02*
X38145180Y-67609524D01*
X38145180Y-68990476D02*
X38145180Y-68419048D01*
X38145180Y-68704762D02*
X39145180Y-68704762D01*
X39145180Y-68704762D02*
X39002323Y-68609524D01*
X39002323Y-68609524D02*
X38907085Y-68514286D01*
X38907085Y-68514286D02*
X38859466Y-68419048D01*
X39145180Y-69609524D02*
X39145180Y-69704762D01*
X39145180Y-69704762D02*
X39097561Y-69800000D01*
X39097561Y-69800000D02*
X39049942Y-69847619D01*
X39049942Y-69847619D02*
X38954704Y-69895238D01*
X38954704Y-69895238D02*
X38764228Y-69942857D01*
X38764228Y-69942857D02*
X38526133Y-69942857D01*
X38526133Y-69942857D02*
X38335657Y-69895238D01*
X38335657Y-69895238D02*
X38240419Y-69847619D01*
X38240419Y-69847619D02*
X38192800Y-69800000D01*
X38192800Y-69800000D02*
X38145180Y-69704762D01*
X38145180Y-69704762D02*
X38145180Y-69609524D01*
X38145180Y-69609524D02*
X38192800Y-69514286D01*
X38192800Y-69514286D02*
X38240419Y-69466667D01*
X38240419Y-69466667D02*
X38335657Y-69419048D01*
X38335657Y-69419048D02*
X38526133Y-69371429D01*
X38526133Y-69371429D02*
X38764228Y-69371429D01*
X38764228Y-69371429D02*
X38954704Y-69419048D01*
X38954704Y-69419048D02*
X39049942Y-69466667D01*
X39049942Y-69466667D02*
X39097561Y-69514286D01*
X39097561Y-69514286D02*
X39145180Y-69609524D01*
X37754819Y-65861904D02*
X37754819Y-65290476D01*
X38754819Y-65576190D02*
X37754819Y-65576190D01*
X38754819Y-64957142D02*
X37754819Y-64957142D01*
X37754819Y-64957142D02*
X37754819Y-64576190D01*
X37754819Y-64576190D02*
X37802438Y-64480952D01*
X37802438Y-64480952D02*
X37850057Y-64433333D01*
X37850057Y-64433333D02*
X37945295Y-64385714D01*
X37945295Y-64385714D02*
X38088152Y-64385714D01*
X38088152Y-64385714D02*
X38183390Y-64433333D01*
X38183390Y-64433333D02*
X38231009Y-64480952D01*
X38231009Y-64480952D02*
X38278628Y-64576190D01*
X38278628Y-64576190D02*
X38278628Y-64957142D01*
X38754819Y-63909523D02*
X38754819Y-63719047D01*
X38754819Y-63719047D02*
X38707200Y-63623809D01*
X38707200Y-63623809D02*
X38659580Y-63576190D01*
X38659580Y-63576190D02*
X38516723Y-63480952D01*
X38516723Y-63480952D02*
X38326247Y-63433333D01*
X38326247Y-63433333D02*
X37945295Y-63433333D01*
X37945295Y-63433333D02*
X37850057Y-63480952D01*
X37850057Y-63480952D02*
X37802438Y-63528571D01*
X37802438Y-63528571D02*
X37754819Y-63623809D01*
X37754819Y-63623809D02*
X37754819Y-63814285D01*
X37754819Y-63814285D02*
X37802438Y-63909523D01*
X37802438Y-63909523D02*
X37850057Y-63957142D01*
X37850057Y-63957142D02*
X37945295Y-64004761D01*
X37945295Y-64004761D02*
X38183390Y-64004761D01*
X38183390Y-64004761D02*
X38278628Y-63957142D01*
X38278628Y-63957142D02*
X38326247Y-63909523D01*
X38326247Y-63909523D02*
X38373866Y-63814285D01*
X38373866Y-63814285D02*
X38373866Y-63623809D01*
X38373866Y-63623809D02*
X38326247Y-63528571D01*
X38326247Y-63528571D02*
X38278628Y-63480952D01*
X38278628Y-63480952D02*
X38183390Y-63433333D01*
X80554819Y-69333333D02*
X81269104Y-69333333D01*
X81269104Y-69333333D02*
X81411961Y-69380952D01*
X81411961Y-69380952D02*
X81507200Y-69476190D01*
X81507200Y-69476190D02*
X81554819Y-69619047D01*
X81554819Y-69619047D02*
X81554819Y-69714285D01*
X81554819Y-68333333D02*
X81554819Y-68904761D01*
X81554819Y-68619047D02*
X80554819Y-68619047D01*
X80554819Y-68619047D02*
X80697676Y-68714285D01*
X80697676Y-68714285D02*
X80792914Y-68809523D01*
X80792914Y-68809523D02*
X80840533Y-68904761D01*
X65288095Y-55954819D02*
X65859523Y-55954819D01*
X65573809Y-56954819D02*
X65573809Y-55954819D01*
X66192857Y-56954819D02*
X66192857Y-55954819D01*
X66192857Y-55954819D02*
X66573809Y-55954819D01*
X66573809Y-55954819D02*
X66669047Y-56002438D01*
X66669047Y-56002438D02*
X66716666Y-56050057D01*
X66716666Y-56050057D02*
X66764285Y-56145295D01*
X66764285Y-56145295D02*
X66764285Y-56288152D01*
X66764285Y-56288152D02*
X66716666Y-56383390D01*
X66716666Y-56383390D02*
X66669047Y-56431009D01*
X66669047Y-56431009D02*
X66573809Y-56478628D01*
X66573809Y-56478628D02*
X66192857Y-56478628D01*
X67716666Y-56954819D02*
X67145238Y-56954819D01*
X67430952Y-56954819D02*
X67430952Y-55954819D01*
X67430952Y-55954819D02*
X67335714Y-56097676D01*
X67335714Y-56097676D02*
X67240476Y-56192914D01*
X67240476Y-56192914D02*
X67145238Y-56240533D01*
X65338095Y-63754819D02*
X65909523Y-63754819D01*
X65623809Y-64754819D02*
X65623809Y-63754819D01*
X66242857Y-64754819D02*
X66242857Y-63754819D01*
X66242857Y-63754819D02*
X66623809Y-63754819D01*
X66623809Y-63754819D02*
X66719047Y-63802438D01*
X66719047Y-63802438D02*
X66766666Y-63850057D01*
X66766666Y-63850057D02*
X66814285Y-63945295D01*
X66814285Y-63945295D02*
X66814285Y-64088152D01*
X66814285Y-64088152D02*
X66766666Y-64183390D01*
X66766666Y-64183390D02*
X66719047Y-64231009D01*
X66719047Y-64231009D02*
X66623809Y-64278628D01*
X66623809Y-64278628D02*
X66242857Y-64278628D01*
X67147619Y-63754819D02*
X67814285Y-63754819D01*
X67814285Y-63754819D02*
X67385714Y-64754819D01*
X40716666Y-42354819D02*
X40716666Y-43069104D01*
X40716666Y-43069104D02*
X40669047Y-43211961D01*
X40669047Y-43211961D02*
X40573809Y-43307200D01*
X40573809Y-43307200D02*
X40430952Y-43354819D01*
X40430952Y-43354819D02*
X40335714Y-43354819D01*
X41192857Y-43354819D02*
X41192857Y-42354819D01*
X41192857Y-42354819D02*
X41573809Y-42354819D01*
X41573809Y-42354819D02*
X41669047Y-42402438D01*
X41669047Y-42402438D02*
X41716666Y-42450057D01*
X41716666Y-42450057D02*
X41764285Y-42545295D01*
X41764285Y-42545295D02*
X41764285Y-42688152D01*
X41764285Y-42688152D02*
X41716666Y-42783390D01*
X41716666Y-42783390D02*
X41669047Y-42831009D01*
X41669047Y-42831009D02*
X41573809Y-42878628D01*
X41573809Y-42878628D02*
X41192857Y-42878628D01*
X42716666Y-43354819D02*
X42145238Y-43354819D01*
X42430952Y-43354819D02*
X42430952Y-42354819D01*
X42430952Y-42354819D02*
X42335714Y-42497676D01*
X42335714Y-42497676D02*
X42240476Y-42592914D01*
X42240476Y-42592914D02*
X42145238Y-42640533D01*
X77838095Y-67254819D02*
X78409523Y-67254819D01*
X78123809Y-68254819D02*
X78123809Y-67254819D01*
X78742857Y-68254819D02*
X78742857Y-67254819D01*
X78742857Y-67254819D02*
X79123809Y-67254819D01*
X79123809Y-67254819D02*
X79219047Y-67302438D01*
X79219047Y-67302438D02*
X79266666Y-67350057D01*
X79266666Y-67350057D02*
X79314285Y-67445295D01*
X79314285Y-67445295D02*
X79314285Y-67588152D01*
X79314285Y-67588152D02*
X79266666Y-67683390D01*
X79266666Y-67683390D02*
X79219047Y-67731009D01*
X79219047Y-67731009D02*
X79123809Y-67778628D01*
X79123809Y-67778628D02*
X78742857Y-67778628D01*
X79885714Y-67683390D02*
X79790476Y-67635771D01*
X79790476Y-67635771D02*
X79742857Y-67588152D01*
X79742857Y-67588152D02*
X79695238Y-67492914D01*
X79695238Y-67492914D02*
X79695238Y-67445295D01*
X79695238Y-67445295D02*
X79742857Y-67350057D01*
X79742857Y-67350057D02*
X79790476Y-67302438D01*
X79790476Y-67302438D02*
X79885714Y-67254819D01*
X79885714Y-67254819D02*
X80076190Y-67254819D01*
X80076190Y-67254819D02*
X80171428Y-67302438D01*
X80171428Y-67302438D02*
X80219047Y-67350057D01*
X80219047Y-67350057D02*
X80266666Y-67445295D01*
X80266666Y-67445295D02*
X80266666Y-67492914D01*
X80266666Y-67492914D02*
X80219047Y-67588152D01*
X80219047Y-67588152D02*
X80171428Y-67635771D01*
X80171428Y-67635771D02*
X80076190Y-67683390D01*
X80076190Y-67683390D02*
X79885714Y-67683390D01*
X79885714Y-67683390D02*
X79790476Y-67731009D01*
X79790476Y-67731009D02*
X79742857Y-67778628D01*
X79742857Y-67778628D02*
X79695238Y-67873866D01*
X79695238Y-67873866D02*
X79695238Y-68064342D01*
X79695238Y-68064342D02*
X79742857Y-68159580D01*
X79742857Y-68159580D02*
X79790476Y-68207200D01*
X79790476Y-68207200D02*
X79885714Y-68254819D01*
X79885714Y-68254819D02*
X80076190Y-68254819D01*
X80076190Y-68254819D02*
X80171428Y-68207200D01*
X80171428Y-68207200D02*
X80219047Y-68159580D01*
X80219047Y-68159580D02*
X80266666Y-68064342D01*
X80266666Y-68064342D02*
X80266666Y-67873866D01*
X80266666Y-67873866D02*
X80219047Y-67778628D01*
X80219047Y-67778628D02*
X80171428Y-67731009D01*
X80171428Y-67731009D02*
X80076190Y-67683390D01*
X77566666Y-42444819D02*
X77566666Y-43159104D01*
X77566666Y-43159104D02*
X77519047Y-43301961D01*
X77519047Y-43301961D02*
X77423809Y-43397200D01*
X77423809Y-43397200D02*
X77280952Y-43444819D01*
X77280952Y-43444819D02*
X77185714Y-43444819D01*
X78042857Y-43444819D02*
X78042857Y-42444819D01*
X78042857Y-42444819D02*
X78423809Y-42444819D01*
X78423809Y-42444819D02*
X78519047Y-42492438D01*
X78519047Y-42492438D02*
X78566666Y-42540057D01*
X78566666Y-42540057D02*
X78614285Y-42635295D01*
X78614285Y-42635295D02*
X78614285Y-42778152D01*
X78614285Y-42778152D02*
X78566666Y-42873390D01*
X78566666Y-42873390D02*
X78519047Y-42921009D01*
X78519047Y-42921009D02*
X78423809Y-42968628D01*
X78423809Y-42968628D02*
X78042857Y-42968628D01*
X78995238Y-42540057D02*
X79042857Y-42492438D01*
X79042857Y-42492438D02*
X79138095Y-42444819D01*
X79138095Y-42444819D02*
X79376190Y-42444819D01*
X79376190Y-42444819D02*
X79471428Y-42492438D01*
X79471428Y-42492438D02*
X79519047Y-42540057D01*
X79519047Y-42540057D02*
X79566666Y-42635295D01*
X79566666Y-42635295D02*
X79566666Y-42730533D01*
X79566666Y-42730533D02*
X79519047Y-42873390D01*
X79519047Y-42873390D02*
X78947619Y-43444819D01*
X78947619Y-43444819D02*
X79566666Y-43444819D01*
X51888095Y-59854819D02*
X52459523Y-59854819D01*
X52173809Y-60854819D02*
X52173809Y-59854819D01*
X52792857Y-60854819D02*
X52792857Y-59854819D01*
X52792857Y-59854819D02*
X53173809Y-59854819D01*
X53173809Y-59854819D02*
X53269047Y-59902438D01*
X53269047Y-59902438D02*
X53316666Y-59950057D01*
X53316666Y-59950057D02*
X53364285Y-60045295D01*
X53364285Y-60045295D02*
X53364285Y-60188152D01*
X53364285Y-60188152D02*
X53316666Y-60283390D01*
X53316666Y-60283390D02*
X53269047Y-60331009D01*
X53269047Y-60331009D02*
X53173809Y-60378628D01*
X53173809Y-60378628D02*
X52792857Y-60378628D01*
X54221428Y-59854819D02*
X54030952Y-59854819D01*
X54030952Y-59854819D02*
X53935714Y-59902438D01*
X53935714Y-59902438D02*
X53888095Y-59950057D01*
X53888095Y-59950057D02*
X53792857Y-60092914D01*
X53792857Y-60092914D02*
X53745238Y-60283390D01*
X53745238Y-60283390D02*
X53745238Y-60664342D01*
X53745238Y-60664342D02*
X53792857Y-60759580D01*
X53792857Y-60759580D02*
X53840476Y-60807200D01*
X53840476Y-60807200D02*
X53935714Y-60854819D01*
X53935714Y-60854819D02*
X54126190Y-60854819D01*
X54126190Y-60854819D02*
X54221428Y-60807200D01*
X54221428Y-60807200D02*
X54269047Y-60759580D01*
X54269047Y-60759580D02*
X54316666Y-60664342D01*
X54316666Y-60664342D02*
X54316666Y-60426247D01*
X54316666Y-60426247D02*
X54269047Y-60331009D01*
X54269047Y-60331009D02*
X54221428Y-60283390D01*
X54221428Y-60283390D02*
X54126190Y-60235771D01*
X54126190Y-60235771D02*
X53935714Y-60235771D01*
X53935714Y-60235771D02*
X53840476Y-60283390D01*
X53840476Y-60283390D02*
X53792857Y-60331009D01*
X53792857Y-60331009D02*
X53745238Y-60426247D01*
D11*
%TO.C,C34*%
X63640000Y-45872164D02*
X63640000Y-46087836D01*
X64360000Y-45872164D02*
X64360000Y-46087836D01*
%TO.C,C2*%
X64740000Y-78592164D02*
X64740000Y-78807836D01*
X65460000Y-78592164D02*
X65460000Y-78807836D01*
%TO.C,Y1*%
X51990000Y-73990000D02*
X51990000Y-76810000D01*
X54410000Y-73990000D02*
X51990000Y-73990000D01*
%TO.C,R11*%
X46346359Y-66520000D02*
X46653641Y-66520000D01*
X46346359Y-67280000D02*
X46653641Y-67280000D01*
%TO.C,C11*%
X54407836Y-69215000D02*
X54192164Y-69215000D01*
X54407836Y-69935000D02*
X54192164Y-69935000D01*
%TO.C,C36*%
X50708124Y-33617569D02*
X50492452Y-33617569D01*
X50708124Y-34337569D02*
X50492452Y-34337569D01*
%TO.C,C8*%
X65692164Y-70340000D02*
X65907836Y-70340000D01*
X65692164Y-71060000D02*
X65907836Y-71060000D01*
%TO.C,C1*%
X64744541Y-76625210D02*
X64744541Y-76840882D01*
X65464541Y-76625210D02*
X65464541Y-76840882D01*
%TO.C,J2*%
D12*
X37332000Y-31458000D02*
X33268000Y-31458000D01*
X33268000Y-43142000D01*
X37332000Y-43142000D01*
X37332000Y-31458000D01*
D11*
%TO.C,C20*%
X38840000Y-85992164D02*
X38840000Y-86207836D01*
X39560000Y-85992164D02*
X39560000Y-86207836D01*
%TO.C,U5*%
X42440000Y-60250000D02*
X42440000Y-59450000D01*
X42440000Y-60250000D02*
X42440000Y-61050000D01*
X45560000Y-60250000D02*
X45560000Y-59450000D01*
X45560000Y-60250000D02*
X45560000Y-61050000D01*
X42490000Y-61550000D02*
X42160000Y-61790000D01*
X42160000Y-61310000D01*
X42490000Y-61550000D01*
G36*
X42490000Y-61550000D02*
G01*
X42160000Y-61790000D01*
X42160000Y-61310000D01*
X42490000Y-61550000D01*
G37*
%TO.C,J3*%
X65050000Y-92550000D02*
X65050000Y-91370000D01*
X65115000Y-88920000D02*
X71685000Y-88920000D01*
X65115000Y-89782077D02*
X65115000Y-88920000D01*
X65860000Y-92550000D02*
X65050000Y-92550000D01*
X66670000Y-92550000D02*
X66670000Y-92036708D01*
X66670000Y-92550000D02*
X71685000Y-92550000D01*
X71685000Y-89782077D02*
X71685000Y-88920000D01*
X71685000Y-91052077D02*
X71685000Y-90417923D01*
X71685000Y-92550000D02*
X71685000Y-91687923D01*
%TO.C,C27*%
X40585204Y-62394121D02*
X40585204Y-62178449D01*
X41305204Y-62394121D02*
X41305204Y-62178449D01*
%TO.C,R15*%
X72163241Y-55502299D02*
X72163241Y-55027783D01*
X73208241Y-55502299D02*
X73208241Y-55027783D01*
%TO.C,U1*%
X55840000Y-69465000D02*
X55840000Y-69180000D01*
X55840000Y-77160000D02*
X55840000Y-76635000D01*
X56365000Y-68940000D02*
X56140000Y-68940000D01*
X56365000Y-77160000D02*
X55840000Y-77160000D01*
X63535000Y-68940000D02*
X64060000Y-68940000D01*
X63535000Y-77160000D02*
X64060000Y-77160000D01*
X64060000Y-68940000D02*
X64060000Y-69465000D01*
X64060000Y-77160000D02*
X64060000Y-76635000D01*
X55840000Y-68940000D02*
X55600000Y-68610000D01*
X56080000Y-68610000D01*
X55840000Y-68940000D01*
G36*
X55840000Y-68940000D02*
G01*
X55600000Y-68610000D01*
X56080000Y-68610000D01*
X55840000Y-68940000D01*
G37*
%TO.C,J14*%
X55890000Y-24160000D02*
X55890000Y-23900000D01*
X55890000Y-28210000D02*
X55890000Y-26440000D01*
X55890000Y-28210000D02*
X56270000Y-28210000D01*
X63510000Y-23900000D02*
X63510000Y-24160000D01*
X63510000Y-26440000D02*
X63510000Y-28210000D01*
X63510000Y-28210000D02*
X63130000Y-28210000D01*
%TO.C,R19*%
X75396359Y-42870000D02*
X75703641Y-42870000D01*
X75396359Y-43630000D02*
X75703641Y-43630000D01*
%TO.C,C7*%
X63740000Y-78592164D02*
X63740000Y-78807836D01*
X64460000Y-78592164D02*
X64460000Y-78807836D01*
%TO.C,R22*%
X54370000Y-40366359D02*
X54370000Y-40673641D01*
X55130000Y-40366359D02*
X55130000Y-40673641D01*
%TO.C,TP10*%
X81350000Y-63900000D02*
G75*
G02*
X79450000Y-63900000I-950000J0D01*
G01*
X79450000Y-63900000D02*
G75*
G02*
X81350000Y-63900000I950000J0D01*
G01*
%TO.C,C10*%
X54307836Y-72540000D02*
X54092164Y-72540000D01*
X54307836Y-73260000D02*
X54092164Y-73260000D01*
%TO.C,U7*%
X60000000Y-35110000D02*
X63760000Y-35110000D01*
X60000000Y-41930000D02*
X63760000Y-41930000D01*
X63760000Y-35110000D02*
X63760000Y-36370000D01*
X63760000Y-41930000D02*
X63760000Y-40670000D01*
X58697500Y-35400000D02*
X58457500Y-35070000D01*
X58937500Y-35070000D01*
X58697500Y-35400000D01*
G36*
X58697500Y-35400000D02*
G01*
X58457500Y-35070000D01*
X58937500Y-35070000D01*
X58697500Y-35400000D01*
G37*
%TO.C,J7*%
D12*
X33268000Y-62398000D02*
X37332000Y-62398000D01*
X37332000Y-43602000D01*
X33268000Y-43602000D01*
X33268000Y-62398000D01*
%TO.C,J13*%
X33268000Y-86942000D02*
X37332000Y-86942000D01*
X37332000Y-75258000D01*
X33268000Y-75258000D01*
X33268000Y-86942000D01*
D11*
%TO.C,C17*%
X80140000Y-73892164D02*
X80140000Y-74107836D01*
X80860000Y-73892164D02*
X80860000Y-74107836D01*
%TO.C,R2*%
X37446359Y-90520000D02*
X37753641Y-90520000D01*
X37446359Y-91280000D02*
X37753641Y-91280000D01*
%TO.C,D3*%
X53765000Y-42220000D02*
X53765000Y-44505000D01*
X53765000Y-44505000D02*
X55235000Y-44505000D01*
X55235000Y-44505000D02*
X55235000Y-42220000D01*
%TO.C,J6*%
D12*
X39858000Y-25268000D02*
X51542000Y-25268000D01*
X51542000Y-29332000D01*
X39858000Y-29332000D01*
X39858000Y-25268000D01*
D11*
%TO.C,R16*%
X40664179Y-59986454D02*
X40664179Y-59511938D01*
X41709179Y-59986454D02*
X41709179Y-59511938D01*
%TO.C,C4*%
X62740000Y-78592164D02*
X62740000Y-78807836D01*
X63460000Y-78592164D02*
X63460000Y-78807836D01*
%TO.C,C40*%
X58999939Y-33290615D02*
X59215611Y-33290615D01*
X58999939Y-34010615D02*
X59215611Y-34010615D01*
%TO.C,C23*%
X40157599Y-64630298D02*
X40157599Y-64911458D01*
X41177599Y-64630298D02*
X41177599Y-64911458D01*
%TO.C,D1*%
X34200000Y-91635000D02*
X36485000Y-91635000D01*
X36485000Y-90165000D02*
X34200000Y-90165000D01*
X36485000Y-91635000D02*
X36485000Y-90165000D01*
%TO.C,C16*%
X53374103Y-77064557D02*
X53158431Y-77064557D01*
X53374103Y-77784557D02*
X53158431Y-77784557D01*
%TO.C,C14*%
X51002519Y-75074453D02*
X51002519Y-75290125D01*
X51722519Y-75074453D02*
X51722519Y-75290125D01*
%TO.C,R1*%
X58645000Y-67328641D02*
X58645000Y-67021359D01*
X59405000Y-67328641D02*
X59405000Y-67021359D01*
D10*
%TO.C,U2*%
X42875000Y-62875000D02*
X42875000Y-63100000D01*
X42875000Y-66125000D02*
X42875000Y-65900000D01*
X46125000Y-62875000D02*
X42875000Y-62875000D01*
X46125000Y-62875000D02*
X46125000Y-63100000D01*
X46125000Y-66125000D02*
X42875000Y-66125000D01*
X46125000Y-66125000D02*
X46125000Y-65900000D01*
D11*
X46840000Y-66230000D02*
X46360000Y-66230000D01*
X46600000Y-65900000D01*
X46840000Y-66230000D01*
G36*
X46840000Y-66230000D02*
G01*
X46360000Y-66230000D01*
X46600000Y-65900000D01*
X46840000Y-66230000D01*
G37*
%TO.C,C42*%
X50657836Y-39340000D02*
X50442164Y-39340000D01*
X50657836Y-40060000D02*
X50442164Y-40060000D01*
%TO.C,R13*%
X79220000Y-56853641D02*
X79220000Y-56546359D01*
X79980000Y-56853641D02*
X79980000Y-56546359D01*
%TO.C,R7*%
X65485402Y-87620000D02*
X65792684Y-87620000D01*
X65485402Y-88380000D02*
X65792684Y-88380000D01*
%TO.C,C44*%
X56390000Y-40412164D02*
X56390000Y-40627836D01*
X57110000Y-40412164D02*
X57110000Y-40627836D01*
%TO.C,D2*%
X34212500Y-93435000D02*
X36497500Y-93435000D01*
X36497500Y-91965000D02*
X34212500Y-91965000D01*
X36497500Y-93435000D02*
X36497500Y-91965000D01*
%TO.C,C9*%
X57787773Y-79317164D02*
X57787773Y-79532836D01*
X58507773Y-79317164D02*
X58507773Y-79532836D01*
%TO.C,RV2*%
X38390000Y-53166481D02*
X39670000Y-53166481D01*
X38390000Y-56886481D02*
X38390000Y-53166481D01*
X38770000Y-56886481D02*
X38390000Y-56886481D01*
X41270000Y-56886481D02*
X40530000Y-56886481D01*
X42130000Y-53166481D02*
X43410000Y-53166481D01*
X43410000Y-53166481D02*
X43410000Y-56886481D01*
X43410000Y-56886481D02*
X43030000Y-56886481D01*
%TO.C,C43*%
X61657833Y-45862198D02*
X61657833Y-46077870D01*
X62377833Y-45862198D02*
X62377833Y-46077870D01*
%TO.C,J11*%
D12*
X60102000Y-96068000D02*
X78898000Y-96068000D01*
X78898000Y-100132000D01*
X60102000Y-100132000D01*
X60102000Y-96068000D01*
D11*
%TO.C,R9*%
X37820000Y-73646359D02*
X37820000Y-73953641D01*
X38580000Y-73646359D02*
X38580000Y-73953641D01*
%TO.C,TP5*%
X51450000Y-63000000D02*
G75*
G02*
X49550000Y-63000000I-950000J0D01*
G01*
X49550000Y-63000000D02*
G75*
G02*
X51450000Y-63000000I950000J0D01*
G01*
%TO.C,C13*%
X54490000Y-66665580D02*
X54490000Y-66384420D01*
X55510000Y-66665580D02*
X55510000Y-66384420D01*
%TO.C,C15*%
X54740000Y-87907836D02*
X54740000Y-87692164D01*
X55460000Y-87907836D02*
X55460000Y-87692164D01*
%TO.C,C19*%
X38840000Y-73692164D02*
X38840000Y-73907836D01*
X39560000Y-73692164D02*
X39560000Y-73907836D01*
%TO.C,TP3*%
X70050000Y-59100000D02*
G75*
G02*
X68150000Y-59100000I-950000J0D01*
G01*
X68150000Y-59100000D02*
G75*
G02*
X70050000Y-59100000I950000J0D01*
G01*
%TO.C,R17*%
X77164848Y-54832342D02*
X77164848Y-54525060D01*
X77924848Y-54832342D02*
X77924848Y-54525060D01*
%TO.C,TP4*%
X70050000Y-61700000D02*
G75*
G02*
X68150000Y-61700000I-950000J0D01*
G01*
X68150000Y-61700000D02*
G75*
G02*
X70050000Y-61700000I950000J0D01*
G01*
%TO.C,R20*%
X45720000Y-49478641D02*
X45720000Y-49171359D01*
X46480000Y-49478641D02*
X46480000Y-49171359D01*
%TO.C,R8*%
X40853641Y-29720000D02*
X40546359Y-29720000D01*
X40853641Y-30480000D02*
X40546359Y-30480000D01*
%TO.C,J8*%
D12*
X82268000Y-62398000D02*
X86332000Y-62398000D01*
X86332000Y-43602000D01*
X82268000Y-43602000D01*
X82268000Y-62398000D01*
D11*
%TO.C,R21*%
X44720000Y-49171359D02*
X44720000Y-49478641D01*
X45480000Y-49171359D02*
X45480000Y-49478641D01*
%TO.C,C33*%
X56478197Y-37849415D02*
X56478197Y-38065087D01*
X57198197Y-37849415D02*
X57198197Y-38065087D01*
%TO.C,C39*%
X54478197Y-37849415D02*
X54478197Y-38065087D01*
X55198197Y-37849415D02*
X55198197Y-38065087D01*
%TO.C,C29*%
X71075741Y-55157205D02*
X71075741Y-55372877D01*
X71795741Y-55157205D02*
X71795741Y-55372877D01*
%TO.C,FB1*%
X57166470Y-32944513D02*
X57166470Y-33251795D01*
X57926470Y-32944513D02*
X57926470Y-33251795D01*
%TO.C,R10*%
X37820000Y-85946359D02*
X37820000Y-86253641D01*
X38580000Y-85946359D02*
X38580000Y-86253641D01*
%TO.C,C30*%
X39529524Y-59646472D02*
X39529524Y-59862144D01*
X40249524Y-59646472D02*
X40249524Y-59862144D01*
%TO.C,C31*%
X73590000Y-46761252D02*
X73590000Y-45338748D01*
X76310000Y-46761252D02*
X76310000Y-45338748D01*
%TO.C,C22*%
X73924962Y-63051892D02*
X73924962Y-63267564D01*
X74644962Y-63051892D02*
X74644962Y-63267564D01*
%TO.C,J5*%
D12*
X40102000Y-96068000D02*
X58898000Y-96068000D01*
X58898000Y-100132000D01*
X40102000Y-100132000D01*
X40102000Y-96068000D01*
%TO.C,J9*%
X82368000Y-94398000D02*
X86432000Y-94398000D01*
X86432000Y-75602000D01*
X82368000Y-75602000D01*
X82368000Y-94398000D01*
D11*
%TO.C,R6*%
X67753641Y-87620000D02*
X67446359Y-87620000D01*
X67753641Y-88380000D02*
X67446359Y-88380000D01*
%TO.C,RV1*%
X43763621Y-53163561D02*
X45043621Y-53163561D01*
X43763621Y-56883561D02*
X43763621Y-53163561D01*
X44143621Y-56883561D02*
X43763621Y-56883561D01*
X46643621Y-56883561D02*
X45903621Y-56883561D01*
X47503621Y-53163561D02*
X48783621Y-53163561D01*
X48783621Y-53163561D02*
X48783621Y-56883561D01*
X48783621Y-56883561D02*
X48403621Y-56883561D01*
%TO.C,C5*%
X65692164Y-69340000D02*
X65907836Y-69340000D01*
X65692164Y-70060000D02*
X65907836Y-70060000D01*
%TO.C,R14*%
X78190167Y-56886503D02*
X78190167Y-56579221D01*
X78950167Y-56886503D02*
X78950167Y-56579221D01*
%TO.C,J12*%
X69080000Y-26120000D02*
X69080000Y-28880000D01*
X76810000Y-26120000D02*
X69080000Y-26120000D01*
X76810000Y-26120000D02*
X76810000Y-28880000D01*
X76810000Y-28880000D02*
X69080000Y-28880000D01*
X78080000Y-26120000D02*
X79460000Y-26120000D01*
X79460000Y-26120000D02*
X79460000Y-27500000D01*
%TO.C,C45*%
X55390000Y-40412164D02*
X55390000Y-40627836D01*
X56110000Y-40412164D02*
X56110000Y-40627836D01*
%TO.C,R12*%
X80220000Y-56546359D02*
X80220000Y-56853641D01*
X80980000Y-56546359D02*
X80980000Y-56853641D01*
%TO.C,C12*%
X55890000Y-67207836D02*
X55890000Y-66992164D01*
X56610000Y-67207836D02*
X56610000Y-66992164D01*
%TO.C,R18*%
X78346359Y-52870000D02*
X78653641Y-52870000D01*
X78346359Y-53630000D02*
X78653641Y-53630000D01*
%TO.C,C32*%
X43640000Y-46736252D02*
X43640000Y-45313748D01*
X46360000Y-46736252D02*
X46360000Y-45313748D01*
%TO.C,C25*%
X76890580Y-62195867D02*
X76609420Y-62195867D01*
X76890580Y-63215867D02*
X76609420Y-63215867D01*
%TO.C,C18*%
X40807836Y-30740000D02*
X40592164Y-30740000D01*
X40807836Y-31460000D02*
X40592164Y-31460000D01*
%TO.C,C26*%
X46169268Y-61219033D02*
X46169268Y-60937873D01*
X47189268Y-61219033D02*
X47189268Y-60937873D01*
%TO.C,TP2*%
X51450000Y-65600000D02*
G75*
G02*
X49550000Y-65600000I-950000J0D01*
G01*
X49550000Y-65600000D02*
G75*
G02*
X51450000Y-65600000I950000J0D01*
G01*
%TO.C,C6*%
X65692164Y-67340000D02*
X65907836Y-67340000D01*
X65692164Y-68060000D02*
X65907836Y-68060000D01*
%TO.C,J4*%
D12*
X86332000Y-31158000D02*
X82268000Y-31158000D01*
X82268000Y-42842000D01*
X86332000Y-42842000D01*
X86332000Y-31158000D01*
%TO.C,J10*%
X33268000Y-74642000D02*
X37332000Y-74642000D01*
X37332000Y-62958000D01*
X33268000Y-62958000D01*
X33268000Y-74642000D01*
D11*
%TO.C,R3*%
X53720000Y-87646359D02*
X53720000Y-87953641D01*
X54480000Y-87646359D02*
X54480000Y-87953641D01*
%TO.C,TP9*%
X39850000Y-62000000D02*
G75*
G02*
X37950000Y-62000000I-950000J0D01*
G01*
X37950000Y-62000000D02*
G75*
G02*
X39850000Y-62000000I950000J0D01*
G01*
%TO.C,J1*%
D12*
X82268000Y-74842000D02*
X86332000Y-74842000D01*
X86332000Y-63158000D01*
X82268000Y-63158000D01*
X82268000Y-74842000D01*
D11*
%TO.C,C35*%
X55478197Y-37849415D02*
X55478197Y-38065087D01*
X56198197Y-37849415D02*
X56198197Y-38065087D01*
%TO.C,TP1*%
X70050000Y-56500000D02*
G75*
G02*
X68150000Y-56500000I-950000J0D01*
G01*
X68150000Y-56500000D02*
G75*
G02*
X70050000Y-56500000I950000J0D01*
G01*
%TO.C,C21*%
X38992628Y-64395829D02*
X38992628Y-64611501D01*
X39712628Y-64395829D02*
X39712628Y-64611501D01*
%TO.C,C38*%
X62642157Y-45866117D02*
X62642157Y-46081789D01*
X63362157Y-45866117D02*
X63362157Y-46081789D01*
%TO.C,TP7*%
X70050000Y-64300000D02*
G75*
G02*
X68150000Y-64300000I-950000J0D01*
G01*
X68150000Y-64300000D02*
G75*
G02*
X70050000Y-64300000I950000J0D01*
G01*
%TO.C,U6*%
X48440000Y-36700000D02*
X48440000Y-35900000D01*
X48440000Y-36700000D02*
X48440000Y-37500000D01*
X51560000Y-36700000D02*
X51560000Y-35900000D01*
X51560000Y-36700000D02*
X51560000Y-37500000D01*
X51840000Y-35640000D02*
X51510000Y-35400000D01*
X51840000Y-35160000D01*
X51840000Y-35640000D01*
G36*
X51840000Y-35640000D02*
G01*
X51510000Y-35400000D01*
X51840000Y-35160000D01*
X51840000Y-35640000D01*
G37*
%TO.C,JP1*%
X40070000Y-49310000D02*
X40070000Y-44120000D01*
X42830000Y-44120000D02*
X40070000Y-44120000D01*
X42830000Y-49310000D02*
X40070000Y-49310000D01*
X42830000Y-49310000D02*
X42830000Y-44120000D01*
X42830000Y-50580000D02*
X42830000Y-51960000D01*
X42830000Y-51960000D02*
X41450000Y-51960000D01*
%TO.C,C37*%
X58999939Y-32275709D02*
X59215611Y-32275709D01*
X58999939Y-32995709D02*
X59215611Y-32995709D01*
%TO.C,C41*%
X59124763Y-42361370D02*
X59340435Y-42361370D01*
X59124763Y-43081370D02*
X59340435Y-43081370D01*
%TO.C,U4*%
X73690000Y-55594133D02*
X73690000Y-54794133D01*
X73690000Y-55594133D02*
X73690000Y-56394133D01*
X76810000Y-55594133D02*
X76810000Y-54794133D01*
X76810000Y-55594133D02*
X76810000Y-56394133D01*
X73740000Y-56894133D02*
X73410000Y-57134133D01*
X73410000Y-56654133D01*
X73740000Y-56894133D01*
G36*
X73740000Y-56894133D02*
G01*
X73410000Y-57134133D01*
X73410000Y-56654133D01*
X73740000Y-56894133D01*
G37*
%TO.C,C24*%
X72465297Y-63324567D02*
X72465297Y-63605727D01*
X73485297Y-63324567D02*
X73485297Y-63605727D01*
%TO.C,TP8*%
X80050000Y-66200000D02*
G75*
G02*
X78150000Y-66200000I-950000J0D01*
G01*
X78150000Y-66200000D02*
G75*
G02*
X80050000Y-66200000I950000J0D01*
G01*
%TO.C,SW1*%
X45790000Y-86990000D02*
X45790000Y-87400000D01*
X45790000Y-89000000D02*
X45790000Y-91400000D01*
X45790000Y-93000000D02*
X45790000Y-93410000D01*
X45790000Y-93410000D02*
X52210000Y-93410000D01*
X52210000Y-86990000D02*
X45790000Y-86990000D01*
X52210000Y-87400000D02*
X52210000Y-86990000D01*
X52210000Y-91400000D02*
X52210000Y-89000000D01*
X52210000Y-93410000D02*
X52210000Y-93130000D01*
%TO.C,C28*%
X77154396Y-56601433D02*
X77154396Y-56817105D01*
X77874396Y-56601433D02*
X77874396Y-56817105D01*
%TO.C,JP2*%
X77020000Y-49260000D02*
X77020000Y-44070000D01*
X79780000Y-44070000D02*
X77020000Y-44070000D01*
X79780000Y-49260000D02*
X77020000Y-49260000D01*
X79780000Y-49260000D02*
X79780000Y-44070000D01*
X79780000Y-50530000D02*
X79780000Y-51910000D01*
X79780000Y-51910000D02*
X78400000Y-51910000D01*
%TO.C,R4*%
X37458859Y-92320000D02*
X37766141Y-92320000D01*
X37458859Y-93080000D02*
X37766141Y-93080000D01*
D10*
%TO.C,U3*%
X73575000Y-58475000D02*
X73575000Y-58700000D01*
X73575000Y-58475000D02*
X76825000Y-58475000D01*
X73575000Y-61725000D02*
X73575000Y-61500000D01*
X73575000Y-61725000D02*
X76825000Y-61725000D01*
X76825000Y-58475000D02*
X76825000Y-58700000D01*
X76825000Y-61725000D02*
X76825000Y-61500000D01*
D11*
X73100000Y-58700000D02*
X72860000Y-58370000D01*
X73340000Y-58370000D01*
X73100000Y-58700000D01*
G36*
X73100000Y-58700000D02*
G01*
X72860000Y-58370000D01*
X73340000Y-58370000D01*
X73100000Y-58700000D01*
G37*
%TO.C,TP6*%
X51450000Y-60400000D02*
G75*
G02*
X49550000Y-60400000I-950000J0D01*
G01*
X49550000Y-60400000D02*
G75*
G02*
X51450000Y-60400000I950000J0D01*
G01*
%TO.C,C3*%
X65672164Y-68340000D02*
X65887836Y-68340000D01*
X65672164Y-69060000D02*
X65887836Y-69060000D01*
%TO.C,FB2*%
X62651377Y-44114147D02*
X62344095Y-44114147D01*
X62651377Y-44874147D02*
X62344095Y-44874147D01*
%TO.C,R5*%
X81120000Y-73846359D02*
X81120000Y-74153641D01*
X81880000Y-73846359D02*
X81880000Y-74153641D01*
%TD*%
M02*
