M48
; DRILL file {KiCad 9.0.6} date 2026-01-25T18:40:00+0100
; FORMAT={-:-/ absolute / metric / decimal}
; #@! TF.CreationDate,2026-01-25T18:40:00+01:00
; #@! TF.GenerationSoftware,Kicad,Pcbnew,9.0.6
; #@! TF.FileFunction,Plated,1,4,PTH
FMAT,2
METRIC
; #@! TA.AperFunction,Plated,PTH,ViaDrill
T1C0.400
; #@! TA.AperFunction,Plated,PTH,ComponentDrill
T2C0.650
; #@! TA.AperFunction,Plated,PTH,ComponentDrill
T3C1.000
; #@! TA.AperFunction,Plated,PTH,ComponentDrill
T4C1.550
%
G90
G05
T1
X32.7Y-91.8
X34.4Y-37.6
X35.1Y-49.7
X35.1Y-56.8
X35.1Y-81.0
X35.2Y-68.8
X35.3Y-88.5
X37.9Y-56.7
X38.0Y-29.1
X38.1Y-59.3
X38.2Y-63.9
X38.6Y-32.1
X38.6Y-98.4
X39.3Y-94.3
X39.6Y-67.2
X39.7Y-79.05
X39.9Y-83.7
X40.6Y-40.4
X40.6Y-72.2
X40.7Y-87.8
X40.9Y-74.3
X41.05Y-35.45
X41.4Y-85.2
X42.0Y-62.0
X42.6Y-69.4
X42.7Y-89.6
X43.4Y-79.2
X43.6Y-32.1
X44.31Y-65.75
X44.9Y-72.1
X45.15Y-94.3
X45.175Y-63.65
X45.225Y-64.65
X45.333Y-65.75
X45.4Y-79.7
X45.6Y-28.5
X45.9Y-74.4
X46.1Y-50.9
X46.2Y-68.6
X46.25Y-89.75
X46.25Y-98.3
X46.55Y-40.4
X47.4Y-83.9
X47.4Y-86.3
X47.65Y-38.55
X47.9Y-31.8
X48.1Y-59.1
X48.2Y-79.95
X48.6Y-63.3
X48.6Y-64.3
X48.6Y-65.273
X48.6Y-66.2
X49.0Y-42.75
X49.1Y-58.8
X49.15Y-52.35
X49.2Y-46.0
X49.2Y-50.25
X49.2Y-67.8
X49.5Y-73.6
X49.9Y-70.8
X50.0Y-30.3
X50.0Y-36.7
X50.0Y-37.85
X50.0Y-38.85
X50.1Y-41.1
X50.45Y-94.35
X51.4Y-82.9
X51.65Y-55.95
X51.65Y-59.1
X51.75Y-81.65
X51.9Y-45.9
X51.9Y-71.35
X52.0Y-96.9
X52.1Y-42.1
X52.1Y-50.3
X52.1Y-62.0
X52.1Y-63.8
X52.2Y-52.1
X52.2Y-99.2
X53.052Y-35.496
X53.052Y-36.396
X53.052Y-37.296
X53.052Y-38.496
X53.052Y-39.896
X53.625Y-67.3
X53.75Y-78.95
X53.9Y-35.5
X53.9Y-36.4
X53.9Y-37.3
X53.9Y-38.5
X53.9Y-39.9
X54.099Y-86.307
X54.1Y-94.8
X54.2Y-29.6
X54.3Y-45.5
X54.3Y-61.9
X54.3Y-63.1
X54.4Y-47.7
X54.4Y-50.4
X54.6Y-31.3
X54.65Y-58.9
X54.7Y-52.5
X54.7Y-71.9
X54.979Y-78.002
X55.0Y-56.3
X55.127Y-89.298
X55.6Y-84.1
X55.7Y-59.95
X55.75Y-42.02
X55.9Y-77.9
X56.7Y-95.5
X56.75Y-42.02
X56.85Y-64.9
X57.0Y-61.673
X57.0Y-62.6
X57.0Y-63.5
X57.0Y-82.5
X57.3Y-30.0
X57.3Y-57.0
X57.4Y-58.95
X57.4Y-74.9
X57.625Y-67.825
X57.8Y-46.95
X58.1Y-71.8
X58.15Y-78.079
X58.3Y-31.0
X58.38Y-81.883
X58.5Y-83.375
X58.7Y-88.3
X58.7Y-90.4
X58.8Y-50.2
X59.0Y-52.4
X59.025Y-65.7
X59.1Y-81.183
X59.2Y-29.8
X59.425Y-61.65
X59.425Y-62.575
X59.45Y-63.525
X59.767Y-80.5
X59.9Y-70.6
X59.9Y-74.6
X60.15Y-94.2
X60.4Y-60.0
X60.4Y-67.2
X60.5Y-79.9
X60.5Y-91.3
X60.6Y-83.2
X60.8Y-29.8
X60.86Y-42.717
X61.071Y-45.613
X61.103Y-44.516
X61.2Y-36.0
X61.2Y-37.3
X61.2Y-55.7
X61.2Y-75.3
X61.4Y-59.0
X61.5Y-83.2
X61.6Y-48.6
X61.7Y-72.6
X61.8Y-62.3
X62.0Y-31.5
X62.0Y-33.9
X62.0Y-71.2
X62.202Y-78.1
X62.3Y-60.1
X62.4Y-41.0
X62.4Y-83.2
X62.6Y-88.2
X62.7Y-36.0
X62.7Y-37.3
X62.9Y-57.1
X62.9Y-90.5
X63.0Y-54.0
X63.1Y-50.9
X63.1Y-80.225
X63.2Y-41.4
X63.2Y-67.548
X63.25Y-59.15
X63.8Y-56.2
X63.9Y-94.8
X64.0Y-27.5
X64.075Y-80.25
X64.1Y-63.2
X64.1Y-67.82
X64.1Y-86.2
X64.15Y-88.0
X64.489Y-68.7
X64.5Y-35.4
X64.5Y-36.3
X64.5Y-41.4
X64.5Y-42.4
X64.8Y-31.4
X64.904Y-44.511
X64.929Y-45.59
X65.0Y-65.4
X65.025Y-80.25
X65.05Y-28.8
X65.4Y-34.2
X65.8Y-35.4
X65.8Y-36.35
X65.8Y-41.4
X65.8Y-42.5
X65.9Y-72.017
X65.9Y-72.944
X66.0Y-50.3
X66.0Y-54.2
X66.0Y-55.9
X66.0Y-93.5
X66.097Y-76.253
X66.1Y-44.6
X66.1Y-47.2
X66.125Y-78.325
X66.6Y-97.5
X66.7Y-83.7
X66.8Y-29.5
X67.3Y-73.3
X67.3Y-74.4
X67.4Y-82.7
X68.0Y-87.0
X68.083Y-70.3
X68.2Y-95.6
X68.4Y-54.6
X68.5Y-27.9
X68.5Y-47.4
X68.6Y-33.9
X68.6Y-51.8
X68.7Y-31.7
X68.7Y-37.9
X68.7Y-44.7
X68.8Y-41.9
X68.9Y-69.5
X69.7Y-83.6
X69.8Y-86.6
X70.0Y-81.7
X70.5Y-29.65
X71.0Y-58.6
X71.04Y-59.526
X71.1Y-60.5
X71.1Y-61.5
X71.5Y-49.1
X71.5Y-65.6
X71.9Y-70.7
X71.95Y-25.55
X72.3Y-51.5
X72.7Y-44.8
X72.811Y-57.141
X72.9Y-79.95
X72.95Y-97.9
X73.1Y-40.6
X73.1Y-75.45
X73.5Y-31.8
X73.5Y-38.0
X73.5Y-68.4
X73.585Y-53.842
X73.6Y-50.7
X73.8Y-34.3
X74.386Y-59.271
X75.3Y-66.5
X75.3Y-83.8
X75.4Y-86.5
X75.45Y-29.3
X75.576Y-59.278
X75.6Y-91.2
X76.05Y-25.4
X76.1Y-94.25
X77.35Y-33.65
X77.35Y-39.45
X77.35Y-80.45
X77.5Y-76.3
X78.1Y-64.4
X78.7Y-73.6
X79.5Y-68.5
X79.55Y-55.05
X80.0Y-91.25
X80.2Y-71.6
X80.2Y-94.0
X80.25Y-60.6
X80.3Y-96.8
X80.6Y-55.4
X80.65Y-35.7
X80.7Y-28.9
X80.8Y-31.8
X80.8Y-40.55
X81.1Y-25.55
X81.2Y-83.5
X81.2Y-86.5
X84.15Y-68.85
X84.25Y-37.3
X84.25Y-81.85
X84.35Y-56.6
X84.35Y-88.3
X84.6Y-49.65
T2
X65.86Y-90.1
X65.86Y-91.37
X67.13Y-90.1
X67.13Y-91.37
X68.4Y-90.1
X68.4Y-91.37
X69.67Y-90.1
X69.67Y-91.37
X70.94Y-90.1
X70.94Y-91.37
T3
X41.45Y-45.5
X41.45Y-48.04
X41.45Y-50.58
X70.46Y-27.5
X73.0Y-27.5
X75.54Y-27.5
X78.08Y-27.5
X78.4Y-45.45
X78.4Y-47.99
X78.4Y-50.53
T4
X35.277Y-33.858
X35.277Y-40.858
X35.3Y-46.0
X35.3Y-53.0
X35.3Y-60.0
X35.323Y-65.242
X35.323Y-72.242
X35.323Y-77.542
X35.323Y-84.542
X42.258Y-27.323
X42.5Y-98.1
X49.258Y-27.323
X49.5Y-98.1
X56.5Y-98.1
X62.5Y-98.1
X69.5Y-98.1
X76.5Y-98.1
X84.277Y-33.558
X84.277Y-40.558
X84.3Y-46.0
X84.3Y-53.0
X84.3Y-60.0
X84.323Y-65.442
X84.323Y-72.442
X84.4Y-78.0
X84.4Y-85.0
X84.4Y-92.0
M30
