%TF.GenerationSoftware,KiCad,Pcbnew,7.0.10*%
%TF.CreationDate,2024-05-02T22:21:23+08:00*%
%TF.ProjectId,dispo-board,64697370-6f2d-4626-9f61-72642e6b6963,rev?*%
%TF.SameCoordinates,Original*%
%TF.FileFunction,Soldermask,Top*%
%TF.FilePolarity,Negative*%
%FSLAX46Y46*%
G04 Gerber Fmt 4.6, Leading zero omitted, Abs format (unit mm)*
G04 Created by KiCad (PCBNEW 7.0.10) date 2024-05-02 22:21:23*
%MOMM*%
%LPD*%
G01*
G04 APERTURE LIST*
G04 Aperture macros list*
%AMRoundRect*
0 Rectangle with rounded corners*
0 $1 Rounding radius*
0 $2 $3 $4 $5 $6 $7 $8 $9 X,Y pos of 4 corners*
0 Add a 4 corners polygon primitive as box body*
4,1,4,$2,$3,$4,$5,$6,$7,$8,$9,$2,$3,0*
0 Add four circle primitives for the rounded corners*
1,1,$1+$1,$2,$3*
1,1,$1+$1,$4,$5*
1,1,$1+$1,$6,$7*
1,1,$1+$1,$8,$9*
0 Add four rect primitives between the rounded corners*
20,1,$1+$1,$2,$3,$4,$5,0*
20,1,$1+$1,$4,$5,$6,$7,0*
20,1,$1+$1,$6,$7,$8,$9,0*
20,1,$1+$1,$8,$9,$2,$3,0*%
G04 Aperture macros list end*
%ADD10RoundRect,0.140000X-0.140000X-0.170000X0.140000X-0.170000X0.140000X0.170000X-0.140000X0.170000X0*%
%ADD11C,1.500000*%
%ADD12RoundRect,0.225000X0.250000X-0.225000X0.250000X0.225000X-0.250000X0.225000X-0.250000X-0.225000X0*%
%ADD13RoundRect,0.140000X-0.170000X0.140000X-0.170000X-0.140000X0.170000X-0.140000X0.170000X0.140000X0*%
%ADD14RoundRect,0.250000X-0.325000X-0.650000X0.325000X-0.650000X0.325000X0.650000X-0.325000X0.650000X0*%
%ADD15RoundRect,0.135000X0.135000X0.185000X-0.135000X0.185000X-0.135000X-0.185000X0.135000X-0.185000X0*%
%ADD16RoundRect,0.140000X0.170000X-0.140000X0.170000X0.140000X-0.170000X0.140000X-0.170000X-0.140000X0*%
%ADD17RoundRect,0.250000X0.325000X0.650000X-0.325000X0.650000X-0.325000X-0.650000X0.325000X-0.650000X0*%
%ADD18RoundRect,0.218750X0.256250X-0.218750X0.256250X0.218750X-0.256250X0.218750X-0.256250X-0.218750X0*%
%ADD19R,0.450000X1.380000*%
%ADD20R,1.650000X1.300000*%
%ADD21R,1.425000X1.550000*%
%ADD22R,1.800000X1.900000*%
%ADD23R,1.000000X1.900000*%
%ADD24R,1.300000X1.600000*%
%ADD25R,2.000000X1.600000*%
%ADD26R,0.250000X1.100000*%
%ADD27RoundRect,0.140000X0.140000X0.170000X-0.140000X0.170000X-0.140000X-0.170000X0.140000X-0.170000X0*%
%ADD28RoundRect,0.135000X0.185000X-0.135000X0.185000X0.135000X-0.185000X0.135000X-0.185000X-0.135000X0*%
%ADD29RoundRect,0.250002X1.499998X-1.499998X1.499998X1.499998X-1.499998X1.499998X-1.499998X-1.499998X0*%
%ADD30C,3.500000*%
%ADD31RoundRect,0.135000X-0.185000X0.135000X-0.185000X-0.135000X0.185000X-0.135000X0.185000X0.135000X0*%
%ADD32RoundRect,0.250002X-1.499998X1.499998X-1.499998X-1.499998X1.499998X-1.499998X1.499998X1.499998X0*%
%ADD33RoundRect,0.225000X-0.225000X-0.250000X0.225000X-0.250000X0.225000X0.250000X-0.225000X0.250000X0*%
%ADD34R,1.550000X1.300000*%
%ADD35RoundRect,0.200000X-0.275000X0.200000X-0.275000X-0.200000X0.275000X-0.200000X0.275000X0.200000X0*%
%ADD36RoundRect,0.062500X0.062500X-0.400000X0.062500X0.400000X-0.062500X0.400000X-0.062500X-0.400000X0*%
%ADD37RoundRect,0.062500X0.400000X-0.062500X0.400000X0.062500X-0.400000X0.062500X-0.400000X-0.062500X0*%
%ADD38R,6.400000X6.400000*%
%ADD39RoundRect,0.225000X-0.250000X0.225000X-0.250000X-0.225000X0.250000X-0.225000X0.250000X0.225000X0*%
%ADD40RoundRect,0.135000X-0.135000X-0.185000X0.135000X-0.185000X0.135000X0.185000X-0.135000X0.185000X0*%
%ADD41C,2.200000*%
%ADD42RoundRect,0.250002X-1.499998X-1.499998X1.499998X-1.499998X1.499998X1.499998X-1.499998X1.499998X0*%
%ADD43R,1.700000X1.700000*%
%ADD44O,1.700000X1.700000*%
%ADD45R,2.200000X0.600000*%
%ADD46R,2.150000X3.450000*%
%ADD47RoundRect,0.150000X-0.512500X-0.150000X0.512500X-0.150000X0.512500X0.150000X-0.512500X0.150000X0*%
%ADD48RoundRect,0.150000X0.512500X0.150000X-0.512500X0.150000X-0.512500X-0.150000X0.512500X-0.150000X0*%
%ADD49RoundRect,0.200000X0.275000X-0.200000X0.275000X0.200000X-0.275000X0.200000X-0.275000X-0.200000X0*%
%ADD50R,1.000000X1.000000*%
%ADD51O,1.000000X1.000000*%
%ADD52R,0.900000X0.800000*%
G04 APERTURE END LIST*
D10*
%TO.C,C24*%
X47037288Y-49584050D03*
X47997288Y-49584050D03*
%TD*%
D11*
%TO.C,TP1*%
X52070000Y-66294000D03*
%TD*%
D12*
%TO.C,C7*%
X68826446Y-35745910D03*
X68826446Y-34195910D03*
%TD*%
D13*
%TO.C,C30*%
X90017968Y-50270524D03*
X90017968Y-51230524D03*
%TD*%
D11*
%TO.C,TP11*%
X99009200Y-41148000D03*
%TD*%
D12*
%TO.C,C36*%
X81534000Y-44463000D03*
X81534000Y-42913000D03*
%TD*%
D14*
%TO.C,C32*%
X92759000Y-52324000D03*
X95709000Y-52324000D03*
%TD*%
D15*
%TO.C,R2*%
X56898000Y-42409820D03*
X55878000Y-42409820D03*
%TD*%
D11*
%TO.C,TP2*%
X54864000Y-65278000D03*
%TD*%
D16*
%TO.C,C26*%
X51308211Y-48501261D03*
X51308211Y-47541261D03*
%TD*%
D17*
%TO.C,C25*%
X49882020Y-47805548D03*
X46932020Y-47805548D03*
%TD*%
D18*
%TO.C,D2*%
X58674000Y-25019100D03*
X58674000Y-23444100D03*
%TD*%
D15*
%TO.C,R20*%
X93474000Y-44704000D03*
X92454000Y-44704000D03*
%TD*%
D19*
%TO.C,J5*%
X67594000Y-26352000D03*
X66944000Y-26352000D03*
X66294000Y-26352000D03*
X65644000Y-26352000D03*
X64994000Y-26352000D03*
D20*
X69669000Y-23692000D03*
D21*
X68781500Y-26267000D03*
D22*
X67444000Y-23692000D03*
D23*
X64744000Y-23692000D03*
D21*
X63806500Y-26267000D03*
D20*
X62919000Y-23692000D03*
%TD*%
D24*
%TO.C,RV2*%
X47010000Y-62156000D03*
D25*
X48260000Y-59256000D03*
D24*
X49510000Y-62156000D03*
%TD*%
D26*
%TO.C,U6*%
X83836000Y-52188000D03*
X84336000Y-52188000D03*
X84836000Y-52188000D03*
X85336000Y-52188000D03*
X85836000Y-52188000D03*
X85836000Y-47888000D03*
X85336000Y-47888000D03*
X84836000Y-47888000D03*
X84336000Y-47888000D03*
X83836000Y-47888000D03*
%TD*%
D13*
%TO.C,C8*%
X67970400Y-46256000D03*
X67970400Y-47216000D03*
%TD*%
D11*
%TO.C,TP6*%
X78364500Y-48702000D03*
%TD*%
%TO.C,TP7*%
X78994000Y-54102000D03*
%TD*%
D27*
%TO.C,C3*%
X59124072Y-44958000D03*
X58164072Y-44958000D03*
%TD*%
D28*
%TO.C,R22*%
X92477270Y-43562376D03*
X92477270Y-42542376D03*
%TD*%
D29*
%TO.C,J10*%
X29464000Y-37986393D03*
D30*
X29464000Y-30986393D03*
%TD*%
D31*
%TO.C,R11*%
X47939115Y-33018000D03*
X47939115Y-34038000D03*
%TD*%
D32*
%TO.C,J11*%
X107164658Y-30847607D03*
D30*
X107164658Y-37847607D03*
%TD*%
D33*
%TO.C,C18*%
X69658373Y-38354000D03*
X71208373Y-38354000D03*
%TD*%
D34*
%TO.C,SW1*%
X67145000Y-59726000D03*
X75095000Y-59726000D03*
X67145000Y-64226000D03*
X75095000Y-64226000D03*
%TD*%
D32*
%TO.C,J12*%
X29464000Y-43292000D03*
D30*
X29464000Y-50292000D03*
X29464000Y-57292000D03*
%TD*%
D35*
%TO.C,R1*%
X74168000Y-29655000D03*
X74168000Y-31305000D03*
%TD*%
D13*
%TO.C,C15*%
X64516000Y-46357600D03*
X64516000Y-47317600D03*
%TD*%
D33*
%TO.C,C20*%
X77304114Y-71823013D03*
X78854114Y-71823013D03*
%TD*%
D36*
%TO.C,U2*%
X61062000Y-45035500D03*
X61462000Y-45035500D03*
X61862000Y-45035500D03*
X62262000Y-45035500D03*
X62662000Y-45035500D03*
X63062000Y-45035500D03*
X63462000Y-45035500D03*
X63862000Y-45035500D03*
X64262000Y-45035500D03*
X64662000Y-45035500D03*
X65062000Y-45035500D03*
X65462000Y-45035500D03*
X65862000Y-45035500D03*
X66262000Y-45035500D03*
X66662000Y-45035500D03*
X67062000Y-45035500D03*
X67462000Y-45035500D03*
D37*
X68149500Y-44348000D03*
X68149500Y-43948000D03*
X68149500Y-43548000D03*
X68149500Y-43148000D03*
X68149500Y-42748000D03*
X68149500Y-42348000D03*
X68149500Y-41948000D03*
X68149500Y-41548000D03*
X68149500Y-41148000D03*
X68149500Y-40748000D03*
X68149500Y-40348000D03*
X68149500Y-39948000D03*
X68149500Y-39548000D03*
X68149500Y-39148000D03*
X68149500Y-38748000D03*
X68149500Y-38348000D03*
X68149500Y-37948000D03*
D36*
X67462000Y-37260500D03*
X67062000Y-37260500D03*
X66662000Y-37260500D03*
X66262000Y-37260500D03*
X65862000Y-37260500D03*
X65462000Y-37260500D03*
X65062000Y-37260500D03*
X64662000Y-37260500D03*
X64262000Y-37260500D03*
X63862000Y-37260500D03*
X63462000Y-37260500D03*
X63062000Y-37260500D03*
X62662000Y-37260500D03*
X62262000Y-37260500D03*
X61862000Y-37260500D03*
X61462000Y-37260500D03*
X61062000Y-37260500D03*
D37*
X60374500Y-37948000D03*
X60374500Y-38348000D03*
X60374500Y-38748000D03*
X60374500Y-39148000D03*
X60374500Y-39548000D03*
X60374500Y-39948000D03*
X60374500Y-40348000D03*
X60374500Y-40748000D03*
X60374500Y-41148000D03*
X60374500Y-41548000D03*
X60374500Y-41948000D03*
X60374500Y-42348000D03*
X60374500Y-42748000D03*
X60374500Y-43148000D03*
X60374500Y-43548000D03*
X60374500Y-43948000D03*
X60374500Y-44348000D03*
D38*
X64262000Y-41148000D03*
%TD*%
D26*
%TO.C,U4*%
X51602516Y-54290724D03*
X52102516Y-54290724D03*
X52602516Y-54290724D03*
X53102516Y-54290724D03*
X53602516Y-54290724D03*
X53602516Y-49990724D03*
X53102516Y-49990724D03*
X52602516Y-49990724D03*
X52102516Y-49990724D03*
X51602516Y-49990724D03*
%TD*%
D39*
%TO.C,C22*%
X32724844Y-69984987D03*
X32724844Y-71534987D03*
%TD*%
D33*
%TO.C,C21*%
X91286019Y-71780929D03*
X92836019Y-71780929D03*
%TD*%
D35*
%TO.C,R17*%
X89729900Y-47359023D03*
X89729900Y-49009023D03*
%TD*%
D11*
%TO.C,TP3*%
X57150000Y-63500000D03*
%TD*%
D40*
%TO.C,R7*%
X91043019Y-70510929D03*
X92063019Y-70510929D03*
%TD*%
D31*
%TO.C,R13*%
X50205969Y-53661500D03*
X50205969Y-54681500D03*
%TD*%
D10*
%TO.C,C2*%
X69375012Y-42976800D03*
X70335012Y-42976800D03*
%TD*%
D13*
%TO.C,C16*%
X65936703Y-47274399D03*
X65936703Y-48234399D03*
%TD*%
D41*
%TO.C,REF\u002A\u002A*%
X107188000Y-25400000D03*
%TD*%
D39*
%TO.C,C17*%
X77074066Y-61306660D03*
X77074066Y-62856660D03*
%TD*%
D11*
%TO.C,TP8*%
X81495313Y-56327432D03*
%TD*%
D33*
%TO.C,C11*%
X80657400Y-29718000D03*
X82207400Y-29718000D03*
%TD*%
D31*
%TO.C,FB1*%
X69037000Y-48144000D03*
X69037000Y-49164000D03*
%TD*%
D35*
%TO.C,R15*%
X43046348Y-53241196D03*
X43046348Y-54891196D03*
%TD*%
D13*
%TO.C,C1*%
X63500000Y-46305746D03*
X63500000Y-47265746D03*
%TD*%
D42*
%TO.C,J1*%
X35530000Y-25400000D03*
D30*
X42530000Y-25400000D03*
X49530000Y-25400000D03*
%TD*%
D43*
%TO.C,J4*%
X90678000Y-25400000D03*
D44*
X93218000Y-25400000D03*
X95758000Y-25400000D03*
X98298000Y-25400000D03*
%TD*%
D33*
%TO.C,C10*%
X70307000Y-49416000D03*
X71857000Y-49416000D03*
%TD*%
D16*
%TO.C,C5*%
X67464474Y-36003820D03*
X67464474Y-35043820D03*
%TD*%
D45*
%TO.C,U1*%
X81292100Y-31597600D03*
X81292100Y-32867600D03*
X81292100Y-34137600D03*
X81292100Y-35407600D03*
X81292100Y-36677600D03*
D46*
X87592100Y-34137600D03*
%TD*%
D42*
%TO.C,J7*%
X93077607Y-74953342D03*
D30*
X100077607Y-74953342D03*
%TD*%
D13*
%TO.C,C4*%
X60706000Y-46256000D03*
X60706000Y-47216000D03*
%TD*%
D47*
%TO.C,U3*%
X43312500Y-49850000D03*
X43312500Y-50800000D03*
X43312500Y-51750000D03*
X45587500Y-51750000D03*
X45587500Y-49850000D03*
%TD*%
D28*
%TO.C,R19*%
X87773320Y-44762359D03*
X87773320Y-43742359D03*
%TD*%
D35*
%TO.C,R4*%
X55372000Y-26962600D03*
X55372000Y-28612600D03*
%TD*%
D48*
%TO.C,U5*%
X93847500Y-48956000D03*
X93847500Y-48006000D03*
X93847500Y-47056000D03*
X91572500Y-47056000D03*
X91572500Y-48956000D03*
%TD*%
D10*
%TO.C,C14*%
X80393600Y-38455600D03*
X81353600Y-38455600D03*
%TD*%
D49*
%TO.C,R12*%
X47347083Y-52466979D03*
X47347083Y-50816979D03*
%TD*%
D43*
%TO.C,JP2*%
X102150438Y-53011352D03*
D44*
X102150438Y-55551352D03*
X102150438Y-58091352D03*
%TD*%
D33*
%TO.C,C9*%
X70294000Y-47892000D03*
X71844000Y-47892000D03*
%TD*%
D39*
%TO.C,C13*%
X76200000Y-37325000D03*
X76200000Y-38875000D03*
%TD*%
D32*
%TO.C,J9*%
X107188000Y-62596000D03*
D30*
X107188000Y-69596000D03*
%TD*%
D50*
%TO.C,J14*%
X45974000Y-33274000D03*
D51*
X45974000Y-34544000D03*
X44704000Y-33274000D03*
X44704000Y-34544000D03*
X43434000Y-33274000D03*
X43434000Y-34544000D03*
X42164000Y-33274000D03*
X42164000Y-34544000D03*
X40894000Y-33274000D03*
X40894000Y-34544000D03*
%TD*%
D41*
%TO.C,REF\u002A\u002A*%
X29464000Y-75184000D03*
%TD*%
D42*
%TO.C,J3*%
X58024000Y-74930000D03*
D30*
X65024000Y-74930000D03*
X72024000Y-74930000D03*
%TD*%
D11*
%TO.C,TP4*%
X44196000Y-42672000D03*
%TD*%
D40*
%TO.C,R6*%
X77074114Y-70553013D03*
X78094114Y-70553013D03*
%TD*%
D33*
%TO.C,C27*%
X55291344Y-54407034D03*
X56841344Y-54407034D03*
%TD*%
D12*
%TO.C,C29*%
X53397882Y-48321927D03*
X53397882Y-46771927D03*
%TD*%
D40*
%TO.C,R18*%
X88898000Y-44704000D03*
X89918000Y-44704000D03*
%TD*%
D33*
%TO.C,C31*%
X84823000Y-44450000D03*
X86373000Y-44450000D03*
%TD*%
D16*
%TO.C,C28*%
X54714174Y-48582098D03*
X54714174Y-47622098D03*
%TD*%
%TO.C,C33*%
X91065970Y-44704000D03*
X91065970Y-43744000D03*
%TD*%
D18*
%TO.C,D1*%
X74168000Y-34823500D03*
X74168000Y-33248500D03*
%TD*%
D29*
%TO.C,J8*%
X29487342Y-69736393D03*
D30*
X29487342Y-62736393D03*
%TD*%
D11*
%TO.C,TP5*%
X40132000Y-41910000D03*
%TD*%
D52*
%TO.C,Y1*%
X66102000Y-50588000D03*
X67502000Y-50588000D03*
X67502000Y-49488000D03*
X66102000Y-49488000D03*
%TD*%
D10*
%TO.C,C35*%
X85880000Y-53594000D03*
X86840000Y-53594000D03*
%TD*%
D31*
%TO.C,R10*%
X47951463Y-35050000D03*
X47951463Y-36070000D03*
%TD*%
D15*
%TO.C,R14*%
X44452000Y-48514000D03*
X43432000Y-48514000D03*
%TD*%
D41*
%TO.C,REF\u002A\u002A*%
X29464000Y-25400000D03*
%TD*%
D12*
%TO.C,C23*%
X104041511Y-62381189D03*
X104041511Y-60831189D03*
%TD*%
D42*
%TO.C,J6*%
X79107607Y-74953342D03*
D30*
X86107607Y-74953342D03*
%TD*%
D28*
%TO.C,R16*%
X45466000Y-48516000D03*
X45466000Y-47496000D03*
%TD*%
D11*
%TO.C,TP10*%
X81158500Y-47686000D03*
%TD*%
D18*
%TO.C,D3*%
X55372000Y-25019100D03*
X55372000Y-23444100D03*
%TD*%
D24*
%TO.C,RV1*%
X41422000Y-62156000D03*
D25*
X42672000Y-59256000D03*
D24*
X43922000Y-62156000D03*
%TD*%
D31*
%TO.C,R8*%
X34043667Y-70796678D03*
X34043667Y-71816678D03*
%TD*%
D41*
%TO.C,REF\u002A\u002A*%
X107188000Y-75184000D03*
%TD*%
D39*
%TO.C,C34*%
X87426800Y-47789800D03*
X87426800Y-49339800D03*
%TD*%
D31*
%TO.C,R5*%
X76820066Y-59031660D03*
X76820066Y-60051660D03*
%TD*%
D12*
%TO.C,C19*%
X61163200Y-35065000D03*
X61163200Y-33515000D03*
%TD*%
D16*
%TO.C,C6*%
X59884576Y-34770000D03*
X59884576Y-33810000D03*
%TD*%
D43*
%TO.C,JP1*%
X34398306Y-53327793D03*
D44*
X34398306Y-55867793D03*
X34398306Y-58407793D03*
%TD*%
D32*
%TO.C,J13*%
X107188000Y-43038000D03*
D30*
X107188000Y-50038000D03*
X107188000Y-57038000D03*
%TD*%
D13*
%TO.C,C12*%
X77520800Y-38229600D03*
X77520800Y-39189600D03*
%TD*%
D35*
%TO.C,R3*%
X58674000Y-26962600D03*
X58674000Y-28612600D03*
%TD*%
D28*
%TO.C,R9*%
X102771511Y-62624189D03*
X102771511Y-61604189D03*
%TD*%
D11*
%TO.C,TP9*%
X84474174Y-57010894D03*
%TD*%
D35*
%TO.C,R21*%
X95612526Y-54357897D03*
X95612526Y-56007897D03*
%TD*%
D42*
%TO.C,J2*%
X36942000Y-74930000D03*
D30*
X43942000Y-74930000D03*
X50942000Y-74930000D03*
%TD*%
M02*
