%TF.GenerationSoftware,KiCad,Pcbnew,9.0.6*%
%TF.CreationDate,2026-01-25T18:40:06+01:00*%
%TF.ProjectId,dispo-board,64697370-6f2d-4626-9f61-72642e6b6963,rev?*%
%TF.SameCoordinates,Original*%
%TF.FileFunction,Soldermask,Bot*%
%TF.FilePolarity,Negative*%
%FSLAX46Y46*%
G04 Gerber Fmt 4.6, Leading zero omitted, Abs format (unit mm)*
G04 Created by KiCad (PCBNEW 9.0.6) date 2026-01-25 18:40:06*
%MOMM*%
%LPD*%
G01*
G04 APERTURE LIST*
G04 Aperture macros list*
%AMRoundRect*
0 Rectangle with rounded corners*
0 $1 Rounding radius*
0 $2 $3 $4 $5 $6 $7 $8 $9 X,Y pos of 4 corners*
0 Add a 4 corners polygon primitive as box body*
4,1,4,$2,$3,$4,$5,$6,$7,$8,$9,$2,$3,0*
0 Add four circle primitives for the rounded corners*
1,1,$1+$1,$2,$3*
1,1,$1+$1,$4,$5*
1,1,$1+$1,$6,$7*
1,1,$1+$1,$8,$9*
0 Add four rect primitives between the rounded corners*
20,1,$1+$1,$2,$3,$4,$5,0*
20,1,$1+$1,$4,$5,$6,$7,0*
20,1,$1+$1,$6,$7,$8,$9,0*
20,1,$1+$1,$8,$9,$2,$3,0*%
G04 Aperture macros list end*
%ADD10RoundRect,0.250002X-1.499998X1.499998X-1.499998X-1.499998X1.499998X-1.499998X1.499998X1.499998X0*%
%ADD11C,3.500000*%
%ADD12R,1.000000X1.000000*%
%ADD13C,1.000000*%
%ADD14RoundRect,0.250002X1.499998X-1.499998X1.499998X1.499998X-1.499998X1.499998X-1.499998X-1.499998X0*%
%ADD15RoundRect,0.250002X-1.499998X-1.499998X1.499998X-1.499998X1.499998X1.499998X-1.499998X1.499998X0*%
%ADD16R,1.700000X1.700000*%
%ADD17C,1.700000*%
%ADD18C,2.200000*%
G04 APERTURE END LIST*
D10*
%TO.C,J2*%
X35276658Y-33857607D03*
D11*
X35276658Y-40857607D03*
%TD*%
D12*
%TO.C,J3*%
X65860000Y-91370000D03*
D13*
X65860000Y-90100000D03*
X67130000Y-91370000D03*
X67130000Y-90100000D03*
X68400000Y-91370000D03*
X68400000Y-90100000D03*
X69670000Y-91370000D03*
X69670000Y-90100000D03*
X70940000Y-91370000D03*
X70940000Y-90100000D03*
%TD*%
D14*
%TO.C,J7*%
X35300000Y-60000000D03*
D11*
X35300000Y-53000000D03*
X35300000Y-46000000D03*
%TD*%
D14*
%TO.C,J13*%
X35323342Y-84542393D03*
D11*
X35323342Y-77542393D03*
%TD*%
D15*
%TO.C,J6*%
X42257607Y-27323342D03*
D11*
X49257607Y-27323342D03*
%TD*%
D15*
%TO.C,J11*%
X62500000Y-98100000D03*
D11*
X69500000Y-98100000D03*
X76500000Y-98100000D03*
%TD*%
D14*
%TO.C,J8*%
X84300000Y-60000000D03*
D11*
X84300000Y-53000000D03*
X84300000Y-46000000D03*
%TD*%
D15*
%TO.C,J5*%
X42500000Y-98100000D03*
D11*
X49500000Y-98100000D03*
X56500000Y-98100000D03*
%TD*%
D14*
%TO.C,J9*%
X84400000Y-92000000D03*
D11*
X84400000Y-85000000D03*
X84400000Y-78000000D03*
%TD*%
D16*
%TO.C,J12*%
X78080000Y-27500000D03*
D17*
X75540000Y-27500000D03*
X73000000Y-27500000D03*
X70460000Y-27500000D03*
%TD*%
D18*
%TO.C,REF\u002A\u002A*%
X34801999Y-98362001D03*
%TD*%
%TO.C,REF\u002A\u002A*%
X84586001Y-98362001D03*
%TD*%
%TO.C,REF\u002A\u002A*%
X84586001Y-27137999D03*
%TD*%
%TO.C,REF\u002A\u002A*%
X34801999Y-27137999D03*
%TD*%
D10*
%TO.C,J4*%
X84276658Y-33557607D03*
D11*
X84276658Y-40557607D03*
%TD*%
D14*
%TO.C,J10*%
X35323342Y-72242393D03*
D11*
X35323342Y-65242393D03*
%TD*%
D14*
%TO.C,J1*%
X84323342Y-72442393D03*
D11*
X84323342Y-65442393D03*
%TD*%
D16*
%TO.C,JP1*%
X41450000Y-50580000D03*
D17*
X41450000Y-48040000D03*
X41450000Y-45500000D03*
%TD*%
D16*
%TO.C,JP2*%
X78400000Y-50530000D03*
D17*
X78400000Y-47990000D03*
X78400000Y-45450000D03*
%TD*%
M02*
