%TF.GenerationSoftware,KiCad,Pcbnew,7.0.10*%
%TF.CreationDate,2024-05-02T22:21:23+08:00*%
%TF.ProjectId,dispo-board,64697370-6f2d-4626-9f61-72642e6b6963,rev?*%
%TF.SameCoordinates,Original*%
%TF.FileFunction,Copper,L2,Inr*%
%TF.FilePolarity,Positive*%
%FSLAX46Y46*%
G04 Gerber Fmt 4.6, Leading zero omitted, Abs format (unit mm)*
G04 Created by KiCad (PCBNEW 7.0.10) date 2024-05-02 22:21:23*
%MOMM*%
%LPD*%
G01*
G04 APERTURE LIST*
G04 Aperture macros list*
%AMRoundRect*
0 Rectangle with rounded corners*
0 $1 Rounding radius*
0 $2 $3 $4 $5 $6 $7 $8 $9 X,Y pos of 4 corners*
0 Add a 4 corners polygon primitive as box body*
4,1,4,$2,$3,$4,$5,$6,$7,$8,$9,$2,$3,0*
0 Add four circle primitives for the rounded corners*
1,1,$1+$1,$2,$3*
1,1,$1+$1,$4,$5*
1,1,$1+$1,$6,$7*
1,1,$1+$1,$8,$9*
0 Add four rect primitives between the rounded corners*
20,1,$1+$1,$2,$3,$4,$5,0*
20,1,$1+$1,$4,$5,$6,$7,0*
20,1,$1+$1,$6,$7,$8,$9,0*
20,1,$1+$1,$8,$9,$2,$3,0*%
G04 Aperture macros list end*
%TA.AperFunction,ComponentPad*%
%ADD10RoundRect,0.250002X1.499998X-1.499998X1.499998X1.499998X-1.499998X1.499998X-1.499998X-1.499998X0*%
%TD*%
%TA.AperFunction,ComponentPad*%
%ADD11C,3.500000*%
%TD*%
%TA.AperFunction,ComponentPad*%
%ADD12RoundRect,0.250002X-1.499998X1.499998X-1.499998X-1.499998X1.499998X-1.499998X1.499998X1.499998X0*%
%TD*%
%TA.AperFunction,ComponentPad*%
%ADD13RoundRect,0.250002X-1.499998X-1.499998X1.499998X-1.499998X1.499998X1.499998X-1.499998X1.499998X0*%
%TD*%
%TA.AperFunction,ComponentPad*%
%ADD14R,1.700000X1.700000*%
%TD*%
%TA.AperFunction,ComponentPad*%
%ADD15O,1.700000X1.700000*%
%TD*%
%TA.AperFunction,ComponentPad*%
%ADD16R,1.000000X1.000000*%
%TD*%
%TA.AperFunction,ComponentPad*%
%ADD17O,1.000000X1.000000*%
%TD*%
%TA.AperFunction,ViaPad*%
%ADD18C,0.450000*%
%TD*%
%TA.AperFunction,ViaPad*%
%ADD19C,0.800000*%
%TD*%
%TA.AperFunction,Conductor*%
%ADD20C,0.250000*%
%TD*%
G04 APERTURE END LIST*
D10*
%TO.N,GND*%
%TO.C,J10*%
X29464000Y-37986393D03*
D11*
%TO.N,GUITAR_IN_P*%
X29464000Y-30986393D03*
%TD*%
D12*
%TO.N,GND*%
%TO.C,J11*%
X107164658Y-30847607D03*
D11*
%TO.N,GUITAR_OUT_P*%
X107164658Y-37847607D03*
%TD*%
D12*
%TO.N,GUITAR_bypass*%
%TO.C,J12*%
X29464000Y-43292000D03*
D11*
%TO.N,GUITAR_IN_switch*%
X29464000Y-50292000D03*
%TO.N,GUITAR_IN_\u00B5C*%
X29464000Y-57292000D03*
%TD*%
D13*
%TO.N,GND*%
%TO.C,J1*%
X35530000Y-25400000D03*
D11*
%TO.N,ADC1_INP4*%
X42530000Y-25400000D03*
%TO.N,+3.3VA*%
X49530000Y-25400000D03*
%TD*%
D14*
%TO.N,GND*%
%TO.C,J4*%
X90678000Y-25400000D03*
D15*
%TO.N,I2C1_SDA*%
X93218000Y-25400000D03*
%TO.N,I2C1_SCL*%
X95758000Y-25400000D03*
%TO.N,+3V3*%
X98298000Y-25400000D03*
%TD*%
D13*
%TO.N,DIG_IN2*%
%TO.C,J7*%
X93077607Y-74953342D03*
D11*
%TO.N,+3V3*%
X100077607Y-74953342D03*
%TD*%
D14*
%TO.N,GUITAR_OUT_switch*%
%TO.C,JP2*%
X102150438Y-53011352D03*
D15*
%TO.N,GUITAR_OUT_P*%
X102150438Y-55551352D03*
%TO.N,GUITAR_OUT_\u00B5C*%
X102150438Y-58091352D03*
%TD*%
D12*
%TO.N,DIG_IN4*%
%TO.C,J9*%
X107188000Y-62596000D03*
D11*
%TO.N,+3V3*%
X107188000Y-69596000D03*
%TD*%
D16*
%TO.N,+3V3*%
%TO.C,J14*%
X45974000Y-33274000D03*
D17*
%TO.N,SWDIO*%
X45974000Y-34544000D03*
%TO.N,GND*%
X44704000Y-33274000D03*
%TO.N,SWCLK*%
X44704000Y-34544000D03*
%TO.N,GND*%
X43434000Y-33274000D03*
%TO.N,SWO*%
X43434000Y-34544000D03*
%TO.N,unconnected-(J14-KEY-Pad7)*%
X42164000Y-33274000D03*
%TO.N,unconnected-(J14-NC{slash}TDI-Pad8)*%
X42164000Y-34544000D03*
%TO.N,unconnected-(J14-GNDDetect-Pad9)*%
X40894000Y-33274000D03*
%TO.N,NRST*%
X40894000Y-34544000D03*
%TD*%
D13*
%TO.N,GND*%
%TO.C,J3*%
X58024000Y-74930000D03*
D11*
%TO.N,ADC1_INP8*%
X65024000Y-74930000D03*
%TO.N,+3.3VA*%
X72024000Y-74930000D03*
%TD*%
D10*
%TO.N,DIG_IN3*%
%TO.C,J8*%
X29487342Y-69736393D03*
D11*
%TO.N,+3V3*%
X29487342Y-62736393D03*
%TD*%
D13*
%TO.N,DIG_IN1*%
%TO.C,J6*%
X79107607Y-74953342D03*
D11*
%TO.N,+3V3*%
X86107607Y-74953342D03*
%TD*%
D14*
%TO.N,GUITAR_IN_switch*%
%TO.C,JP1*%
X34398306Y-53327793D03*
D15*
%TO.N,GUITAR_IN_P*%
X34398306Y-55867793D03*
%TO.N,GUITAR_IN_\u00B5C*%
X34398306Y-58407793D03*
%TD*%
D12*
%TO.N,GUITAR_bypass*%
%TO.C,J13*%
X107188000Y-43038000D03*
D11*
%TO.N,GUITAR_OUT_switch*%
X107188000Y-50038000D03*
%TO.N,GUITAR_OUT_\u00B5C*%
X107188000Y-57038000D03*
%TD*%
D13*
%TO.N,GND*%
%TO.C,J2*%
X36942000Y-74930000D03*
D11*
%TO.N,ADC1_INP5*%
X43942000Y-74930000D03*
%TO.N,+3.3VA*%
X50942000Y-74930000D03*
%TD*%
D18*
%TO.N,+3V3*%
X59944000Y-24130000D03*
X69596000Y-43688000D03*
X58928000Y-36830000D03*
X59182000Y-45974000D03*
X59182000Y-32004000D03*
D19*
X70306378Y-35745910D03*
D18*
X61976000Y-46228000D03*
D19*
%TO.N,GND*%
X63754000Y-43434000D03*
X52832000Y-26416000D03*
X63754000Y-39624000D03*
X30226000Y-34290000D03*
X91186000Y-62484000D03*
X96266000Y-42164000D03*
X85344000Y-64008000D03*
X47752000Y-42926000D03*
X60198000Y-67564000D03*
X85852000Y-40894000D03*
X80772000Y-69342000D03*
X28702000Y-53848000D03*
X61722000Y-42164000D03*
X89662000Y-31242000D03*
X69677788Y-46145625D03*
X95504000Y-69088000D03*
X75184000Y-40132000D03*
X58166000Y-30988000D03*
X70612000Y-30480000D03*
X81026000Y-60706000D03*
X53594000Y-69850000D03*
X53594000Y-67564000D03*
X74422000Y-38608000D03*
X50800000Y-29464000D03*
X55118000Y-44196000D03*
X93980000Y-60706000D03*
X37846000Y-60960000D03*
X47752000Y-29972000D03*
X46228000Y-70358000D03*
X82804000Y-74168000D03*
X89662000Y-36068000D03*
X44450000Y-44450000D03*
X62230000Y-49022000D03*
X45974000Y-24638000D03*
D18*
X68167663Y-48329870D03*
D19*
X69850000Y-69850000D03*
X64262000Y-38608000D03*
X99314000Y-29210000D03*
X60452000Y-50038000D03*
X79248000Y-63754000D03*
X61722000Y-75438000D03*
X47498000Y-75946000D03*
X40640000Y-54864000D03*
X28194000Y-65786000D03*
X34290000Y-51054000D03*
X68580000Y-74168000D03*
X28702000Y-34544000D03*
X59182000Y-54610000D03*
X49022000Y-64516000D03*
X33528000Y-39116000D03*
X30226000Y-46990000D03*
X71882000Y-24892000D03*
X62230000Y-68580000D03*
X37846000Y-47244000D03*
X71882000Y-23622000D03*
X103378000Y-43942000D03*
X64516000Y-35814000D03*
X83058000Y-75692000D03*
X60706000Y-22860000D03*
X50800000Y-42418000D03*
X101346000Y-47498000D03*
X101854000Y-41402000D03*
X82296000Y-66294000D03*
X98044000Y-32258000D03*
X73406000Y-66548000D03*
X42418000Y-56896000D03*
X78994000Y-33782000D03*
X47752000Y-74422000D03*
X98552000Y-49276000D03*
X104394000Y-55118000D03*
X77724000Y-30480000D03*
X61722000Y-58928000D03*
X77216000Y-35306000D03*
X64262000Y-51562000D03*
X56896000Y-26162000D03*
X58928000Y-47752000D03*
X71628000Y-26416000D03*
X88138000Y-69088000D03*
X62230000Y-38862000D03*
X64262000Y-33020000D03*
X99822000Y-57404000D03*
X28194000Y-46990000D03*
X48006000Y-31750000D03*
X87630000Y-31242000D03*
X68580000Y-76200000D03*
X52578000Y-24384000D03*
X94996000Y-36322000D03*
X59690000Y-58674000D03*
X30226000Y-53848000D03*
X37338000Y-32004000D03*
X71310212Y-43755326D03*
X52324000Y-43942000D03*
X67564000Y-66294000D03*
X69088000Y-54864000D03*
X39116000Y-25908000D03*
X100330000Y-66802000D03*
D18*
X68072000Y-52578000D03*
D19*
X34290000Y-68834000D03*
D18*
X67818000Y-51816000D03*
D19*
X87630000Y-37084000D03*
X43180000Y-69850000D03*
X46990000Y-67056000D03*
X66802000Y-41656000D03*
X36830000Y-64262000D03*
X64262000Y-54610000D03*
X37846000Y-44196000D03*
X40386000Y-74676000D03*
X38608000Y-39370000D03*
X72898000Y-70358000D03*
X80264000Y-24638000D03*
X38608000Y-36068000D03*
X40894000Y-44958000D03*
X97536000Y-53086000D03*
X38354000Y-50800000D03*
X30226000Y-66040000D03*
X34544000Y-33020000D03*
X97028000Y-28448000D03*
X74168000Y-36068000D03*
X54610000Y-30734000D03*
X59944000Y-33020000D03*
X67056000Y-33274000D03*
X32766000Y-64008000D03*
X55118000Y-59436000D03*
X42672000Y-67310000D03*
X39116000Y-24892000D03*
X90678000Y-56896000D03*
X62230000Y-70358000D03*
X39878000Y-70104000D03*
X46736000Y-44704000D03*
X91948000Y-38100000D03*
X65786000Y-70104000D03*
X78232000Y-66548000D03*
X87630000Y-60198000D03*
X61214000Y-25654000D03*
X51816000Y-51816000D03*
X65024000Y-66548000D03*
X85852000Y-25146000D03*
X94742000Y-31242000D03*
X76708000Y-40894000D03*
X87376000Y-46482000D03*
X88138000Y-51562000D03*
X58166000Y-66802000D03*
X37338000Y-70358000D03*
X71882000Y-46482000D03*
X51054000Y-32258000D03*
X85852000Y-46482000D03*
X40386000Y-75692000D03*
X86868000Y-38354000D03*
X71120000Y-62230000D03*
X34544000Y-44450000D03*
X32766000Y-36830000D03*
X52832000Y-42418000D03*
X38354000Y-67310000D03*
D18*
X66739987Y-48228822D03*
D19*
X45974000Y-26416000D03*
X66802000Y-40386000D03*
X61214000Y-74422000D03*
X97790000Y-56134000D03*
X65024000Y-61722000D03*
X87884000Y-66802000D03*
X94488000Y-66802000D03*
X61722000Y-40894000D03*
X34036000Y-42164000D03*
X45466000Y-64262000D03*
X56388000Y-70104000D03*
X96520000Y-45974000D03*
X34798000Y-61468000D03*
X99314000Y-47752000D03*
X64770000Y-43180000D03*
X89662000Y-34036000D03*
X97282000Y-65278000D03*
D18*
%TO.N,+3.3VA*%
X71882000Y-45212000D03*
X47244000Y-53594000D03*
X84328000Y-45720000D03*
X48822500Y-52393865D03*
%TO.N,NRST*%
X65786000Y-46228000D03*
X67056000Y-52324000D03*
%TO.N,Net-(C19-Pad1)*%
X60160200Y-36068000D03*
X58928000Y-43548000D03*
%TO.N,DIG_IN1*%
X56388000Y-39116000D03*
X65430400Y-68681600D03*
%TO.N,Net-(U5-OUT)*%
X96266000Y-47244000D03*
X94335600Y-45212000D03*
%TO.N,ADC1_INP4*%
X72228480Y-40825000D03*
%TO.N,ADC1_INP5*%
X62992000Y-60960000D03*
X73660000Y-39878000D03*
%TO.N,ADC1_INP8*%
X73914000Y-41148000D03*
X64262000Y-58420000D03*
%TO.N,I2C1_SDA*%
X58166000Y-41656000D03*
%TO.N,I2C1_SCL*%
X59182000Y-42825000D03*
%TO.N,LED_STATUS1*%
X64516000Y-29464000D03*
X66294000Y-35052000D03*
%TO.N,LED_STATUS2*%
X65785000Y-35814000D03*
X63754000Y-29972000D03*
%TO.N,I2S6_SDI*%
X51054000Y-55372000D03*
X74115766Y-46556326D03*
%TO.N,Net-(U3-OUT)*%
X38862000Y-52324000D03*
X38862000Y-54356000D03*
%TO.N,I2S6_CK*%
X73486200Y-50872200D03*
X73488960Y-46011602D03*
X53603996Y-52455548D03*
%TO.N,I2S6_WS*%
X70222956Y-52921836D03*
X72898000Y-45466000D03*
X58674000Y-53086000D03*
%TO.N,I2S6_MCK*%
X82030004Y-57889321D03*
X53848000Y-56388000D03*
X69088000Y-44450000D03*
%TO.N,I2S6_SDO*%
X73914000Y-43180000D03*
X77470000Y-47244000D03*
%TO.N,DIG_IN2*%
X87225638Y-68165360D03*
X57150000Y-39225000D03*
%TO.N,DIG_IN3*%
X58902600Y-60223400D03*
X56979290Y-39961290D03*
%TO.N,DIG_IN4*%
X57771100Y-40093292D03*
X86868000Y-67552600D03*
%TD*%
D20*
%TO.N,NRST*%
X66983851Y-52361851D02*
X67018149Y-52361851D01*
X67018149Y-52361851D02*
X67056000Y-52324000D01*
X64516000Y-47548800D02*
X65786000Y-46278800D01*
X66983851Y-52361851D02*
X64516000Y-49894000D01*
X64516000Y-49894000D02*
X64516000Y-47548800D01*
X65786000Y-46278800D02*
X65786000Y-46228000D01*
X65836800Y-46228000D02*
X65839213Y-46225587D01*
X65786000Y-46228000D02*
X65836800Y-46228000D01*
%TO.N,Net-(C19-Pad1)*%
X58928000Y-43548000D02*
X58534000Y-43548000D01*
X55372000Y-38608000D02*
X57912000Y-36068000D01*
X57912000Y-36068000D02*
X60160200Y-36068000D01*
X55372000Y-40386000D02*
X55372000Y-38608000D01*
X58534000Y-43548000D02*
X55372000Y-40386000D01*
%TO.N,Net-(U5-OUT)*%
X96266000Y-47142400D02*
X94335600Y-45212000D01*
X96266000Y-47244000D02*
X96266000Y-47142400D01*
%TO.N,ADC1_INP4*%
X45324000Y-28194000D02*
X66802000Y-28194000D01*
X66802000Y-28194000D02*
X72136000Y-33528000D01*
X42530000Y-25400000D02*
X45324000Y-28194000D01*
X72228480Y-40825000D02*
X72228480Y-33620480D01*
X72228480Y-33620480D02*
X72136000Y-33528000D01*
%TO.N,LED_STATUS1*%
X66294000Y-35052000D02*
X66294000Y-31242000D01*
X66294000Y-31242000D02*
X64516000Y-29464000D01*
%TO.N,LED_STATUS2*%
X65785000Y-35814000D02*
X65785000Y-31520158D01*
X65785000Y-31520158D02*
X64236842Y-29972000D01*
X64236842Y-29972000D02*
X63754000Y-29972000D01*
%TO.N,I2S6_SDI*%
X74117200Y-46736000D02*
X74117200Y-46557760D01*
X51054000Y-55372000D02*
X51308000Y-55626000D01*
X74117200Y-46557760D02*
X74115766Y-46556326D01*
X51308000Y-55626000D02*
X70053200Y-55626000D01*
X70053200Y-55626000D02*
X74117200Y-51562000D01*
X74117200Y-51562000D02*
X74117200Y-46736000D01*
%TO.N,Net-(U3-OUT)*%
X38862000Y-52324000D02*
X38862000Y-54356000D01*
%TO.N,I2S6_CK*%
X53603996Y-52455548D02*
X53594000Y-52434000D01*
X73486200Y-50872200D02*
X70510400Y-53848000D01*
X53620711Y-52438833D02*
X53603996Y-52455548D01*
X70510400Y-53848000D02*
X55660000Y-53848000D01*
X55660000Y-53848000D02*
X54250833Y-52438833D01*
X73486200Y-47498000D02*
X73486200Y-46014362D01*
X73486200Y-50872200D02*
X73486200Y-47498000D01*
X54250833Y-52438833D02*
X53620711Y-52438833D01*
X73486200Y-46014362D02*
X73488960Y-46011602D01*
%TO.N,I2S6_WS*%
X72898000Y-50241684D02*
X70222956Y-52916728D01*
X70205842Y-52933842D02*
X70053684Y-53086000D01*
X72898000Y-45466000D02*
X72898000Y-50241684D01*
X70053684Y-53086000D02*
X58674000Y-53086000D01*
X70205842Y-52933842D02*
X70217848Y-52921836D01*
X70217848Y-52921836D02*
X70222956Y-52921836D01*
X70222956Y-52916728D02*
X70222956Y-52921836D01*
%TO.N,I2S6_MCK*%
X74676000Y-53848000D02*
X78740000Y-57912000D01*
X73344319Y-44450000D02*
X74676000Y-45781681D01*
X72136000Y-56388000D02*
X74676000Y-53848000D01*
X69147172Y-44450000D02*
X73344319Y-44450000D01*
X78740000Y-57912000D02*
X82042000Y-57912000D01*
X69137219Y-44459953D02*
X69147172Y-44450000D01*
X53848000Y-56388000D02*
X72136000Y-56388000D01*
X74676000Y-45781681D02*
X74676000Y-53848000D01*
%TO.N,I2S6_SDO*%
X73914000Y-43180000D02*
X77470000Y-46736000D01*
X77470000Y-46736000D02*
X77470000Y-47244000D01*
%TD*%
M02*
