%TF.GenerationSoftware,KiCad,Pcbnew,9.0.6*%
%TF.CreationDate,2026-01-25T18:40:06+01:00*%
%TF.ProjectId,dispo-board,64697370-6f2d-4626-9f61-72642e6b6963,rev?*%
%TF.SameCoordinates,Original*%
%TF.FileFunction,Copper,L2,Inr*%
%TF.FilePolarity,Positive*%
%FSLAX46Y46*%
G04 Gerber Fmt 4.6, Leading zero omitted, Abs format (unit mm)*
G04 Created by KiCad (PCBNEW 9.0.6) date 2026-01-25 18:40:06*
%MOMM*%
%LPD*%
G01*
G04 APERTURE LIST*
G04 Aperture macros list*
%AMRoundRect*
0 Rectangle with rounded corners*
0 $1 Rounding radius*
0 $2 $3 $4 $5 $6 $7 $8 $9 X,Y pos of 4 corners*
0 Add a 4 corners polygon primitive as box body*
4,1,4,$2,$3,$4,$5,$6,$7,$8,$9,$2,$3,0*
0 Add four circle primitives for the rounded corners*
1,1,$1+$1,$2,$3*
1,1,$1+$1,$4,$5*
1,1,$1+$1,$6,$7*
1,1,$1+$1,$8,$9*
0 Add four rect primitives between the rounded corners*
20,1,$1+$1,$2,$3,$4,$5,0*
20,1,$1+$1,$4,$5,$6,$7,0*
20,1,$1+$1,$6,$7,$8,$9,0*
20,1,$1+$1,$8,$9,$2,$3,0*%
G04 Aperture macros list end*
%TA.AperFunction,ComponentPad*%
%ADD10RoundRect,0.250002X-1.499998X1.499998X-1.499998X-1.499998X1.499998X-1.499998X1.499998X1.499998X0*%
%TD*%
%TA.AperFunction,ComponentPad*%
%ADD11C,3.500000*%
%TD*%
%TA.AperFunction,ComponentPad*%
%ADD12R,1.000000X1.000000*%
%TD*%
%TA.AperFunction,ComponentPad*%
%ADD13C,1.000000*%
%TD*%
%TA.AperFunction,ComponentPad*%
%ADD14RoundRect,0.250002X1.499998X-1.499998X1.499998X1.499998X-1.499998X1.499998X-1.499998X-1.499998X0*%
%TD*%
%TA.AperFunction,ComponentPad*%
%ADD15RoundRect,0.250002X-1.499998X-1.499998X1.499998X-1.499998X1.499998X1.499998X-1.499998X1.499998X0*%
%TD*%
%TA.AperFunction,ComponentPad*%
%ADD16R,1.700000X1.700000*%
%TD*%
%TA.AperFunction,ComponentPad*%
%ADD17C,1.700000*%
%TD*%
%TA.AperFunction,ViaPad*%
%ADD18C,0.800000*%
%TD*%
%TA.AperFunction,Conductor*%
%ADD19C,0.250000*%
%TD*%
%TA.AperFunction,Conductor*%
%ADD20C,0.500000*%
%TD*%
%TA.AperFunction,Conductor*%
%ADD21C,0.200000*%
%TD*%
G04 APERTURE END LIST*
D10*
%TO.N,GND*%
%TO.C,J2*%
X35276658Y-33857607D03*
D11*
%TO.N,GUITAR_IN*%
X35276658Y-40857607D03*
%TD*%
D12*
%TO.N,+3V3*%
%TO.C,J3*%
X65860000Y-91370000D03*
D13*
%TO.N,SWDIO*%
X65860000Y-90100000D03*
%TO.N,GND*%
X67130000Y-91370000D03*
%TO.N,SWCLK*%
X67130000Y-90100000D03*
%TO.N,GND*%
X68400000Y-91370000D03*
%TO.N,SWO*%
X68400000Y-90100000D03*
%TO.N,unconnected-(J3-KEY-Pad7)*%
X69670000Y-91370000D03*
%TO.N,unconnected-(J3-NC{slash}TDI-Pad8)*%
X69670000Y-90100000D03*
%TO.N,unconnected-(J3-GNDDetect-Pad9)*%
X70940000Y-91370000D03*
%TO.N,NRST*%
X70940000Y-90100000D03*
%TD*%
D14*
%TO.N,GUITAR_bypass*%
%TO.C,J7*%
X35300000Y-60000000D03*
D11*
%TO.N,GUITAR_IN_switch*%
X35300000Y-53000000D03*
%TO.N,GUITAR_IN_\u00B5C*%
X35300000Y-46000000D03*
%TD*%
D14*
%TO.N,DIG_IN4*%
%TO.C,J13*%
X35323342Y-84542393D03*
D11*
%TO.N,+3V3*%
X35323342Y-77542393D03*
%TD*%
D15*
%TO.N,DIG_IN2*%
%TO.C,J6*%
X42257607Y-27323342D03*
D11*
%TO.N,+3V3*%
X49257607Y-27323342D03*
%TD*%
D15*
%TO.N,GND*%
%TO.C,J11*%
X62500000Y-98100000D03*
D11*
%TO.N,ADC1_INP8*%
X69500000Y-98100000D03*
%TO.N,+3.3VA*%
X76500000Y-98100000D03*
%TD*%
D14*
%TO.N,GUITAR_bypass*%
%TO.C,J8*%
X84300000Y-60000000D03*
D11*
%TO.N,GUITAR_OUT_switch*%
X84300000Y-53000000D03*
%TO.N,GUITAR_OUT_\u00B5C*%
X84300000Y-46000000D03*
%TD*%
D15*
%TO.N,GND*%
%TO.C,J5*%
X42500000Y-98100000D03*
D11*
%TO.N,ADC1_INP4*%
X49500000Y-98100000D03*
%TO.N,+3.3VA*%
X56500000Y-98100000D03*
%TD*%
D14*
%TO.N,GND*%
%TO.C,J9*%
X84400000Y-92000000D03*
D11*
%TO.N,ADC1_INP5*%
X84400000Y-85000000D03*
%TO.N,+3.3VA*%
X84400000Y-78000000D03*
%TD*%
D16*
%TO.N,GND*%
%TO.C,J12*%
X78080000Y-27500000D03*
D17*
%TO.N,I2C1_SDA*%
X75540000Y-27500000D03*
%TO.N,I2C1_SCL*%
X73000000Y-27500000D03*
%TO.N,+3V3*%
X70460000Y-27500000D03*
%TD*%
D10*
%TO.N,GND*%
%TO.C,J4*%
X84276658Y-33557607D03*
D11*
%TO.N,GUITAR_OUT*%
X84276658Y-40557607D03*
%TD*%
D14*
%TO.N,DIG_IN3*%
%TO.C,J10*%
X35323342Y-72242393D03*
D11*
%TO.N,+3V3*%
X35323342Y-65242393D03*
%TD*%
D14*
%TO.N,DIG_IN1*%
%TO.C,J1*%
X84323342Y-72442393D03*
D11*
%TO.N,+3V3*%
X84323342Y-65442393D03*
%TD*%
D16*
%TO.N,GUITAR_IN_switch*%
%TO.C,JP1*%
X41450000Y-50580000D03*
D17*
%TO.N,GUITAR_IN*%
X41450000Y-48040000D03*
%TO.N,GUITAR_IN_\u00B5C*%
X41450000Y-45500000D03*
%TD*%
D16*
%TO.N,GUITAR_OUT_switch*%
%TO.C,JP2*%
X78400000Y-50530000D03*
D17*
%TO.N,GUITAR_OUT*%
X78400000Y-47990000D03*
%TO.N,GUITAR_OUT_\u00B5C*%
X78400000Y-45450000D03*
%TD*%
D18*
%TO.N,+3V3*%
X61071418Y-45613286D03*
X53625000Y-67300000D03*
X32700000Y-91800000D03*
X64100000Y-67820000D03*
X54700000Y-71900000D03*
X64150000Y-88000000D03*
X54098895Y-86307032D03*
X68000000Y-87000000D03*
X66097364Y-76252636D03*
X58150000Y-78079000D03*
X53900000Y-39900000D03*
X61102768Y-44516022D03*
X53051780Y-39895863D03*
%TO.N,GND*%
X52000000Y-96900000D03*
X65800000Y-36350000D03*
X41400000Y-85200000D03*
X71500000Y-49100000D03*
X51650000Y-55950000D03*
X77350000Y-80450000D03*
X47900000Y-31800000D03*
X75300000Y-66500000D03*
X51750000Y-81650000D03*
X35100000Y-49700000D03*
X47650000Y-38550000D03*
X84250000Y-37300000D03*
X64100000Y-86200000D03*
X68500000Y-27900000D03*
X48100000Y-59100000D03*
X66800000Y-29500000D03*
X53051780Y-38495863D03*
X62000000Y-33900000D03*
X45150000Y-94300000D03*
X58300000Y-31000000D03*
X63000000Y-54000000D03*
X40600000Y-40400000D03*
X80650000Y-35700000D03*
X76100000Y-94250000D03*
X45175000Y-63650000D03*
X52100000Y-42100000D03*
X57800000Y-46950000D03*
X62900000Y-57100000D03*
X64500000Y-41400000D03*
X66000000Y-93500000D03*
X65800000Y-35400000D03*
X80300000Y-96800000D03*
X72900000Y-79950000D03*
X59900000Y-74600000D03*
X38600000Y-98400000D03*
X52100000Y-50300000D03*
X57300000Y-57000000D03*
X84350000Y-56600000D03*
X62000000Y-71200000D03*
X53900000Y-38500000D03*
X69700000Y-83600000D03*
X59025000Y-65700000D03*
X52200000Y-52100000D03*
X57400000Y-74900000D03*
X62400000Y-41000000D03*
X54300000Y-45500000D03*
X52200000Y-99200000D03*
X39900000Y-83700000D03*
X77350000Y-33650000D03*
X64100000Y-63200000D03*
X60500000Y-91300000D03*
X35300000Y-88500000D03*
X63100000Y-80225000D03*
X54400000Y-50400000D03*
X65400000Y-34200000D03*
X73500000Y-68400000D03*
X73500000Y-31800000D03*
X44900000Y-72100000D03*
X66125000Y-78325000D03*
X67300000Y-74400000D03*
X39600000Y-67200000D03*
X66000000Y-54200000D03*
X78100000Y-64400000D03*
X63250000Y-59150000D03*
X45600000Y-28500000D03*
X57400000Y-58950000D03*
X78700000Y-73600000D03*
X63900000Y-94800000D03*
X63100000Y-50900000D03*
X61200000Y-55700000D03*
X46550000Y-40400000D03*
X37900000Y-56700000D03*
X72950000Y-97900000D03*
X54700000Y-52500000D03*
X55000000Y-56300000D03*
X51650000Y-59100000D03*
X80200000Y-94000000D03*
X72300000Y-51500000D03*
X77500000Y-76300000D03*
X68700000Y-44700000D03*
X76050000Y-25400000D03*
X81100000Y-25550000D03*
X56850000Y-64900000D03*
X60400000Y-60000000D03*
X65000000Y-65400000D03*
X80800000Y-31800000D03*
X61700000Y-72600000D03*
X35200000Y-68800000D03*
X40900000Y-74300000D03*
X61600000Y-48600000D03*
X70500000Y-29650000D03*
X49200000Y-67800000D03*
X64000000Y-27500000D03*
X64075000Y-80250000D03*
X46200000Y-68600000D03*
X61200000Y-36000000D03*
X50000000Y-30300000D03*
X65800000Y-41400000D03*
X50000000Y-36700000D03*
X54600000Y-31300000D03*
X47400000Y-86300000D03*
X80700000Y-28900000D03*
X43400000Y-79200000D03*
X41050000Y-35450000D03*
X54300000Y-63100000D03*
X50450000Y-94350000D03*
X62700000Y-37300000D03*
X55750000Y-42020000D03*
X68500000Y-47400000D03*
X62900000Y-90500000D03*
X75450000Y-29300000D03*
X58500000Y-83375000D03*
X38000000Y-29100000D03*
X51900000Y-71350000D03*
X62700000Y-36000000D03*
X68800000Y-41900000D03*
X80800000Y-40550000D03*
X80250000Y-60600000D03*
X47400000Y-83900000D03*
X61200000Y-37300000D03*
X49900000Y-70800000D03*
X65050000Y-28800000D03*
X35100000Y-81000000D03*
X68700000Y-31700000D03*
X34400000Y-37600000D03*
X49100000Y-58800000D03*
X68600000Y-33900000D03*
X80000000Y-91250000D03*
X38600000Y-32100000D03*
X64500000Y-42400000D03*
X66600000Y-97500000D03*
X73100000Y-40600000D03*
X72700000Y-44800000D03*
X60859617Y-42717050D03*
X48200000Y-79950000D03*
X45225000Y-64650000D03*
X38200000Y-63900000D03*
X57300000Y-30000000D03*
X50100000Y-41100000D03*
X66700000Y-83700000D03*
X54300000Y-61900000D03*
X39700000Y-79050000D03*
X61200000Y-75300000D03*
X64500000Y-35400000D03*
X64500000Y-36300000D03*
X54400000Y-47700000D03*
X49200000Y-46000000D03*
X84150000Y-68850000D03*
X51400000Y-82900000D03*
X49200000Y-50250000D03*
X40600000Y-72200000D03*
X61800000Y-62300000D03*
X68200000Y-95600000D03*
X40700000Y-87800000D03*
X84250000Y-81850000D03*
X67400000Y-82700000D03*
X77350000Y-39450000D03*
X53750000Y-78950000D03*
X62300000Y-60100000D03*
X38100000Y-59300000D03*
X45400000Y-79700000D03*
X56700000Y-95500000D03*
X70000000Y-81700000D03*
X55600000Y-84100000D03*
X49000000Y-42750000D03*
X67300000Y-73300000D03*
X73800000Y-34300000D03*
X61400000Y-59000000D03*
X58700000Y-90400000D03*
X49150000Y-52350000D03*
X42700000Y-89600000D03*
X59900000Y-70600000D03*
X68700000Y-37900000D03*
X65800000Y-42500000D03*
X68400000Y-54600000D03*
X81200000Y-86500000D03*
X80200000Y-71600000D03*
X54200000Y-29600000D03*
X71500000Y-65600000D03*
X69800000Y-86600000D03*
X79500000Y-68500000D03*
X59000000Y-52400000D03*
X66000000Y-50300000D03*
X79550000Y-55050000D03*
X52100000Y-63800000D03*
X46250000Y-98300000D03*
X73100000Y-75450000D03*
X45900000Y-74400000D03*
X66100000Y-47200000D03*
X62000000Y-31500000D03*
X75400000Y-86500000D03*
X42600000Y-69400000D03*
X71900000Y-70700000D03*
X58800000Y-50200000D03*
X50000000Y-38850000D03*
X54100000Y-94800000D03*
X63200000Y-41400000D03*
X51900000Y-45900000D03*
X63800000Y-56200000D03*
X58100000Y-71800000D03*
X84600000Y-49650000D03*
X60150000Y-94200000D03*
X56750000Y-42020000D03*
X81200000Y-83500000D03*
X55700000Y-59950000D03*
X62600000Y-88200000D03*
X64800000Y-31400000D03*
X66000000Y-55900000D03*
X43600000Y-32100000D03*
X54650000Y-58900000D03*
X73500000Y-38000000D03*
X75600000Y-91200000D03*
X52100000Y-62000000D03*
X73600000Y-50700000D03*
X71950000Y-25550000D03*
X49500000Y-73600000D03*
X75300000Y-83800000D03*
X58700000Y-88300000D03*
X50000000Y-37850000D03*
X65025000Y-80250000D03*
X68600000Y-51800000D03*
X35100000Y-56800000D03*
X39300000Y-94300000D03*
X66100000Y-44600000D03*
X84350000Y-88300000D03*
%TO.N,+1V0*%
X64489500Y-68700000D03*
X57625000Y-67825000D03*
X62202000Y-78100000D03*
%TO.N,NRST*%
X55126983Y-89298241D03*
X54978667Y-78002370D03*
X46250000Y-89750000D03*
%TO.N,DIG_IN2*%
X59425000Y-61650000D03*
X57000000Y-61672998D03*
%TO.N,DIG_IN3*%
X57000000Y-62600000D03*
X59425000Y-62575000D03*
%TO.N,DIG_IN4*%
X57000000Y-63500000D03*
X59450000Y-63525000D03*
%TO.N,Net-(U4-V+)*%
X73585325Y-53842495D03*
X80600000Y-55400000D03*
%TO.N,+3.3VA*%
X44310475Y-65750000D03*
X64929445Y-45589634D03*
X45332507Y-65750000D03*
X55900000Y-77900000D03*
X64904247Y-44511158D03*
X75575895Y-59278165D03*
X42000000Y-62000000D03*
X72811232Y-57140532D03*
X46100000Y-50900000D03*
X74385741Y-59270908D03*
%TO.N,+5V*%
X53051780Y-36395863D03*
X53900000Y-35500000D03*
X53900000Y-36400000D03*
X53900000Y-37300000D03*
X53051780Y-35495863D03*
X53051780Y-37295863D03*
%TO.N,SWCLK*%
X63200000Y-67548000D03*
X68083000Y-70300000D03*
%TO.N,SWO*%
X60400000Y-67200000D03*
X68900000Y-69500000D03*
%TO.N,ADC1_INP4*%
X60600000Y-83200000D03*
%TO.N,ADC1_INP5*%
X62400003Y-83200000D03*
%TO.N,ADC1_INP8*%
X61500000Y-83200000D03*
%TO.N,USBD-*%
X60800000Y-29800000D03*
X65900000Y-72944003D03*
%TO.N,USBD+*%
X65900000Y-72017000D03*
X59200000Y-29800000D03*
%TO.N,I2S6_SDI*%
X48600000Y-66200000D03*
X59767000Y-80500000D03*
%TO.N,I2S6_SDO*%
X60500000Y-79900000D03*
X71000000Y-58600000D03*
%TO.N,I2S6_CK*%
X71040184Y-59526132D03*
X59100000Y-81183000D03*
X48600000Y-65272997D03*
%TO.N,I2S6_WS*%
X58379906Y-81883000D03*
X71100000Y-60500000D03*
X48600000Y-64300000D03*
%TO.N,I2S6_MCK*%
X48600000Y-63300000D03*
X57000000Y-82500000D03*
X71100000Y-61500000D03*
%TD*%
D19*
%TO.N,+3V3*%
X54900000Y-67300000D02*
X53625000Y-67300000D01*
X58150000Y-78079000D02*
X58133000Y-78062000D01*
X64500000Y-76900000D02*
X59800000Y-72200000D01*
D20*
X53051780Y-39895863D02*
X53200000Y-40044083D01*
D19*
X65450000Y-76900000D02*
X64500000Y-76900000D01*
D20*
X53200000Y-66875000D02*
X53625000Y-67300000D01*
D19*
X59800000Y-72200000D02*
X59720000Y-72200000D01*
X53625000Y-67300000D02*
X53800000Y-67475000D01*
X59720000Y-72120000D02*
X54900000Y-67300000D01*
D20*
X53200000Y-40044083D02*
X53200000Y-66875000D01*
D19*
X59720000Y-72200000D02*
X59720000Y-72120000D01*
X59720000Y-72200000D02*
X64100000Y-67820000D01*
X53800000Y-71000000D02*
X54700000Y-71900000D01*
X58133000Y-78062000D02*
X58133000Y-73787000D01*
X58133000Y-73787000D02*
X59720000Y-72200000D01*
X66097364Y-76252636D02*
X65450000Y-76900000D01*
X53800000Y-67475000D02*
X53800000Y-71000000D01*
%TO.N,GUITAR_bypass*%
X84300000Y-60000000D02*
X83700000Y-60000000D01*
X37000000Y-60000000D02*
X35300000Y-60000000D01*
D21*
%TO.N,USBD-*%
X65400000Y-29800000D02*
X60800000Y-29800000D01*
X65900000Y-72944003D02*
X67300000Y-71544003D01*
X67300000Y-71544003D02*
X67300000Y-31700000D01*
X67300000Y-31700000D02*
X65400000Y-29800000D01*
%TO.N,USBD+*%
X66972000Y-70945000D02*
X66972000Y-31872000D01*
X59900000Y-30500000D02*
X59200000Y-29800000D01*
X66972000Y-31872000D02*
X65600000Y-30500000D01*
X65900000Y-72017000D02*
X66972000Y-70945000D01*
X65600000Y-30500000D02*
X59900000Y-30500000D01*
%TD*%
%TA.AperFunction,Conductor*%
%TO.N,GND*%
G36*
X84588777Y-24336655D02*
G01*
X84894121Y-24353803D01*
X84905144Y-24355045D01*
X85203921Y-24405809D01*
X85214715Y-24408272D01*
X85505940Y-24492173D01*
X85516411Y-24495837D01*
X85722776Y-24581317D01*
X85796390Y-24611809D01*
X85806392Y-24616626D01*
X86071619Y-24763211D01*
X86081020Y-24769117D01*
X86223372Y-24870122D01*
X86328172Y-24944481D01*
X86336849Y-24951401D01*
X86562822Y-25153342D01*
X86570657Y-25161177D01*
X86588164Y-25180767D01*
X86772596Y-25387147D01*
X86779518Y-25395827D01*
X86954882Y-25642980D01*
X86960788Y-25652380D01*
X87107373Y-25917607D01*
X87112190Y-25927609D01*
X87228160Y-26207584D01*
X87231827Y-26218063D01*
X87315723Y-26509269D01*
X87318193Y-26520093D01*
X87368953Y-26818850D01*
X87370196Y-26829882D01*
X87387344Y-27135222D01*
X87387500Y-27140773D01*
X87387500Y-98359226D01*
X87387344Y-98364777D01*
X87370196Y-98670117D01*
X87368953Y-98681149D01*
X87318193Y-98979906D01*
X87315723Y-98990730D01*
X87231827Y-99281936D01*
X87228160Y-99292415D01*
X87112190Y-99572390D01*
X87107373Y-99582392D01*
X86960788Y-99847619D01*
X86954882Y-99857019D01*
X86779518Y-100104172D01*
X86772596Y-100112852D01*
X86570665Y-100338814D01*
X86562814Y-100346665D01*
X86336852Y-100548596D01*
X86328172Y-100555518D01*
X86081019Y-100730882D01*
X86071619Y-100736788D01*
X85806392Y-100883373D01*
X85796390Y-100888190D01*
X85516415Y-101004160D01*
X85505936Y-101007827D01*
X85214730Y-101091723D01*
X85203906Y-101094193D01*
X84905149Y-101144953D01*
X84894117Y-101146196D01*
X84588778Y-101163344D01*
X84583227Y-101163500D01*
X34804773Y-101163500D01*
X34799222Y-101163344D01*
X34493882Y-101146196D01*
X34482850Y-101144953D01*
X34184093Y-101094193D01*
X34173271Y-101091723D01*
X34099728Y-101070536D01*
X33882063Y-101007827D01*
X33871584Y-101004160D01*
X33591609Y-100888190D01*
X33581607Y-100883373D01*
X33316380Y-100736788D01*
X33306980Y-100730882D01*
X33059827Y-100555518D01*
X33051147Y-100548596D01*
X32825177Y-100346657D01*
X32817342Y-100338822D01*
X32615401Y-100112849D01*
X32608481Y-100104172D01*
X32433117Y-99857019D01*
X32427211Y-99847619D01*
X32280626Y-99582392D01*
X32275809Y-99572390D01*
X32159839Y-99292415D01*
X32156172Y-99281936D01*
X32095062Y-99069820D01*
X32072272Y-98990715D01*
X32069809Y-98979921D01*
X32019045Y-98681144D01*
X32017803Y-98670117D01*
X32013530Y-98594034D01*
X32000656Y-98364777D01*
X32000500Y-98359226D01*
X32000500Y-98255710D01*
X33451499Y-98255710D01*
X33451499Y-98468291D01*
X33484751Y-98678239D01*
X33550442Y-98880413D01*
X33646947Y-99069816D01*
X33646949Y-99069820D01*
X33771890Y-99241787D01*
X33771892Y-99241789D01*
X33771895Y-99241793D01*
X33922207Y-99392105D01*
X33922210Y-99392107D01*
X33922212Y-99392109D01*
X34094179Y-99517050D01*
X34094183Y-99517052D01*
X34283587Y-99613558D01*
X34485756Y-99679247D01*
X34485757Y-99679247D01*
X34485760Y-99679248D01*
X34695709Y-99712501D01*
X34695712Y-99712501D01*
X34908289Y-99712501D01*
X35118237Y-99679248D01*
X35118238Y-99679247D01*
X35118242Y-99679247D01*
X35320411Y-99613558D01*
X35509815Y-99517052D01*
X35681791Y-99392105D01*
X35832103Y-99241793D01*
X35957050Y-99069817D01*
X36053556Y-98880413D01*
X36119245Y-98678244D01*
X36132583Y-98594034D01*
X36152499Y-98468291D01*
X36152499Y-98255710D01*
X36130329Y-98115743D01*
X36119245Y-98045758D01*
X36111474Y-98021842D01*
X36104218Y-97999508D01*
X36104218Y-97999505D01*
X36053559Y-97843595D01*
X36053557Y-97843592D01*
X36053556Y-97843591D01*
X36053556Y-97843589D01*
X35957050Y-97654185D01*
X35957048Y-97654181D01*
X35832107Y-97482214D01*
X35832105Y-97482212D01*
X35832103Y-97482209D01*
X35681791Y-97331897D01*
X35681787Y-97331894D01*
X35681785Y-97331892D01*
X35509818Y-97206951D01*
X35509814Y-97206949D01*
X35320411Y-97110444D01*
X35118237Y-97044753D01*
X34908289Y-97011501D01*
X34908286Y-97011501D01*
X34695712Y-97011501D01*
X34695709Y-97011501D01*
X34485760Y-97044753D01*
X34283586Y-97110444D01*
X34094183Y-97206949D01*
X34094179Y-97206951D01*
X33922212Y-97331892D01*
X33771890Y-97482214D01*
X33646949Y-97654181D01*
X33646947Y-97654185D01*
X33550442Y-97843588D01*
X33484751Y-98045762D01*
X33451499Y-98255710D01*
X32000500Y-98255710D01*
X32000500Y-96550014D01*
X40250000Y-96550014D01*
X40250000Y-97849999D01*
X40250001Y-97850000D01*
X41764700Y-97850000D01*
X41754783Y-97873941D01*
X41725000Y-98023669D01*
X41725000Y-98176331D01*
X41754783Y-98326059D01*
X41764700Y-98350000D01*
X40250002Y-98350000D01*
X40250001Y-98350001D01*
X40250001Y-99649984D01*
X40260492Y-99752685D01*
X40260495Y-99752697D01*
X40315643Y-99919122D01*
X40407680Y-100068339D01*
X40531660Y-100192319D01*
X40680877Y-100284356D01*
X40847308Y-100339506D01*
X40950014Y-100349999D01*
X42249998Y-100349999D01*
X42250000Y-100349998D01*
X42250000Y-98835300D01*
X42273941Y-98845217D01*
X42423669Y-98875000D01*
X42576331Y-98875000D01*
X42726059Y-98845217D01*
X42750000Y-98835300D01*
X42750000Y-100349998D01*
X42750001Y-100349999D01*
X44049984Y-100349999D01*
X44152685Y-100339507D01*
X44152697Y-100339504D01*
X44319122Y-100284356D01*
X44468339Y-100192319D01*
X44592319Y-100068339D01*
X44684356Y-99919122D01*
X44739506Y-99752691D01*
X44750000Y-99649985D01*
X44750000Y-98350001D01*
X44749999Y-98350000D01*
X43235300Y-98350000D01*
X43245217Y-98326059D01*
X43275000Y-98176331D01*
X43275000Y-98023669D01*
X43264753Y-97972156D01*
X47549500Y-97972156D01*
X47549500Y-98227843D01*
X47582873Y-98481332D01*
X47582873Y-98481337D01*
X47649050Y-98728314D01*
X47746892Y-98964527D01*
X47746894Y-98964531D01*
X47746896Y-98964535D01*
X47874739Y-99185965D01*
X47874741Y-99185968D01*
X48030384Y-99388806D01*
X48030386Y-99388808D01*
X48030390Y-99388813D01*
X48211187Y-99569610D01*
X48211191Y-99569613D01*
X48211193Y-99569615D01*
X48354068Y-99679247D01*
X48414035Y-99725261D01*
X48635465Y-99853104D01*
X48635471Y-99853106D01*
X48635472Y-99853107D01*
X48722733Y-99889251D01*
X48871687Y-99950950D01*
X49118660Y-100017126D01*
X49372157Y-100050500D01*
X49372158Y-100050500D01*
X49627842Y-100050500D01*
X49627843Y-100050500D01*
X49881340Y-100017126D01*
X50128313Y-99950950D01*
X50364535Y-99853104D01*
X50585965Y-99725261D01*
X50788813Y-99569610D01*
X50969610Y-99388813D01*
X51125261Y-99185965D01*
X51253104Y-98964535D01*
X51350950Y-98728313D01*
X51417126Y-98481340D01*
X51450500Y-98227843D01*
X51450500Y-97972157D01*
X51450500Y-97972156D01*
X54549500Y-97972156D01*
X54549500Y-98227843D01*
X54582873Y-98481332D01*
X54582873Y-98481337D01*
X54649050Y-98728314D01*
X54746892Y-98964527D01*
X54746894Y-98964531D01*
X54746896Y-98964535D01*
X54874739Y-99185965D01*
X54874741Y-99185968D01*
X55030384Y-99388806D01*
X55030386Y-99388808D01*
X55030390Y-99388813D01*
X55211187Y-99569610D01*
X55211191Y-99569613D01*
X55211193Y-99569615D01*
X55354068Y-99679247D01*
X55414035Y-99725261D01*
X55635465Y-99853104D01*
X55635471Y-99853106D01*
X55635472Y-99853107D01*
X55722733Y-99889251D01*
X55871687Y-99950950D01*
X56118660Y-100017126D01*
X56372157Y-100050500D01*
X56372158Y-100050500D01*
X56627842Y-100050500D01*
X56627843Y-100050500D01*
X56881340Y-100017126D01*
X57128313Y-99950950D01*
X57364535Y-99853104D01*
X57585965Y-99725261D01*
X57788813Y-99569610D01*
X57969610Y-99388813D01*
X58125261Y-99185965D01*
X58253104Y-98964535D01*
X58350950Y-98728313D01*
X58417126Y-98481340D01*
X58450500Y-98227843D01*
X58450500Y-97972157D01*
X58417126Y-97718660D01*
X58350950Y-97471687D01*
X58253104Y-97235465D01*
X58125261Y-97014035D01*
X57969610Y-96811187D01*
X57788813Y-96630390D01*
X57788808Y-96630386D01*
X57788807Y-96630385D01*
X57783152Y-96626046D01*
X57783151Y-96626045D01*
X57684066Y-96550014D01*
X60250000Y-96550014D01*
X60250000Y-97849999D01*
X60250001Y-97850000D01*
X61764700Y-97850000D01*
X61754783Y-97873941D01*
X61725000Y-98023669D01*
X61725000Y-98176331D01*
X61754783Y-98326059D01*
X61764700Y-98350000D01*
X60250002Y-98350000D01*
X60250001Y-98350001D01*
X60250001Y-99649984D01*
X60260492Y-99752685D01*
X60260495Y-99752697D01*
X60315643Y-99919122D01*
X60407680Y-100068339D01*
X60531660Y-100192319D01*
X60680877Y-100284356D01*
X60847308Y-100339506D01*
X60950014Y-100349999D01*
X62249998Y-100349999D01*
X62250000Y-100349998D01*
X62250000Y-98835300D01*
X62273941Y-98845217D01*
X62423669Y-98875000D01*
X62576331Y-98875000D01*
X62726059Y-98845217D01*
X62750000Y-98835300D01*
X62750000Y-100349998D01*
X62750001Y-100349999D01*
X64049984Y-100349999D01*
X64152685Y-100339507D01*
X64152697Y-100339504D01*
X64319122Y-100284356D01*
X64468339Y-100192319D01*
X64592319Y-100068339D01*
X64684356Y-99919122D01*
X64739506Y-99752691D01*
X64750000Y-99649985D01*
X64750000Y-98350001D01*
X64749999Y-98350000D01*
X63235300Y-98350000D01*
X63245217Y-98326059D01*
X63275000Y-98176331D01*
X63275000Y-98023669D01*
X63264753Y-97972156D01*
X67549500Y-97972156D01*
X67549500Y-98227843D01*
X67582873Y-98481332D01*
X67582873Y-98481337D01*
X67649050Y-98728314D01*
X67746892Y-98964527D01*
X67746894Y-98964531D01*
X67746896Y-98964535D01*
X67874739Y-99185965D01*
X67874741Y-99185968D01*
X68030384Y-99388806D01*
X68030386Y-99388808D01*
X68030390Y-99388813D01*
X68211187Y-99569610D01*
X68211191Y-99569613D01*
X68211193Y-99569615D01*
X68354068Y-99679247D01*
X68414035Y-99725261D01*
X68635465Y-99853104D01*
X68635471Y-99853106D01*
X68635472Y-99853107D01*
X68722733Y-99889251D01*
X68871687Y-99950950D01*
X69118660Y-100017126D01*
X69372157Y-100050500D01*
X69372158Y-100050500D01*
X69627842Y-100050500D01*
X69627843Y-100050500D01*
X69881340Y-100017126D01*
X70128313Y-99950950D01*
X70364535Y-99853104D01*
X70585965Y-99725261D01*
X70788813Y-99569610D01*
X70969610Y-99388813D01*
X71125261Y-99185965D01*
X71253104Y-98964535D01*
X71350950Y-98728313D01*
X71417126Y-98481340D01*
X71450500Y-98227843D01*
X71450500Y-97972157D01*
X71450500Y-97972156D01*
X74549500Y-97972156D01*
X74549500Y-98227843D01*
X74582873Y-98481332D01*
X74582873Y-98481337D01*
X74649050Y-98728314D01*
X74746892Y-98964527D01*
X74746894Y-98964531D01*
X74746896Y-98964535D01*
X74874739Y-99185965D01*
X74874741Y-99185968D01*
X75030384Y-99388806D01*
X75030386Y-99388808D01*
X75030390Y-99388813D01*
X75211187Y-99569610D01*
X75211191Y-99569613D01*
X75211193Y-99569615D01*
X75354068Y-99679247D01*
X75414035Y-99725261D01*
X75635465Y-99853104D01*
X75635471Y-99853106D01*
X75635472Y-99853107D01*
X75722733Y-99889251D01*
X75871687Y-99950950D01*
X76118660Y-100017126D01*
X76372157Y-100050500D01*
X76372158Y-100050500D01*
X76627842Y-100050500D01*
X76627843Y-100050500D01*
X76881340Y-100017126D01*
X77128313Y-99950950D01*
X77364535Y-99853104D01*
X77585965Y-99725261D01*
X77788813Y-99569610D01*
X77969610Y-99388813D01*
X78125261Y-99185965D01*
X78253104Y-98964535D01*
X78350950Y-98728313D01*
X78417126Y-98481340D01*
X78446831Y-98255710D01*
X83235501Y-98255710D01*
X83235501Y-98468291D01*
X83268753Y-98678239D01*
X83334444Y-98880413D01*
X83430949Y-99069816D01*
X83430951Y-99069820D01*
X83555892Y-99241787D01*
X83555894Y-99241789D01*
X83555897Y-99241793D01*
X83706209Y-99392105D01*
X83706212Y-99392107D01*
X83706214Y-99392109D01*
X83878181Y-99517050D01*
X83878185Y-99517052D01*
X84067589Y-99613558D01*
X84269758Y-99679247D01*
X84269759Y-99679247D01*
X84269762Y-99679248D01*
X84479711Y-99712501D01*
X84479714Y-99712501D01*
X84692291Y-99712501D01*
X84902239Y-99679248D01*
X84902240Y-99679247D01*
X84902244Y-99679247D01*
X85104413Y-99613558D01*
X85293817Y-99517052D01*
X85465793Y-99392105D01*
X85616105Y-99241793D01*
X85741052Y-99069817D01*
X85837558Y-98880413D01*
X85903247Y-98678244D01*
X85916585Y-98594034D01*
X85936501Y-98468291D01*
X85936501Y-98255710D01*
X85903248Y-98045762D01*
X85903247Y-98045758D01*
X85837558Y-97843589D01*
X85741052Y-97654185D01*
X85741050Y-97654181D01*
X85616109Y-97482214D01*
X85616107Y-97482212D01*
X85616105Y-97482209D01*
X85465793Y-97331897D01*
X85465789Y-97331894D01*
X85465787Y-97331892D01*
X85293820Y-97206951D01*
X85293816Y-97206949D01*
X85104413Y-97110444D01*
X84902239Y-97044753D01*
X84692291Y-97011501D01*
X84692288Y-97011501D01*
X84479714Y-97011501D01*
X84479711Y-97011501D01*
X84269762Y-97044753D01*
X84067588Y-97110444D01*
X83878185Y-97206949D01*
X83878181Y-97206951D01*
X83706214Y-97331892D01*
X83555892Y-97482214D01*
X83430951Y-97654181D01*
X83430949Y-97654185D01*
X83334444Y-97843588D01*
X83268753Y-98045762D01*
X83235501Y-98255710D01*
X78446831Y-98255710D01*
X78450500Y-98227843D01*
X78450500Y-97972157D01*
X78417126Y-97718660D01*
X78350950Y-97471687D01*
X78253104Y-97235465D01*
X78125261Y-97014035D01*
X77969610Y-96811187D01*
X77788813Y-96630390D01*
X77788808Y-96630386D01*
X77788806Y-96630384D01*
X77585968Y-96474741D01*
X77585965Y-96474739D01*
X77364535Y-96346896D01*
X77364531Y-96346894D01*
X77364527Y-96346892D01*
X77128314Y-96249050D01*
X77019413Y-96219870D01*
X76881340Y-96182874D01*
X76881337Y-96182873D01*
X76881335Y-96182873D01*
X76627843Y-96149500D01*
X76372157Y-96149500D01*
X76372156Y-96149500D01*
X76118667Y-96182873D01*
X76118662Y-96182873D01*
X75871685Y-96249050D01*
X75635472Y-96346892D01*
X75414031Y-96474741D01*
X75211193Y-96630384D01*
X75030384Y-96811193D01*
X74874741Y-97014031D01*
X74746892Y-97235472D01*
X74649050Y-97471685D01*
X74582873Y-97718662D01*
X74582873Y-97718667D01*
X74549500Y-97972156D01*
X71450500Y-97972156D01*
X71417126Y-97718660D01*
X71350950Y-97471687D01*
X71253104Y-97235465D01*
X71125261Y-97014035D01*
X70969610Y-96811187D01*
X70788813Y-96630390D01*
X70788808Y-96630386D01*
X70788806Y-96630384D01*
X70585968Y-96474741D01*
X70585965Y-96474739D01*
X70364535Y-96346896D01*
X70364531Y-96346894D01*
X70364527Y-96346892D01*
X70128314Y-96249050D01*
X70019413Y-96219870D01*
X69881340Y-96182874D01*
X69881337Y-96182873D01*
X69881335Y-96182873D01*
X69627843Y-96149500D01*
X69372157Y-96149500D01*
X69372156Y-96149500D01*
X69118667Y-96182873D01*
X69118662Y-96182873D01*
X68871685Y-96249050D01*
X68635472Y-96346892D01*
X68414031Y-96474741D01*
X68211193Y-96630384D01*
X68030384Y-96811193D01*
X67874741Y-97014031D01*
X67746892Y-97235472D01*
X67649050Y-97471685D01*
X67582873Y-97718662D01*
X67582873Y-97718667D01*
X67549500Y-97972156D01*
X63264753Y-97972156D01*
X63245217Y-97873941D01*
X63235300Y-97850000D01*
X64749998Y-97850000D01*
X64749999Y-97849999D01*
X64749999Y-96550015D01*
X64739507Y-96447314D01*
X64739504Y-96447302D01*
X64684356Y-96280877D01*
X64592319Y-96131660D01*
X64468339Y-96007680D01*
X64319122Y-95915643D01*
X64152691Y-95860493D01*
X64049985Y-95850000D01*
X62750001Y-95850000D01*
X62750000Y-95850001D01*
X62750000Y-97364699D01*
X62726059Y-97354783D01*
X62576331Y-97325000D01*
X62423669Y-97325000D01*
X62273941Y-97354783D01*
X62250000Y-97364699D01*
X62250000Y-95850001D01*
X62249999Y-95850000D01*
X60950015Y-95850000D01*
X60847314Y-95860492D01*
X60847302Y-95860495D01*
X60680877Y-95915643D01*
X60531660Y-96007680D01*
X60407680Y-96131660D01*
X60315643Y-96280877D01*
X60260493Y-96447308D01*
X60250000Y-96550014D01*
X57684066Y-96550014D01*
X57585968Y-96474741D01*
X57585965Y-96474739D01*
X57364535Y-96346896D01*
X57364531Y-96346894D01*
X57364527Y-96346892D01*
X57128314Y-96249050D01*
X57019413Y-96219870D01*
X56881340Y-96182874D01*
X56881337Y-96182873D01*
X56881335Y-96182873D01*
X56627843Y-96149500D01*
X56372157Y-96149500D01*
X56372156Y-96149500D01*
X56118667Y-96182873D01*
X56118662Y-96182873D01*
X55871685Y-96249050D01*
X55635472Y-96346892D01*
X55414031Y-96474741D01*
X55211193Y-96630384D01*
X55030384Y-96811193D01*
X54874741Y-97014031D01*
X54746892Y-97235472D01*
X54649050Y-97471685D01*
X54582873Y-97718662D01*
X54582873Y-97718667D01*
X54549500Y-97972156D01*
X51450500Y-97972156D01*
X51417126Y-97718660D01*
X51350950Y-97471687D01*
X51253104Y-97235465D01*
X51125261Y-97014035D01*
X50969610Y-96811187D01*
X50788813Y-96630390D01*
X50788808Y-96630386D01*
X50788806Y-96630384D01*
X50585968Y-96474741D01*
X50585965Y-96474739D01*
X50364535Y-96346896D01*
X50364531Y-96346894D01*
X50364527Y-96346892D01*
X50128314Y-96249050D01*
X50019413Y-96219870D01*
X49881340Y-96182874D01*
X49881337Y-96182873D01*
X49881335Y-96182873D01*
X49627843Y-96149500D01*
X49372157Y-96149500D01*
X49372156Y-96149500D01*
X49118667Y-96182873D01*
X49118662Y-96182873D01*
X48871685Y-96249050D01*
X48635472Y-96346892D01*
X48414031Y-96474741D01*
X48211193Y-96630384D01*
X48030384Y-96811193D01*
X47874741Y-97014031D01*
X47746892Y-97235472D01*
X47649050Y-97471685D01*
X47582873Y-97718662D01*
X47582873Y-97718667D01*
X47549500Y-97972156D01*
X43264753Y-97972156D01*
X43245217Y-97873941D01*
X43235300Y-97850000D01*
X44749998Y-97850000D01*
X44749999Y-97849999D01*
X44749999Y-96550015D01*
X44739507Y-96447314D01*
X44739504Y-96447302D01*
X44684356Y-96280877D01*
X44592319Y-96131660D01*
X44468339Y-96007680D01*
X44319122Y-95915643D01*
X44152691Y-95860493D01*
X44049985Y-95850000D01*
X42750001Y-95850000D01*
X42750000Y-95850001D01*
X42750000Y-97364699D01*
X42726059Y-97354783D01*
X42576331Y-97325000D01*
X42423669Y-97325000D01*
X42273941Y-97354783D01*
X42250000Y-97364699D01*
X42250000Y-95850001D01*
X42249999Y-95850000D01*
X40950015Y-95850000D01*
X40847314Y-95860492D01*
X40847302Y-95860495D01*
X40680877Y-95915643D01*
X40531660Y-96007680D01*
X40407680Y-96131660D01*
X40315643Y-96280877D01*
X40260493Y-96447308D01*
X40250000Y-96550014D01*
X32000500Y-96550014D01*
X32000500Y-92158903D01*
X32019407Y-92100712D01*
X32068907Y-92064748D01*
X32130093Y-92064748D01*
X32179593Y-92100712D01*
X32185232Y-92109397D01*
X32219480Y-92168716D01*
X32331284Y-92280520D01*
X32468216Y-92359577D01*
X32620943Y-92400500D01*
X32620945Y-92400500D01*
X32779055Y-92400500D01*
X32779057Y-92400500D01*
X32931784Y-92359577D01*
X33068716Y-92280520D01*
X33116662Y-92232574D01*
X66620979Y-92232574D01*
X66656324Y-92256190D01*
X66838310Y-92331570D01*
X67031506Y-92369999D01*
X67031510Y-92370000D01*
X67228490Y-92370000D01*
X67228493Y-92369999D01*
X67421688Y-92331570D01*
X67421690Y-92331570D01*
X67603673Y-92256191D01*
X67639018Y-92232573D01*
X67890980Y-92232573D01*
X67926316Y-92256186D01*
X67926325Y-92256190D01*
X68108310Y-92331570D01*
X68301506Y-92369999D01*
X68301510Y-92370000D01*
X68498490Y-92370000D01*
X68498493Y-92369999D01*
X68691688Y-92331570D01*
X68691690Y-92331570D01*
X68873675Y-92256190D01*
X68909019Y-92232574D01*
X68399999Y-91723554D01*
X67890980Y-92232573D01*
X67639018Y-92232573D01*
X67129999Y-91723554D01*
X66620979Y-92232574D01*
X33116662Y-92232574D01*
X33180520Y-92168716D01*
X33259577Y-92031784D01*
X33300500Y-91879057D01*
X33300500Y-91720943D01*
X33259577Y-91568216D01*
X33180520Y-91431284D01*
X33068716Y-91319480D01*
X32931784Y-91240423D01*
X32779057Y-91199500D01*
X32620943Y-91199500D01*
X32525776Y-91225000D01*
X32468216Y-91240423D01*
X32331284Y-91319480D01*
X32219478Y-91431286D01*
X32185236Y-91490596D01*
X32139767Y-91531537D01*
X32078917Y-91537933D01*
X32025929Y-91507340D01*
X32001042Y-91451444D01*
X32000500Y-91441096D01*
X32000500Y-89670943D01*
X45649500Y-89670943D01*
X45649500Y-89829057D01*
X45690423Y-89981784D01*
X45769480Y-90118716D01*
X45881284Y-90230520D01*
X46018216Y-90309577D01*
X46170943Y-90350500D01*
X46170945Y-90350500D01*
X46329055Y-90350500D01*
X46329057Y-90350500D01*
X46481784Y-90309577D01*
X46618716Y-90230520D01*
X46730520Y-90118716D01*
X46781160Y-90031004D01*
X65159500Y-90031004D01*
X65159500Y-90168995D01*
X65186420Y-90304327D01*
X65186420Y-90304329D01*
X65239222Y-90431806D01*
X65239228Y-90431818D01*
X65312526Y-90541514D01*
X65329135Y-90600402D01*
X65307958Y-90657806D01*
X65285214Y-90678831D01*
X65215449Y-90725447D01*
X65215445Y-90725451D01*
X65171134Y-90791766D01*
X65171132Y-90791772D01*
X65159501Y-90850241D01*
X65159500Y-90850253D01*
X65159500Y-91889746D01*
X65159501Y-91889758D01*
X65171132Y-91948227D01*
X65171134Y-91948233D01*
X65215445Y-92014548D01*
X65215448Y-92014552D01*
X65281769Y-92058867D01*
X65326231Y-92067711D01*
X65340241Y-92070498D01*
X65340246Y-92070498D01*
X65340252Y-92070500D01*
X65340253Y-92070500D01*
X66379747Y-92070500D01*
X66379748Y-92070500D01*
X66438231Y-92058867D01*
X66504552Y-92014552D01*
X66548867Y-91948231D01*
X66560500Y-91889748D01*
X66560500Y-91626954D01*
X66579407Y-91568763D01*
X66589496Y-91556950D01*
X66805000Y-91341446D01*
X66805000Y-91412787D01*
X66827149Y-91495445D01*
X66869936Y-91569554D01*
X66930446Y-91630064D01*
X67004555Y-91672851D01*
X67087213Y-91695000D01*
X67172787Y-91695000D01*
X67255445Y-91672851D01*
X67329554Y-91630064D01*
X67390064Y-91569554D01*
X67432851Y-91495445D01*
X67455000Y-91412787D01*
X67455000Y-91370000D01*
X67483555Y-91370000D01*
X67765000Y-91651445D01*
X68046445Y-91370000D01*
X67765000Y-91088555D01*
X67483555Y-91370000D01*
X67455000Y-91370000D01*
X67455000Y-91327213D01*
X67432851Y-91244555D01*
X67390064Y-91170446D01*
X67329554Y-91109936D01*
X67255445Y-91067149D01*
X67172787Y-91045000D01*
X67101445Y-91045000D01*
X67386189Y-90760255D01*
X67418306Y-90738795D01*
X67461811Y-90720775D01*
X67576542Y-90644114D01*
X67674114Y-90546542D01*
X67682686Y-90533712D01*
X67730732Y-90495835D01*
X67791871Y-90493431D01*
X67842745Y-90527423D01*
X67847295Y-90533685D01*
X67855886Y-90546542D01*
X67953458Y-90644114D01*
X68005416Y-90678831D01*
X68068187Y-90720774D01*
X68068188Y-90720774D01*
X68068189Y-90720775D01*
X68111689Y-90738793D01*
X68143806Y-90760252D01*
X68428554Y-91045000D01*
X68357213Y-91045000D01*
X68274555Y-91067149D01*
X68200446Y-91109936D01*
X68139936Y-91170446D01*
X68097149Y-91244555D01*
X68075000Y-91327213D01*
X68075000Y-91412787D01*
X68097149Y-91495445D01*
X68139936Y-91569554D01*
X68200446Y-91630064D01*
X68274555Y-91672851D01*
X68357213Y-91695000D01*
X68442787Y-91695000D01*
X68525445Y-91672851D01*
X68599554Y-91630064D01*
X68660064Y-91569554D01*
X68702851Y-91495445D01*
X68725000Y-91412787D01*
X68725000Y-91341446D01*
X69009746Y-91626192D01*
X69031206Y-91658310D01*
X69049224Y-91701810D01*
X69062009Y-91720944D01*
X69125886Y-91816542D01*
X69125889Y-91816545D01*
X69223458Y-91914114D01*
X69338182Y-91990771D01*
X69338193Y-91990777D01*
X69385283Y-92010282D01*
X69465672Y-92043580D01*
X69601007Y-92070500D01*
X69601008Y-92070500D01*
X69738992Y-92070500D01*
X69738993Y-92070500D01*
X69874328Y-92043580D01*
X70001811Y-91990775D01*
X70116542Y-91914114D01*
X70214114Y-91816542D01*
X70222686Y-91803712D01*
X70270732Y-91765835D01*
X70331871Y-91763431D01*
X70382745Y-91797423D01*
X70387295Y-91803685D01*
X70395886Y-91816542D01*
X70395889Y-91816545D01*
X70395890Y-91816546D01*
X70493458Y-91914114D01*
X70608182Y-91990771D01*
X70608193Y-91990777D01*
X70655283Y-92010282D01*
X70735672Y-92043580D01*
X70871007Y-92070500D01*
X70871008Y-92070500D01*
X71008992Y-92070500D01*
X71008993Y-92070500D01*
X71144328Y-92043580D01*
X71271811Y-91990775D01*
X71386542Y-91914114D01*
X71484114Y-91816542D01*
X71560775Y-91701811D01*
X71613580Y-91574328D01*
X71640500Y-91438993D01*
X71640500Y-91301007D01*
X71613580Y-91165672D01*
X71595978Y-91123177D01*
X71560777Y-91038193D01*
X71560771Y-91038182D01*
X71484114Y-90923458D01*
X71386546Y-90825890D01*
X71386545Y-90825889D01*
X71386542Y-90825886D01*
X71373712Y-90817313D01*
X71335835Y-90769268D01*
X71333431Y-90708129D01*
X71367423Y-90657255D01*
X71373685Y-90652704D01*
X71386542Y-90644114D01*
X71484114Y-90546542D01*
X71548612Y-90450014D01*
X82150000Y-90450014D01*
X82150000Y-91749999D01*
X82150001Y-91750000D01*
X83664700Y-91750000D01*
X83654783Y-91773941D01*
X83625000Y-91923669D01*
X83625000Y-92076331D01*
X83654783Y-92226059D01*
X83664700Y-92250000D01*
X82150002Y-92250000D01*
X82150001Y-92250001D01*
X82150001Y-93549984D01*
X82160492Y-93652685D01*
X82160495Y-93652697D01*
X82215643Y-93819122D01*
X82307680Y-93968339D01*
X82431660Y-94092319D01*
X82580877Y-94184356D01*
X82747308Y-94239506D01*
X82850014Y-94249999D01*
X84149998Y-94249999D01*
X84150000Y-94249998D01*
X84150000Y-92735300D01*
X84173941Y-92745217D01*
X84323669Y-92775000D01*
X84476331Y-92775000D01*
X84626059Y-92745217D01*
X84650000Y-92735300D01*
X84650000Y-94249998D01*
X84650001Y-94249999D01*
X85949984Y-94249999D01*
X86052685Y-94239507D01*
X86052697Y-94239504D01*
X86219122Y-94184356D01*
X86368339Y-94092319D01*
X86492319Y-93968339D01*
X86584356Y-93819122D01*
X86639506Y-93652691D01*
X86650000Y-93549985D01*
X86650000Y-92250001D01*
X86649999Y-92250000D01*
X85135300Y-92250000D01*
X85145217Y-92226059D01*
X85175000Y-92076331D01*
X85175000Y-91923669D01*
X85145217Y-91773941D01*
X85135300Y-91750000D01*
X86649998Y-91750000D01*
X86649999Y-91749999D01*
X86649999Y-90450015D01*
X86639507Y-90347314D01*
X86639504Y-90347302D01*
X86584356Y-90180877D01*
X86492319Y-90031660D01*
X86368339Y-89907680D01*
X86219122Y-89815643D01*
X86052691Y-89760493D01*
X85949985Y-89750000D01*
X84650001Y-89750000D01*
X84650000Y-89750001D01*
X84650000Y-91264699D01*
X84626059Y-91254783D01*
X84476331Y-91225000D01*
X84323669Y-91225000D01*
X84173941Y-91254783D01*
X84150000Y-91264699D01*
X84150000Y-89750001D01*
X84149999Y-89750000D01*
X82850015Y-89750000D01*
X82747314Y-89760492D01*
X82747302Y-89760495D01*
X82580877Y-89815643D01*
X82431660Y-89907680D01*
X82307680Y-90031660D01*
X82215643Y-90180877D01*
X82160493Y-90347308D01*
X82150000Y-90450014D01*
X71548612Y-90450014D01*
X71560775Y-90431811D01*
X71575001Y-90397468D01*
X71594455Y-90350500D01*
X71613580Y-90304328D01*
X71640500Y-90168993D01*
X71640500Y-90031007D01*
X71613580Y-89895672D01*
X71585987Y-89829057D01*
X71560777Y-89768193D01*
X71560771Y-89768182D01*
X71484114Y-89653458D01*
X71386541Y-89555885D01*
X71271817Y-89479228D01*
X71271806Y-89479222D01*
X71144328Y-89426420D01*
X71008995Y-89399500D01*
X71008993Y-89399500D01*
X70871007Y-89399500D01*
X70871004Y-89399500D01*
X70735672Y-89426420D01*
X70735670Y-89426420D01*
X70608193Y-89479222D01*
X70608182Y-89479228D01*
X70493458Y-89555885D01*
X70395889Y-89653454D01*
X70395886Y-89653458D01*
X70387315Y-89666286D01*
X70339265Y-89704165D01*
X70278127Y-89706567D01*
X70227253Y-89672574D01*
X70222685Y-89666286D01*
X70214114Y-89653458D01*
X70116542Y-89555886D01*
X70116541Y-89555885D01*
X70001817Y-89479228D01*
X70001806Y-89479222D01*
X69874328Y-89426420D01*
X69738995Y-89399500D01*
X69738993Y-89399500D01*
X69601007Y-89399500D01*
X69601004Y-89399500D01*
X69465672Y-89426420D01*
X69465670Y-89426420D01*
X69338193Y-89479222D01*
X69338182Y-89479228D01*
X69223458Y-89555885D01*
X69125889Y-89653454D01*
X69125886Y-89653458D01*
X69117315Y-89666286D01*
X69069265Y-89704165D01*
X69008127Y-89706567D01*
X68957253Y-89672574D01*
X68952685Y-89666286D01*
X68944114Y-89653458D01*
X68846542Y-89555886D01*
X68846541Y-89555885D01*
X68731817Y-89479228D01*
X68731806Y-89479222D01*
X68604328Y-89426420D01*
X68468995Y-89399500D01*
X68468993Y-89399500D01*
X68331007Y-89399500D01*
X68331004Y-89399500D01*
X68195672Y-89426420D01*
X68195670Y-89426420D01*
X68068193Y-89479222D01*
X68068182Y-89479228D01*
X67953458Y-89555885D01*
X67855889Y-89653454D01*
X67855886Y-89653458D01*
X67847315Y-89666286D01*
X67799265Y-89704165D01*
X67738127Y-89706567D01*
X67687253Y-89672574D01*
X67682685Y-89666286D01*
X67674114Y-89653458D01*
X67576542Y-89555886D01*
X67576541Y-89555885D01*
X67461817Y-89479228D01*
X67461806Y-89479222D01*
X67334328Y-89426420D01*
X67198995Y-89399500D01*
X67198993Y-89399500D01*
X67061007Y-89399500D01*
X67061004Y-89399500D01*
X66925672Y-89426420D01*
X66925670Y-89426420D01*
X66798193Y-89479222D01*
X66798182Y-89479228D01*
X66683458Y-89555885D01*
X66585889Y-89653454D01*
X66585886Y-89653458D01*
X66577315Y-89666286D01*
X66529265Y-89704165D01*
X66468127Y-89706567D01*
X66417253Y-89672574D01*
X66412685Y-89666286D01*
X66404114Y-89653458D01*
X66306542Y-89555886D01*
X66306541Y-89555885D01*
X66191817Y-89479228D01*
X66191806Y-89479222D01*
X66064328Y-89426420D01*
X65928995Y-89399500D01*
X65928993Y-89399500D01*
X65791007Y-89399500D01*
X65791004Y-89399500D01*
X65655672Y-89426420D01*
X65655670Y-89426420D01*
X65528193Y-89479222D01*
X65528182Y-89479228D01*
X65413458Y-89555885D01*
X65315885Y-89653458D01*
X65239228Y-89768182D01*
X65239222Y-89768193D01*
X65186420Y-89895670D01*
X65186420Y-89895672D01*
X65159500Y-90031004D01*
X46781160Y-90031004D01*
X46809577Y-89981784D01*
X46850500Y-89829057D01*
X46850500Y-89670943D01*
X46809577Y-89518216D01*
X46730520Y-89381284D01*
X46618716Y-89269480D01*
X46531600Y-89219184D01*
X54526483Y-89219184D01*
X54526483Y-89377298D01*
X54567406Y-89530025D01*
X54646463Y-89666957D01*
X54758267Y-89778761D01*
X54895199Y-89857818D01*
X55047926Y-89898741D01*
X55047928Y-89898741D01*
X55206038Y-89898741D01*
X55206040Y-89898741D01*
X55358767Y-89857818D01*
X55495699Y-89778761D01*
X55607503Y-89666957D01*
X55686560Y-89530025D01*
X55727483Y-89377298D01*
X55727483Y-89219184D01*
X55686560Y-89066457D01*
X55607503Y-88929525D01*
X55495699Y-88817721D01*
X55358767Y-88738664D01*
X55206040Y-88697741D01*
X55047926Y-88697741D01*
X54895199Y-88738664D01*
X54758267Y-88817721D01*
X54646463Y-88929525D01*
X54567406Y-89066457D01*
X54526483Y-89219184D01*
X46531600Y-89219184D01*
X46481784Y-89190423D01*
X46329057Y-89149500D01*
X46170943Y-89149500D01*
X46018216Y-89190423D01*
X45881284Y-89269480D01*
X45769480Y-89381284D01*
X45690423Y-89518216D01*
X45649500Y-89670943D01*
X32000500Y-89670943D01*
X32000500Y-87920943D01*
X63549500Y-87920943D01*
X63549500Y-88079057D01*
X63590423Y-88231784D01*
X63669480Y-88368716D01*
X63781284Y-88480520D01*
X63918216Y-88559577D01*
X64070943Y-88600500D01*
X64070945Y-88600500D01*
X64229055Y-88600500D01*
X64229057Y-88600500D01*
X64381784Y-88559577D01*
X64518716Y-88480520D01*
X64630520Y-88368716D01*
X64709577Y-88231784D01*
X64750500Y-88079057D01*
X64750500Y-87920943D01*
X64709577Y-87768216D01*
X64630520Y-87631284D01*
X64518716Y-87519480D01*
X64381784Y-87440423D01*
X64229057Y-87399500D01*
X64070943Y-87399500D01*
X63918216Y-87440423D01*
X63781284Y-87519480D01*
X63669480Y-87631284D01*
X63590423Y-87768216D01*
X63549500Y-87920943D01*
X32000500Y-87920943D01*
X32000500Y-86920943D01*
X67399500Y-86920943D01*
X67399500Y-87079057D01*
X67440423Y-87231784D01*
X67519480Y-87368716D01*
X67631284Y-87480520D01*
X67768216Y-87559577D01*
X67920943Y-87600500D01*
X67920945Y-87600500D01*
X68079055Y-87600500D01*
X68079057Y-87600500D01*
X68231784Y-87559577D01*
X68368716Y-87480520D01*
X68480520Y-87368716D01*
X68559577Y-87231784D01*
X68600500Y-87079057D01*
X68600500Y-86920943D01*
X68559577Y-86768216D01*
X68480520Y-86631284D01*
X68368716Y-86519480D01*
X68231784Y-86440423D01*
X68079057Y-86399500D01*
X67920943Y-86399500D01*
X67768216Y-86440423D01*
X67631284Y-86519480D01*
X67519480Y-86631284D01*
X67440423Y-86768216D01*
X67399500Y-86920943D01*
X32000500Y-86920943D01*
X32000500Y-82988120D01*
X33372842Y-82988120D01*
X33372842Y-86096665D01*
X33375695Y-86127086D01*
X33375697Y-86127095D01*
X33420548Y-86255273D01*
X33420549Y-86255274D01*
X33501193Y-86364542D01*
X33610461Y-86445186D01*
X33738644Y-86490039D01*
X33769069Y-86492892D01*
X33769071Y-86492893D01*
X33769078Y-86492893D01*
X36877613Y-86492893D01*
X36877613Y-86492892D01*
X36908040Y-86490039D01*
X37036223Y-86445186D01*
X37145491Y-86364542D01*
X37226135Y-86255274D01*
X37235687Y-86227975D01*
X53498395Y-86227975D01*
X53498395Y-86386089D01*
X53539318Y-86538816D01*
X53618375Y-86675748D01*
X53730179Y-86787552D01*
X53867111Y-86866609D01*
X54019838Y-86907532D01*
X54019840Y-86907532D01*
X54177950Y-86907532D01*
X54177952Y-86907532D01*
X54330679Y-86866609D01*
X54467611Y-86787552D01*
X54579415Y-86675748D01*
X54658472Y-86538816D01*
X54699395Y-86386089D01*
X54699395Y-86227975D01*
X54658472Y-86075248D01*
X54579415Y-85938316D01*
X54467611Y-85826512D01*
X54330679Y-85747455D01*
X54177952Y-85706532D01*
X54019838Y-85706532D01*
X53867111Y-85747455D01*
X53730179Y-85826512D01*
X53618375Y-85938316D01*
X53539318Y-86075248D01*
X53498395Y-86227975D01*
X37235687Y-86227975D01*
X37270988Y-86127091D01*
X37273841Y-86096664D01*
X37273842Y-86096664D01*
X37273842Y-84872156D01*
X82449500Y-84872156D01*
X82449500Y-85127843D01*
X82482873Y-85381332D01*
X82482873Y-85381337D01*
X82549050Y-85628314D01*
X82646892Y-85864527D01*
X82646894Y-85864531D01*
X82646896Y-85864535D01*
X82689494Y-85938316D01*
X82774741Y-86085968D01*
X82930384Y-86288806D01*
X82930386Y-86288808D01*
X82930390Y-86288813D01*
X83111187Y-86469610D01*
X83111191Y-86469613D01*
X83111193Y-86469615D01*
X83201378Y-86538816D01*
X83314035Y-86625261D01*
X83535465Y-86753104D01*
X83771687Y-86850950D01*
X84018660Y-86917126D01*
X84272157Y-86950500D01*
X84272158Y-86950500D01*
X84527842Y-86950500D01*
X84527843Y-86950500D01*
X84781340Y-86917126D01*
X85028313Y-86850950D01*
X85264535Y-86753104D01*
X85485965Y-86625261D01*
X85688813Y-86469610D01*
X85869610Y-86288813D01*
X86025261Y-86085965D01*
X86153104Y-85864535D01*
X86250950Y-85628313D01*
X86317126Y-85381340D01*
X86350500Y-85127843D01*
X86350500Y-84872157D01*
X86317126Y-84618660D01*
X86250950Y-84371687D01*
X86153104Y-84135465D01*
X86025261Y-83914035D01*
X86025258Y-83914031D01*
X85869615Y-83711193D01*
X85869613Y-83711191D01*
X85869610Y-83711187D01*
X85688813Y-83530390D01*
X85688808Y-83530386D01*
X85688806Y-83530384D01*
X85485968Y-83374741D01*
X85485965Y-83374739D01*
X85264535Y-83246896D01*
X85264531Y-83246894D01*
X85264527Y-83246892D01*
X85028314Y-83149050D01*
X84847121Y-83100500D01*
X84781340Y-83082874D01*
X84781337Y-83082873D01*
X84781335Y-83082873D01*
X84527843Y-83049500D01*
X84272157Y-83049500D01*
X84272156Y-83049500D01*
X84018667Y-83082873D01*
X84018662Y-83082873D01*
X83771685Y-83149050D01*
X83535472Y-83246892D01*
X83314031Y-83374741D01*
X83111193Y-83530384D01*
X82930384Y-83711193D01*
X82774741Y-83914031D01*
X82646892Y-84135472D01*
X82549050Y-84371685D01*
X82482873Y-84618662D01*
X82482873Y-84618667D01*
X82449500Y-84872156D01*
X37273842Y-84872156D01*
X37273842Y-83120943D01*
X59999500Y-83120943D01*
X59999500Y-83279057D01*
X60040423Y-83431784D01*
X60119480Y-83568716D01*
X60231284Y-83680520D01*
X60368216Y-83759577D01*
X60520943Y-83800500D01*
X60520945Y-83800500D01*
X60679055Y-83800500D01*
X60679057Y-83800500D01*
X60831784Y-83759577D01*
X60968716Y-83680520D01*
X60979998Y-83669237D01*
X61034513Y-83641462D01*
X61094945Y-83651033D01*
X61120000Y-83669236D01*
X61131284Y-83680520D01*
X61268216Y-83759577D01*
X61420943Y-83800500D01*
X61420945Y-83800500D01*
X61579055Y-83800500D01*
X61579057Y-83800500D01*
X61731784Y-83759577D01*
X61868716Y-83680520D01*
X61879994Y-83669241D01*
X61934508Y-83641461D01*
X61994941Y-83651029D01*
X62020001Y-83669234D01*
X62031287Y-83680520D01*
X62168219Y-83759577D01*
X62320946Y-83800500D01*
X62320948Y-83800500D01*
X62479058Y-83800500D01*
X62479060Y-83800500D01*
X62631787Y-83759577D01*
X62768719Y-83680520D01*
X62880523Y-83568716D01*
X62959580Y-83431784D01*
X63000503Y-83279057D01*
X63000503Y-83120943D01*
X62959580Y-82968216D01*
X62880523Y-82831284D01*
X62768719Y-82719480D01*
X62631787Y-82640423D01*
X62479060Y-82599500D01*
X62320946Y-82599500D01*
X62168219Y-82640423D01*
X62031284Y-82719482D01*
X62020002Y-82730764D01*
X61965485Y-82758540D01*
X61905053Y-82748966D01*
X61880000Y-82730764D01*
X61868716Y-82719480D01*
X61731784Y-82640423D01*
X61579057Y-82599500D01*
X61420943Y-82599500D01*
X61268216Y-82640423D01*
X61131281Y-82719482D01*
X61120001Y-82730762D01*
X61065484Y-82758538D01*
X61005052Y-82748964D01*
X60979999Y-82730762D01*
X60968718Y-82719482D01*
X60968716Y-82719480D01*
X60831784Y-82640423D01*
X60679057Y-82599500D01*
X60520943Y-82599500D01*
X60368216Y-82640423D01*
X60231284Y-82719480D01*
X60119480Y-82831284D01*
X60040423Y-82968216D01*
X59999500Y-83120943D01*
X37273842Y-83120943D01*
X37273842Y-82988122D01*
X37273841Y-82988120D01*
X37273128Y-82980519D01*
X37270988Y-82957695D01*
X37226135Y-82829512D01*
X37145491Y-82720244D01*
X37036223Y-82639600D01*
X37036222Y-82639599D01*
X36908044Y-82594748D01*
X36908035Y-82594746D01*
X36877614Y-82591893D01*
X36877606Y-82591893D01*
X33769078Y-82591893D01*
X33769069Y-82591893D01*
X33738648Y-82594746D01*
X33738639Y-82594748D01*
X33610461Y-82639599D01*
X33501194Y-82720243D01*
X33501192Y-82720245D01*
X33420548Y-82829512D01*
X33375697Y-82957690D01*
X33375695Y-82957699D01*
X33372842Y-82988120D01*
X32000500Y-82988120D01*
X32000500Y-82420943D01*
X56399500Y-82420943D01*
X56399500Y-82579057D01*
X56440423Y-82731784D01*
X56519480Y-82868716D01*
X56631284Y-82980520D01*
X56768216Y-83059577D01*
X56920943Y-83100500D01*
X56920945Y-83100500D01*
X57079055Y-83100500D01*
X57079057Y-83100500D01*
X57231784Y-83059577D01*
X57368716Y-82980520D01*
X57480520Y-82868716D01*
X57559577Y-82731784D01*
X57600500Y-82579057D01*
X57600500Y-82420943D01*
X57559577Y-82268216D01*
X57480520Y-82131284D01*
X57368716Y-82019480D01*
X57231784Y-81940423D01*
X57079057Y-81899500D01*
X56920943Y-81899500D01*
X56768216Y-81940423D01*
X56631284Y-82019480D01*
X56519480Y-82131284D01*
X56440423Y-82268216D01*
X56399500Y-82420943D01*
X32000500Y-82420943D01*
X32000500Y-81803943D01*
X57779406Y-81803943D01*
X57779406Y-81962057D01*
X57820329Y-82114784D01*
X57899386Y-82251716D01*
X58011190Y-82363520D01*
X58148122Y-82442577D01*
X58300849Y-82483500D01*
X58300851Y-82483500D01*
X58458961Y-82483500D01*
X58458963Y-82483500D01*
X58611690Y-82442577D01*
X58748622Y-82363520D01*
X58860426Y-82251716D01*
X58939483Y-82114784D01*
X58980406Y-81962057D01*
X58980406Y-81882500D01*
X58999313Y-81824309D01*
X59048813Y-81788345D01*
X59079406Y-81783500D01*
X59179055Y-81783500D01*
X59179057Y-81783500D01*
X59331784Y-81742577D01*
X59468716Y-81663520D01*
X59580520Y-81551716D01*
X59659577Y-81414784D01*
X59700500Y-81262057D01*
X59700500Y-81199500D01*
X59719407Y-81141309D01*
X59768907Y-81105345D01*
X59799500Y-81100500D01*
X59846055Y-81100500D01*
X59846057Y-81100500D01*
X59998784Y-81059577D01*
X60135716Y-80980520D01*
X60247520Y-80868716D01*
X60326577Y-80731784D01*
X60367500Y-80579057D01*
X60367500Y-80579053D01*
X60368887Y-80573877D01*
X60402211Y-80522563D01*
X60459332Y-80500636D01*
X60464514Y-80500500D01*
X60579055Y-80500500D01*
X60579057Y-80500500D01*
X60731784Y-80459577D01*
X60868716Y-80380520D01*
X60980520Y-80268716D01*
X61059577Y-80131784D01*
X61100500Y-79979057D01*
X61100500Y-79820943D01*
X61059577Y-79668216D01*
X60980520Y-79531284D01*
X60868716Y-79419480D01*
X60731784Y-79340423D01*
X60579057Y-79299500D01*
X60420943Y-79299500D01*
X60268216Y-79340423D01*
X60131284Y-79419480D01*
X60019480Y-79531284D01*
X59940423Y-79668216D01*
X59899500Y-79820943D01*
X59899500Y-79820946D01*
X59898113Y-79826123D01*
X59864789Y-79877437D01*
X59807668Y-79899364D01*
X59802486Y-79899500D01*
X59687943Y-79899500D01*
X59535216Y-79940423D01*
X59398284Y-80019480D01*
X59286480Y-80131284D01*
X59207423Y-80268216D01*
X59166500Y-80420944D01*
X59166500Y-80483500D01*
X59147593Y-80541691D01*
X59098093Y-80577655D01*
X59067500Y-80582500D01*
X59020943Y-80582500D01*
X58868216Y-80623423D01*
X58731284Y-80702480D01*
X58619480Y-80814284D01*
X58540423Y-80951216D01*
X58499500Y-81103944D01*
X58499500Y-81183500D01*
X58480593Y-81241691D01*
X58431093Y-81277655D01*
X58400500Y-81282500D01*
X58300849Y-81282500D01*
X58148122Y-81323423D01*
X58011190Y-81402480D01*
X57899386Y-81514284D01*
X57820329Y-81651216D01*
X57779406Y-81803943D01*
X32000500Y-81803943D01*
X32000500Y-77414550D01*
X33372842Y-77414550D01*
X33372842Y-77670236D01*
X33402372Y-77894539D01*
X33406215Y-77923725D01*
X33406215Y-77923730D01*
X33472392Y-78170707D01*
X33570234Y-78406920D01*
X33570236Y-78406924D01*
X33570238Y-78406928D01*
X33698055Y-78628313D01*
X33698083Y-78628361D01*
X33853726Y-78831199D01*
X33853728Y-78831201D01*
X33853732Y-78831206D01*
X34034529Y-79012003D01*
X34034533Y-79012006D01*
X34034535Y-79012008D01*
X34130918Y-79085965D01*
X34237377Y-79167654D01*
X34458807Y-79295497D01*
X34695029Y-79393343D01*
X34942002Y-79459519D01*
X35195499Y-79492893D01*
X35195500Y-79492893D01*
X35451184Y-79492893D01*
X35451185Y-79492893D01*
X35704682Y-79459519D01*
X35951655Y-79393343D01*
X36187877Y-79295497D01*
X36409307Y-79167654D01*
X36612155Y-79012003D01*
X36792952Y-78831206D01*
X36948603Y-78628358D01*
X37076446Y-78406928D01*
X37174292Y-78170706D01*
X37240468Y-77923733D01*
X37240523Y-77923313D01*
X54378167Y-77923313D01*
X54378167Y-78081427D01*
X54419090Y-78234154D01*
X54498147Y-78371086D01*
X54609951Y-78482890D01*
X54746883Y-78561947D01*
X54899610Y-78602870D01*
X54899612Y-78602870D01*
X55057722Y-78602870D01*
X55057724Y-78602870D01*
X55210451Y-78561947D01*
X55347383Y-78482890D01*
X55425881Y-78404391D01*
X55480395Y-78376615D01*
X55540828Y-78386186D01*
X55545354Y-78388643D01*
X55668216Y-78459577D01*
X55820943Y-78500500D01*
X55820945Y-78500500D01*
X55979055Y-78500500D01*
X55979057Y-78500500D01*
X56131784Y-78459577D01*
X56268716Y-78380520D01*
X56380520Y-78268716D01*
X56459577Y-78131784D01*
X56500500Y-77979057D01*
X56500500Y-77820943D01*
X56459577Y-77668216D01*
X56380520Y-77531284D01*
X56268716Y-77419480D01*
X56131784Y-77340423D01*
X55979057Y-77299500D01*
X55820943Y-77299500D01*
X55668216Y-77340423D01*
X55539822Y-77414551D01*
X55531281Y-77419482D01*
X55452786Y-77497977D01*
X55398269Y-77525754D01*
X55337837Y-77516182D01*
X55333299Y-77513718D01*
X55210451Y-77442793D01*
X55057724Y-77401870D01*
X54899610Y-77401870D01*
X54746883Y-77442793D01*
X54609951Y-77521850D01*
X54498147Y-77633654D01*
X54419090Y-77770586D01*
X54378167Y-77923313D01*
X37240523Y-77923313D01*
X37273842Y-77670236D01*
X37273842Y-77414550D01*
X37240468Y-77161053D01*
X37174292Y-76914080D01*
X37076446Y-76677858D01*
X36948603Y-76456428D01*
X36903353Y-76397457D01*
X36792957Y-76253586D01*
X36792955Y-76253584D01*
X36792952Y-76253580D01*
X36612155Y-76072783D01*
X36612150Y-76072779D01*
X36612148Y-76072777D01*
X36409310Y-75917134D01*
X36351782Y-75883920D01*
X36187877Y-75789289D01*
X36187873Y-75789287D01*
X36187869Y-75789285D01*
X35951656Y-75691443D01*
X35842755Y-75662263D01*
X35704682Y-75625267D01*
X35704679Y-75625266D01*
X35704677Y-75625266D01*
X35451185Y-75591893D01*
X35195499Y-75591893D01*
X35195498Y-75591893D01*
X34942009Y-75625266D01*
X34942004Y-75625266D01*
X34695027Y-75691443D01*
X34458814Y-75789285D01*
X34237373Y-75917134D01*
X34034535Y-76072777D01*
X33853726Y-76253586D01*
X33698083Y-76456424D01*
X33570234Y-76677865D01*
X33472392Y-76914078D01*
X33406215Y-77161055D01*
X33406215Y-77161060D01*
X33372842Y-77414550D01*
X32000500Y-77414550D01*
X32000500Y-70688120D01*
X33372842Y-70688120D01*
X33372842Y-73796665D01*
X33375695Y-73827086D01*
X33375697Y-73827095D01*
X33420548Y-73955273D01*
X33449172Y-73994056D01*
X33501193Y-74064542D01*
X33610461Y-74145186D01*
X33738644Y-74190039D01*
X33769069Y-74192892D01*
X33769071Y-74192893D01*
X33769078Y-74192893D01*
X36877613Y-74192893D01*
X36877613Y-74192892D01*
X36908040Y-74190039D01*
X37036223Y-74145186D01*
X37145491Y-74064542D01*
X37226135Y-73955274D01*
X37270988Y-73827091D01*
X37273841Y-73796664D01*
X37273842Y-73796664D01*
X37273842Y-70688122D01*
X37273841Y-70688120D01*
X37270988Y-70657695D01*
X37226135Y-70529512D01*
X37145491Y-70420244D01*
X37036223Y-70339600D01*
X37036222Y-70339599D01*
X36908044Y-70294748D01*
X36908035Y-70294746D01*
X36877614Y-70291893D01*
X36877606Y-70291893D01*
X33769078Y-70291893D01*
X33769069Y-70291893D01*
X33738648Y-70294746D01*
X33738639Y-70294748D01*
X33610461Y-70339599D01*
X33501194Y-70420243D01*
X33501192Y-70420245D01*
X33420548Y-70529512D01*
X33375697Y-70657690D01*
X33375695Y-70657699D01*
X33372842Y-70688120D01*
X32000500Y-70688120D01*
X32000500Y-65114549D01*
X33372842Y-65114549D01*
X33372842Y-65370236D01*
X33406215Y-65623725D01*
X33406215Y-65623730D01*
X33472392Y-65870707D01*
X33570234Y-66106920D01*
X33570236Y-66106924D01*
X33570238Y-66106928D01*
X33687237Y-66309576D01*
X33698083Y-66328361D01*
X33853726Y-66531199D01*
X33853728Y-66531201D01*
X33853732Y-66531206D01*
X34034529Y-66712003D01*
X34034533Y-66712006D01*
X34034535Y-66712008D01*
X34189979Y-66831284D01*
X34237377Y-66867654D01*
X34458807Y-66995497D01*
X34695029Y-67093343D01*
X34942002Y-67159519D01*
X35195499Y-67192893D01*
X35195500Y-67192893D01*
X35451184Y-67192893D01*
X35451185Y-67192893D01*
X35704682Y-67159519D01*
X35951655Y-67093343D01*
X36187877Y-66995497D01*
X36409307Y-66867654D01*
X36612155Y-66712003D01*
X36792952Y-66531206D01*
X36948603Y-66328358D01*
X37076446Y-66106928D01*
X37174292Y-65870706D01*
X37227818Y-65670943D01*
X43709975Y-65670943D01*
X43709975Y-65829057D01*
X43750898Y-65981784D01*
X43829955Y-66118716D01*
X43941759Y-66230520D01*
X44078691Y-66309577D01*
X44231418Y-66350500D01*
X44231420Y-66350500D01*
X44389530Y-66350500D01*
X44389532Y-66350500D01*
X44542259Y-66309577D01*
X44679191Y-66230520D01*
X44751489Y-66158221D01*
X44806004Y-66130446D01*
X44866436Y-66140017D01*
X44891491Y-66158220D01*
X44963791Y-66230520D01*
X45100723Y-66309577D01*
X45253450Y-66350500D01*
X45253452Y-66350500D01*
X45411562Y-66350500D01*
X45411564Y-66350500D01*
X45564291Y-66309577D01*
X45701223Y-66230520D01*
X45813027Y-66118716D01*
X45892084Y-65981784D01*
X45933007Y-65829057D01*
X45933007Y-65670943D01*
X45892084Y-65518216D01*
X45813027Y-65381284D01*
X45701223Y-65269480D01*
X45564291Y-65190423D01*
X45411564Y-65149500D01*
X45253450Y-65149500D01*
X45100723Y-65190423D01*
X44963791Y-65269480D01*
X44891492Y-65341778D01*
X44836978Y-65369554D01*
X44776546Y-65359983D01*
X44751490Y-65341779D01*
X44679191Y-65269480D01*
X44542259Y-65190423D01*
X44389532Y-65149500D01*
X44231418Y-65149500D01*
X44078691Y-65190423D01*
X43941759Y-65269480D01*
X43829955Y-65381284D01*
X43750898Y-65518216D01*
X43709975Y-65670943D01*
X37227818Y-65670943D01*
X37240468Y-65623733D01*
X37273842Y-65370236D01*
X37273842Y-65114550D01*
X37240468Y-64861053D01*
X37174292Y-64614080D01*
X37076446Y-64377858D01*
X36948603Y-64156428D01*
X36893469Y-64084576D01*
X36792957Y-63953586D01*
X36792955Y-63953584D01*
X36792952Y-63953580D01*
X36612155Y-63772783D01*
X36612150Y-63772779D01*
X36612148Y-63772777D01*
X36409310Y-63617134D01*
X36343359Y-63579057D01*
X36187877Y-63489289D01*
X36187873Y-63489287D01*
X36187869Y-63489285D01*
X35951656Y-63391443D01*
X35842755Y-63362263D01*
X35704682Y-63325267D01*
X35704679Y-63325266D01*
X35704677Y-63325266D01*
X35608521Y-63312607D01*
X35451185Y-63291893D01*
X35195499Y-63291893D01*
X35195498Y-63291893D01*
X34942009Y-63325266D01*
X34942004Y-63325266D01*
X34695027Y-63391443D01*
X34458814Y-63489285D01*
X34237373Y-63617134D01*
X34034535Y-63772777D01*
X33853726Y-63953586D01*
X33698083Y-64156424D01*
X33570234Y-64377865D01*
X33472392Y-64614078D01*
X33406215Y-64861055D01*
X33406215Y-64861060D01*
X33372842Y-65114549D01*
X32000500Y-65114549D01*
X32000500Y-63220943D01*
X47999500Y-63220943D01*
X47999500Y-63379057D01*
X48040423Y-63531784D01*
X48119480Y-63668716D01*
X48180762Y-63729998D01*
X48208538Y-63784513D01*
X48198967Y-63844945D01*
X48180763Y-63870000D01*
X48119480Y-63931284D01*
X48040423Y-64068216D01*
X47999500Y-64220943D01*
X47999500Y-64379057D01*
X48040423Y-64531784D01*
X48119480Y-64668716D01*
X48167260Y-64716496D01*
X48195036Y-64771011D01*
X48185465Y-64831443D01*
X48167259Y-64856501D01*
X48119482Y-64904278D01*
X48119480Y-64904280D01*
X48119480Y-64904281D01*
X48040423Y-65041213D01*
X47999500Y-65193940D01*
X47999500Y-65352054D01*
X48040423Y-65504781D01*
X48119480Y-65641713D01*
X48144263Y-65666496D01*
X48172039Y-65721011D01*
X48162468Y-65781443D01*
X48144263Y-65806500D01*
X48119482Y-65831281D01*
X48119480Y-65831283D01*
X48119480Y-65831284D01*
X48040423Y-65968216D01*
X47999500Y-66120943D01*
X47999500Y-66279057D01*
X48040423Y-66431784D01*
X48119480Y-66568716D01*
X48231284Y-66680520D01*
X48368216Y-66759577D01*
X48520943Y-66800500D01*
X48520945Y-66800500D01*
X48679055Y-66800500D01*
X48679057Y-66800500D01*
X48831784Y-66759577D01*
X48968716Y-66680520D01*
X49080520Y-66568716D01*
X49159577Y-66431784D01*
X49200500Y-66279057D01*
X49200500Y-66120943D01*
X49159577Y-65968216D01*
X49080520Y-65831284D01*
X49055735Y-65806499D01*
X49027960Y-65751985D01*
X49037531Y-65691553D01*
X49055738Y-65666494D01*
X49080520Y-65641713D01*
X49159577Y-65504781D01*
X49200500Y-65352054D01*
X49200500Y-65193940D01*
X49159577Y-65041213D01*
X49080520Y-64904281D01*
X49032738Y-64856499D01*
X49004963Y-64801985D01*
X49014534Y-64741553D01*
X49032738Y-64716497D01*
X49080520Y-64668716D01*
X49159577Y-64531784D01*
X49200500Y-64379057D01*
X49200500Y-64220943D01*
X49159577Y-64068216D01*
X49080520Y-63931284D01*
X49019237Y-63870001D01*
X48991462Y-63815487D01*
X49001033Y-63755055D01*
X49019236Y-63729999D01*
X49080520Y-63668716D01*
X49159577Y-63531784D01*
X49200500Y-63379057D01*
X49200500Y-63220943D01*
X49159577Y-63068216D01*
X49080520Y-62931284D01*
X48968716Y-62819480D01*
X48831784Y-62740423D01*
X48679057Y-62699500D01*
X48520943Y-62699500D01*
X48368216Y-62740423D01*
X48231284Y-62819480D01*
X48119480Y-62931284D01*
X48040423Y-63068216D01*
X47999500Y-63220943D01*
X32000500Y-63220943D01*
X32000500Y-58445727D01*
X33349500Y-58445727D01*
X33349500Y-61554272D01*
X33352353Y-61584693D01*
X33352355Y-61584702D01*
X33397206Y-61712880D01*
X33411157Y-61731783D01*
X33477851Y-61822149D01*
X33587119Y-61902793D01*
X33715302Y-61947646D01*
X33745727Y-61950499D01*
X33745729Y-61950500D01*
X33745736Y-61950500D01*
X36854271Y-61950500D01*
X36854271Y-61950499D01*
X36884698Y-61947646D01*
X36961011Y-61920943D01*
X41399500Y-61920943D01*
X41399500Y-62079057D01*
X41440423Y-62231784D01*
X41519480Y-62368716D01*
X41631284Y-62480520D01*
X41768216Y-62559577D01*
X41920943Y-62600500D01*
X41920945Y-62600500D01*
X42079055Y-62600500D01*
X42079057Y-62600500D01*
X42231784Y-62559577D01*
X42368716Y-62480520D01*
X42480520Y-62368716D01*
X42559577Y-62231784D01*
X42600500Y-62079057D01*
X42600500Y-61920943D01*
X42559577Y-61768216D01*
X42480520Y-61631284D01*
X42368716Y-61519480D01*
X42231784Y-61440423D01*
X42079057Y-61399500D01*
X41920943Y-61399500D01*
X41768216Y-61440423D01*
X41631284Y-61519480D01*
X41519480Y-61631284D01*
X41440423Y-61768216D01*
X41399500Y-61920943D01*
X36961011Y-61920943D01*
X37012881Y-61902793D01*
X37122149Y-61822149D01*
X37202793Y-61712881D01*
X37247646Y-61584698D01*
X37250499Y-61554271D01*
X37250500Y-61554271D01*
X37250500Y-60243648D01*
X37263762Y-60194151D01*
X37303318Y-60125638D01*
X37325500Y-60042853D01*
X37325500Y-59957147D01*
X37303318Y-59874362D01*
X37263762Y-59805849D01*
X37250500Y-59756351D01*
X37250500Y-58445729D01*
X37250499Y-58445727D01*
X37247646Y-58415306D01*
X37247646Y-58415302D01*
X37202793Y-58287119D01*
X37122149Y-58177851D01*
X37012881Y-58097207D01*
X37012880Y-58097206D01*
X36884702Y-58052355D01*
X36884693Y-58052353D01*
X36854272Y-58049500D01*
X36854264Y-58049500D01*
X33745736Y-58049500D01*
X33745727Y-58049500D01*
X33715306Y-58052353D01*
X33715297Y-58052355D01*
X33587119Y-58097206D01*
X33477852Y-58177850D01*
X33477850Y-58177852D01*
X33397206Y-58287119D01*
X33352355Y-58415297D01*
X33352353Y-58415306D01*
X33349500Y-58445727D01*
X32000500Y-58445727D01*
X32000500Y-52872156D01*
X33349500Y-52872156D01*
X33349500Y-53127843D01*
X33382873Y-53381332D01*
X33382873Y-53381337D01*
X33449050Y-53628314D01*
X33546892Y-53864527D01*
X33546894Y-53864531D01*
X33546896Y-53864535D01*
X33667992Y-54074279D01*
X33674741Y-54085968D01*
X33830384Y-54288806D01*
X33830386Y-54288808D01*
X33830390Y-54288813D01*
X34011187Y-54469610D01*
X34011191Y-54469613D01*
X34011193Y-54469615D01*
X34214031Y-54625258D01*
X34214035Y-54625261D01*
X34435465Y-54753104D01*
X34671687Y-54850950D01*
X34918660Y-54917126D01*
X35172157Y-54950500D01*
X35172158Y-54950500D01*
X35427842Y-54950500D01*
X35427843Y-54950500D01*
X35681340Y-54917126D01*
X35928313Y-54850950D01*
X36164535Y-54753104D01*
X36385965Y-54625261D01*
X36588813Y-54469610D01*
X36769610Y-54288813D01*
X36925261Y-54085965D01*
X37053104Y-53864535D01*
X37150950Y-53628313D01*
X37217126Y-53381340D01*
X37250500Y-53127843D01*
X37250500Y-52872157D01*
X37217126Y-52618660D01*
X37150950Y-52371687D01*
X37053104Y-52135465D01*
X36925261Y-51914035D01*
X36769610Y-51711187D01*
X36588813Y-51530390D01*
X36588808Y-51530386D01*
X36588806Y-51530384D01*
X36385968Y-51374741D01*
X36385965Y-51374739D01*
X36164535Y-51246896D01*
X36164531Y-51246894D01*
X36164527Y-51246892D01*
X35928314Y-51149050D01*
X35819413Y-51119870D01*
X35681340Y-51082874D01*
X35681337Y-51082873D01*
X35681335Y-51082873D01*
X35427843Y-51049500D01*
X35172157Y-51049500D01*
X35172156Y-51049500D01*
X34918667Y-51082873D01*
X34918662Y-51082873D01*
X34671685Y-51149050D01*
X34435472Y-51246892D01*
X34214031Y-51374741D01*
X34011193Y-51530384D01*
X33830384Y-51711193D01*
X33674741Y-51914031D01*
X33546892Y-52135472D01*
X33449050Y-52371685D01*
X33382873Y-52618662D01*
X33382873Y-52618667D01*
X33349500Y-52872156D01*
X32000500Y-52872156D01*
X32000500Y-49710253D01*
X40399500Y-49710253D01*
X40399500Y-51449746D01*
X40399501Y-51449758D01*
X40411132Y-51508227D01*
X40411134Y-51508233D01*
X40422040Y-51524554D01*
X40455448Y-51574552D01*
X40521769Y-51618867D01*
X40566231Y-51627711D01*
X40580241Y-51630498D01*
X40580246Y-51630498D01*
X40580252Y-51630500D01*
X40580253Y-51630500D01*
X42319747Y-51630500D01*
X42319748Y-51630500D01*
X42378231Y-51618867D01*
X42444552Y-51574552D01*
X42488867Y-51508231D01*
X42500500Y-51449748D01*
X42500500Y-50820943D01*
X45499500Y-50820943D01*
X45499500Y-50979057D01*
X45540423Y-51131784D01*
X45619480Y-51268716D01*
X45731284Y-51380520D01*
X45868216Y-51459577D01*
X46020943Y-51500500D01*
X46020945Y-51500500D01*
X46179055Y-51500500D01*
X46179057Y-51500500D01*
X46331784Y-51459577D01*
X46468716Y-51380520D01*
X46580520Y-51268716D01*
X46659577Y-51131784D01*
X46700500Y-50979057D01*
X46700500Y-50820943D01*
X46659577Y-50668216D01*
X46580520Y-50531284D01*
X46468716Y-50419480D01*
X46331784Y-50340423D01*
X46179057Y-50299500D01*
X46020943Y-50299500D01*
X45868216Y-50340423D01*
X45731284Y-50419480D01*
X45619480Y-50531284D01*
X45540423Y-50668216D01*
X45499500Y-50820943D01*
X42500500Y-50820943D01*
X42500500Y-49710252D01*
X42488867Y-49651769D01*
X42444552Y-49585448D01*
X42444548Y-49585445D01*
X42378233Y-49541134D01*
X42378231Y-49541133D01*
X42378228Y-49541132D01*
X42378227Y-49541132D01*
X42319758Y-49529501D01*
X42319748Y-49529500D01*
X40580252Y-49529500D01*
X40580251Y-49529500D01*
X40580241Y-49529501D01*
X40521772Y-49541132D01*
X40521766Y-49541134D01*
X40455451Y-49585445D01*
X40455445Y-49585451D01*
X40411134Y-49651766D01*
X40411132Y-49651772D01*
X40399501Y-49710241D01*
X40399500Y-49710253D01*
X32000500Y-49710253D01*
X32000500Y-45872157D01*
X33349500Y-45872157D01*
X33349500Y-46127843D01*
X33382821Y-46380941D01*
X33382873Y-46381332D01*
X33382873Y-46381337D01*
X33449050Y-46628314D01*
X33546892Y-46864527D01*
X33546894Y-46864531D01*
X33546896Y-46864535D01*
X33659205Y-47059059D01*
X33674741Y-47085968D01*
X33830384Y-47288806D01*
X33830386Y-47288808D01*
X33830390Y-47288813D01*
X34011187Y-47469610D01*
X34011191Y-47469613D01*
X34011193Y-47469615D01*
X34040890Y-47492402D01*
X34214035Y-47625261D01*
X34435465Y-47753104D01*
X34671687Y-47850950D01*
X34918660Y-47917126D01*
X35172157Y-47950500D01*
X35172158Y-47950500D01*
X35427842Y-47950500D01*
X35427843Y-47950500D01*
X35533939Y-47936532D01*
X40399500Y-47936532D01*
X40399500Y-48143467D01*
X40439869Y-48346418D01*
X40519058Y-48537597D01*
X40600614Y-48659655D01*
X40634023Y-48709655D01*
X40780345Y-48855977D01*
X40952402Y-48970941D01*
X41143580Y-49050130D01*
X41346535Y-49090500D01*
X41346536Y-49090500D01*
X41553464Y-49090500D01*
X41553465Y-49090500D01*
X41756420Y-49050130D01*
X41947598Y-48970941D01*
X42119655Y-48855977D01*
X42265977Y-48709655D01*
X42380941Y-48537598D01*
X42460130Y-48346420D01*
X42500500Y-48143465D01*
X42500500Y-47936535D01*
X42460130Y-47733580D01*
X42380941Y-47542402D01*
X42265977Y-47370345D01*
X42119655Y-47224023D01*
X42119651Y-47224020D01*
X41947597Y-47109058D01*
X41756418Y-47029869D01*
X41553467Y-46989500D01*
X41553465Y-46989500D01*
X41346535Y-46989500D01*
X41346532Y-46989500D01*
X41143581Y-47029869D01*
X40952402Y-47109058D01*
X40780348Y-47224020D01*
X40634020Y-47370348D01*
X40519058Y-47542402D01*
X40439869Y-47733581D01*
X40399500Y-47936532D01*
X35533939Y-47936532D01*
X35681340Y-47917126D01*
X35928313Y-47850950D01*
X36164535Y-47753104D01*
X36385965Y-47625261D01*
X36588813Y-47469610D01*
X36769610Y-47288813D01*
X36925261Y-47085965D01*
X37053104Y-46864535D01*
X37150950Y-46628313D01*
X37217126Y-46381340D01*
X37250500Y-46127843D01*
X37250500Y-45872157D01*
X37217126Y-45618660D01*
X37157607Y-45396532D01*
X40399500Y-45396532D01*
X40399500Y-45603467D01*
X40439869Y-45806418D01*
X40519058Y-45997597D01*
X40606085Y-46127843D01*
X40634023Y-46169655D01*
X40780345Y-46315977D01*
X40952402Y-46430941D01*
X41143580Y-46510130D01*
X41346535Y-46550500D01*
X41346536Y-46550500D01*
X41553464Y-46550500D01*
X41553465Y-46550500D01*
X41756420Y-46510130D01*
X41947598Y-46430941D01*
X42119655Y-46315977D01*
X42265977Y-46169655D01*
X42380941Y-45997598D01*
X42460130Y-45806420D01*
X42500500Y-45603465D01*
X42500500Y-45396535D01*
X42460130Y-45193580D01*
X42380941Y-45002402D01*
X42265977Y-44830345D01*
X42119655Y-44684023D01*
X42119651Y-44684020D01*
X41947597Y-44569058D01*
X41756418Y-44489869D01*
X41553467Y-44449500D01*
X41553465Y-44449500D01*
X41346535Y-44449500D01*
X41346532Y-44449500D01*
X41143581Y-44489869D01*
X40952402Y-44569058D01*
X40780348Y-44684020D01*
X40634020Y-44830348D01*
X40519058Y-45002402D01*
X40439869Y-45193581D01*
X40399500Y-45396532D01*
X37157607Y-45396532D01*
X37150950Y-45371687D01*
X37053104Y-45135465D01*
X36925261Y-44914035D01*
X36861046Y-44830348D01*
X36769615Y-44711193D01*
X36769613Y-44711191D01*
X36769610Y-44711187D01*
X36588813Y-44530390D01*
X36588808Y-44530386D01*
X36588806Y-44530384D01*
X36385968Y-44374741D01*
X36385965Y-44374739D01*
X36164535Y-44246896D01*
X36164531Y-44246894D01*
X36164527Y-44246892D01*
X35928314Y-44149050D01*
X35819413Y-44119870D01*
X35681340Y-44082874D01*
X35681337Y-44082873D01*
X35681335Y-44082873D01*
X35427843Y-44049500D01*
X35172157Y-44049500D01*
X35172156Y-44049500D01*
X34918667Y-44082873D01*
X34918662Y-44082873D01*
X34671685Y-44149050D01*
X34435472Y-44246892D01*
X34214031Y-44374741D01*
X34011193Y-44530384D01*
X33830384Y-44711193D01*
X33674741Y-44914031D01*
X33546892Y-45135472D01*
X33449050Y-45371685D01*
X33382873Y-45618662D01*
X33382873Y-45618667D01*
X33354915Y-45831030D01*
X33349500Y-45872157D01*
X32000500Y-45872157D01*
X32000500Y-40729763D01*
X33326158Y-40729763D01*
X33326158Y-40985450D01*
X33359531Y-41238939D01*
X33359531Y-41238944D01*
X33425708Y-41485921D01*
X33523550Y-41722134D01*
X33523552Y-41722138D01*
X33523554Y-41722142D01*
X33651397Y-41943572D01*
X33651399Y-41943575D01*
X33807042Y-42146413D01*
X33807044Y-42146415D01*
X33807048Y-42146420D01*
X33987845Y-42327217D01*
X33987849Y-42327220D01*
X33987851Y-42327222D01*
X34093848Y-42408556D01*
X34190693Y-42482868D01*
X34412123Y-42610711D01*
X34648345Y-42708557D01*
X34895318Y-42774733D01*
X35148815Y-42808107D01*
X35148816Y-42808107D01*
X35404500Y-42808107D01*
X35404501Y-42808107D01*
X35657998Y-42774733D01*
X35904971Y-42708557D01*
X36141193Y-42610711D01*
X36362623Y-42482868D01*
X36565471Y-42327217D01*
X36746268Y-42146420D01*
X36901919Y-41943572D01*
X37029762Y-41722142D01*
X37127608Y-41485920D01*
X37193784Y-41238947D01*
X37227158Y-40985450D01*
X37227158Y-40729764D01*
X37193784Y-40476267D01*
X37127608Y-40229294D01*
X37029762Y-39993072D01*
X36952827Y-39859817D01*
X36952826Y-39859814D01*
X36927995Y-39816806D01*
X52451280Y-39816806D01*
X52451280Y-39974920D01*
X52492203Y-40127647D01*
X52571260Y-40264579D01*
X52683064Y-40376383D01*
X52683066Y-40376384D01*
X52683067Y-40376385D01*
X52699997Y-40386159D01*
X52740939Y-40431627D01*
X52749500Y-40471897D01*
X52749500Y-66934309D01*
X52760269Y-66974500D01*
X52766213Y-66996682D01*
X52780202Y-67048891D01*
X52839507Y-67151609D01*
X52839509Y-67151611D01*
X52839511Y-67151614D01*
X52995505Y-67307608D01*
X53023281Y-67362123D01*
X53024500Y-67377610D01*
X53024500Y-67379057D01*
X53065423Y-67531784D01*
X53144480Y-67668716D01*
X53256284Y-67780520D01*
X53393216Y-67859577D01*
X53393218Y-67859577D01*
X53393219Y-67859578D01*
X53401117Y-67861694D01*
X53452434Y-67895015D01*
X53474364Y-67952135D01*
X53474500Y-67957322D01*
X53474500Y-70957147D01*
X53474500Y-71042853D01*
X53494062Y-71115863D01*
X53496683Y-71125643D01*
X53539531Y-71199857D01*
X53539532Y-71199858D01*
X53539533Y-71199859D01*
X53539535Y-71199862D01*
X53870957Y-71531284D01*
X54072088Y-71732415D01*
X54099865Y-71786932D01*
X54100238Y-71815338D01*
X54099500Y-71820941D01*
X54099500Y-71820943D01*
X54099500Y-71979057D01*
X54140423Y-72131784D01*
X54219480Y-72268716D01*
X54331284Y-72380520D01*
X54468216Y-72459577D01*
X54620943Y-72500500D01*
X54620945Y-72500500D01*
X54779055Y-72500500D01*
X54779057Y-72500500D01*
X54931784Y-72459577D01*
X55068716Y-72380520D01*
X55180520Y-72268716D01*
X55259577Y-72131784D01*
X55300500Y-71979057D01*
X55300500Y-71820943D01*
X55259577Y-71668216D01*
X55180520Y-71531284D01*
X55068716Y-71419480D01*
X54931784Y-71340423D01*
X54779057Y-71299500D01*
X54620943Y-71299500D01*
X54620941Y-71299500D01*
X54615338Y-71300238D01*
X54555177Y-71289085D01*
X54532415Y-71272088D01*
X54154496Y-70894169D01*
X54126719Y-70839652D01*
X54125500Y-70824165D01*
X54125500Y-67724500D01*
X54144407Y-67666309D01*
X54193907Y-67630345D01*
X54224500Y-67625500D01*
X54724165Y-67625500D01*
X54782356Y-67644407D01*
X54794169Y-67654496D01*
X59229669Y-72089996D01*
X59257446Y-72144513D01*
X59247875Y-72204945D01*
X59229669Y-72230004D01*
X57872531Y-73587142D01*
X57829682Y-73661360D01*
X57829681Y-73661360D01*
X57829682Y-73661361D01*
X57807500Y-73744147D01*
X57807500Y-77531257D01*
X57788593Y-77589448D01*
X57778509Y-77601254D01*
X57669480Y-77710284D01*
X57590423Y-77847216D01*
X57549500Y-77999943D01*
X57549500Y-78158057D01*
X57590423Y-78310784D01*
X57669480Y-78447716D01*
X57781284Y-78559520D01*
X57918216Y-78638577D01*
X58070943Y-78679500D01*
X58070945Y-78679500D01*
X58229055Y-78679500D01*
X58229057Y-78679500D01*
X58381784Y-78638577D01*
X58518716Y-78559520D01*
X58630520Y-78447716D01*
X58709577Y-78310784D01*
X58750500Y-78158057D01*
X58750500Y-78020943D01*
X61601500Y-78020943D01*
X61601500Y-78179057D01*
X61642423Y-78331784D01*
X61721480Y-78468716D01*
X61833284Y-78580520D01*
X61970216Y-78659577D01*
X62122943Y-78700500D01*
X62122945Y-78700500D01*
X62281055Y-78700500D01*
X62281057Y-78700500D01*
X62433784Y-78659577D01*
X62570716Y-78580520D01*
X62682520Y-78468716D01*
X62761577Y-78331784D01*
X62802500Y-78179057D01*
X62802500Y-78020943D01*
X62768630Y-77894538D01*
X62768630Y-77894536D01*
X62762633Y-77872156D01*
X82449500Y-77872156D01*
X82449500Y-78127843D01*
X82482873Y-78381332D01*
X82482873Y-78381337D01*
X82549050Y-78628314D01*
X82646892Y-78864527D01*
X82646894Y-78864531D01*
X82646896Y-78864535D01*
X82732037Y-79012003D01*
X82774741Y-79085968D01*
X82930384Y-79288806D01*
X82930386Y-79288808D01*
X82930390Y-79288813D01*
X83111187Y-79469610D01*
X83111191Y-79469613D01*
X83111193Y-79469615D01*
X83191562Y-79531284D01*
X83314035Y-79625261D01*
X83535465Y-79753104D01*
X83771687Y-79850950D01*
X84018660Y-79917126D01*
X84272157Y-79950500D01*
X84272158Y-79950500D01*
X84527842Y-79950500D01*
X84527843Y-79950500D01*
X84781340Y-79917126D01*
X85028313Y-79850950D01*
X85264535Y-79753104D01*
X85485965Y-79625261D01*
X85688813Y-79469610D01*
X85869610Y-79288813D01*
X86025261Y-79085965D01*
X86153104Y-78864535D01*
X86250950Y-78628313D01*
X86317126Y-78381340D01*
X86350500Y-78127843D01*
X86350500Y-77872157D01*
X86317126Y-77618660D01*
X86250950Y-77371687D01*
X86153104Y-77135465D01*
X86025261Y-76914035D01*
X86025258Y-76914031D01*
X85869615Y-76711193D01*
X85869613Y-76711191D01*
X85869610Y-76711187D01*
X85688813Y-76530390D01*
X85688808Y-76530386D01*
X85688806Y-76530384D01*
X85485968Y-76374741D01*
X85470312Y-76365702D01*
X85264535Y-76246896D01*
X85264531Y-76246894D01*
X85264527Y-76246892D01*
X85028314Y-76149050D01*
X84919413Y-76119870D01*
X84781340Y-76082874D01*
X84781337Y-76082873D01*
X84781335Y-76082873D01*
X84527843Y-76049500D01*
X84272157Y-76049500D01*
X84272156Y-76049500D01*
X84018667Y-76082873D01*
X84018662Y-76082873D01*
X83771685Y-76149050D01*
X83535472Y-76246892D01*
X83314031Y-76374741D01*
X83111193Y-76530384D01*
X82930384Y-76711193D01*
X82774741Y-76914031D01*
X82646892Y-77135472D01*
X82549050Y-77371685D01*
X82482873Y-77618662D01*
X82482873Y-77618667D01*
X82449500Y-77872156D01*
X62762633Y-77872156D01*
X62761578Y-77868219D01*
X62761578Y-77868218D01*
X62761577Y-77868216D01*
X62682520Y-77731284D01*
X62570716Y-77619480D01*
X62433784Y-77540423D01*
X62281057Y-77499500D01*
X62122943Y-77499500D01*
X61970216Y-77540423D01*
X61833284Y-77619480D01*
X61721480Y-77731284D01*
X61642423Y-77868216D01*
X61601500Y-78020943D01*
X58750500Y-78020943D01*
X58750500Y-77999943D01*
X58709577Y-77847216D01*
X58630520Y-77710284D01*
X58518716Y-77598480D01*
X58507997Y-77592291D01*
X58467058Y-77546821D01*
X58458500Y-77506556D01*
X58458500Y-73962834D01*
X58477407Y-73904643D01*
X58487490Y-73892836D01*
X59689996Y-72690329D01*
X59744513Y-72662553D01*
X59804945Y-72672124D01*
X59830004Y-72690330D01*
X64239533Y-77099859D01*
X64239535Y-77099862D01*
X64300138Y-77160465D01*
X64337247Y-77181889D01*
X64337249Y-77181891D01*
X64368276Y-77199805D01*
X64374361Y-77203318D01*
X64457147Y-77225501D01*
X64457149Y-77225501D01*
X64548916Y-77225501D01*
X64548932Y-77225500D01*
X65492851Y-77225500D01*
X65492853Y-77225500D01*
X65575639Y-77203318D01*
X65575641Y-77203316D01*
X65575643Y-77203316D01*
X65649857Y-77160468D01*
X65649857Y-77160467D01*
X65649862Y-77160465D01*
X65929779Y-76880546D01*
X65984294Y-76852770D01*
X66012705Y-76852398D01*
X66018304Y-76853135D01*
X66018307Y-76853136D01*
X66018310Y-76853136D01*
X66176419Y-76853136D01*
X66176421Y-76853136D01*
X66329148Y-76812213D01*
X66466080Y-76733156D01*
X66577884Y-76621352D01*
X66656941Y-76484420D01*
X66697864Y-76331693D01*
X66697864Y-76173579D01*
X66656941Y-76020852D01*
X66577884Y-75883920D01*
X66466080Y-75772116D01*
X66329148Y-75693059D01*
X66176421Y-75652136D01*
X66018307Y-75652136D01*
X65871611Y-75691443D01*
X65865580Y-75693059D01*
X65728648Y-75772116D01*
X65616844Y-75883920D01*
X65537787Y-76020852D01*
X65496864Y-76173580D01*
X65496864Y-76331696D01*
X65497601Y-76337296D01*
X65494974Y-76351467D01*
X65497229Y-76365702D01*
X65489537Y-76380796D01*
X65486450Y-76397457D01*
X65469452Y-76420219D01*
X65344170Y-76545503D01*
X65289654Y-76573281D01*
X65274166Y-76574500D01*
X64675834Y-76574500D01*
X64617643Y-76555593D01*
X64605830Y-76545504D01*
X60290330Y-72230004D01*
X60262553Y-72175487D01*
X60272124Y-72115055D01*
X60290330Y-72089996D01*
X63719996Y-68660330D01*
X63774513Y-68632553D01*
X63834945Y-68642124D01*
X63878210Y-68685389D01*
X63889000Y-68730334D01*
X63889000Y-68779057D01*
X63929923Y-68931784D01*
X64008980Y-69068716D01*
X64120784Y-69180520D01*
X64257716Y-69259577D01*
X64410443Y-69300500D01*
X64410445Y-69300500D01*
X64568555Y-69300500D01*
X64568557Y-69300500D01*
X64721284Y-69259577D01*
X64858216Y-69180520D01*
X64970020Y-69068716D01*
X65049077Y-68931784D01*
X65090000Y-68779057D01*
X65090000Y-68620943D01*
X65049077Y-68468216D01*
X64970020Y-68331284D01*
X64858216Y-68219480D01*
X64721284Y-68140423D01*
X64721281Y-68140422D01*
X64715664Y-68137179D01*
X64716825Y-68135167D01*
X64678049Y-68102050D01*
X64663765Y-68042556D01*
X64666830Y-68024715D01*
X64700500Y-67899057D01*
X64700500Y-67740943D01*
X64659577Y-67588216D01*
X64580520Y-67451284D01*
X64468716Y-67339480D01*
X64331784Y-67260423D01*
X64179057Y-67219500D01*
X64020943Y-67219500D01*
X63886256Y-67255589D01*
X63868212Y-67260424D01*
X63848311Y-67271914D01*
X63788462Y-67284633D01*
X63732568Y-67259745D01*
X63713079Y-67235678D01*
X63680520Y-67179284D01*
X63568716Y-67067480D01*
X63431784Y-66988423D01*
X63279057Y-66947500D01*
X63120943Y-66947500D01*
X62968216Y-66988423D01*
X62831284Y-67067480D01*
X62719480Y-67179284D01*
X62640423Y-67316216D01*
X62599500Y-67468943D01*
X62599500Y-67627057D01*
X62640423Y-67779784D01*
X62719480Y-67916716D01*
X62831284Y-68028520D01*
X62968216Y-68107577D01*
X63105343Y-68144320D01*
X63156655Y-68177642D01*
X63178582Y-68234763D01*
X63162747Y-68293864D01*
X63149722Y-68309949D01*
X59830003Y-71629668D01*
X59775486Y-71657445D01*
X59715054Y-71647874D01*
X59689995Y-71629668D01*
X57792110Y-69731783D01*
X55806270Y-67745943D01*
X57024500Y-67745943D01*
X57024500Y-67904057D01*
X57065423Y-68056784D01*
X57144480Y-68193716D01*
X57256284Y-68305520D01*
X57393216Y-68384577D01*
X57545943Y-68425500D01*
X57545945Y-68425500D01*
X57704055Y-68425500D01*
X57704057Y-68425500D01*
X57856784Y-68384577D01*
X57993716Y-68305520D01*
X58105520Y-68193716D01*
X58184577Y-68056784D01*
X58225500Y-67904057D01*
X58225500Y-67745943D01*
X58184577Y-67593216D01*
X58105520Y-67456284D01*
X57993716Y-67344480D01*
X57856784Y-67265423D01*
X57704057Y-67224500D01*
X57545943Y-67224500D01*
X57393216Y-67265423D01*
X57256284Y-67344480D01*
X57144480Y-67456284D01*
X57065423Y-67593216D01*
X57024500Y-67745943D01*
X55806270Y-67745943D01*
X55181270Y-67120943D01*
X59799500Y-67120943D01*
X59799500Y-67279057D01*
X59840423Y-67431784D01*
X59919480Y-67568716D01*
X60031284Y-67680520D01*
X60168216Y-67759577D01*
X60320943Y-67800500D01*
X60320945Y-67800500D01*
X60479055Y-67800500D01*
X60479057Y-67800500D01*
X60631784Y-67759577D01*
X60768716Y-67680520D01*
X60880520Y-67568716D01*
X60959577Y-67431784D01*
X61000500Y-67279057D01*
X61000500Y-67120943D01*
X60959577Y-66968216D01*
X60880520Y-66831284D01*
X60768716Y-66719480D01*
X60631784Y-66640423D01*
X60479057Y-66599500D01*
X60320943Y-66599500D01*
X60168216Y-66640423D01*
X60031284Y-66719480D01*
X59919480Y-66831284D01*
X59840423Y-66968216D01*
X59799500Y-67120943D01*
X55181270Y-67120943D01*
X55099862Y-67039535D01*
X55099859Y-67039533D01*
X55099857Y-67039531D01*
X55025643Y-66996683D01*
X54994815Y-66988423D01*
X54942853Y-66974500D01*
X54942851Y-66974500D01*
X54187502Y-66974500D01*
X54129311Y-66955593D01*
X54108960Y-66935767D01*
X54105523Y-66931288D01*
X54105521Y-66931286D01*
X54105520Y-66931284D01*
X53993716Y-66819480D01*
X53856784Y-66740423D01*
X53723876Y-66704810D01*
X53672562Y-66671487D01*
X53650636Y-66614365D01*
X53650500Y-66609184D01*
X53650500Y-61593941D01*
X56399500Y-61593941D01*
X56399500Y-61752055D01*
X56440423Y-61904782D01*
X56519480Y-62041714D01*
X56519482Y-62041716D01*
X56544262Y-62066497D01*
X56572038Y-62121014D01*
X56562466Y-62181446D01*
X56544262Y-62206501D01*
X56519482Y-62231281D01*
X56519480Y-62231283D01*
X56519480Y-62231284D01*
X56440423Y-62368216D01*
X56399500Y-62520943D01*
X56399500Y-62679057D01*
X56440423Y-62831784D01*
X56519480Y-62968716D01*
X56519482Y-62968718D01*
X56530762Y-62979999D01*
X56558538Y-63034516D01*
X56548964Y-63094948D01*
X56530762Y-63120001D01*
X56519482Y-63131281D01*
X56519480Y-63131283D01*
X56519480Y-63131284D01*
X56440423Y-63268216D01*
X56399500Y-63420943D01*
X56399500Y-63579057D01*
X56440423Y-63731784D01*
X56519480Y-63868716D01*
X56631284Y-63980520D01*
X56768216Y-64059577D01*
X56920943Y-64100500D01*
X56920945Y-64100500D01*
X57079055Y-64100500D01*
X57079057Y-64100500D01*
X57231784Y-64059577D01*
X57368716Y-63980520D01*
X57480520Y-63868716D01*
X57559577Y-63731784D01*
X57600500Y-63579057D01*
X57600500Y-63420943D01*
X57559577Y-63268216D01*
X57480520Y-63131284D01*
X57469237Y-63120001D01*
X57441462Y-63065487D01*
X57451033Y-63005055D01*
X57469236Y-62979999D01*
X57480520Y-62968716D01*
X57559577Y-62831784D01*
X57600500Y-62679057D01*
X57600500Y-62520943D01*
X57559577Y-62368216D01*
X57480520Y-62231284D01*
X57455736Y-62206500D01*
X57427961Y-62151986D01*
X57437532Y-62091554D01*
X57455737Y-62066497D01*
X57480520Y-62041714D01*
X57559577Y-61904782D01*
X57600500Y-61752055D01*
X57600500Y-61593941D01*
X57594338Y-61570943D01*
X58824500Y-61570943D01*
X58824500Y-61729057D01*
X58865423Y-61881784D01*
X58944480Y-62018716D01*
X58944482Y-62018718D01*
X58968261Y-62042498D01*
X58996037Y-62097015D01*
X58986465Y-62157447D01*
X58968261Y-62182502D01*
X58944482Y-62206281D01*
X58944480Y-62206283D01*
X58944480Y-62206284D01*
X58865423Y-62343216D01*
X58824500Y-62495943D01*
X58824500Y-62654057D01*
X58865423Y-62806784D01*
X58944480Y-62943716D01*
X58993261Y-62992497D01*
X59021037Y-63047012D01*
X59011466Y-63107444D01*
X58993262Y-63132500D01*
X58969482Y-63156281D01*
X58969480Y-63156283D01*
X58969480Y-63156284D01*
X58890423Y-63293216D01*
X58849500Y-63445943D01*
X58849500Y-63604057D01*
X58890423Y-63756784D01*
X58969480Y-63893716D01*
X59081284Y-64005520D01*
X59218216Y-64084577D01*
X59370943Y-64125500D01*
X59370945Y-64125500D01*
X59529055Y-64125500D01*
X59529057Y-64125500D01*
X59681784Y-64084577D01*
X59818716Y-64005520D01*
X59930520Y-63893716D01*
X60009577Y-63756784D01*
X60050500Y-63604057D01*
X60050500Y-63445943D01*
X60009577Y-63293216D01*
X59930520Y-63156284D01*
X59881737Y-63107501D01*
X59853962Y-63052987D01*
X59863533Y-62992555D01*
X59881741Y-62967495D01*
X59905516Y-62943720D01*
X59905516Y-62943719D01*
X59905520Y-62943716D01*
X59984577Y-62806784D01*
X60025500Y-62654057D01*
X60025500Y-62495943D01*
X59984577Y-62343216D01*
X59905520Y-62206284D01*
X59881737Y-62182501D01*
X59853962Y-62127987D01*
X59863533Y-62067555D01*
X59881738Y-62042498D01*
X59905520Y-62018716D01*
X59984577Y-61881784D01*
X60025500Y-61729057D01*
X60025500Y-61570943D01*
X59984577Y-61418216D01*
X59905520Y-61281284D01*
X59793716Y-61169480D01*
X59656784Y-61090423D01*
X59504057Y-61049500D01*
X59345943Y-61049500D01*
X59193216Y-61090423D01*
X59056284Y-61169480D01*
X58944480Y-61281284D01*
X58865423Y-61418216D01*
X58824500Y-61570943D01*
X57594338Y-61570943D01*
X57559577Y-61441214D01*
X57480520Y-61304282D01*
X57368716Y-61192478D01*
X57231784Y-61113421D01*
X57079057Y-61072498D01*
X56920943Y-61072498D01*
X56768216Y-61113421D01*
X56631284Y-61192478D01*
X56519480Y-61304282D01*
X56440423Y-61441214D01*
X56399500Y-61593941D01*
X53650500Y-61593941D01*
X53650500Y-45534229D01*
X60470918Y-45534229D01*
X60470918Y-45692343D01*
X60511841Y-45845070D01*
X60590898Y-45982002D01*
X60702702Y-46093806D01*
X60839634Y-46172863D01*
X60992361Y-46213786D01*
X60992363Y-46213786D01*
X61150473Y-46213786D01*
X61150475Y-46213786D01*
X61303202Y-46172863D01*
X61440134Y-46093806D01*
X61551938Y-45982002D01*
X61630995Y-45845070D01*
X61671918Y-45692343D01*
X61671918Y-45534229D01*
X61630995Y-45381502D01*
X61551938Y-45244570D01*
X61456474Y-45149106D01*
X61428699Y-45094592D01*
X61438270Y-45034160D01*
X61468152Y-45002865D01*
X61466333Y-45000495D01*
X61471478Y-44996546D01*
X61471479Y-44996544D01*
X61471484Y-44996542D01*
X61583288Y-44884738D01*
X61662345Y-44747806D01*
X61703268Y-44595079D01*
X61703268Y-44436965D01*
X61701965Y-44432101D01*
X64303747Y-44432101D01*
X64303747Y-44590215D01*
X64344670Y-44742942D01*
X64423727Y-44879874D01*
X64535531Y-44991678D01*
X64535533Y-44991679D01*
X64536845Y-44992991D01*
X64564622Y-45047508D01*
X64555051Y-45107940D01*
X64536847Y-45132995D01*
X64448925Y-45220918D01*
X64369868Y-45357850D01*
X64328945Y-45510577D01*
X64328945Y-45668691D01*
X64369868Y-45821418D01*
X64448925Y-45958350D01*
X64560729Y-46070154D01*
X64697661Y-46149211D01*
X64850388Y-46190134D01*
X64850390Y-46190134D01*
X65008500Y-46190134D01*
X65008502Y-46190134D01*
X65161229Y-46149211D01*
X65298161Y-46070154D01*
X65409965Y-45958350D01*
X65489022Y-45821418D01*
X65529945Y-45668691D01*
X65529945Y-45510577D01*
X65489022Y-45357850D01*
X65409965Y-45220918D01*
X65298161Y-45109114D01*
X65298158Y-45109112D01*
X65296847Y-45107801D01*
X65269070Y-45053284D01*
X65278641Y-44992852D01*
X65296844Y-44967796D01*
X65384767Y-44879874D01*
X65463824Y-44742942D01*
X65504747Y-44590215D01*
X65504747Y-44432101D01*
X65463824Y-44279374D01*
X65384767Y-44142442D01*
X65272963Y-44030638D01*
X65136031Y-43951581D01*
X64983304Y-43910658D01*
X64825190Y-43910658D01*
X64672463Y-43951581D01*
X64535531Y-44030638D01*
X64423727Y-44142442D01*
X64344670Y-44279374D01*
X64303747Y-44432101D01*
X61701965Y-44432101D01*
X61662345Y-44284238D01*
X61583288Y-44147306D01*
X61471484Y-44035502D01*
X61334552Y-43956445D01*
X61181825Y-43915522D01*
X61023711Y-43915522D01*
X60870984Y-43956445D01*
X60734052Y-44035502D01*
X60622248Y-44147306D01*
X60543191Y-44284238D01*
X60502268Y-44436965D01*
X60502268Y-44595079D01*
X60543191Y-44747806D01*
X60622248Y-44884738D01*
X60717710Y-44980200D01*
X60745486Y-45034715D01*
X60735915Y-45095147D01*
X60706238Y-45126719D01*
X60707848Y-45128817D01*
X60702708Y-45132760D01*
X60702702Y-45132766D01*
X60590898Y-45244570D01*
X60511841Y-45381502D01*
X60470918Y-45534229D01*
X53650500Y-45534229D01*
X53650500Y-40583849D01*
X53669407Y-40525658D01*
X53718907Y-40489694D01*
X53775120Y-40488222D01*
X53820943Y-40500500D01*
X53820945Y-40500500D01*
X53979055Y-40500500D01*
X53979057Y-40500500D01*
X54131784Y-40459577D01*
X54268716Y-40380520D01*
X54380520Y-40268716D01*
X54459577Y-40131784D01*
X54500500Y-39979057D01*
X54500500Y-39820943D01*
X54459577Y-39668216D01*
X54380520Y-39531284D01*
X54268716Y-39419480D01*
X54131784Y-39340423D01*
X53979057Y-39299500D01*
X53820943Y-39299500D01*
X53744579Y-39319961D01*
X53668214Y-39340423D01*
X53528426Y-39421129D01*
X53468578Y-39433850D01*
X53426902Y-39417224D01*
X53426115Y-39418588D01*
X53420498Y-39415345D01*
X53420496Y-39415343D01*
X53283564Y-39336286D01*
X53130837Y-39295363D01*
X52972723Y-39295363D01*
X52819996Y-39336286D01*
X52683064Y-39415343D01*
X52571260Y-39527147D01*
X52492203Y-39664079D01*
X52451280Y-39816806D01*
X36927995Y-39816806D01*
X36901920Y-39771644D01*
X36901919Y-39771642D01*
X36746268Y-39568794D01*
X36565471Y-39387997D01*
X36565466Y-39387993D01*
X36565464Y-39387991D01*
X36362626Y-39232348D01*
X36362623Y-39232346D01*
X36141193Y-39104503D01*
X36141189Y-39104501D01*
X36141185Y-39104499D01*
X35904972Y-39006657D01*
X35796071Y-38977477D01*
X35657998Y-38940481D01*
X35657995Y-38940480D01*
X35657993Y-38940480D01*
X35404501Y-38907107D01*
X35148815Y-38907107D01*
X35148814Y-38907107D01*
X34895325Y-38940480D01*
X34895320Y-38940480D01*
X34648343Y-39006657D01*
X34412130Y-39104499D01*
X34190689Y-39232348D01*
X33987851Y-39387991D01*
X33807042Y-39568800D01*
X33651399Y-39771638D01*
X33523550Y-39993079D01*
X33425708Y-40229292D01*
X33359531Y-40476269D01*
X33359531Y-40476274D01*
X33326158Y-40729763D01*
X32000500Y-40729763D01*
X32000500Y-32307621D01*
X33026658Y-32307621D01*
X33026658Y-33607606D01*
X33026659Y-33607607D01*
X34541358Y-33607607D01*
X34531441Y-33631548D01*
X34501658Y-33781276D01*
X34501658Y-33933938D01*
X34531441Y-34083666D01*
X34541358Y-34107607D01*
X33026660Y-34107607D01*
X33026659Y-34107608D01*
X33026659Y-35407591D01*
X33037150Y-35510292D01*
X33037153Y-35510304D01*
X33092301Y-35676729D01*
X33184338Y-35825946D01*
X33308318Y-35949926D01*
X33457535Y-36041963D01*
X33623966Y-36097113D01*
X33726672Y-36107606D01*
X35026656Y-36107606D01*
X35026658Y-36107605D01*
X35026658Y-34592907D01*
X35050599Y-34602824D01*
X35200327Y-34632607D01*
X35352989Y-34632607D01*
X35502717Y-34602824D01*
X35526658Y-34592907D01*
X35526658Y-36107605D01*
X35526659Y-36107606D01*
X36826642Y-36107606D01*
X36929343Y-36097114D01*
X36929355Y-36097111D01*
X37095780Y-36041963D01*
X37244997Y-35949926D01*
X37368977Y-35825946D01*
X37461014Y-35676729D01*
X37516164Y-35510298D01*
X37525717Y-35416806D01*
X52451280Y-35416806D01*
X52451280Y-35574920D01*
X52492203Y-35727647D01*
X52571260Y-35864579D01*
X52571262Y-35864581D01*
X52582542Y-35875862D01*
X52610318Y-35930379D01*
X52600744Y-35990811D01*
X52582542Y-36015864D01*
X52571262Y-36027144D01*
X52571260Y-36027146D01*
X52571260Y-36027147D01*
X52492203Y-36164079D01*
X52451280Y-36316806D01*
X52451280Y-36474920D01*
X52492203Y-36627647D01*
X52571260Y-36764579D01*
X52571262Y-36764581D01*
X52582542Y-36775862D01*
X52610318Y-36830379D01*
X52600744Y-36890811D01*
X52582542Y-36915864D01*
X52571262Y-36927144D01*
X52571260Y-36927146D01*
X52571260Y-36927147D01*
X52492203Y-37064079D01*
X52451280Y-37216806D01*
X52451280Y-37374920D01*
X52492203Y-37527647D01*
X52571260Y-37664579D01*
X52683064Y-37776383D01*
X52819996Y-37855440D01*
X52972723Y-37896363D01*
X52972725Y-37896363D01*
X53130835Y-37896363D01*
X53130837Y-37896363D01*
X53283564Y-37855440D01*
X53420496Y-37776383D01*
X53420498Y-37776380D01*
X53423352Y-37774733D01*
X53483200Y-37762012D01*
X53524877Y-37778638D01*
X53525665Y-37777275D01*
X53531281Y-37780517D01*
X53531284Y-37780520D01*
X53668216Y-37859577D01*
X53820943Y-37900500D01*
X53820945Y-37900500D01*
X53979055Y-37900500D01*
X53979057Y-37900500D01*
X54131784Y-37859577D01*
X54268716Y-37780520D01*
X54380520Y-37668716D01*
X54459577Y-37531784D01*
X54500500Y-37379057D01*
X54500500Y-37220943D01*
X54459577Y-37068216D01*
X54380520Y-36931284D01*
X54369237Y-36920001D01*
X54341462Y-36865487D01*
X54351033Y-36805055D01*
X54369236Y-36779999D01*
X54380520Y-36768716D01*
X54459577Y-36631784D01*
X54500500Y-36479057D01*
X54500500Y-36320943D01*
X54459577Y-36168216D01*
X54380520Y-36031284D01*
X54369237Y-36020001D01*
X54341462Y-35965487D01*
X54351033Y-35905055D01*
X54369236Y-35879999D01*
X54380520Y-35868716D01*
X54459577Y-35731784D01*
X54500500Y-35579057D01*
X54500500Y-35420943D01*
X54459577Y-35268216D01*
X54380520Y-35131284D01*
X54268716Y-35019480D01*
X54131784Y-34940423D01*
X53979057Y-34899500D01*
X53820943Y-34899500D01*
X53744579Y-34919961D01*
X53668214Y-34940423D01*
X53528426Y-35021129D01*
X53468578Y-35033850D01*
X53426902Y-35017224D01*
X53426115Y-35018588D01*
X53420498Y-35015345D01*
X53420496Y-35015343D01*
X53283564Y-34936286D01*
X53130837Y-34895363D01*
X52972723Y-34895363D01*
X52819996Y-34936286D01*
X52683064Y-35015343D01*
X52571260Y-35127147D01*
X52492203Y-35264079D01*
X52451280Y-35416806D01*
X37525717Y-35416806D01*
X37526658Y-35407592D01*
X37526658Y-34107608D01*
X37526657Y-34107607D01*
X36011958Y-34107607D01*
X36021875Y-34083666D01*
X36051658Y-33933938D01*
X36051658Y-33781276D01*
X36021875Y-33631548D01*
X36011958Y-33607607D01*
X37526656Y-33607607D01*
X37526657Y-33607606D01*
X37526657Y-32307622D01*
X37516165Y-32204921D01*
X37516162Y-32204909D01*
X37461014Y-32038484D01*
X37368977Y-31889267D01*
X37244997Y-31765287D01*
X37095780Y-31673250D01*
X36929349Y-31618100D01*
X36826643Y-31607607D01*
X35526659Y-31607607D01*
X35526658Y-31607608D01*
X35526658Y-33122306D01*
X35502717Y-33112390D01*
X35352989Y-33082607D01*
X35200327Y-33082607D01*
X35050599Y-33112390D01*
X35026658Y-33122306D01*
X35026658Y-31607608D01*
X35026657Y-31607607D01*
X33726673Y-31607607D01*
X33623972Y-31618099D01*
X33623960Y-31618102D01*
X33457535Y-31673250D01*
X33308318Y-31765287D01*
X33184338Y-31889267D01*
X33092301Y-32038484D01*
X33037151Y-32204915D01*
X33026658Y-32307621D01*
X32000500Y-32307621D01*
X32000500Y-29720943D01*
X58599500Y-29720943D01*
X58599500Y-29879057D01*
X58640423Y-30031784D01*
X58719480Y-30168716D01*
X58831284Y-30280520D01*
X58968216Y-30359577D01*
X59120943Y-30400500D01*
X59120945Y-30400500D01*
X59279056Y-30400500D01*
X59279057Y-30400500D01*
X59299930Y-30394907D01*
X59361031Y-30398108D01*
X59395558Y-30420529D01*
X59659540Y-30684511D01*
X59659539Y-30684511D01*
X59715489Y-30740460D01*
X59784007Y-30780019D01*
X59784011Y-30780021D01*
X59860435Y-30800499D01*
X59860437Y-30800500D01*
X59860438Y-30800500D01*
X65434521Y-30800500D01*
X65492712Y-30819407D01*
X65504525Y-30829496D01*
X66642504Y-31967475D01*
X66670281Y-32021992D01*
X66671500Y-32037479D01*
X66671500Y-70779520D01*
X66652593Y-70837711D01*
X66642504Y-70849524D01*
X66095557Y-71396470D01*
X66041040Y-71424247D01*
X65999931Y-71422093D01*
X65979057Y-71416500D01*
X65820943Y-71416500D01*
X65668216Y-71457423D01*
X65531284Y-71536480D01*
X65419480Y-71648284D01*
X65340423Y-71785216D01*
X65299500Y-71937943D01*
X65299500Y-72096057D01*
X65340423Y-72248784D01*
X65419480Y-72385716D01*
X65444263Y-72410499D01*
X65472039Y-72465014D01*
X65462468Y-72525446D01*
X65444263Y-72550503D01*
X65419482Y-72575284D01*
X65419480Y-72575286D01*
X65419480Y-72575287D01*
X65340423Y-72712219D01*
X65299500Y-72864946D01*
X65299500Y-73023060D01*
X65340423Y-73175787D01*
X65419480Y-73312719D01*
X65531284Y-73424523D01*
X65668216Y-73503580D01*
X65820943Y-73544503D01*
X65820945Y-73544503D01*
X65979055Y-73544503D01*
X65979057Y-73544503D01*
X66131784Y-73503580D01*
X66268716Y-73424523D01*
X66380520Y-73312719D01*
X66459577Y-73175787D01*
X66500500Y-73023060D01*
X66500500Y-72864946D01*
X66494906Y-72844068D01*
X66498109Y-72782968D01*
X66520527Y-72748445D01*
X67540460Y-71728514D01*
X67556843Y-71700138D01*
X67557112Y-71699673D01*
X67580020Y-71659993D01*
X67580021Y-71659992D01*
X67600500Y-71583565D01*
X67600500Y-70886299D01*
X67619407Y-70828108D01*
X67668907Y-70792144D01*
X67730093Y-70792144D01*
X67748991Y-70800558D01*
X67851216Y-70859577D01*
X68003943Y-70900500D01*
X68003945Y-70900500D01*
X68162055Y-70900500D01*
X68162057Y-70900500D01*
X68208260Y-70888120D01*
X82372842Y-70888120D01*
X82372842Y-73996665D01*
X82375695Y-74027086D01*
X82375697Y-74027095D01*
X82420548Y-74155273D01*
X82420549Y-74155274D01*
X82501193Y-74264542D01*
X82610461Y-74345186D01*
X82738644Y-74390039D01*
X82769069Y-74392892D01*
X82769071Y-74392893D01*
X82769078Y-74392893D01*
X85877613Y-74392893D01*
X85877613Y-74392892D01*
X85908040Y-74390039D01*
X86036223Y-74345186D01*
X86145491Y-74264542D01*
X86226135Y-74155274D01*
X86270988Y-74027091D01*
X86273841Y-73996664D01*
X86273842Y-73996664D01*
X86273842Y-70888122D01*
X86273841Y-70888120D01*
X86270988Y-70857699D01*
X86270988Y-70857695D01*
X86226135Y-70729512D01*
X86145491Y-70620244D01*
X86036223Y-70539600D01*
X86036222Y-70539599D01*
X85908044Y-70494748D01*
X85908035Y-70494746D01*
X85877614Y-70491893D01*
X85877606Y-70491893D01*
X82769078Y-70491893D01*
X82769069Y-70491893D01*
X82738648Y-70494746D01*
X82738639Y-70494748D01*
X82610461Y-70539599D01*
X82501194Y-70620243D01*
X82501192Y-70620245D01*
X82420548Y-70729512D01*
X82375697Y-70857690D01*
X82375695Y-70857699D01*
X82372842Y-70888120D01*
X68208260Y-70888120D01*
X68314784Y-70859577D01*
X68451716Y-70780520D01*
X68563520Y-70668716D01*
X68642577Y-70531784D01*
X68683500Y-70379057D01*
X68683500Y-70220943D01*
X68682481Y-70217140D01*
X68685679Y-70156041D01*
X68724182Y-70108489D01*
X68783281Y-70092649D01*
X68803724Y-70095886D01*
X68820943Y-70100500D01*
X68820945Y-70100500D01*
X68979055Y-70100500D01*
X68979057Y-70100500D01*
X69131784Y-70059577D01*
X69268716Y-69980520D01*
X69380520Y-69868716D01*
X69459577Y-69731784D01*
X69500500Y-69579057D01*
X69500500Y-69420943D01*
X69459577Y-69268216D01*
X69380520Y-69131284D01*
X69268716Y-69019480D01*
X69131784Y-68940423D01*
X68979057Y-68899500D01*
X68820943Y-68899500D01*
X68668216Y-68940423D01*
X68531284Y-69019480D01*
X68419480Y-69131284D01*
X68340423Y-69268216D01*
X68299500Y-69420943D01*
X68299500Y-69579057D01*
X68300520Y-69582862D01*
X68297317Y-69643964D01*
X68258812Y-69691514D01*
X68199711Y-69707349D01*
X68179273Y-69704112D01*
X68162061Y-69699500D01*
X68162057Y-69699500D01*
X68003943Y-69699500D01*
X67950948Y-69713700D01*
X67851214Y-69740423D01*
X67748999Y-69799437D01*
X67689151Y-69812158D01*
X67633255Y-69787271D01*
X67602663Y-69734282D01*
X67600500Y-69713700D01*
X67600500Y-65314550D01*
X82372842Y-65314550D01*
X82372842Y-65570236D01*
X82403947Y-65806502D01*
X82406215Y-65823725D01*
X82406215Y-65823730D01*
X82472392Y-66070707D01*
X82570234Y-66306920D01*
X82570236Y-66306924D01*
X82570238Y-66306928D01*
X82642324Y-66431784D01*
X82698083Y-66528361D01*
X82853726Y-66731199D01*
X82853728Y-66731201D01*
X82853732Y-66731206D01*
X83034529Y-66912003D01*
X83034533Y-66912006D01*
X83034535Y-66912008D01*
X83237150Y-67067480D01*
X83237377Y-67067654D01*
X83458807Y-67195497D01*
X83458813Y-67195499D01*
X83458814Y-67195500D01*
X83528827Y-67224500D01*
X83695029Y-67293343D01*
X83942002Y-67359519D01*
X84195499Y-67392893D01*
X84195500Y-67392893D01*
X84451184Y-67392893D01*
X84451185Y-67392893D01*
X84704682Y-67359519D01*
X84951655Y-67293343D01*
X85187877Y-67195497D01*
X85409307Y-67067654D01*
X85612155Y-66912003D01*
X85792952Y-66731206D01*
X85948603Y-66528358D01*
X86076446Y-66306928D01*
X86174292Y-66070706D01*
X86240468Y-65823733D01*
X86273842Y-65570236D01*
X86273842Y-65314550D01*
X86240468Y-65061053D01*
X86174292Y-64814080D01*
X86076446Y-64577858D01*
X85948603Y-64356428D01*
X85948600Y-64356424D01*
X85792957Y-64153586D01*
X85792955Y-64153584D01*
X85792952Y-64153580D01*
X85612155Y-63972783D01*
X85612150Y-63972779D01*
X85612148Y-63972777D01*
X85409310Y-63817134D01*
X85409307Y-63817132D01*
X85187877Y-63689289D01*
X85187873Y-63689287D01*
X85187869Y-63689285D01*
X84951656Y-63591443D01*
X84842755Y-63562263D01*
X84704682Y-63525267D01*
X84704679Y-63525266D01*
X84704677Y-63525266D01*
X84451185Y-63491893D01*
X84195499Y-63491893D01*
X84195498Y-63491893D01*
X83942009Y-63525266D01*
X83942004Y-63525266D01*
X83695027Y-63591443D01*
X83458814Y-63689285D01*
X83237373Y-63817134D01*
X83034535Y-63972777D01*
X82853726Y-64153586D01*
X82698083Y-64356424D01*
X82570234Y-64577865D01*
X82472392Y-64814078D01*
X82406215Y-65061055D01*
X82406215Y-65061060D01*
X82394572Y-65149500D01*
X82372842Y-65314550D01*
X67600500Y-65314550D01*
X67600500Y-58520943D01*
X70399500Y-58520943D01*
X70399500Y-58679057D01*
X70440423Y-58831784D01*
X70519480Y-58968716D01*
X70519482Y-58968718D01*
X70563918Y-59013155D01*
X70591695Y-59067672D01*
X70582123Y-59128104D01*
X70563922Y-59153157D01*
X70559664Y-59157416D01*
X70480607Y-59294348D01*
X70439684Y-59447075D01*
X70439684Y-59605189D01*
X70480607Y-59757916D01*
X70559664Y-59894848D01*
X70637787Y-59972971D01*
X70665563Y-60027486D01*
X70655992Y-60087918D01*
X70637789Y-60112974D01*
X70625127Y-60125637D01*
X70619480Y-60131284D01*
X70540423Y-60268216D01*
X70499500Y-60420943D01*
X70499500Y-60579057D01*
X70540423Y-60731784D01*
X70619480Y-60868716D01*
X70680762Y-60929998D01*
X70708538Y-60984513D01*
X70698967Y-61044945D01*
X70680763Y-61070000D01*
X70619480Y-61131284D01*
X70540423Y-61268216D01*
X70499500Y-61420943D01*
X70499500Y-61579057D01*
X70540423Y-61731784D01*
X70619480Y-61868716D01*
X70731284Y-61980520D01*
X70868216Y-62059577D01*
X71020943Y-62100500D01*
X71020945Y-62100500D01*
X71179055Y-62100500D01*
X71179057Y-62100500D01*
X71331784Y-62059577D01*
X71468716Y-61980520D01*
X71580520Y-61868716D01*
X71659577Y-61731784D01*
X71700500Y-61579057D01*
X71700500Y-61420943D01*
X71659577Y-61268216D01*
X71580520Y-61131284D01*
X71519237Y-61070001D01*
X71491462Y-61015487D01*
X71501033Y-60955055D01*
X71519236Y-60929999D01*
X71580520Y-60868716D01*
X71659577Y-60731784D01*
X71700500Y-60579057D01*
X71700500Y-60420943D01*
X71659577Y-60268216D01*
X71580520Y-60131284D01*
X71502395Y-60053159D01*
X71474620Y-59998645D01*
X71484191Y-59938213D01*
X71502399Y-59913153D01*
X71505278Y-59910273D01*
X71520704Y-59894848D01*
X71599761Y-59757916D01*
X71640684Y-59605189D01*
X71640684Y-59447075D01*
X71599761Y-59294348D01*
X71540585Y-59191851D01*
X73785241Y-59191851D01*
X73785241Y-59349965D01*
X73826164Y-59502692D01*
X73905221Y-59639624D01*
X74017025Y-59751428D01*
X74153957Y-59830485D01*
X74306684Y-59871408D01*
X74306686Y-59871408D01*
X74464796Y-59871408D01*
X74464798Y-59871408D01*
X74617525Y-59830485D01*
X74754457Y-59751428D01*
X74866261Y-59639624D01*
X74892987Y-59593331D01*
X74938455Y-59552391D01*
X74999305Y-59545995D01*
X75052294Y-59576587D01*
X75064456Y-59593328D01*
X75095375Y-59646881D01*
X75207179Y-59758685D01*
X75344111Y-59837742D01*
X75496838Y-59878665D01*
X75496840Y-59878665D01*
X75654950Y-59878665D01*
X75654952Y-59878665D01*
X75807679Y-59837742D01*
X75944611Y-59758685D01*
X76056415Y-59646881D01*
X76135472Y-59509949D01*
X76176395Y-59357222D01*
X76176395Y-59199108D01*
X76135472Y-59046381D01*
X76056415Y-58909449D01*
X75944611Y-58797645D01*
X75807679Y-58718588D01*
X75654952Y-58677665D01*
X75496838Y-58677665D01*
X75371195Y-58711331D01*
X75344111Y-58718588D01*
X75207179Y-58797645D01*
X75095374Y-58909450D01*
X75068648Y-58955741D01*
X75023178Y-58996681D01*
X74962328Y-59003076D01*
X74909340Y-58972483D01*
X74897180Y-58955746D01*
X74866261Y-58902192D01*
X74754457Y-58790388D01*
X74617525Y-58711331D01*
X74464798Y-58670408D01*
X74306684Y-58670408D01*
X74153957Y-58711331D01*
X74017025Y-58790388D01*
X73905221Y-58902192D01*
X73826164Y-59039124D01*
X73785241Y-59191851D01*
X71540585Y-59191851D01*
X71520704Y-59157416D01*
X71470987Y-59107699D01*
X71466560Y-59101689D01*
X71459154Y-59079395D01*
X71448488Y-59058461D01*
X71449686Y-59050894D01*
X71447271Y-59043623D01*
X71454383Y-59021234D01*
X71458059Y-58998029D01*
X71464628Y-58988986D01*
X71465797Y-58985310D01*
X71469031Y-58982927D01*
X71476266Y-58972969D01*
X71480520Y-58968716D01*
X71559577Y-58831784D01*
X71600500Y-58679057D01*
X71600500Y-58520943D01*
X71580346Y-58445727D01*
X82349500Y-58445727D01*
X82349500Y-61554272D01*
X82352353Y-61584693D01*
X82352355Y-61584702D01*
X82397206Y-61712880D01*
X82411157Y-61731783D01*
X82477851Y-61822149D01*
X82587119Y-61902793D01*
X82715302Y-61947646D01*
X82745727Y-61950499D01*
X82745729Y-61950500D01*
X82745736Y-61950500D01*
X85854271Y-61950500D01*
X85854271Y-61950499D01*
X85884698Y-61947646D01*
X86012881Y-61902793D01*
X86122149Y-61822149D01*
X86202793Y-61712881D01*
X86247646Y-61584698D01*
X86250499Y-61554271D01*
X86250500Y-61554271D01*
X86250500Y-58445729D01*
X86250499Y-58445727D01*
X86247646Y-58415306D01*
X86247646Y-58415302D01*
X86202793Y-58287119D01*
X86122149Y-58177851D01*
X86012881Y-58097207D01*
X86012880Y-58097206D01*
X85884702Y-58052355D01*
X85884693Y-58052353D01*
X85854272Y-58049500D01*
X85854264Y-58049500D01*
X82745736Y-58049500D01*
X82745727Y-58049500D01*
X82715306Y-58052353D01*
X82715297Y-58052355D01*
X82587119Y-58097206D01*
X82477852Y-58177850D01*
X82477850Y-58177852D01*
X82397206Y-58287119D01*
X82352355Y-58415297D01*
X82352353Y-58415306D01*
X82349500Y-58445727D01*
X71580346Y-58445727D01*
X71559577Y-58368216D01*
X71480520Y-58231284D01*
X71368716Y-58119480D01*
X71231784Y-58040423D01*
X71079057Y-57999500D01*
X70920943Y-57999500D01*
X70768216Y-58040423D01*
X70631284Y-58119480D01*
X70519480Y-58231284D01*
X70440423Y-58368216D01*
X70399500Y-58520943D01*
X67600500Y-58520943D01*
X67600500Y-57061475D01*
X72210732Y-57061475D01*
X72210732Y-57219589D01*
X72251655Y-57372316D01*
X72330712Y-57509248D01*
X72442516Y-57621052D01*
X72579448Y-57700109D01*
X72732175Y-57741032D01*
X72732177Y-57741032D01*
X72890287Y-57741032D01*
X72890289Y-57741032D01*
X73043016Y-57700109D01*
X73179948Y-57621052D01*
X73291752Y-57509248D01*
X73370809Y-57372316D01*
X73411732Y-57219589D01*
X73411732Y-57061475D01*
X73370809Y-56908748D01*
X73291752Y-56771816D01*
X73179948Y-56660012D01*
X73043016Y-56580955D01*
X72890289Y-56540032D01*
X72732175Y-56540032D01*
X72579448Y-56580955D01*
X72442516Y-56660012D01*
X72330712Y-56771816D01*
X72251655Y-56908748D01*
X72210732Y-57061475D01*
X67600500Y-57061475D01*
X67600500Y-55320943D01*
X79999500Y-55320943D01*
X79999500Y-55479057D01*
X80040423Y-55631784D01*
X80119480Y-55768716D01*
X80231284Y-55880520D01*
X80368216Y-55959577D01*
X80520943Y-56000500D01*
X80520945Y-56000500D01*
X80679055Y-56000500D01*
X80679057Y-56000500D01*
X80831784Y-55959577D01*
X80968716Y-55880520D01*
X81080520Y-55768716D01*
X81159577Y-55631784D01*
X81200500Y-55479057D01*
X81200500Y-55320943D01*
X81159577Y-55168216D01*
X81080520Y-55031284D01*
X80968716Y-54919480D01*
X80831784Y-54840423D01*
X80679057Y-54799500D01*
X80520943Y-54799500D01*
X80368216Y-54840423D01*
X80231284Y-54919480D01*
X80119480Y-55031284D01*
X80040423Y-55168216D01*
X79999500Y-55320943D01*
X67600500Y-55320943D01*
X67600500Y-53763438D01*
X72984825Y-53763438D01*
X72984825Y-53921552D01*
X73025748Y-54074279D01*
X73104805Y-54211211D01*
X73216609Y-54323015D01*
X73353541Y-54402072D01*
X73506268Y-54442995D01*
X73506270Y-54442995D01*
X73664380Y-54442995D01*
X73664382Y-54442995D01*
X73817109Y-54402072D01*
X73954041Y-54323015D01*
X74065845Y-54211211D01*
X74144902Y-54074279D01*
X74185825Y-53921552D01*
X74185825Y-53763438D01*
X74144902Y-53610711D01*
X74065845Y-53473779D01*
X73954041Y-53361975D01*
X73817109Y-53282918D01*
X73664382Y-53241995D01*
X73506268Y-53241995D01*
X73353541Y-53282918D01*
X73216609Y-53361975D01*
X73104805Y-53473779D01*
X73025748Y-53610711D01*
X72984825Y-53763438D01*
X67600500Y-53763438D01*
X67600500Y-52872156D01*
X82349500Y-52872156D01*
X82349500Y-53127843D01*
X82382873Y-53381332D01*
X82382873Y-53381337D01*
X82449050Y-53628314D01*
X82546892Y-53864527D01*
X82546894Y-53864531D01*
X82546896Y-53864535D01*
X82667992Y-54074279D01*
X82674741Y-54085968D01*
X82830384Y-54288806D01*
X82830386Y-54288808D01*
X82830390Y-54288813D01*
X83011187Y-54469610D01*
X83011191Y-54469613D01*
X83011193Y-54469615D01*
X83214031Y-54625258D01*
X83214035Y-54625261D01*
X83435465Y-54753104D01*
X83671687Y-54850950D01*
X83918660Y-54917126D01*
X84172157Y-54950500D01*
X84172158Y-54950500D01*
X84427842Y-54950500D01*
X84427843Y-54950500D01*
X84681340Y-54917126D01*
X84928313Y-54850950D01*
X85164535Y-54753104D01*
X85385965Y-54625261D01*
X85588813Y-54469610D01*
X85769610Y-54288813D01*
X85925261Y-54085965D01*
X86053104Y-53864535D01*
X86150950Y-53628313D01*
X86217126Y-53381340D01*
X86250500Y-53127843D01*
X86250500Y-52872157D01*
X86217126Y-52618660D01*
X86150950Y-52371687D01*
X86053104Y-52135465D01*
X85925261Y-51914035D01*
X85769610Y-51711187D01*
X85588813Y-51530390D01*
X85588808Y-51530386D01*
X85588806Y-51530384D01*
X85385968Y-51374741D01*
X85385965Y-51374739D01*
X85164535Y-51246896D01*
X85164531Y-51246894D01*
X85164527Y-51246892D01*
X84928314Y-51149050D01*
X84819413Y-51119870D01*
X84681340Y-51082874D01*
X84681337Y-51082873D01*
X84681335Y-51082873D01*
X84427843Y-51049500D01*
X84172157Y-51049500D01*
X84172156Y-51049500D01*
X83918667Y-51082873D01*
X83918662Y-51082873D01*
X83671685Y-51149050D01*
X83435472Y-51246892D01*
X83214031Y-51374741D01*
X83011193Y-51530384D01*
X82830384Y-51711193D01*
X82674741Y-51914031D01*
X82546892Y-52135472D01*
X82449050Y-52371685D01*
X82382873Y-52618662D01*
X82382873Y-52618667D01*
X82349500Y-52872156D01*
X67600500Y-52872156D01*
X67600500Y-49660253D01*
X77349500Y-49660253D01*
X77349500Y-51399746D01*
X77349501Y-51399758D01*
X77361132Y-51458227D01*
X77361134Y-51458233D01*
X77405445Y-51524548D01*
X77405448Y-51524552D01*
X77471769Y-51568867D01*
X77516231Y-51577711D01*
X77530241Y-51580498D01*
X77530246Y-51580498D01*
X77530252Y-51580500D01*
X77530253Y-51580500D01*
X79269747Y-51580500D01*
X79269748Y-51580500D01*
X79328231Y-51568867D01*
X79394552Y-51524552D01*
X79438867Y-51458231D01*
X79450500Y-51399748D01*
X79450500Y-49660252D01*
X79438867Y-49601769D01*
X79394552Y-49535448D01*
X79385652Y-49529501D01*
X79328233Y-49491134D01*
X79328231Y-49491133D01*
X79328228Y-49491132D01*
X79328227Y-49491132D01*
X79269758Y-49479501D01*
X79269748Y-49479500D01*
X77530252Y-49479500D01*
X77530251Y-49479500D01*
X77530241Y-49479501D01*
X77471772Y-49491132D01*
X77471766Y-49491134D01*
X77405451Y-49535445D01*
X77405445Y-49535451D01*
X77361134Y-49601766D01*
X77361132Y-49601772D01*
X77349501Y-49660241D01*
X77349500Y-49660253D01*
X67600500Y-49660253D01*
X67600500Y-47886532D01*
X77349500Y-47886532D01*
X77349500Y-48093467D01*
X77389869Y-48296418D01*
X77469058Y-48487597D01*
X77584020Y-48659651D01*
X77584023Y-48659655D01*
X77730345Y-48805977D01*
X77902402Y-48920941D01*
X78093580Y-49000130D01*
X78296535Y-49040500D01*
X78296536Y-49040500D01*
X78503464Y-49040500D01*
X78503465Y-49040500D01*
X78706420Y-49000130D01*
X78897598Y-48920941D01*
X79069655Y-48805977D01*
X79215977Y-48659655D01*
X79330941Y-48487598D01*
X79410130Y-48296420D01*
X79450500Y-48093465D01*
X79450500Y-47886535D01*
X79410130Y-47683580D01*
X79330941Y-47492402D01*
X79215977Y-47320345D01*
X79069655Y-47174023D01*
X78972429Y-47109059D01*
X78897597Y-47059058D01*
X78706418Y-46979869D01*
X78503467Y-46939500D01*
X78503465Y-46939500D01*
X78296535Y-46939500D01*
X78296532Y-46939500D01*
X78093581Y-46979869D01*
X77902402Y-47059058D01*
X77730348Y-47174020D01*
X77584020Y-47320348D01*
X77469058Y-47492402D01*
X77389869Y-47683581D01*
X77349500Y-47886532D01*
X67600500Y-47886532D01*
X67600500Y-45346532D01*
X77349500Y-45346532D01*
X77349500Y-45553467D01*
X77389869Y-45756418D01*
X77469058Y-45947597D01*
X77566751Y-46093806D01*
X77584023Y-46119655D01*
X77730345Y-46265977D01*
X77902402Y-46380941D01*
X78093580Y-46460130D01*
X78296535Y-46500500D01*
X78296536Y-46500500D01*
X78503464Y-46500500D01*
X78503465Y-46500500D01*
X78706420Y-46460130D01*
X78897598Y-46380941D01*
X79069655Y-46265977D01*
X79215977Y-46119655D01*
X79330941Y-45947598D01*
X79362190Y-45872157D01*
X82349500Y-45872157D01*
X82349500Y-46127843D01*
X82382821Y-46380941D01*
X82382873Y-46381332D01*
X82382873Y-46381337D01*
X82449050Y-46628314D01*
X82546892Y-46864527D01*
X82546894Y-46864531D01*
X82546896Y-46864535D01*
X82659205Y-47059059D01*
X82674741Y-47085968D01*
X82830384Y-47288806D01*
X82830386Y-47288808D01*
X82830390Y-47288813D01*
X83011187Y-47469610D01*
X83011191Y-47469613D01*
X83011193Y-47469615D01*
X83040890Y-47492402D01*
X83214035Y-47625261D01*
X83435465Y-47753104D01*
X83671687Y-47850950D01*
X83918660Y-47917126D01*
X84172157Y-47950500D01*
X84172158Y-47950500D01*
X84427842Y-47950500D01*
X84427843Y-47950500D01*
X84681340Y-47917126D01*
X84928313Y-47850950D01*
X85164535Y-47753104D01*
X85385965Y-47625261D01*
X85588813Y-47469610D01*
X85769610Y-47288813D01*
X85925261Y-47085965D01*
X86053104Y-46864535D01*
X86150950Y-46628313D01*
X86217126Y-46381340D01*
X86250500Y-46127843D01*
X86250500Y-45872157D01*
X86217126Y-45618660D01*
X86150950Y-45371687D01*
X86053104Y-45135465D01*
X85925261Y-44914035D01*
X85861046Y-44830348D01*
X85769615Y-44711193D01*
X85769613Y-44711191D01*
X85769610Y-44711187D01*
X85588813Y-44530390D01*
X85588808Y-44530386D01*
X85588806Y-44530384D01*
X85385968Y-44374741D01*
X85385965Y-44374739D01*
X85164535Y-44246896D01*
X85164531Y-44246894D01*
X85164527Y-44246892D01*
X84928314Y-44149050D01*
X84819413Y-44119870D01*
X84681340Y-44082874D01*
X84681337Y-44082873D01*
X84681335Y-44082873D01*
X84427843Y-44049500D01*
X84172157Y-44049500D01*
X84172156Y-44049500D01*
X83918667Y-44082873D01*
X83918662Y-44082873D01*
X83671685Y-44149050D01*
X83435472Y-44246892D01*
X83214031Y-44374741D01*
X83011193Y-44530384D01*
X82830384Y-44711193D01*
X82674741Y-44914031D01*
X82546892Y-45135472D01*
X82449050Y-45371685D01*
X82382873Y-45618662D01*
X82382873Y-45618667D01*
X82354915Y-45831030D01*
X82349500Y-45872157D01*
X79362190Y-45872157D01*
X79410130Y-45756420D01*
X79450500Y-45553465D01*
X79450500Y-45346535D01*
X79410130Y-45143580D01*
X79330941Y-44952402D01*
X79215977Y-44780345D01*
X79069655Y-44634023D01*
X79011368Y-44595077D01*
X78897597Y-44519058D01*
X78706418Y-44439869D01*
X78503467Y-44399500D01*
X78503465Y-44399500D01*
X78296535Y-44399500D01*
X78296532Y-44399500D01*
X78093581Y-44439869D01*
X77902402Y-44519058D01*
X77730348Y-44634020D01*
X77584020Y-44780348D01*
X77469058Y-44952402D01*
X77389869Y-45143581D01*
X77349500Y-45346532D01*
X67600500Y-45346532D01*
X67600500Y-40429763D01*
X82326158Y-40429763D01*
X82326158Y-40685450D01*
X82359531Y-40938939D01*
X82359531Y-40938944D01*
X82425708Y-41185921D01*
X82523550Y-41422134D01*
X82523552Y-41422138D01*
X82523554Y-41422142D01*
X82560377Y-41485921D01*
X82651399Y-41643575D01*
X82807042Y-41846413D01*
X82807044Y-41846415D01*
X82807048Y-41846420D01*
X82987845Y-42027217D01*
X82987849Y-42027220D01*
X82987851Y-42027222D01*
X83143184Y-42146413D01*
X83190693Y-42182868D01*
X83412123Y-42310711D01*
X83648345Y-42408557D01*
X83895318Y-42474733D01*
X84148815Y-42508107D01*
X84148816Y-42508107D01*
X84404500Y-42508107D01*
X84404501Y-42508107D01*
X84657998Y-42474733D01*
X84904971Y-42408557D01*
X85141193Y-42310711D01*
X85362623Y-42182868D01*
X85565471Y-42027217D01*
X85746268Y-41846420D01*
X85901919Y-41643572D01*
X86029762Y-41422142D01*
X86127608Y-41185920D01*
X86193784Y-40938947D01*
X86227158Y-40685450D01*
X86227158Y-40429764D01*
X86193784Y-40176267D01*
X86127608Y-39929294D01*
X86029762Y-39693072D01*
X85901919Y-39471642D01*
X85746268Y-39268794D01*
X85565471Y-39087997D01*
X85565466Y-39087993D01*
X85565464Y-39087991D01*
X85362626Y-38932348D01*
X85362623Y-38932346D01*
X85141193Y-38804503D01*
X85141189Y-38804501D01*
X85141185Y-38804499D01*
X84904972Y-38706657D01*
X84796071Y-38677477D01*
X84657998Y-38640481D01*
X84657995Y-38640480D01*
X84657993Y-38640480D01*
X84404501Y-38607107D01*
X84148815Y-38607107D01*
X84148814Y-38607107D01*
X83895325Y-38640480D01*
X83895320Y-38640480D01*
X83648343Y-38706657D01*
X83412130Y-38804499D01*
X83190689Y-38932348D01*
X82987851Y-39087991D01*
X82807042Y-39268800D01*
X82651399Y-39471638D01*
X82523550Y-39693079D01*
X82425708Y-39929292D01*
X82359531Y-40176269D01*
X82359531Y-40176274D01*
X82326158Y-40429763D01*
X67600500Y-40429763D01*
X67600500Y-32007621D01*
X82026658Y-32007621D01*
X82026658Y-33307606D01*
X82026659Y-33307607D01*
X83541358Y-33307607D01*
X83531441Y-33331548D01*
X83501658Y-33481276D01*
X83501658Y-33633938D01*
X83531441Y-33783666D01*
X83541358Y-33807607D01*
X82026660Y-33807607D01*
X82026659Y-33807608D01*
X82026659Y-35107591D01*
X82037150Y-35210292D01*
X82037153Y-35210304D01*
X82092301Y-35376729D01*
X82184338Y-35525946D01*
X82308318Y-35649926D01*
X82457535Y-35741963D01*
X82623966Y-35797113D01*
X82726672Y-35807606D01*
X84026656Y-35807606D01*
X84026658Y-35807605D01*
X84026658Y-34292907D01*
X84050599Y-34302824D01*
X84200327Y-34332607D01*
X84352989Y-34332607D01*
X84502717Y-34302824D01*
X84526658Y-34292907D01*
X84526658Y-35807605D01*
X84526659Y-35807606D01*
X85826642Y-35807606D01*
X85929343Y-35797114D01*
X85929355Y-35797111D01*
X86095780Y-35741963D01*
X86244997Y-35649926D01*
X86368977Y-35525946D01*
X86461014Y-35376729D01*
X86516164Y-35210298D01*
X86526658Y-35107592D01*
X86526658Y-33807608D01*
X86526657Y-33807607D01*
X85011958Y-33807607D01*
X85021875Y-33783666D01*
X85051658Y-33633938D01*
X85051658Y-33481276D01*
X85021875Y-33331548D01*
X85011958Y-33307607D01*
X86526656Y-33307607D01*
X86526657Y-33307606D01*
X86526657Y-32007622D01*
X86516165Y-31904921D01*
X86516162Y-31904909D01*
X86461014Y-31738484D01*
X86368977Y-31589267D01*
X86244997Y-31465287D01*
X86095780Y-31373250D01*
X85929349Y-31318100D01*
X85826643Y-31307607D01*
X84526659Y-31307607D01*
X84526658Y-31307608D01*
X84526658Y-32822306D01*
X84502717Y-32812390D01*
X84352989Y-32782607D01*
X84200327Y-32782607D01*
X84050599Y-32812390D01*
X84026658Y-32822306D01*
X84026658Y-31307608D01*
X84026657Y-31307607D01*
X82726673Y-31307607D01*
X82623972Y-31318099D01*
X82623960Y-31318102D01*
X82457535Y-31373250D01*
X82308318Y-31465287D01*
X82184338Y-31589267D01*
X82092301Y-31738484D01*
X82037151Y-31904915D01*
X82026658Y-32007621D01*
X67600500Y-32007621D01*
X67600500Y-31660439D01*
X67600499Y-31660435D01*
X67592757Y-31631538D01*
X67592757Y-31631537D01*
X67580022Y-31584012D01*
X67580020Y-31584008D01*
X67540463Y-31515493D01*
X67540461Y-31515491D01*
X67540460Y-31515489D01*
X65584511Y-29559540D01*
X65584508Y-29559538D01*
X65515992Y-29519980D01*
X65515988Y-29519978D01*
X65439564Y-29499500D01*
X65439562Y-29499500D01*
X61377062Y-29499500D01*
X61318871Y-29480593D01*
X61291326Y-29450000D01*
X61280521Y-29431286D01*
X61280520Y-29431284D01*
X61168716Y-29319480D01*
X61031784Y-29240423D01*
X60879057Y-29199500D01*
X60720943Y-29199500D01*
X60568216Y-29240423D01*
X60431284Y-29319480D01*
X60319480Y-29431284D01*
X60240423Y-29568216D01*
X60199500Y-29720943D01*
X60199500Y-29879057D01*
X60240423Y-30031784D01*
X60251518Y-30051002D01*
X60253717Y-30061347D01*
X60259936Y-30069907D01*
X60259936Y-30090604D01*
X60264239Y-30110849D01*
X60259936Y-30120513D01*
X60259936Y-30131093D01*
X60247769Y-30147838D01*
X60239352Y-30166744D01*
X60230191Y-30172033D01*
X60223972Y-30180593D01*
X60204287Y-30186988D01*
X60186364Y-30197337D01*
X60165781Y-30199500D01*
X60065479Y-30199500D01*
X60007288Y-30180593D01*
X59995475Y-30170504D01*
X59820529Y-29995558D01*
X59792752Y-29941041D01*
X59794907Y-29899930D01*
X59800499Y-29879059D01*
X59800500Y-29879056D01*
X59800500Y-29720944D01*
X59800500Y-29720943D01*
X59759577Y-29568216D01*
X59680520Y-29431284D01*
X59568716Y-29319480D01*
X59431784Y-29240423D01*
X59279057Y-29199500D01*
X59120943Y-29199500D01*
X58968216Y-29240423D01*
X58831284Y-29319480D01*
X58719480Y-29431284D01*
X58640423Y-29568216D01*
X58599500Y-29720943D01*
X32000500Y-29720943D01*
X32000500Y-27140773D01*
X32000656Y-27135222D01*
X32006469Y-27031708D01*
X33451499Y-27031708D01*
X33451499Y-27244289D01*
X33484751Y-27454237D01*
X33550442Y-27656411D01*
X33646947Y-27845814D01*
X33646949Y-27845818D01*
X33771890Y-28017785D01*
X33771892Y-28017787D01*
X33771895Y-28017791D01*
X33922207Y-28168103D01*
X33922210Y-28168105D01*
X33922212Y-28168107D01*
X34094179Y-28293048D01*
X34094183Y-28293050D01*
X34283587Y-28389556D01*
X34485756Y-28455245D01*
X34485757Y-28455245D01*
X34485760Y-28455246D01*
X34695709Y-28488499D01*
X34695712Y-28488499D01*
X34908289Y-28488499D01*
X35118237Y-28455246D01*
X35118238Y-28455245D01*
X35118242Y-28455245D01*
X35320411Y-28389556D01*
X35509815Y-28293050D01*
X35681791Y-28168103D01*
X35832103Y-28017791D01*
X35957050Y-27845815D01*
X36053556Y-27656411D01*
X36119245Y-27454242D01*
X36119729Y-27451185D01*
X36152499Y-27244289D01*
X36152499Y-27031708D01*
X36119246Y-26821760D01*
X36119245Y-26821756D01*
X36053556Y-26619587D01*
X35957050Y-26430183D01*
X35957048Y-26430179D01*
X35832107Y-26258212D01*
X35832105Y-26258210D01*
X35832103Y-26258207D01*
X35681791Y-26107895D01*
X35681787Y-26107892D01*
X35681785Y-26107890D01*
X35509818Y-25982949D01*
X35509814Y-25982947D01*
X35320411Y-25886442D01*
X35200727Y-25847554D01*
X35118237Y-25820751D01*
X34908289Y-25787499D01*
X34908286Y-25787499D01*
X34695712Y-25787499D01*
X34695709Y-25787499D01*
X34485760Y-25820751D01*
X34283586Y-25886442D01*
X34094183Y-25982947D01*
X34094179Y-25982949D01*
X33922212Y-26107890D01*
X33771890Y-26258212D01*
X33646949Y-26430179D01*
X33646947Y-26430183D01*
X33550442Y-26619586D01*
X33484751Y-26821760D01*
X33451499Y-27031708D01*
X32006469Y-27031708D01*
X32006999Y-27022271D01*
X32008250Y-27000000D01*
X32017803Y-26829876D01*
X32019046Y-26818850D01*
X32040084Y-26695029D01*
X32069810Y-26520074D01*
X32072271Y-26509288D01*
X32156175Y-26218053D01*
X32159835Y-26207594D01*
X32275812Y-25927602D01*
X32280626Y-25917607D01*
X32362719Y-25769069D01*
X40307107Y-25769069D01*
X40307107Y-28877614D01*
X40309960Y-28908035D01*
X40309962Y-28908044D01*
X40354813Y-29036222D01*
X40354814Y-29036223D01*
X40435458Y-29145491D01*
X40544726Y-29226135D01*
X40672909Y-29270988D01*
X40703334Y-29273841D01*
X40703336Y-29273842D01*
X40703343Y-29273842D01*
X43811878Y-29273842D01*
X43811878Y-29273841D01*
X43842305Y-29270988D01*
X43970488Y-29226135D01*
X44079756Y-29145491D01*
X44160400Y-29036223D01*
X44205253Y-28908040D01*
X44208106Y-28877613D01*
X44208107Y-28877613D01*
X44208107Y-27195498D01*
X47307107Y-27195498D01*
X47307107Y-27451185D01*
X47340480Y-27704674D01*
X47340480Y-27704679D01*
X47406657Y-27951656D01*
X47504499Y-28187869D01*
X47504501Y-28187873D01*
X47504503Y-28187877D01*
X47632346Y-28409307D01*
X47632348Y-28409310D01*
X47787991Y-28612148D01*
X47787993Y-28612150D01*
X47787997Y-28612155D01*
X47968794Y-28792952D01*
X47968798Y-28792955D01*
X47968800Y-28792957D01*
X48171638Y-28948600D01*
X48171642Y-28948603D01*
X48393072Y-29076446D01*
X48629294Y-29174292D01*
X48876267Y-29240468D01*
X49129764Y-29273842D01*
X49129765Y-29273842D01*
X49385449Y-29273842D01*
X49385450Y-29273842D01*
X49638947Y-29240468D01*
X49885920Y-29174292D01*
X50122142Y-29076446D01*
X50343572Y-28948603D01*
X50546420Y-28792952D01*
X50727217Y-28612155D01*
X50882868Y-28409307D01*
X51010711Y-28187877D01*
X51108557Y-27951655D01*
X51174733Y-27704682D01*
X51208107Y-27451185D01*
X51208107Y-27396532D01*
X69409500Y-27396532D01*
X69409500Y-27603467D01*
X69449869Y-27806418D01*
X69529058Y-27997597D01*
X69644020Y-28169651D01*
X69644023Y-28169655D01*
X69790345Y-28315977D01*
X69962402Y-28430941D01*
X70153580Y-28510130D01*
X70356535Y-28550500D01*
X70356536Y-28550500D01*
X70563464Y-28550500D01*
X70563465Y-28550500D01*
X70766420Y-28510130D01*
X70957598Y-28430941D01*
X71129655Y-28315977D01*
X71275977Y-28169655D01*
X71390941Y-27997598D01*
X71470130Y-27806420D01*
X71510500Y-27603465D01*
X71510500Y-27396535D01*
X71510499Y-27396532D01*
X71949500Y-27396532D01*
X71949500Y-27603467D01*
X71989869Y-27806418D01*
X72069058Y-27997597D01*
X72184020Y-28169651D01*
X72184023Y-28169655D01*
X72330345Y-28315977D01*
X72502402Y-28430941D01*
X72693580Y-28510130D01*
X72896535Y-28550500D01*
X72896536Y-28550500D01*
X73103464Y-28550500D01*
X73103465Y-28550500D01*
X73306420Y-28510130D01*
X73497598Y-28430941D01*
X73669655Y-28315977D01*
X73815977Y-28169655D01*
X73930941Y-27997598D01*
X74010130Y-27806420D01*
X74050500Y-27603465D01*
X74050500Y-27396535D01*
X74050499Y-27396532D01*
X74489500Y-27396532D01*
X74489500Y-27603467D01*
X74529869Y-27806418D01*
X74609058Y-27997597D01*
X74724020Y-28169651D01*
X74724023Y-28169655D01*
X74870345Y-28315977D01*
X75042402Y-28430941D01*
X75233580Y-28510130D01*
X75436535Y-28550500D01*
X75436536Y-28550500D01*
X75643464Y-28550500D01*
X75643465Y-28550500D01*
X75846420Y-28510130D01*
X76037598Y-28430941D01*
X76209655Y-28315977D01*
X76355977Y-28169655D01*
X76470941Y-27997598D01*
X76539536Y-27831994D01*
X76579273Y-27785470D01*
X76638767Y-27771186D01*
X76695295Y-27794601D01*
X76727265Y-27846770D01*
X76730000Y-27869881D01*
X76730000Y-28397824D01*
X76729999Y-28397824D01*
X76736401Y-28457370D01*
X76736403Y-28457381D01*
X76786646Y-28592088D01*
X76786647Y-28592090D01*
X76872807Y-28707184D01*
X76872815Y-28707192D01*
X76987909Y-28793352D01*
X76987911Y-28793353D01*
X77122618Y-28843596D01*
X77122629Y-28843598D01*
X77182176Y-28850000D01*
X77829999Y-28850000D01*
X77830000Y-28849999D01*
X77830000Y-27933012D01*
X77887007Y-27965925D01*
X78014174Y-28000000D01*
X78145826Y-28000000D01*
X78272993Y-27965925D01*
X78330000Y-27933012D01*
X78330000Y-28849999D01*
X78330001Y-28850000D01*
X78977824Y-28850000D01*
X79037370Y-28843598D01*
X79037381Y-28843596D01*
X79172088Y-28793353D01*
X79172090Y-28793352D01*
X79287184Y-28707192D01*
X79287192Y-28707184D01*
X79373352Y-28592090D01*
X79373353Y-28592088D01*
X79423596Y-28457381D01*
X79423598Y-28457370D01*
X79430000Y-28397824D01*
X79430000Y-27750001D01*
X79429999Y-27750000D01*
X78513012Y-27750000D01*
X78545925Y-27692993D01*
X78580000Y-27565826D01*
X78580000Y-27434174D01*
X78545925Y-27307007D01*
X78513012Y-27250000D01*
X79429999Y-27250000D01*
X79430000Y-27249999D01*
X79430000Y-27031708D01*
X83235501Y-27031708D01*
X83235501Y-27244289D01*
X83268753Y-27454237D01*
X83334444Y-27656411D01*
X83430949Y-27845814D01*
X83430951Y-27845818D01*
X83555892Y-28017785D01*
X83555894Y-28017787D01*
X83555897Y-28017791D01*
X83706209Y-28168103D01*
X83706212Y-28168105D01*
X83706214Y-28168107D01*
X83878181Y-28293048D01*
X83878185Y-28293050D01*
X84067589Y-28389556D01*
X84269758Y-28455245D01*
X84269759Y-28455245D01*
X84269762Y-28455246D01*
X84479711Y-28488499D01*
X84479714Y-28488499D01*
X84692291Y-28488499D01*
X84902239Y-28455246D01*
X84902240Y-28455245D01*
X84902244Y-28455245D01*
X85104413Y-28389556D01*
X85293817Y-28293050D01*
X85465793Y-28168103D01*
X85616105Y-28017791D01*
X85741052Y-27845815D01*
X85837558Y-27656411D01*
X85903247Y-27454242D01*
X85903731Y-27451185D01*
X85936501Y-27244289D01*
X85936501Y-27031708D01*
X85903248Y-26821760D01*
X85903247Y-26821756D01*
X85837558Y-26619587D01*
X85741052Y-26430183D01*
X85741050Y-26430179D01*
X85616109Y-26258212D01*
X85616107Y-26258210D01*
X85616105Y-26258207D01*
X85465793Y-26107895D01*
X85465789Y-26107892D01*
X85465787Y-26107890D01*
X85293820Y-25982949D01*
X85293816Y-25982947D01*
X85104413Y-25886442D01*
X84902239Y-25820751D01*
X84692291Y-25787499D01*
X84692288Y-25787499D01*
X84479714Y-25787499D01*
X84479711Y-25787499D01*
X84269762Y-25820751D01*
X84067588Y-25886442D01*
X83878185Y-25982947D01*
X83878181Y-25982949D01*
X83706214Y-26107890D01*
X83555892Y-26258212D01*
X83430951Y-26430179D01*
X83430949Y-26430183D01*
X83334444Y-26619586D01*
X83268753Y-26821760D01*
X83235501Y-27031708D01*
X79430000Y-27031708D01*
X79430000Y-26602175D01*
X79423598Y-26542629D01*
X79423596Y-26542618D01*
X79373353Y-26407911D01*
X79373352Y-26407909D01*
X79287192Y-26292815D01*
X79287184Y-26292807D01*
X79172090Y-26206647D01*
X79172088Y-26206646D01*
X79037381Y-26156403D01*
X79037370Y-26156401D01*
X78977824Y-26150000D01*
X78330001Y-26150000D01*
X78330000Y-26150001D01*
X78330000Y-27066988D01*
X78272993Y-27034075D01*
X78145826Y-27000000D01*
X78014174Y-27000000D01*
X77887007Y-27034075D01*
X77830000Y-27066988D01*
X77830000Y-26150001D01*
X77829999Y-26150000D01*
X77182176Y-26150000D01*
X77122629Y-26156401D01*
X77122618Y-26156403D01*
X76987911Y-26206646D01*
X76987909Y-26206647D01*
X76872815Y-26292807D01*
X76872807Y-26292815D01*
X76786647Y-26407909D01*
X76786646Y-26407911D01*
X76736403Y-26542618D01*
X76736401Y-26542629D01*
X76730000Y-26602175D01*
X76730000Y-27130118D01*
X76711093Y-27188309D01*
X76661593Y-27224273D01*
X76600407Y-27224273D01*
X76550907Y-27188309D01*
X76539536Y-27168004D01*
X76470941Y-27002402D01*
X76355979Y-26830348D01*
X76355977Y-26830345D01*
X76209655Y-26684023D01*
X76209651Y-26684020D01*
X76037597Y-26569058D01*
X75846418Y-26489869D01*
X75643467Y-26449500D01*
X75643465Y-26449500D01*
X75436535Y-26449500D01*
X75436532Y-26449500D01*
X75233581Y-26489869D01*
X75042402Y-26569058D01*
X74870348Y-26684020D01*
X74724020Y-26830348D01*
X74609058Y-27002402D01*
X74529869Y-27193581D01*
X74489500Y-27396532D01*
X74050499Y-27396532D01*
X74010130Y-27193580D01*
X73930941Y-27002402D01*
X73815977Y-26830345D01*
X73669655Y-26684023D01*
X73669651Y-26684020D01*
X73497597Y-26569058D01*
X73306418Y-26489869D01*
X73103467Y-26449500D01*
X73103465Y-26449500D01*
X72896535Y-26449500D01*
X72896532Y-26449500D01*
X72693581Y-26489869D01*
X72502402Y-26569058D01*
X72330348Y-26684020D01*
X72184020Y-26830348D01*
X72069058Y-27002402D01*
X71989869Y-27193581D01*
X71949500Y-27396532D01*
X71510499Y-27396532D01*
X71470130Y-27193580D01*
X71390941Y-27002402D01*
X71275977Y-26830345D01*
X71129655Y-26684023D01*
X71129651Y-26684020D01*
X70957597Y-26569058D01*
X70766418Y-26489869D01*
X70563467Y-26449500D01*
X70563465Y-26449500D01*
X70356535Y-26449500D01*
X70356532Y-26449500D01*
X70153581Y-26489869D01*
X69962402Y-26569058D01*
X69790348Y-26684020D01*
X69644020Y-26830348D01*
X69529058Y-27002402D01*
X69449869Y-27193581D01*
X69409500Y-27396532D01*
X51208107Y-27396532D01*
X51208107Y-27195499D01*
X51174733Y-26942002D01*
X51108557Y-26695029D01*
X51010711Y-26458807D01*
X50882868Y-26237377D01*
X50859287Y-26206646D01*
X50727222Y-26034535D01*
X50727220Y-26034533D01*
X50727217Y-26034529D01*
X50546420Y-25853732D01*
X50546415Y-25853728D01*
X50546413Y-25853726D01*
X50343575Y-25698083D01*
X50343572Y-25698081D01*
X50122142Y-25570238D01*
X50122138Y-25570236D01*
X50122134Y-25570234D01*
X49885921Y-25472392D01*
X49777020Y-25443212D01*
X49638947Y-25406216D01*
X49638944Y-25406215D01*
X49638942Y-25406215D01*
X49385450Y-25372842D01*
X49129764Y-25372842D01*
X49129763Y-25372842D01*
X48876274Y-25406215D01*
X48876269Y-25406215D01*
X48629292Y-25472392D01*
X48393079Y-25570234D01*
X48171638Y-25698083D01*
X47968800Y-25853726D01*
X47787991Y-26034535D01*
X47632348Y-26237373D01*
X47504499Y-26458814D01*
X47406657Y-26695027D01*
X47340480Y-26942004D01*
X47340480Y-26942009D01*
X47307107Y-27195498D01*
X44208107Y-27195498D01*
X44208107Y-25769071D01*
X44208106Y-25769069D01*
X44205253Y-25738648D01*
X44205253Y-25738644D01*
X44160400Y-25610461D01*
X44079756Y-25501193D01*
X43970488Y-25420549D01*
X43970487Y-25420548D01*
X43842309Y-25375697D01*
X43842300Y-25375695D01*
X43811879Y-25372842D01*
X43811871Y-25372842D01*
X40703343Y-25372842D01*
X40703334Y-25372842D01*
X40672913Y-25375695D01*
X40672904Y-25375697D01*
X40544726Y-25420548D01*
X40435459Y-25501192D01*
X40435457Y-25501194D01*
X40354813Y-25610461D01*
X40309962Y-25738639D01*
X40309960Y-25738648D01*
X40307107Y-25769069D01*
X32362719Y-25769069D01*
X32427215Y-25652372D01*
X32433112Y-25642987D01*
X32608489Y-25395816D01*
X32615393Y-25387158D01*
X32817350Y-25161168D01*
X32825168Y-25153350D01*
X33051158Y-24951393D01*
X33059816Y-24944489D01*
X33306987Y-24769112D01*
X33316372Y-24763215D01*
X33581613Y-24616623D01*
X33591602Y-24611812D01*
X33871594Y-24495835D01*
X33882053Y-24492175D01*
X34173288Y-24408271D01*
X34184074Y-24405810D01*
X34482857Y-24355045D01*
X34493876Y-24353803D01*
X34799222Y-24336655D01*
X34804773Y-24336500D01*
X34867892Y-24336500D01*
X84520108Y-24336500D01*
X84583227Y-24336500D01*
X84588777Y-24336655D01*
G37*
%TD.AperFunction*%
%TD*%
M02*
