%TF.GenerationSoftware,KiCad,Pcbnew,7.0.10*%
%TF.CreationDate,2024-05-02T22:21:23+08:00*%
%TF.ProjectId,dispo-board,64697370-6f2d-4626-9f61-72642e6b6963,rev?*%
%TF.SameCoordinates,Original*%
%TF.FileFunction,Legend,Top*%
%TF.FilePolarity,Positive*%
%FSLAX46Y46*%
G04 Gerber Fmt 4.6, Leading zero omitted, Abs format (unit mm)*
G04 Created by KiCad (PCBNEW 7.0.10) date 2024-05-02 22:21:23*
%MOMM*%
%LPD*%
G01*
G04 APERTURE LIST*
%ADD10C,0.150000*%
%ADD11C,0.120000*%
%ADD12C,0.100000*%
G04 APERTURE END LIST*
D10*
X100090631Y-56583239D02*
X100090631Y-51503239D01*
X36322000Y-51562000D02*
X36322000Y-56642000D01*
X103594180Y-45802779D02*
X104594180Y-45802779D01*
X104213228Y-45802779D02*
X104260847Y-45898017D01*
X104260847Y-45898017D02*
X104260847Y-46088493D01*
X104260847Y-46088493D02*
X104213228Y-46183731D01*
X104213228Y-46183731D02*
X104165609Y-46231350D01*
X104165609Y-46231350D02*
X104070371Y-46278969D01*
X104070371Y-46278969D02*
X103784657Y-46278969D01*
X103784657Y-46278969D02*
X103689419Y-46231350D01*
X103689419Y-46231350D02*
X103641800Y-46183731D01*
X103641800Y-46183731D02*
X103594180Y-46088493D01*
X103594180Y-46088493D02*
X103594180Y-45898017D01*
X103594180Y-45898017D02*
X103641800Y-45802779D01*
X104260847Y-46612303D02*
X103594180Y-46850398D01*
X104260847Y-47088493D02*
X103594180Y-46850398D01*
X103594180Y-46850398D02*
X103356085Y-46755160D01*
X103356085Y-46755160D02*
X103308466Y-46707541D01*
X103308466Y-46707541D02*
X103260847Y-46612303D01*
X104260847Y-47469446D02*
X103260847Y-47469446D01*
X104213228Y-47469446D02*
X104260847Y-47564684D01*
X104260847Y-47564684D02*
X104260847Y-47755160D01*
X104260847Y-47755160D02*
X104213228Y-47850398D01*
X104213228Y-47850398D02*
X104165609Y-47898017D01*
X104165609Y-47898017D02*
X104070371Y-47945636D01*
X104070371Y-47945636D02*
X103784657Y-47945636D01*
X103784657Y-47945636D02*
X103689419Y-47898017D01*
X103689419Y-47898017D02*
X103641800Y-47850398D01*
X103641800Y-47850398D02*
X103594180Y-47755160D01*
X103594180Y-47755160D02*
X103594180Y-47564684D01*
X103594180Y-47564684D02*
X103641800Y-47469446D01*
X103594180Y-48802779D02*
X104117990Y-48802779D01*
X104117990Y-48802779D02*
X104213228Y-48755160D01*
X104213228Y-48755160D02*
X104260847Y-48659922D01*
X104260847Y-48659922D02*
X104260847Y-48469446D01*
X104260847Y-48469446D02*
X104213228Y-48374208D01*
X103641800Y-48802779D02*
X103594180Y-48707541D01*
X103594180Y-48707541D02*
X103594180Y-48469446D01*
X103594180Y-48469446D02*
X103641800Y-48374208D01*
X103641800Y-48374208D02*
X103737038Y-48326589D01*
X103737038Y-48326589D02*
X103832276Y-48326589D01*
X103832276Y-48326589D02*
X103927514Y-48374208D01*
X103927514Y-48374208D02*
X103975133Y-48469446D01*
X103975133Y-48469446D02*
X103975133Y-48707541D01*
X103975133Y-48707541D02*
X104022752Y-48802779D01*
X103641800Y-49231351D02*
X103594180Y-49326589D01*
X103594180Y-49326589D02*
X103594180Y-49517065D01*
X103594180Y-49517065D02*
X103641800Y-49612303D01*
X103641800Y-49612303D02*
X103737038Y-49659922D01*
X103737038Y-49659922D02*
X103784657Y-49659922D01*
X103784657Y-49659922D02*
X103879895Y-49612303D01*
X103879895Y-49612303D02*
X103927514Y-49517065D01*
X103927514Y-49517065D02*
X103927514Y-49374208D01*
X103927514Y-49374208D02*
X103975133Y-49278970D01*
X103975133Y-49278970D02*
X104070371Y-49231351D01*
X104070371Y-49231351D02*
X104117990Y-49231351D01*
X104117990Y-49231351D02*
X104213228Y-49278970D01*
X104213228Y-49278970D02*
X104260847Y-49374208D01*
X104260847Y-49374208D02*
X104260847Y-49517065D01*
X104260847Y-49517065D02*
X104213228Y-49612303D01*
X103641800Y-50040875D02*
X103594180Y-50136113D01*
X103594180Y-50136113D02*
X103594180Y-50326589D01*
X103594180Y-50326589D02*
X103641800Y-50421827D01*
X103641800Y-50421827D02*
X103737038Y-50469446D01*
X103737038Y-50469446D02*
X103784657Y-50469446D01*
X103784657Y-50469446D02*
X103879895Y-50421827D01*
X103879895Y-50421827D02*
X103927514Y-50326589D01*
X103927514Y-50326589D02*
X103927514Y-50183732D01*
X103927514Y-50183732D02*
X103975133Y-50088494D01*
X103975133Y-50088494D02*
X104070371Y-50040875D01*
X104070371Y-50040875D02*
X104117990Y-50040875D01*
X104117990Y-50040875D02*
X104213228Y-50088494D01*
X104213228Y-50088494D02*
X104260847Y-50183732D01*
X104260847Y-50183732D02*
X104260847Y-50326589D01*
X104260847Y-50326589D02*
X104213228Y-50421827D01*
X102031800Y-45755160D02*
X101984180Y-45850398D01*
X101984180Y-45850398D02*
X101984180Y-46040874D01*
X101984180Y-46040874D02*
X102031800Y-46136112D01*
X102031800Y-46136112D02*
X102127038Y-46183731D01*
X102127038Y-46183731D02*
X102174657Y-46183731D01*
X102174657Y-46183731D02*
X102269895Y-46136112D01*
X102269895Y-46136112D02*
X102317514Y-46040874D01*
X102317514Y-46040874D02*
X102317514Y-45898017D01*
X102317514Y-45898017D02*
X102365133Y-45802779D01*
X102365133Y-45802779D02*
X102460371Y-45755160D01*
X102460371Y-45755160D02*
X102507990Y-45755160D01*
X102507990Y-45755160D02*
X102603228Y-45802779D01*
X102603228Y-45802779D02*
X102650847Y-45898017D01*
X102650847Y-45898017D02*
X102650847Y-46040874D01*
X102650847Y-46040874D02*
X102603228Y-46136112D01*
X102650847Y-46517065D02*
X101984180Y-46707541D01*
X101984180Y-46707541D02*
X102460371Y-46898017D01*
X102460371Y-46898017D02*
X101984180Y-47088493D01*
X101984180Y-47088493D02*
X102650847Y-47278969D01*
X101984180Y-47659922D02*
X102650847Y-47659922D01*
X102984180Y-47659922D02*
X102936561Y-47612303D01*
X102936561Y-47612303D02*
X102888942Y-47659922D01*
X102888942Y-47659922D02*
X102936561Y-47707541D01*
X102936561Y-47707541D02*
X102984180Y-47659922D01*
X102984180Y-47659922D02*
X102888942Y-47659922D01*
X102650847Y-47993255D02*
X102650847Y-48374207D01*
X102984180Y-48136112D02*
X102127038Y-48136112D01*
X102127038Y-48136112D02*
X102031800Y-48183731D01*
X102031800Y-48183731D02*
X101984180Y-48278969D01*
X101984180Y-48278969D02*
X101984180Y-48374207D01*
X102031800Y-49136112D02*
X101984180Y-49040874D01*
X101984180Y-49040874D02*
X101984180Y-48850398D01*
X101984180Y-48850398D02*
X102031800Y-48755160D01*
X102031800Y-48755160D02*
X102079419Y-48707541D01*
X102079419Y-48707541D02*
X102174657Y-48659922D01*
X102174657Y-48659922D02*
X102460371Y-48659922D01*
X102460371Y-48659922D02*
X102555609Y-48707541D01*
X102555609Y-48707541D02*
X102603228Y-48755160D01*
X102603228Y-48755160D02*
X102650847Y-48850398D01*
X102650847Y-48850398D02*
X102650847Y-49040874D01*
X102650847Y-49040874D02*
X102603228Y-49136112D01*
X101984180Y-49564684D02*
X102984180Y-49564684D01*
X101984180Y-49993255D02*
X102507990Y-49993255D01*
X102507990Y-49993255D02*
X102603228Y-49945636D01*
X102603228Y-49945636D02*
X102650847Y-49850398D01*
X102650847Y-49850398D02*
X102650847Y-49707541D01*
X102650847Y-49707541D02*
X102603228Y-49612303D01*
X102603228Y-49612303D02*
X102555609Y-49564684D01*
X32594779Y-34921819D02*
X32594779Y-33921819D01*
X33070969Y-34921819D02*
X33070969Y-33921819D01*
X33070969Y-33921819D02*
X33642397Y-34921819D01*
X33642397Y-34921819D02*
X33642397Y-33921819D01*
X102190779Y-67941819D02*
X102190779Y-66941819D01*
X102190779Y-66941819D02*
X102428874Y-66941819D01*
X102428874Y-66941819D02*
X102571731Y-66989438D01*
X102571731Y-66989438D02*
X102666969Y-67084676D01*
X102666969Y-67084676D02*
X102714588Y-67179914D01*
X102714588Y-67179914D02*
X102762207Y-67370390D01*
X102762207Y-67370390D02*
X102762207Y-67513247D01*
X102762207Y-67513247D02*
X102714588Y-67703723D01*
X102714588Y-67703723D02*
X102666969Y-67798961D01*
X102666969Y-67798961D02*
X102571731Y-67894200D01*
X102571731Y-67894200D02*
X102428874Y-67941819D01*
X102428874Y-67941819D02*
X102190779Y-67941819D01*
X103190779Y-67941819D02*
X103190779Y-66941819D01*
X104095540Y-67275152D02*
X104095540Y-67941819D01*
X103857445Y-66894200D02*
X103619350Y-67608485D01*
X103619350Y-67608485D02*
X104238397Y-67608485D01*
X64043160Y-71974104D02*
X64519350Y-71974104D01*
X63947922Y-72259819D02*
X64281255Y-71259819D01*
X64281255Y-71259819D02*
X64614588Y-72259819D01*
X64947922Y-72259819D02*
X64947922Y-71259819D01*
X65328874Y-71259819D02*
X65947921Y-71259819D01*
X65947921Y-71259819D02*
X65614588Y-71640771D01*
X65614588Y-71640771D02*
X65757445Y-71640771D01*
X65757445Y-71640771D02*
X65852683Y-71688390D01*
X65852683Y-71688390D02*
X65900302Y-71736009D01*
X65900302Y-71736009D02*
X65947921Y-71831247D01*
X65947921Y-71831247D02*
X65947921Y-72069342D01*
X65947921Y-72069342D02*
X65900302Y-72164580D01*
X65900302Y-72164580D02*
X65852683Y-72212200D01*
X65852683Y-72212200D02*
X65757445Y-72259819D01*
X65757445Y-72259819D02*
X65471731Y-72259819D01*
X65471731Y-72259819D02*
X65376493Y-72212200D01*
X65376493Y-72212200D02*
X65328874Y-72164580D01*
X32340779Y-30984866D02*
X33102684Y-30984866D01*
X32721731Y-31365819D02*
X32721731Y-30603914D01*
X102952779Y-30730866D02*
X103714684Y-30730866D01*
X93554779Y-28571819D02*
X93554779Y-27571819D01*
X93983350Y-27667057D02*
X94030969Y-27619438D01*
X94030969Y-27619438D02*
X94126207Y-27571819D01*
X94126207Y-27571819D02*
X94364302Y-27571819D01*
X94364302Y-27571819D02*
X94459540Y-27619438D01*
X94459540Y-27619438D02*
X94507159Y-27667057D01*
X94507159Y-27667057D02*
X94554778Y-27762295D01*
X94554778Y-27762295D02*
X94554778Y-27857533D01*
X94554778Y-27857533D02*
X94507159Y-28000390D01*
X94507159Y-28000390D02*
X93935731Y-28571819D01*
X93935731Y-28571819D02*
X94554778Y-28571819D01*
X95554778Y-28476580D02*
X95507159Y-28524200D01*
X95507159Y-28524200D02*
X95364302Y-28571819D01*
X95364302Y-28571819D02*
X95269064Y-28571819D01*
X95269064Y-28571819D02*
X95126207Y-28524200D01*
X95126207Y-28524200D02*
X95030969Y-28428961D01*
X95030969Y-28428961D02*
X94983350Y-28333723D01*
X94983350Y-28333723D02*
X94935731Y-28143247D01*
X94935731Y-28143247D02*
X94935731Y-28000390D01*
X94935731Y-28000390D02*
X94983350Y-27809914D01*
X94983350Y-27809914D02*
X95030969Y-27714676D01*
X95030969Y-27714676D02*
X95126207Y-27619438D01*
X95126207Y-27619438D02*
X95269064Y-27571819D01*
X95269064Y-27571819D02*
X95364302Y-27571819D01*
X95364302Y-27571819D02*
X95507159Y-27619438D01*
X95507159Y-27619438D02*
X95554778Y-27667057D01*
X75457255Y-33667819D02*
X75647731Y-33667819D01*
X75647731Y-33667819D02*
X75742969Y-33715438D01*
X75742969Y-33715438D02*
X75838207Y-33810676D01*
X75838207Y-33810676D02*
X75885826Y-34001152D01*
X75885826Y-34001152D02*
X75885826Y-34334485D01*
X75885826Y-34334485D02*
X75838207Y-34524961D01*
X75838207Y-34524961D02*
X75742969Y-34620200D01*
X75742969Y-34620200D02*
X75647731Y-34667819D01*
X75647731Y-34667819D02*
X75457255Y-34667819D01*
X75457255Y-34667819D02*
X75362017Y-34620200D01*
X75362017Y-34620200D02*
X75266779Y-34524961D01*
X75266779Y-34524961D02*
X75219160Y-34334485D01*
X75219160Y-34334485D02*
X75219160Y-34001152D01*
X75219160Y-34001152D02*
X75266779Y-33810676D01*
X75266779Y-33810676D02*
X75362017Y-33715438D01*
X75362017Y-33715438D02*
X75457255Y-33667819D01*
X76314398Y-34667819D02*
X76314398Y-33667819D01*
X76314398Y-33667819D02*
X76885826Y-34667819D01*
X76885826Y-34667819D02*
X76885826Y-33667819D01*
X33057819Y-49447220D02*
X32057819Y-49447220D01*
X32438771Y-49447220D02*
X32391152Y-49351982D01*
X32391152Y-49351982D02*
X32391152Y-49161506D01*
X32391152Y-49161506D02*
X32438771Y-49066268D01*
X32438771Y-49066268D02*
X32486390Y-49018649D01*
X32486390Y-49018649D02*
X32581628Y-48971030D01*
X32581628Y-48971030D02*
X32867342Y-48971030D01*
X32867342Y-48971030D02*
X32962580Y-49018649D01*
X32962580Y-49018649D02*
X33010200Y-49066268D01*
X33010200Y-49066268D02*
X33057819Y-49161506D01*
X33057819Y-49161506D02*
X33057819Y-49351982D01*
X33057819Y-49351982D02*
X33010200Y-49447220D01*
X32391152Y-48637696D02*
X33057819Y-48399601D01*
X32391152Y-48161506D02*
X33057819Y-48399601D01*
X33057819Y-48399601D02*
X33295914Y-48494839D01*
X33295914Y-48494839D02*
X33343533Y-48542458D01*
X33343533Y-48542458D02*
X33391152Y-48637696D01*
X32391152Y-47780553D02*
X33391152Y-47780553D01*
X32438771Y-47780553D02*
X32391152Y-47685315D01*
X32391152Y-47685315D02*
X32391152Y-47494839D01*
X32391152Y-47494839D02*
X32438771Y-47399601D01*
X32438771Y-47399601D02*
X32486390Y-47351982D01*
X32486390Y-47351982D02*
X32581628Y-47304363D01*
X32581628Y-47304363D02*
X32867342Y-47304363D01*
X32867342Y-47304363D02*
X32962580Y-47351982D01*
X32962580Y-47351982D02*
X33010200Y-47399601D01*
X33010200Y-47399601D02*
X33057819Y-47494839D01*
X33057819Y-47494839D02*
X33057819Y-47685315D01*
X33057819Y-47685315D02*
X33010200Y-47780553D01*
X33057819Y-46447220D02*
X32534009Y-46447220D01*
X32534009Y-46447220D02*
X32438771Y-46494839D01*
X32438771Y-46494839D02*
X32391152Y-46590077D01*
X32391152Y-46590077D02*
X32391152Y-46780553D01*
X32391152Y-46780553D02*
X32438771Y-46875791D01*
X33010200Y-46447220D02*
X33057819Y-46542458D01*
X33057819Y-46542458D02*
X33057819Y-46780553D01*
X33057819Y-46780553D02*
X33010200Y-46875791D01*
X33010200Y-46875791D02*
X32914961Y-46923410D01*
X32914961Y-46923410D02*
X32819723Y-46923410D01*
X32819723Y-46923410D02*
X32724485Y-46875791D01*
X32724485Y-46875791D02*
X32676866Y-46780553D01*
X32676866Y-46780553D02*
X32676866Y-46542458D01*
X32676866Y-46542458D02*
X32629247Y-46447220D01*
X33010200Y-46018648D02*
X33057819Y-45923410D01*
X33057819Y-45923410D02*
X33057819Y-45732934D01*
X33057819Y-45732934D02*
X33010200Y-45637696D01*
X33010200Y-45637696D02*
X32914961Y-45590077D01*
X32914961Y-45590077D02*
X32867342Y-45590077D01*
X32867342Y-45590077D02*
X32772104Y-45637696D01*
X32772104Y-45637696D02*
X32724485Y-45732934D01*
X32724485Y-45732934D02*
X32724485Y-45875791D01*
X32724485Y-45875791D02*
X32676866Y-45971029D01*
X32676866Y-45971029D02*
X32581628Y-46018648D01*
X32581628Y-46018648D02*
X32534009Y-46018648D01*
X32534009Y-46018648D02*
X32438771Y-45971029D01*
X32438771Y-45971029D02*
X32391152Y-45875791D01*
X32391152Y-45875791D02*
X32391152Y-45732934D01*
X32391152Y-45732934D02*
X32438771Y-45637696D01*
X33010200Y-45209124D02*
X33057819Y-45113886D01*
X33057819Y-45113886D02*
X33057819Y-44923410D01*
X33057819Y-44923410D02*
X33010200Y-44828172D01*
X33010200Y-44828172D02*
X32914961Y-44780553D01*
X32914961Y-44780553D02*
X32867342Y-44780553D01*
X32867342Y-44780553D02*
X32772104Y-44828172D01*
X32772104Y-44828172D02*
X32724485Y-44923410D01*
X32724485Y-44923410D02*
X32724485Y-45066267D01*
X32724485Y-45066267D02*
X32676866Y-45161505D01*
X32676866Y-45161505D02*
X32581628Y-45209124D01*
X32581628Y-45209124D02*
X32534009Y-45209124D01*
X32534009Y-45209124D02*
X32438771Y-45161505D01*
X32438771Y-45161505D02*
X32391152Y-45066267D01*
X32391152Y-45066267D02*
X32391152Y-44923410D01*
X32391152Y-44923410D02*
X32438771Y-44828172D01*
X34620200Y-49494839D02*
X34667819Y-49399601D01*
X34667819Y-49399601D02*
X34667819Y-49209125D01*
X34667819Y-49209125D02*
X34620200Y-49113887D01*
X34620200Y-49113887D02*
X34524961Y-49066268D01*
X34524961Y-49066268D02*
X34477342Y-49066268D01*
X34477342Y-49066268D02*
X34382104Y-49113887D01*
X34382104Y-49113887D02*
X34334485Y-49209125D01*
X34334485Y-49209125D02*
X34334485Y-49351982D01*
X34334485Y-49351982D02*
X34286866Y-49447220D01*
X34286866Y-49447220D02*
X34191628Y-49494839D01*
X34191628Y-49494839D02*
X34144009Y-49494839D01*
X34144009Y-49494839D02*
X34048771Y-49447220D01*
X34048771Y-49447220D02*
X34001152Y-49351982D01*
X34001152Y-49351982D02*
X34001152Y-49209125D01*
X34001152Y-49209125D02*
X34048771Y-49113887D01*
X34001152Y-48732934D02*
X34667819Y-48542458D01*
X34667819Y-48542458D02*
X34191628Y-48351982D01*
X34191628Y-48351982D02*
X34667819Y-48161506D01*
X34667819Y-48161506D02*
X34001152Y-47971030D01*
X34667819Y-47590077D02*
X34001152Y-47590077D01*
X33667819Y-47590077D02*
X33715438Y-47637696D01*
X33715438Y-47637696D02*
X33763057Y-47590077D01*
X33763057Y-47590077D02*
X33715438Y-47542458D01*
X33715438Y-47542458D02*
X33667819Y-47590077D01*
X33667819Y-47590077D02*
X33763057Y-47590077D01*
X34001152Y-47256744D02*
X34001152Y-46875792D01*
X33667819Y-47113887D02*
X34524961Y-47113887D01*
X34524961Y-47113887D02*
X34620200Y-47066268D01*
X34620200Y-47066268D02*
X34667819Y-46971030D01*
X34667819Y-46971030D02*
X34667819Y-46875792D01*
X34620200Y-46113887D02*
X34667819Y-46209125D01*
X34667819Y-46209125D02*
X34667819Y-46399601D01*
X34667819Y-46399601D02*
X34620200Y-46494839D01*
X34620200Y-46494839D02*
X34572580Y-46542458D01*
X34572580Y-46542458D02*
X34477342Y-46590077D01*
X34477342Y-46590077D02*
X34191628Y-46590077D01*
X34191628Y-46590077D02*
X34096390Y-46542458D01*
X34096390Y-46542458D02*
X34048771Y-46494839D01*
X34048771Y-46494839D02*
X34001152Y-46399601D01*
X34001152Y-46399601D02*
X34001152Y-46209125D01*
X34001152Y-46209125D02*
X34048771Y-46113887D01*
X34667819Y-45685315D02*
X33667819Y-45685315D01*
X34667819Y-45256744D02*
X34144009Y-45256744D01*
X34144009Y-45256744D02*
X34048771Y-45304363D01*
X34048771Y-45304363D02*
X34001152Y-45399601D01*
X34001152Y-45399601D02*
X34001152Y-45542458D01*
X34001152Y-45542458D02*
X34048771Y-45637696D01*
X34048771Y-45637696D02*
X34096390Y-45685315D01*
X37730450Y-56246459D02*
X36730450Y-56246459D01*
X37111402Y-56246459D02*
X37063783Y-56151221D01*
X37063783Y-56151221D02*
X37063783Y-55960745D01*
X37063783Y-55960745D02*
X37111402Y-55865507D01*
X37111402Y-55865507D02*
X37159021Y-55817888D01*
X37159021Y-55817888D02*
X37254259Y-55770269D01*
X37254259Y-55770269D02*
X37539973Y-55770269D01*
X37539973Y-55770269D02*
X37635211Y-55817888D01*
X37635211Y-55817888D02*
X37682831Y-55865507D01*
X37682831Y-55865507D02*
X37730450Y-55960745D01*
X37730450Y-55960745D02*
X37730450Y-56151221D01*
X37730450Y-56151221D02*
X37682831Y-56246459D01*
X37063783Y-55436935D02*
X37730450Y-55198840D01*
X37063783Y-54960745D02*
X37730450Y-55198840D01*
X37730450Y-55198840D02*
X37968545Y-55294078D01*
X37968545Y-55294078D02*
X38016164Y-55341697D01*
X38016164Y-55341697D02*
X38063783Y-55436935D01*
X37063783Y-54579792D02*
X38063783Y-54579792D01*
X37111402Y-54579792D02*
X37063783Y-54484554D01*
X37063783Y-54484554D02*
X37063783Y-54294078D01*
X37063783Y-54294078D02*
X37111402Y-54198840D01*
X37111402Y-54198840D02*
X37159021Y-54151221D01*
X37159021Y-54151221D02*
X37254259Y-54103602D01*
X37254259Y-54103602D02*
X37539973Y-54103602D01*
X37539973Y-54103602D02*
X37635211Y-54151221D01*
X37635211Y-54151221D02*
X37682831Y-54198840D01*
X37682831Y-54198840D02*
X37730450Y-54294078D01*
X37730450Y-54294078D02*
X37730450Y-54484554D01*
X37730450Y-54484554D02*
X37682831Y-54579792D01*
X37730450Y-53246459D02*
X37206640Y-53246459D01*
X37206640Y-53246459D02*
X37111402Y-53294078D01*
X37111402Y-53294078D02*
X37063783Y-53389316D01*
X37063783Y-53389316D02*
X37063783Y-53579792D01*
X37063783Y-53579792D02*
X37111402Y-53675030D01*
X37682831Y-53246459D02*
X37730450Y-53341697D01*
X37730450Y-53341697D02*
X37730450Y-53579792D01*
X37730450Y-53579792D02*
X37682831Y-53675030D01*
X37682831Y-53675030D02*
X37587592Y-53722649D01*
X37587592Y-53722649D02*
X37492354Y-53722649D01*
X37492354Y-53722649D02*
X37397116Y-53675030D01*
X37397116Y-53675030D02*
X37349497Y-53579792D01*
X37349497Y-53579792D02*
X37349497Y-53341697D01*
X37349497Y-53341697D02*
X37301878Y-53246459D01*
X37682831Y-52817887D02*
X37730450Y-52722649D01*
X37730450Y-52722649D02*
X37730450Y-52532173D01*
X37730450Y-52532173D02*
X37682831Y-52436935D01*
X37682831Y-52436935D02*
X37587592Y-52389316D01*
X37587592Y-52389316D02*
X37539973Y-52389316D01*
X37539973Y-52389316D02*
X37444735Y-52436935D01*
X37444735Y-52436935D02*
X37397116Y-52532173D01*
X37397116Y-52532173D02*
X37397116Y-52675030D01*
X37397116Y-52675030D02*
X37349497Y-52770268D01*
X37349497Y-52770268D02*
X37254259Y-52817887D01*
X37254259Y-52817887D02*
X37206640Y-52817887D01*
X37206640Y-52817887D02*
X37111402Y-52770268D01*
X37111402Y-52770268D02*
X37063783Y-52675030D01*
X37063783Y-52675030D02*
X37063783Y-52532173D01*
X37063783Y-52532173D02*
X37111402Y-52436935D01*
X37682831Y-52008363D02*
X37730450Y-51913125D01*
X37730450Y-51913125D02*
X37730450Y-51722649D01*
X37730450Y-51722649D02*
X37682831Y-51627411D01*
X37682831Y-51627411D02*
X37587592Y-51579792D01*
X37587592Y-51579792D02*
X37539973Y-51579792D01*
X37539973Y-51579792D02*
X37444735Y-51627411D01*
X37444735Y-51627411D02*
X37397116Y-51722649D01*
X37397116Y-51722649D02*
X37397116Y-51865506D01*
X37397116Y-51865506D02*
X37349497Y-51960744D01*
X37349497Y-51960744D02*
X37254259Y-52008363D01*
X37254259Y-52008363D02*
X37206640Y-52008363D01*
X37206640Y-52008363D02*
X37111402Y-51960744D01*
X37111402Y-51960744D02*
X37063783Y-51865506D01*
X37063783Y-51865506D02*
X37063783Y-51722649D01*
X37063783Y-51722649D02*
X37111402Y-51627411D01*
X82124779Y-72259819D02*
X82124779Y-71259819D01*
X82124779Y-71259819D02*
X82362874Y-71259819D01*
X82362874Y-71259819D02*
X82505731Y-71307438D01*
X82505731Y-71307438D02*
X82600969Y-71402676D01*
X82600969Y-71402676D02*
X82648588Y-71497914D01*
X82648588Y-71497914D02*
X82696207Y-71688390D01*
X82696207Y-71688390D02*
X82696207Y-71831247D01*
X82696207Y-71831247D02*
X82648588Y-72021723D01*
X82648588Y-72021723D02*
X82600969Y-72116961D01*
X82600969Y-72116961D02*
X82505731Y-72212200D01*
X82505731Y-72212200D02*
X82362874Y-72259819D01*
X82362874Y-72259819D02*
X82124779Y-72259819D01*
X83124779Y-72259819D02*
X83124779Y-71259819D01*
X84124778Y-72259819D02*
X83553350Y-72259819D01*
X83839064Y-72259819D02*
X83839064Y-71259819D01*
X83839064Y-71259819D02*
X83743826Y-71402676D01*
X83743826Y-71402676D02*
X83648588Y-71497914D01*
X83648588Y-71497914D02*
X83553350Y-71545533D01*
X102952779Y-37842866D02*
X103714684Y-37842866D01*
X103333731Y-38223819D02*
X103333731Y-37461914D01*
X102127255Y-34175819D02*
X102317731Y-34175819D01*
X102317731Y-34175819D02*
X102412969Y-34223438D01*
X102412969Y-34223438D02*
X102508207Y-34318676D01*
X102508207Y-34318676D02*
X102555826Y-34509152D01*
X102555826Y-34509152D02*
X102555826Y-34842485D01*
X102555826Y-34842485D02*
X102508207Y-35032961D01*
X102508207Y-35032961D02*
X102412969Y-35128200D01*
X102412969Y-35128200D02*
X102317731Y-35175819D01*
X102317731Y-35175819D02*
X102127255Y-35175819D01*
X102127255Y-35175819D02*
X102032017Y-35128200D01*
X102032017Y-35128200D02*
X101936779Y-35032961D01*
X101936779Y-35032961D02*
X101889160Y-34842485D01*
X101889160Y-34842485D02*
X101889160Y-34509152D01*
X101889160Y-34509152D02*
X101936779Y-34318676D01*
X101936779Y-34318676D02*
X102032017Y-34223438D01*
X102032017Y-34223438D02*
X102127255Y-34175819D01*
X102984398Y-34175819D02*
X102984398Y-34985342D01*
X102984398Y-34985342D02*
X103032017Y-35080580D01*
X103032017Y-35080580D02*
X103079636Y-35128200D01*
X103079636Y-35128200D02*
X103174874Y-35175819D01*
X103174874Y-35175819D02*
X103365350Y-35175819D01*
X103365350Y-35175819D02*
X103460588Y-35128200D01*
X103460588Y-35128200D02*
X103508207Y-35080580D01*
X103508207Y-35080580D02*
X103555826Y-34985342D01*
X103555826Y-34985342D02*
X103555826Y-34175819D01*
X103889160Y-34175819D02*
X104460588Y-34175819D01*
X104174874Y-35175819D02*
X104174874Y-34175819D01*
X32340779Y-66671819D02*
X32340779Y-65671819D01*
X32340779Y-65671819D02*
X32578874Y-65671819D01*
X32578874Y-65671819D02*
X32721731Y-65719438D01*
X32721731Y-65719438D02*
X32816969Y-65814676D01*
X32816969Y-65814676D02*
X32864588Y-65909914D01*
X32864588Y-65909914D02*
X32912207Y-66100390D01*
X32912207Y-66100390D02*
X32912207Y-66243247D01*
X32912207Y-66243247D02*
X32864588Y-66433723D01*
X32864588Y-66433723D02*
X32816969Y-66528961D01*
X32816969Y-66528961D02*
X32721731Y-66624200D01*
X32721731Y-66624200D02*
X32578874Y-66671819D01*
X32578874Y-66671819D02*
X32340779Y-66671819D01*
X33340779Y-66671819D02*
X33340779Y-65671819D01*
X33721731Y-65671819D02*
X34340778Y-65671819D01*
X34340778Y-65671819D02*
X34007445Y-66052771D01*
X34007445Y-66052771D02*
X34150302Y-66052771D01*
X34150302Y-66052771D02*
X34245540Y-66100390D01*
X34245540Y-66100390D02*
X34293159Y-66148009D01*
X34293159Y-66148009D02*
X34340778Y-66243247D01*
X34340778Y-66243247D02*
X34340778Y-66481342D01*
X34340778Y-66481342D02*
X34293159Y-66576580D01*
X34293159Y-66576580D02*
X34245540Y-66624200D01*
X34245540Y-66624200D02*
X34150302Y-66671819D01*
X34150302Y-66671819D02*
X33864588Y-66671819D01*
X33864588Y-66671819D02*
X33769350Y-66624200D01*
X33769350Y-66624200D02*
X33721731Y-66576580D01*
X42961160Y-71974104D02*
X43437350Y-71974104D01*
X42865922Y-72259819D02*
X43199255Y-71259819D01*
X43199255Y-71259819D02*
X43532588Y-72259819D01*
X43865922Y-72259819D02*
X43865922Y-71259819D01*
X44294493Y-71355057D02*
X44342112Y-71307438D01*
X44342112Y-71307438D02*
X44437350Y-71259819D01*
X44437350Y-71259819D02*
X44675445Y-71259819D01*
X44675445Y-71259819D02*
X44770683Y-71307438D01*
X44770683Y-71307438D02*
X44818302Y-71355057D01*
X44818302Y-71355057D02*
X44865921Y-71450295D01*
X44865921Y-71450295D02*
X44865921Y-71545533D01*
X44865921Y-71545533D02*
X44818302Y-71688390D01*
X44818302Y-71688390D02*
X44246874Y-72259819D01*
X44246874Y-72259819D02*
X44865921Y-72259819D01*
X95840779Y-72259819D02*
X95840779Y-71259819D01*
X95840779Y-71259819D02*
X96078874Y-71259819D01*
X96078874Y-71259819D02*
X96221731Y-71307438D01*
X96221731Y-71307438D02*
X96316969Y-71402676D01*
X96316969Y-71402676D02*
X96364588Y-71497914D01*
X96364588Y-71497914D02*
X96412207Y-71688390D01*
X96412207Y-71688390D02*
X96412207Y-71831247D01*
X96412207Y-71831247D02*
X96364588Y-72021723D01*
X96364588Y-72021723D02*
X96316969Y-72116961D01*
X96316969Y-72116961D02*
X96221731Y-72212200D01*
X96221731Y-72212200D02*
X96078874Y-72259819D01*
X96078874Y-72259819D02*
X95840779Y-72259819D01*
X96840779Y-72259819D02*
X96840779Y-71259819D01*
X97269350Y-71355057D02*
X97316969Y-71307438D01*
X97316969Y-71307438D02*
X97412207Y-71259819D01*
X97412207Y-71259819D02*
X97650302Y-71259819D01*
X97650302Y-71259819D02*
X97745540Y-71307438D01*
X97745540Y-71307438D02*
X97793159Y-71355057D01*
X97793159Y-71355057D02*
X97840778Y-71450295D01*
X97840778Y-71450295D02*
X97840778Y-71545533D01*
X97840778Y-71545533D02*
X97793159Y-71688390D01*
X97793159Y-71688390D02*
X97221731Y-72259819D01*
X97221731Y-72259819D02*
X97840778Y-72259819D01*
X42453160Y-37668200D02*
X42596017Y-37715819D01*
X42596017Y-37715819D02*
X42834112Y-37715819D01*
X42834112Y-37715819D02*
X42929350Y-37668200D01*
X42929350Y-37668200D02*
X42976969Y-37620580D01*
X42976969Y-37620580D02*
X43024588Y-37525342D01*
X43024588Y-37525342D02*
X43024588Y-37430104D01*
X43024588Y-37430104D02*
X42976969Y-37334866D01*
X42976969Y-37334866D02*
X42929350Y-37287247D01*
X42929350Y-37287247D02*
X42834112Y-37239628D01*
X42834112Y-37239628D02*
X42643636Y-37192009D01*
X42643636Y-37192009D02*
X42548398Y-37144390D01*
X42548398Y-37144390D02*
X42500779Y-37096771D01*
X42500779Y-37096771D02*
X42453160Y-37001533D01*
X42453160Y-37001533D02*
X42453160Y-36906295D01*
X42453160Y-36906295D02*
X42500779Y-36811057D01*
X42500779Y-36811057D02*
X42548398Y-36763438D01*
X42548398Y-36763438D02*
X42643636Y-36715819D01*
X42643636Y-36715819D02*
X42881731Y-36715819D01*
X42881731Y-36715819D02*
X43024588Y-36763438D01*
X43357922Y-36715819D02*
X43596017Y-37715819D01*
X43596017Y-37715819D02*
X43786493Y-37001533D01*
X43786493Y-37001533D02*
X43976969Y-37715819D01*
X43976969Y-37715819D02*
X44215065Y-36715819D01*
X44596017Y-37715819D02*
X44596017Y-36715819D01*
X44596017Y-36715819D02*
X44834112Y-36715819D01*
X44834112Y-36715819D02*
X44976969Y-36763438D01*
X44976969Y-36763438D02*
X45072207Y-36858676D01*
X45072207Y-36858676D02*
X45119826Y-36953914D01*
X45119826Y-36953914D02*
X45167445Y-37144390D01*
X45167445Y-37144390D02*
X45167445Y-37287247D01*
X45167445Y-37287247D02*
X45119826Y-37477723D01*
X45119826Y-37477723D02*
X45072207Y-37572961D01*
X45072207Y-37572961D02*
X44976969Y-37668200D01*
X44976969Y-37668200D02*
X44834112Y-37715819D01*
X44834112Y-37715819D02*
X44596017Y-37715819D01*
X32594779Y-38096866D02*
X33356684Y-38096866D01*
X98682180Y-51898779D02*
X99682180Y-51898779D01*
X99301228Y-51898779D02*
X99348847Y-51994017D01*
X99348847Y-51994017D02*
X99348847Y-52184493D01*
X99348847Y-52184493D02*
X99301228Y-52279731D01*
X99301228Y-52279731D02*
X99253609Y-52327350D01*
X99253609Y-52327350D02*
X99158371Y-52374969D01*
X99158371Y-52374969D02*
X98872657Y-52374969D01*
X98872657Y-52374969D02*
X98777419Y-52327350D01*
X98777419Y-52327350D02*
X98729800Y-52279731D01*
X98729800Y-52279731D02*
X98682180Y-52184493D01*
X98682180Y-52184493D02*
X98682180Y-51994017D01*
X98682180Y-51994017D02*
X98729800Y-51898779D01*
X99348847Y-52708303D02*
X98682180Y-52946398D01*
X99348847Y-53184493D02*
X98682180Y-52946398D01*
X98682180Y-52946398D02*
X98444085Y-52851160D01*
X98444085Y-52851160D02*
X98396466Y-52803541D01*
X98396466Y-52803541D02*
X98348847Y-52708303D01*
X99348847Y-53565446D02*
X98348847Y-53565446D01*
X99301228Y-53565446D02*
X99348847Y-53660684D01*
X99348847Y-53660684D02*
X99348847Y-53851160D01*
X99348847Y-53851160D02*
X99301228Y-53946398D01*
X99301228Y-53946398D02*
X99253609Y-53994017D01*
X99253609Y-53994017D02*
X99158371Y-54041636D01*
X99158371Y-54041636D02*
X98872657Y-54041636D01*
X98872657Y-54041636D02*
X98777419Y-53994017D01*
X98777419Y-53994017D02*
X98729800Y-53946398D01*
X98729800Y-53946398D02*
X98682180Y-53851160D01*
X98682180Y-53851160D02*
X98682180Y-53660684D01*
X98682180Y-53660684D02*
X98729800Y-53565446D01*
X98682180Y-54898779D02*
X99205990Y-54898779D01*
X99205990Y-54898779D02*
X99301228Y-54851160D01*
X99301228Y-54851160D02*
X99348847Y-54755922D01*
X99348847Y-54755922D02*
X99348847Y-54565446D01*
X99348847Y-54565446D02*
X99301228Y-54470208D01*
X98729800Y-54898779D02*
X98682180Y-54803541D01*
X98682180Y-54803541D02*
X98682180Y-54565446D01*
X98682180Y-54565446D02*
X98729800Y-54470208D01*
X98729800Y-54470208D02*
X98825038Y-54422589D01*
X98825038Y-54422589D02*
X98920276Y-54422589D01*
X98920276Y-54422589D02*
X99015514Y-54470208D01*
X99015514Y-54470208D02*
X99063133Y-54565446D01*
X99063133Y-54565446D02*
X99063133Y-54803541D01*
X99063133Y-54803541D02*
X99110752Y-54898779D01*
X98729800Y-55327351D02*
X98682180Y-55422589D01*
X98682180Y-55422589D02*
X98682180Y-55613065D01*
X98682180Y-55613065D02*
X98729800Y-55708303D01*
X98729800Y-55708303D02*
X98825038Y-55755922D01*
X98825038Y-55755922D02*
X98872657Y-55755922D01*
X98872657Y-55755922D02*
X98967895Y-55708303D01*
X98967895Y-55708303D02*
X99015514Y-55613065D01*
X99015514Y-55613065D02*
X99015514Y-55470208D01*
X99015514Y-55470208D02*
X99063133Y-55374970D01*
X99063133Y-55374970D02*
X99158371Y-55327351D01*
X99158371Y-55327351D02*
X99205990Y-55327351D01*
X99205990Y-55327351D02*
X99301228Y-55374970D01*
X99301228Y-55374970D02*
X99348847Y-55470208D01*
X99348847Y-55470208D02*
X99348847Y-55613065D01*
X99348847Y-55613065D02*
X99301228Y-55708303D01*
X98729800Y-56136875D02*
X98682180Y-56232113D01*
X98682180Y-56232113D02*
X98682180Y-56422589D01*
X98682180Y-56422589D02*
X98729800Y-56517827D01*
X98729800Y-56517827D02*
X98825038Y-56565446D01*
X98825038Y-56565446D02*
X98872657Y-56565446D01*
X98872657Y-56565446D02*
X98967895Y-56517827D01*
X98967895Y-56517827D02*
X99015514Y-56422589D01*
X99015514Y-56422589D02*
X99015514Y-56279732D01*
X99015514Y-56279732D02*
X99063133Y-56184494D01*
X99063133Y-56184494D02*
X99158371Y-56136875D01*
X99158371Y-56136875D02*
X99205990Y-56136875D01*
X99205990Y-56136875D02*
X99301228Y-56184494D01*
X99301228Y-56184494D02*
X99348847Y-56279732D01*
X99348847Y-56279732D02*
X99348847Y-56422589D01*
X99348847Y-56422589D02*
X99301228Y-56517827D01*
X49635580Y-51188857D02*
X49683200Y-51236476D01*
X49683200Y-51236476D02*
X49730819Y-51379333D01*
X49730819Y-51379333D02*
X49730819Y-51474571D01*
X49730819Y-51474571D02*
X49683200Y-51617428D01*
X49683200Y-51617428D02*
X49587961Y-51712666D01*
X49587961Y-51712666D02*
X49492723Y-51760285D01*
X49492723Y-51760285D02*
X49302247Y-51807904D01*
X49302247Y-51807904D02*
X49159390Y-51807904D01*
X49159390Y-51807904D02*
X48968914Y-51760285D01*
X48968914Y-51760285D02*
X48873676Y-51712666D01*
X48873676Y-51712666D02*
X48778438Y-51617428D01*
X48778438Y-51617428D02*
X48730819Y-51474571D01*
X48730819Y-51474571D02*
X48730819Y-51379333D01*
X48730819Y-51379333D02*
X48778438Y-51236476D01*
X48778438Y-51236476D02*
X48826057Y-51188857D01*
X48826057Y-50807904D02*
X48778438Y-50760285D01*
X48778438Y-50760285D02*
X48730819Y-50665047D01*
X48730819Y-50665047D02*
X48730819Y-50426952D01*
X48730819Y-50426952D02*
X48778438Y-50331714D01*
X48778438Y-50331714D02*
X48826057Y-50284095D01*
X48826057Y-50284095D02*
X48921295Y-50236476D01*
X48921295Y-50236476D02*
X49016533Y-50236476D01*
X49016533Y-50236476D02*
X49159390Y-50284095D01*
X49159390Y-50284095D02*
X49730819Y-50855523D01*
X49730819Y-50855523D02*
X49730819Y-50236476D01*
X49064152Y-49379333D02*
X49730819Y-49379333D01*
X48683200Y-49617428D02*
X49397485Y-49855523D01*
X49397485Y-49855523D02*
X49397485Y-49236476D01*
X48268095Y-65748819D02*
X48839523Y-65748819D01*
X48553809Y-66748819D02*
X48553809Y-65748819D01*
X49172857Y-66748819D02*
X49172857Y-65748819D01*
X49172857Y-65748819D02*
X49553809Y-65748819D01*
X49553809Y-65748819D02*
X49649047Y-65796438D01*
X49649047Y-65796438D02*
X49696666Y-65844057D01*
X49696666Y-65844057D02*
X49744285Y-65939295D01*
X49744285Y-65939295D02*
X49744285Y-66082152D01*
X49744285Y-66082152D02*
X49696666Y-66177390D01*
X49696666Y-66177390D02*
X49649047Y-66225009D01*
X49649047Y-66225009D02*
X49553809Y-66272628D01*
X49553809Y-66272628D02*
X49172857Y-66272628D01*
X50696666Y-66748819D02*
X50125238Y-66748819D01*
X50410952Y-66748819D02*
X50410952Y-65748819D01*
X50410952Y-65748819D02*
X50315714Y-65891676D01*
X50315714Y-65891676D02*
X50220476Y-65986914D01*
X50220476Y-65986914D02*
X50125238Y-66034533D01*
X70797610Y-35137576D02*
X70845230Y-35185195D01*
X70845230Y-35185195D02*
X70892849Y-35328052D01*
X70892849Y-35328052D02*
X70892849Y-35423290D01*
X70892849Y-35423290D02*
X70845230Y-35566147D01*
X70845230Y-35566147D02*
X70749991Y-35661385D01*
X70749991Y-35661385D02*
X70654753Y-35709004D01*
X70654753Y-35709004D02*
X70464277Y-35756623D01*
X70464277Y-35756623D02*
X70321420Y-35756623D01*
X70321420Y-35756623D02*
X70130944Y-35709004D01*
X70130944Y-35709004D02*
X70035706Y-35661385D01*
X70035706Y-35661385D02*
X69940468Y-35566147D01*
X69940468Y-35566147D02*
X69892849Y-35423290D01*
X69892849Y-35423290D02*
X69892849Y-35328052D01*
X69892849Y-35328052D02*
X69940468Y-35185195D01*
X69940468Y-35185195D02*
X69988087Y-35137576D01*
X69892849Y-34804242D02*
X69892849Y-34137576D01*
X69892849Y-34137576D02*
X70892849Y-34566147D01*
X90419019Y-53944484D02*
X90466639Y-53992103D01*
X90466639Y-53992103D02*
X90514258Y-54134960D01*
X90514258Y-54134960D02*
X90514258Y-54230198D01*
X90514258Y-54230198D02*
X90466639Y-54373055D01*
X90466639Y-54373055D02*
X90371400Y-54468293D01*
X90371400Y-54468293D02*
X90276162Y-54515912D01*
X90276162Y-54515912D02*
X90085686Y-54563531D01*
X90085686Y-54563531D02*
X89942829Y-54563531D01*
X89942829Y-54563531D02*
X89752353Y-54515912D01*
X89752353Y-54515912D02*
X89657115Y-54468293D01*
X89657115Y-54468293D02*
X89561877Y-54373055D01*
X89561877Y-54373055D02*
X89514258Y-54230198D01*
X89514258Y-54230198D02*
X89514258Y-54134960D01*
X89514258Y-54134960D02*
X89561877Y-53992103D01*
X89561877Y-53992103D02*
X89609496Y-53944484D01*
X89514258Y-53611150D02*
X89514258Y-52992103D01*
X89514258Y-52992103D02*
X89895210Y-53325436D01*
X89895210Y-53325436D02*
X89895210Y-53182579D01*
X89895210Y-53182579D02*
X89942829Y-53087341D01*
X89942829Y-53087341D02*
X89990448Y-53039722D01*
X89990448Y-53039722D02*
X90085686Y-52992103D01*
X90085686Y-52992103D02*
X90323781Y-52992103D01*
X90323781Y-52992103D02*
X90419019Y-53039722D01*
X90419019Y-53039722D02*
X90466639Y-53087341D01*
X90466639Y-53087341D02*
X90514258Y-53182579D01*
X90514258Y-53182579D02*
X90514258Y-53468293D01*
X90514258Y-53468293D02*
X90466639Y-53563531D01*
X90466639Y-53563531D02*
X90419019Y-53611150D01*
X89514258Y-52373055D02*
X89514258Y-52277817D01*
X89514258Y-52277817D02*
X89561877Y-52182579D01*
X89561877Y-52182579D02*
X89609496Y-52134960D01*
X89609496Y-52134960D02*
X89704734Y-52087341D01*
X89704734Y-52087341D02*
X89895210Y-52039722D01*
X89895210Y-52039722D02*
X90133305Y-52039722D01*
X90133305Y-52039722D02*
X90323781Y-52087341D01*
X90323781Y-52087341D02*
X90419019Y-52134960D01*
X90419019Y-52134960D02*
X90466639Y-52182579D01*
X90466639Y-52182579D02*
X90514258Y-52277817D01*
X90514258Y-52277817D02*
X90514258Y-52373055D01*
X90514258Y-52373055D02*
X90466639Y-52468293D01*
X90466639Y-52468293D02*
X90419019Y-52515912D01*
X90419019Y-52515912D02*
X90323781Y-52563531D01*
X90323781Y-52563531D02*
X90133305Y-52611150D01*
X90133305Y-52611150D02*
X89895210Y-52611150D01*
X89895210Y-52611150D02*
X89704734Y-52563531D01*
X89704734Y-52563531D02*
X89609496Y-52515912D01*
X89609496Y-52515912D02*
X89561877Y-52468293D01*
X89561877Y-52468293D02*
X89514258Y-52373055D01*
X97271105Y-38954819D02*
X97842533Y-38954819D01*
X97556819Y-39954819D02*
X97556819Y-38954819D01*
X98175867Y-39954819D02*
X98175867Y-38954819D01*
X98175867Y-38954819D02*
X98556819Y-38954819D01*
X98556819Y-38954819D02*
X98652057Y-39002438D01*
X98652057Y-39002438D02*
X98699676Y-39050057D01*
X98699676Y-39050057D02*
X98747295Y-39145295D01*
X98747295Y-39145295D02*
X98747295Y-39288152D01*
X98747295Y-39288152D02*
X98699676Y-39383390D01*
X98699676Y-39383390D02*
X98652057Y-39431009D01*
X98652057Y-39431009D02*
X98556819Y-39478628D01*
X98556819Y-39478628D02*
X98175867Y-39478628D01*
X99699676Y-39954819D02*
X99128248Y-39954819D01*
X99413962Y-39954819D02*
X99413962Y-38954819D01*
X99413962Y-38954819D02*
X99318724Y-39097676D01*
X99318724Y-39097676D02*
X99223486Y-39192914D01*
X99223486Y-39192914D02*
X99128248Y-39240533D01*
X100652057Y-39954819D02*
X100080629Y-39954819D01*
X100366343Y-39954819D02*
X100366343Y-38954819D01*
X100366343Y-38954819D02*
X100271105Y-39097676D01*
X100271105Y-39097676D02*
X100175867Y-39192914D01*
X100175867Y-39192914D02*
X100080629Y-39240533D01*
X80891142Y-41659980D02*
X80843523Y-41707600D01*
X80843523Y-41707600D02*
X80700666Y-41755219D01*
X80700666Y-41755219D02*
X80605428Y-41755219D01*
X80605428Y-41755219D02*
X80462571Y-41707600D01*
X80462571Y-41707600D02*
X80367333Y-41612361D01*
X80367333Y-41612361D02*
X80319714Y-41517123D01*
X80319714Y-41517123D02*
X80272095Y-41326647D01*
X80272095Y-41326647D02*
X80272095Y-41183790D01*
X80272095Y-41183790D02*
X80319714Y-40993314D01*
X80319714Y-40993314D02*
X80367333Y-40898076D01*
X80367333Y-40898076D02*
X80462571Y-40802838D01*
X80462571Y-40802838D02*
X80605428Y-40755219D01*
X80605428Y-40755219D02*
X80700666Y-40755219D01*
X80700666Y-40755219D02*
X80843523Y-40802838D01*
X80843523Y-40802838D02*
X80891142Y-40850457D01*
X81224476Y-40755219D02*
X81843523Y-40755219D01*
X81843523Y-40755219D02*
X81510190Y-41136171D01*
X81510190Y-41136171D02*
X81653047Y-41136171D01*
X81653047Y-41136171D02*
X81748285Y-41183790D01*
X81748285Y-41183790D02*
X81795904Y-41231409D01*
X81795904Y-41231409D02*
X81843523Y-41326647D01*
X81843523Y-41326647D02*
X81843523Y-41564742D01*
X81843523Y-41564742D02*
X81795904Y-41659980D01*
X81795904Y-41659980D02*
X81748285Y-41707600D01*
X81748285Y-41707600D02*
X81653047Y-41755219D01*
X81653047Y-41755219D02*
X81367333Y-41755219D01*
X81367333Y-41755219D02*
X81272095Y-41707600D01*
X81272095Y-41707600D02*
X81224476Y-41659980D01*
X82700666Y-40755219D02*
X82510190Y-40755219D01*
X82510190Y-40755219D02*
X82414952Y-40802838D01*
X82414952Y-40802838D02*
X82367333Y-40850457D01*
X82367333Y-40850457D02*
X82272095Y-40993314D01*
X82272095Y-40993314D02*
X82224476Y-41183790D01*
X82224476Y-41183790D02*
X82224476Y-41564742D01*
X82224476Y-41564742D02*
X82272095Y-41659980D01*
X82272095Y-41659980D02*
X82319714Y-41707600D01*
X82319714Y-41707600D02*
X82414952Y-41755219D01*
X82414952Y-41755219D02*
X82605428Y-41755219D01*
X82605428Y-41755219D02*
X82700666Y-41707600D01*
X82700666Y-41707600D02*
X82748285Y-41659980D01*
X82748285Y-41659980D02*
X82795904Y-41564742D01*
X82795904Y-41564742D02*
X82795904Y-41326647D01*
X82795904Y-41326647D02*
X82748285Y-41231409D01*
X82748285Y-41231409D02*
X82700666Y-41183790D01*
X82700666Y-41183790D02*
X82605428Y-41136171D01*
X82605428Y-41136171D02*
X82414952Y-41136171D01*
X82414952Y-41136171D02*
X82319714Y-41183790D01*
X82319714Y-41183790D02*
X82272095Y-41231409D01*
X82272095Y-41231409D02*
X82224476Y-41326647D01*
X95623142Y-50905580D02*
X95575523Y-50953200D01*
X95575523Y-50953200D02*
X95432666Y-51000819D01*
X95432666Y-51000819D02*
X95337428Y-51000819D01*
X95337428Y-51000819D02*
X95194571Y-50953200D01*
X95194571Y-50953200D02*
X95099333Y-50857961D01*
X95099333Y-50857961D02*
X95051714Y-50762723D01*
X95051714Y-50762723D02*
X95004095Y-50572247D01*
X95004095Y-50572247D02*
X95004095Y-50429390D01*
X95004095Y-50429390D02*
X95051714Y-50238914D01*
X95051714Y-50238914D02*
X95099333Y-50143676D01*
X95099333Y-50143676D02*
X95194571Y-50048438D01*
X95194571Y-50048438D02*
X95337428Y-50000819D01*
X95337428Y-50000819D02*
X95432666Y-50000819D01*
X95432666Y-50000819D02*
X95575523Y-50048438D01*
X95575523Y-50048438D02*
X95623142Y-50096057D01*
X95956476Y-50000819D02*
X96575523Y-50000819D01*
X96575523Y-50000819D02*
X96242190Y-50381771D01*
X96242190Y-50381771D02*
X96385047Y-50381771D01*
X96385047Y-50381771D02*
X96480285Y-50429390D01*
X96480285Y-50429390D02*
X96527904Y-50477009D01*
X96527904Y-50477009D02*
X96575523Y-50572247D01*
X96575523Y-50572247D02*
X96575523Y-50810342D01*
X96575523Y-50810342D02*
X96527904Y-50905580D01*
X96527904Y-50905580D02*
X96480285Y-50953200D01*
X96480285Y-50953200D02*
X96385047Y-51000819D01*
X96385047Y-51000819D02*
X96099333Y-51000819D01*
X96099333Y-51000819D02*
X96004095Y-50953200D01*
X96004095Y-50953200D02*
X95956476Y-50905580D01*
X96956476Y-50096057D02*
X97004095Y-50048438D01*
X97004095Y-50048438D02*
X97099333Y-50000819D01*
X97099333Y-50000819D02*
X97337428Y-50000819D01*
X97337428Y-50000819D02*
X97432666Y-50048438D01*
X97432666Y-50048438D02*
X97480285Y-50096057D01*
X97480285Y-50096057D02*
X97527904Y-50191295D01*
X97527904Y-50191295D02*
X97527904Y-50286533D01*
X97527904Y-50286533D02*
X97480285Y-50429390D01*
X97480285Y-50429390D02*
X96908857Y-51000819D01*
X96908857Y-51000819D02*
X97527904Y-51000819D01*
X54810819Y-42576486D02*
X54334628Y-42909819D01*
X54810819Y-43147914D02*
X53810819Y-43147914D01*
X53810819Y-43147914D02*
X53810819Y-42766962D01*
X53810819Y-42766962D02*
X53858438Y-42671724D01*
X53858438Y-42671724D02*
X53906057Y-42624105D01*
X53906057Y-42624105D02*
X54001295Y-42576486D01*
X54001295Y-42576486D02*
X54144152Y-42576486D01*
X54144152Y-42576486D02*
X54239390Y-42624105D01*
X54239390Y-42624105D02*
X54287009Y-42671724D01*
X54287009Y-42671724D02*
X54334628Y-42766962D01*
X54334628Y-42766962D02*
X54334628Y-43147914D01*
X53906057Y-42195533D02*
X53858438Y-42147914D01*
X53858438Y-42147914D02*
X53810819Y-42052676D01*
X53810819Y-42052676D02*
X53810819Y-41814581D01*
X53810819Y-41814581D02*
X53858438Y-41719343D01*
X53858438Y-41719343D02*
X53906057Y-41671724D01*
X53906057Y-41671724D02*
X54001295Y-41624105D01*
X54001295Y-41624105D02*
X54096533Y-41624105D01*
X54096533Y-41624105D02*
X54239390Y-41671724D01*
X54239390Y-41671724D02*
X54810819Y-42243152D01*
X54810819Y-42243152D02*
X54810819Y-41624105D01*
X54618095Y-66764819D02*
X55189523Y-66764819D01*
X54903809Y-67764819D02*
X54903809Y-66764819D01*
X55522857Y-67764819D02*
X55522857Y-66764819D01*
X55522857Y-66764819D02*
X55903809Y-66764819D01*
X55903809Y-66764819D02*
X55999047Y-66812438D01*
X55999047Y-66812438D02*
X56046666Y-66860057D01*
X56046666Y-66860057D02*
X56094285Y-66955295D01*
X56094285Y-66955295D02*
X56094285Y-67098152D01*
X56094285Y-67098152D02*
X56046666Y-67193390D01*
X56046666Y-67193390D02*
X55999047Y-67241009D01*
X55999047Y-67241009D02*
X55903809Y-67288628D01*
X55903809Y-67288628D02*
X55522857Y-67288628D01*
X56475238Y-66860057D02*
X56522857Y-66812438D01*
X56522857Y-66812438D02*
X56618095Y-66764819D01*
X56618095Y-66764819D02*
X56856190Y-66764819D01*
X56856190Y-66764819D02*
X56951428Y-66812438D01*
X56951428Y-66812438D02*
X56999047Y-66860057D01*
X56999047Y-66860057D02*
X57046666Y-66955295D01*
X57046666Y-66955295D02*
X57046666Y-67050533D01*
X57046666Y-67050533D02*
X56999047Y-67193390D01*
X56999047Y-67193390D02*
X56427619Y-67764819D01*
X56427619Y-67764819D02*
X57046666Y-67764819D01*
X51667791Y-46096118D02*
X51715411Y-46143737D01*
X51715411Y-46143737D02*
X51763030Y-46286594D01*
X51763030Y-46286594D02*
X51763030Y-46381832D01*
X51763030Y-46381832D02*
X51715411Y-46524689D01*
X51715411Y-46524689D02*
X51620172Y-46619927D01*
X51620172Y-46619927D02*
X51524934Y-46667546D01*
X51524934Y-46667546D02*
X51334458Y-46715165D01*
X51334458Y-46715165D02*
X51191601Y-46715165D01*
X51191601Y-46715165D02*
X51001125Y-46667546D01*
X51001125Y-46667546D02*
X50905887Y-46619927D01*
X50905887Y-46619927D02*
X50810649Y-46524689D01*
X50810649Y-46524689D02*
X50763030Y-46381832D01*
X50763030Y-46381832D02*
X50763030Y-46286594D01*
X50763030Y-46286594D02*
X50810649Y-46143737D01*
X50810649Y-46143737D02*
X50858268Y-46096118D01*
X50858268Y-45715165D02*
X50810649Y-45667546D01*
X50810649Y-45667546D02*
X50763030Y-45572308D01*
X50763030Y-45572308D02*
X50763030Y-45334213D01*
X50763030Y-45334213D02*
X50810649Y-45238975D01*
X50810649Y-45238975D02*
X50858268Y-45191356D01*
X50858268Y-45191356D02*
X50953506Y-45143737D01*
X50953506Y-45143737D02*
X51048744Y-45143737D01*
X51048744Y-45143737D02*
X51191601Y-45191356D01*
X51191601Y-45191356D02*
X51763030Y-45762784D01*
X51763030Y-45762784D02*
X51763030Y-45143737D01*
X50763030Y-44286594D02*
X50763030Y-44477070D01*
X50763030Y-44477070D02*
X50810649Y-44572308D01*
X50810649Y-44572308D02*
X50858268Y-44619927D01*
X50858268Y-44619927D02*
X51001125Y-44715165D01*
X51001125Y-44715165D02*
X51191601Y-44762784D01*
X51191601Y-44762784D02*
X51572553Y-44762784D01*
X51572553Y-44762784D02*
X51667791Y-44715165D01*
X51667791Y-44715165D02*
X51715411Y-44667546D01*
X51715411Y-44667546D02*
X51763030Y-44572308D01*
X51763030Y-44572308D02*
X51763030Y-44381832D01*
X51763030Y-44381832D02*
X51715411Y-44286594D01*
X51715411Y-44286594D02*
X51667791Y-44238975D01*
X51667791Y-44238975D02*
X51572553Y-44191356D01*
X51572553Y-44191356D02*
X51334458Y-44191356D01*
X51334458Y-44191356D02*
X51239220Y-44238975D01*
X51239220Y-44238975D02*
X51191601Y-44286594D01*
X51191601Y-44286594D02*
X51143982Y-44381832D01*
X51143982Y-44381832D02*
X51143982Y-44572308D01*
X51143982Y-44572308D02*
X51191601Y-44667546D01*
X51191601Y-44667546D02*
X51239220Y-44715165D01*
X51239220Y-44715165D02*
X51334458Y-44762784D01*
X48321162Y-46387128D02*
X48273543Y-46434748D01*
X48273543Y-46434748D02*
X48130686Y-46482367D01*
X48130686Y-46482367D02*
X48035448Y-46482367D01*
X48035448Y-46482367D02*
X47892591Y-46434748D01*
X47892591Y-46434748D02*
X47797353Y-46339509D01*
X47797353Y-46339509D02*
X47749734Y-46244271D01*
X47749734Y-46244271D02*
X47702115Y-46053795D01*
X47702115Y-46053795D02*
X47702115Y-45910938D01*
X47702115Y-45910938D02*
X47749734Y-45720462D01*
X47749734Y-45720462D02*
X47797353Y-45625224D01*
X47797353Y-45625224D02*
X47892591Y-45529986D01*
X47892591Y-45529986D02*
X48035448Y-45482367D01*
X48035448Y-45482367D02*
X48130686Y-45482367D01*
X48130686Y-45482367D02*
X48273543Y-45529986D01*
X48273543Y-45529986D02*
X48321162Y-45577605D01*
X48702115Y-45577605D02*
X48749734Y-45529986D01*
X48749734Y-45529986D02*
X48844972Y-45482367D01*
X48844972Y-45482367D02*
X49083067Y-45482367D01*
X49083067Y-45482367D02*
X49178305Y-45529986D01*
X49178305Y-45529986D02*
X49225924Y-45577605D01*
X49225924Y-45577605D02*
X49273543Y-45672843D01*
X49273543Y-45672843D02*
X49273543Y-45768081D01*
X49273543Y-45768081D02*
X49225924Y-45910938D01*
X49225924Y-45910938D02*
X48654496Y-46482367D01*
X48654496Y-46482367D02*
X49273543Y-46482367D01*
X50178305Y-45482367D02*
X49702115Y-45482367D01*
X49702115Y-45482367D02*
X49654496Y-45958557D01*
X49654496Y-45958557D02*
X49702115Y-45910938D01*
X49702115Y-45910938D02*
X49797353Y-45863319D01*
X49797353Y-45863319D02*
X50035448Y-45863319D01*
X50035448Y-45863319D02*
X50130686Y-45910938D01*
X50130686Y-45910938D02*
X50178305Y-45958557D01*
X50178305Y-45958557D02*
X50225924Y-46053795D01*
X50225924Y-46053795D02*
X50225924Y-46291890D01*
X50225924Y-46291890D02*
X50178305Y-46387128D01*
X50178305Y-46387128D02*
X50130686Y-46434748D01*
X50130686Y-46434748D02*
X50035448Y-46482367D01*
X50035448Y-46482367D02*
X49797353Y-46482367D01*
X49797353Y-46482367D02*
X49702115Y-46434748D01*
X49702115Y-46434748D02*
X49654496Y-46387128D01*
X57698819Y-24969694D02*
X56698819Y-24969694D01*
X56698819Y-24969694D02*
X56698819Y-24731599D01*
X56698819Y-24731599D02*
X56746438Y-24588742D01*
X56746438Y-24588742D02*
X56841676Y-24493504D01*
X56841676Y-24493504D02*
X56936914Y-24445885D01*
X56936914Y-24445885D02*
X57127390Y-24398266D01*
X57127390Y-24398266D02*
X57270247Y-24398266D01*
X57270247Y-24398266D02*
X57460723Y-24445885D01*
X57460723Y-24445885D02*
X57555961Y-24493504D01*
X57555961Y-24493504D02*
X57651200Y-24588742D01*
X57651200Y-24588742D02*
X57698819Y-24731599D01*
X57698819Y-24731599D02*
X57698819Y-24969694D01*
X56794057Y-24017313D02*
X56746438Y-23969694D01*
X56746438Y-23969694D02*
X56698819Y-23874456D01*
X56698819Y-23874456D02*
X56698819Y-23636361D01*
X56698819Y-23636361D02*
X56746438Y-23541123D01*
X56746438Y-23541123D02*
X56794057Y-23493504D01*
X56794057Y-23493504D02*
X56889295Y-23445885D01*
X56889295Y-23445885D02*
X56984533Y-23445885D01*
X56984533Y-23445885D02*
X57127390Y-23493504D01*
X57127390Y-23493504D02*
X57698819Y-24064932D01*
X57698819Y-24064932D02*
X57698819Y-23445885D01*
X94861142Y-45158819D02*
X94527809Y-44682628D01*
X94289714Y-45158819D02*
X94289714Y-44158819D01*
X94289714Y-44158819D02*
X94670666Y-44158819D01*
X94670666Y-44158819D02*
X94765904Y-44206438D01*
X94765904Y-44206438D02*
X94813523Y-44254057D01*
X94813523Y-44254057D02*
X94861142Y-44349295D01*
X94861142Y-44349295D02*
X94861142Y-44492152D01*
X94861142Y-44492152D02*
X94813523Y-44587390D01*
X94813523Y-44587390D02*
X94765904Y-44635009D01*
X94765904Y-44635009D02*
X94670666Y-44682628D01*
X94670666Y-44682628D02*
X94289714Y-44682628D01*
X95242095Y-44254057D02*
X95289714Y-44206438D01*
X95289714Y-44206438D02*
X95384952Y-44158819D01*
X95384952Y-44158819D02*
X95623047Y-44158819D01*
X95623047Y-44158819D02*
X95718285Y-44206438D01*
X95718285Y-44206438D02*
X95765904Y-44254057D01*
X95765904Y-44254057D02*
X95813523Y-44349295D01*
X95813523Y-44349295D02*
X95813523Y-44444533D01*
X95813523Y-44444533D02*
X95765904Y-44587390D01*
X95765904Y-44587390D02*
X95194476Y-45158819D01*
X95194476Y-45158819D02*
X95813523Y-45158819D01*
X96432571Y-44158819D02*
X96527809Y-44158819D01*
X96527809Y-44158819D02*
X96623047Y-44206438D01*
X96623047Y-44206438D02*
X96670666Y-44254057D01*
X96670666Y-44254057D02*
X96718285Y-44349295D01*
X96718285Y-44349295D02*
X96765904Y-44539771D01*
X96765904Y-44539771D02*
X96765904Y-44777866D01*
X96765904Y-44777866D02*
X96718285Y-44968342D01*
X96718285Y-44968342D02*
X96670666Y-45063580D01*
X96670666Y-45063580D02*
X96623047Y-45111200D01*
X96623047Y-45111200D02*
X96527809Y-45158819D01*
X96527809Y-45158819D02*
X96432571Y-45158819D01*
X96432571Y-45158819D02*
X96337333Y-45111200D01*
X96337333Y-45111200D02*
X96289714Y-45063580D01*
X96289714Y-45063580D02*
X96242095Y-44968342D01*
X96242095Y-44968342D02*
X96194476Y-44777866D01*
X96194476Y-44777866D02*
X96194476Y-44539771D01*
X96194476Y-44539771D02*
X96242095Y-44349295D01*
X96242095Y-44349295D02*
X96289714Y-44254057D01*
X96289714Y-44254057D02*
X96337333Y-44206438D01*
X96337333Y-44206438D02*
X96432571Y-44158819D01*
X65960666Y-27646819D02*
X65960666Y-28361104D01*
X65960666Y-28361104D02*
X65913047Y-28503961D01*
X65913047Y-28503961D02*
X65817809Y-28599200D01*
X65817809Y-28599200D02*
X65674952Y-28646819D01*
X65674952Y-28646819D02*
X65579714Y-28646819D01*
X66913047Y-27646819D02*
X66436857Y-27646819D01*
X66436857Y-27646819D02*
X66389238Y-28123009D01*
X66389238Y-28123009D02*
X66436857Y-28075390D01*
X66436857Y-28075390D02*
X66532095Y-28027771D01*
X66532095Y-28027771D02*
X66770190Y-28027771D01*
X66770190Y-28027771D02*
X66865428Y-28075390D01*
X66865428Y-28075390D02*
X66913047Y-28123009D01*
X66913047Y-28123009D02*
X66960666Y-28218247D01*
X66960666Y-28218247D02*
X66960666Y-28456342D01*
X66960666Y-28456342D02*
X66913047Y-28551580D01*
X66913047Y-28551580D02*
X66865428Y-28599200D01*
X66865428Y-28599200D02*
X66770190Y-28646819D01*
X66770190Y-28646819D02*
X66532095Y-28646819D01*
X66532095Y-28646819D02*
X66436857Y-28599200D01*
X66436857Y-28599200D02*
X66389238Y-28551580D01*
X47664761Y-64660819D02*
X47331428Y-64184628D01*
X47093333Y-64660819D02*
X47093333Y-63660819D01*
X47093333Y-63660819D02*
X47474285Y-63660819D01*
X47474285Y-63660819D02*
X47569523Y-63708438D01*
X47569523Y-63708438D02*
X47617142Y-63756057D01*
X47617142Y-63756057D02*
X47664761Y-63851295D01*
X47664761Y-63851295D02*
X47664761Y-63994152D01*
X47664761Y-63994152D02*
X47617142Y-64089390D01*
X47617142Y-64089390D02*
X47569523Y-64137009D01*
X47569523Y-64137009D02*
X47474285Y-64184628D01*
X47474285Y-64184628D02*
X47093333Y-64184628D01*
X47950476Y-63660819D02*
X48283809Y-64660819D01*
X48283809Y-64660819D02*
X48617142Y-63660819D01*
X48902857Y-63756057D02*
X48950476Y-63708438D01*
X48950476Y-63708438D02*
X49045714Y-63660819D01*
X49045714Y-63660819D02*
X49283809Y-63660819D01*
X49283809Y-63660819D02*
X49379047Y-63708438D01*
X49379047Y-63708438D02*
X49426666Y-63756057D01*
X49426666Y-63756057D02*
X49474285Y-63851295D01*
X49474285Y-63851295D02*
X49474285Y-63946533D01*
X49474285Y-63946533D02*
X49426666Y-64089390D01*
X49426666Y-64089390D02*
X48855238Y-64660819D01*
X48855238Y-64660819D02*
X49474285Y-64660819D01*
X81740819Y-50799904D02*
X82550342Y-50799904D01*
X82550342Y-50799904D02*
X82645580Y-50752285D01*
X82645580Y-50752285D02*
X82693200Y-50704666D01*
X82693200Y-50704666D02*
X82740819Y-50609428D01*
X82740819Y-50609428D02*
X82740819Y-50418952D01*
X82740819Y-50418952D02*
X82693200Y-50323714D01*
X82693200Y-50323714D02*
X82645580Y-50276095D01*
X82645580Y-50276095D02*
X82550342Y-50228476D01*
X82550342Y-50228476D02*
X81740819Y-50228476D01*
X81740819Y-49323714D02*
X81740819Y-49514190D01*
X81740819Y-49514190D02*
X81788438Y-49609428D01*
X81788438Y-49609428D02*
X81836057Y-49657047D01*
X81836057Y-49657047D02*
X81978914Y-49752285D01*
X81978914Y-49752285D02*
X82169390Y-49799904D01*
X82169390Y-49799904D02*
X82550342Y-49799904D01*
X82550342Y-49799904D02*
X82645580Y-49752285D01*
X82645580Y-49752285D02*
X82693200Y-49704666D01*
X82693200Y-49704666D02*
X82740819Y-49609428D01*
X82740819Y-49609428D02*
X82740819Y-49418952D01*
X82740819Y-49418952D02*
X82693200Y-49323714D01*
X82693200Y-49323714D02*
X82645580Y-49276095D01*
X82645580Y-49276095D02*
X82550342Y-49228476D01*
X82550342Y-49228476D02*
X82312247Y-49228476D01*
X82312247Y-49228476D02*
X82217009Y-49276095D01*
X82217009Y-49276095D02*
X82169390Y-49323714D01*
X82169390Y-49323714D02*
X82121771Y-49418952D01*
X82121771Y-49418952D02*
X82121771Y-49609428D01*
X82121771Y-49609428D02*
X82169390Y-49704666D01*
X82169390Y-49704666D02*
X82217009Y-49752285D01*
X82217009Y-49752285D02*
X82312247Y-49799904D01*
X71263094Y-46308400D02*
X71310714Y-46356019D01*
X71310714Y-46356019D02*
X71358333Y-46498876D01*
X71358333Y-46498876D02*
X71358333Y-46594114D01*
X71358333Y-46594114D02*
X71310714Y-46736971D01*
X71310714Y-46736971D02*
X71215475Y-46832209D01*
X71215475Y-46832209D02*
X71120237Y-46879828D01*
X71120237Y-46879828D02*
X70929761Y-46927447D01*
X70929761Y-46927447D02*
X70786904Y-46927447D01*
X70786904Y-46927447D02*
X70596428Y-46879828D01*
X70596428Y-46879828D02*
X70501190Y-46832209D01*
X70501190Y-46832209D02*
X70405952Y-46736971D01*
X70405952Y-46736971D02*
X70358333Y-46594114D01*
X70358333Y-46594114D02*
X70358333Y-46498876D01*
X70358333Y-46498876D02*
X70405952Y-46356019D01*
X70405952Y-46356019D02*
X70453571Y-46308400D01*
X70786904Y-45736971D02*
X70739285Y-45832209D01*
X70739285Y-45832209D02*
X70691666Y-45879828D01*
X70691666Y-45879828D02*
X70596428Y-45927447D01*
X70596428Y-45927447D02*
X70548809Y-45927447D01*
X70548809Y-45927447D02*
X70453571Y-45879828D01*
X70453571Y-45879828D02*
X70405952Y-45832209D01*
X70405952Y-45832209D02*
X70358333Y-45736971D01*
X70358333Y-45736971D02*
X70358333Y-45546495D01*
X70358333Y-45546495D02*
X70405952Y-45451257D01*
X70405952Y-45451257D02*
X70453571Y-45403638D01*
X70453571Y-45403638D02*
X70548809Y-45356019D01*
X70548809Y-45356019D02*
X70596428Y-45356019D01*
X70596428Y-45356019D02*
X70691666Y-45403638D01*
X70691666Y-45403638D02*
X70739285Y-45451257D01*
X70739285Y-45451257D02*
X70786904Y-45546495D01*
X70786904Y-45546495D02*
X70786904Y-45736971D01*
X70786904Y-45736971D02*
X70834523Y-45832209D01*
X70834523Y-45832209D02*
X70882142Y-45879828D01*
X70882142Y-45879828D02*
X70977380Y-45927447D01*
X70977380Y-45927447D02*
X71167856Y-45927447D01*
X71167856Y-45927447D02*
X71263094Y-45879828D01*
X71263094Y-45879828D02*
X71310714Y-45832209D01*
X71310714Y-45832209D02*
X71358333Y-45736971D01*
X71358333Y-45736971D02*
X71358333Y-45546495D01*
X71358333Y-45546495D02*
X71310714Y-45451257D01*
X71310714Y-45451257D02*
X71263094Y-45403638D01*
X71263094Y-45403638D02*
X71167856Y-45356019D01*
X71167856Y-45356019D02*
X70977380Y-45356019D01*
X70977380Y-45356019D02*
X70882142Y-45403638D01*
X70882142Y-45403638D02*
X70834523Y-45451257D01*
X70834523Y-45451257D02*
X70786904Y-45546495D01*
X77102595Y-46508819D02*
X77674023Y-46508819D01*
X77388309Y-47508819D02*
X77388309Y-46508819D01*
X78007357Y-47508819D02*
X78007357Y-46508819D01*
X78007357Y-46508819D02*
X78388309Y-46508819D01*
X78388309Y-46508819D02*
X78483547Y-46556438D01*
X78483547Y-46556438D02*
X78531166Y-46604057D01*
X78531166Y-46604057D02*
X78578785Y-46699295D01*
X78578785Y-46699295D02*
X78578785Y-46842152D01*
X78578785Y-46842152D02*
X78531166Y-46937390D01*
X78531166Y-46937390D02*
X78483547Y-46985009D01*
X78483547Y-46985009D02*
X78388309Y-47032628D01*
X78388309Y-47032628D02*
X78007357Y-47032628D01*
X79435928Y-46508819D02*
X79245452Y-46508819D01*
X79245452Y-46508819D02*
X79150214Y-46556438D01*
X79150214Y-46556438D02*
X79102595Y-46604057D01*
X79102595Y-46604057D02*
X79007357Y-46746914D01*
X79007357Y-46746914D02*
X78959738Y-46937390D01*
X78959738Y-46937390D02*
X78959738Y-47318342D01*
X78959738Y-47318342D02*
X79007357Y-47413580D01*
X79007357Y-47413580D02*
X79054976Y-47461200D01*
X79054976Y-47461200D02*
X79150214Y-47508819D01*
X79150214Y-47508819D02*
X79340690Y-47508819D01*
X79340690Y-47508819D02*
X79435928Y-47461200D01*
X79435928Y-47461200D02*
X79483547Y-47413580D01*
X79483547Y-47413580D02*
X79531166Y-47318342D01*
X79531166Y-47318342D02*
X79531166Y-47080247D01*
X79531166Y-47080247D02*
X79483547Y-46985009D01*
X79483547Y-46985009D02*
X79435928Y-46937390D01*
X79435928Y-46937390D02*
X79340690Y-46889771D01*
X79340690Y-46889771D02*
X79150214Y-46889771D01*
X79150214Y-46889771D02*
X79054976Y-46937390D01*
X79054976Y-46937390D02*
X79007357Y-46985009D01*
X79007357Y-46985009D02*
X78959738Y-47080247D01*
X77732095Y-51908819D02*
X78303523Y-51908819D01*
X78017809Y-52908819D02*
X78017809Y-51908819D01*
X78636857Y-52908819D02*
X78636857Y-51908819D01*
X78636857Y-51908819D02*
X79017809Y-51908819D01*
X79017809Y-51908819D02*
X79113047Y-51956438D01*
X79113047Y-51956438D02*
X79160666Y-52004057D01*
X79160666Y-52004057D02*
X79208285Y-52099295D01*
X79208285Y-52099295D02*
X79208285Y-52242152D01*
X79208285Y-52242152D02*
X79160666Y-52337390D01*
X79160666Y-52337390D02*
X79113047Y-52385009D01*
X79113047Y-52385009D02*
X79017809Y-52432628D01*
X79017809Y-52432628D02*
X78636857Y-52432628D01*
X79541619Y-51908819D02*
X80208285Y-51908819D01*
X80208285Y-51908819D02*
X79779714Y-52908819D01*
X57156054Y-45113786D02*
X57203674Y-45161405D01*
X57203674Y-45161405D02*
X57251293Y-45304262D01*
X57251293Y-45304262D02*
X57251293Y-45399500D01*
X57251293Y-45399500D02*
X57203674Y-45542357D01*
X57203674Y-45542357D02*
X57108435Y-45637595D01*
X57108435Y-45637595D02*
X57013197Y-45685214D01*
X57013197Y-45685214D02*
X56822721Y-45732833D01*
X56822721Y-45732833D02*
X56679864Y-45732833D01*
X56679864Y-45732833D02*
X56489388Y-45685214D01*
X56489388Y-45685214D02*
X56394150Y-45637595D01*
X56394150Y-45637595D02*
X56298912Y-45542357D01*
X56298912Y-45542357D02*
X56251293Y-45399500D01*
X56251293Y-45399500D02*
X56251293Y-45304262D01*
X56251293Y-45304262D02*
X56298912Y-45161405D01*
X56298912Y-45161405D02*
X56346531Y-45113786D01*
X56251293Y-44780452D02*
X56251293Y-44161405D01*
X56251293Y-44161405D02*
X56632245Y-44494738D01*
X56632245Y-44494738D02*
X56632245Y-44351881D01*
X56632245Y-44351881D02*
X56679864Y-44256643D01*
X56679864Y-44256643D02*
X56727483Y-44209024D01*
X56727483Y-44209024D02*
X56822721Y-44161405D01*
X56822721Y-44161405D02*
X57060816Y-44161405D01*
X57060816Y-44161405D02*
X57156054Y-44209024D01*
X57156054Y-44209024D02*
X57203674Y-44256643D01*
X57203674Y-44256643D02*
X57251293Y-44351881D01*
X57251293Y-44351881D02*
X57251293Y-44637595D01*
X57251293Y-44637595D02*
X57203674Y-44732833D01*
X57203674Y-44732833D02*
X57156054Y-44780452D01*
X92932089Y-41155233D02*
X92455898Y-41488566D01*
X92932089Y-41726661D02*
X91932089Y-41726661D01*
X91932089Y-41726661D02*
X91932089Y-41345709D01*
X91932089Y-41345709D02*
X91979708Y-41250471D01*
X91979708Y-41250471D02*
X92027327Y-41202852D01*
X92027327Y-41202852D02*
X92122565Y-41155233D01*
X92122565Y-41155233D02*
X92265422Y-41155233D01*
X92265422Y-41155233D02*
X92360660Y-41202852D01*
X92360660Y-41202852D02*
X92408279Y-41250471D01*
X92408279Y-41250471D02*
X92455898Y-41345709D01*
X92455898Y-41345709D02*
X92455898Y-41726661D01*
X92027327Y-40774280D02*
X91979708Y-40726661D01*
X91979708Y-40726661D02*
X91932089Y-40631423D01*
X91932089Y-40631423D02*
X91932089Y-40393328D01*
X91932089Y-40393328D02*
X91979708Y-40298090D01*
X91979708Y-40298090D02*
X92027327Y-40250471D01*
X92027327Y-40250471D02*
X92122565Y-40202852D01*
X92122565Y-40202852D02*
X92217803Y-40202852D01*
X92217803Y-40202852D02*
X92360660Y-40250471D01*
X92360660Y-40250471D02*
X92932089Y-40821899D01*
X92932089Y-40821899D02*
X92932089Y-40202852D01*
X92027327Y-39821899D02*
X91979708Y-39774280D01*
X91979708Y-39774280D02*
X91932089Y-39679042D01*
X91932089Y-39679042D02*
X91932089Y-39440947D01*
X91932089Y-39440947D02*
X91979708Y-39345709D01*
X91979708Y-39345709D02*
X92027327Y-39298090D01*
X92027327Y-39298090D02*
X92122565Y-39250471D01*
X92122565Y-39250471D02*
X92217803Y-39250471D01*
X92217803Y-39250471D02*
X92360660Y-39298090D01*
X92360660Y-39298090D02*
X92932089Y-39869518D01*
X92932089Y-39869518D02*
X92932089Y-39250471D01*
X32210476Y-28156819D02*
X32210476Y-28871104D01*
X32210476Y-28871104D02*
X32162857Y-29013961D01*
X32162857Y-29013961D02*
X32067619Y-29109200D01*
X32067619Y-29109200D02*
X31924762Y-29156819D01*
X31924762Y-29156819D02*
X31829524Y-29156819D01*
X33210476Y-29156819D02*
X32639048Y-29156819D01*
X32924762Y-29156819D02*
X32924762Y-28156819D01*
X32924762Y-28156819D02*
X32829524Y-28299676D01*
X32829524Y-28299676D02*
X32734286Y-28394914D01*
X32734286Y-28394914D02*
X32639048Y-28442533D01*
X33829524Y-28156819D02*
X33924762Y-28156819D01*
X33924762Y-28156819D02*
X34020000Y-28204438D01*
X34020000Y-28204438D02*
X34067619Y-28252057D01*
X34067619Y-28252057D02*
X34115238Y-28347295D01*
X34115238Y-28347295D02*
X34162857Y-28537771D01*
X34162857Y-28537771D02*
X34162857Y-28775866D01*
X34162857Y-28775866D02*
X34115238Y-28966342D01*
X34115238Y-28966342D02*
X34067619Y-29061580D01*
X34067619Y-29061580D02*
X34020000Y-29109200D01*
X34020000Y-29109200D02*
X33924762Y-29156819D01*
X33924762Y-29156819D02*
X33829524Y-29156819D01*
X33829524Y-29156819D02*
X33734286Y-29109200D01*
X33734286Y-29109200D02*
X33686667Y-29061580D01*
X33686667Y-29061580D02*
X33639048Y-28966342D01*
X33639048Y-28966342D02*
X33591429Y-28775866D01*
X33591429Y-28775866D02*
X33591429Y-28537771D01*
X33591429Y-28537771D02*
X33639048Y-28347295D01*
X33639048Y-28347295D02*
X33686667Y-28252057D01*
X33686667Y-28252057D02*
X33734286Y-28204438D01*
X33734286Y-28204438D02*
X33829524Y-28156819D01*
X48546334Y-31783257D02*
X48070143Y-32116590D01*
X48546334Y-32354685D02*
X47546334Y-32354685D01*
X47546334Y-32354685D02*
X47546334Y-31973733D01*
X47546334Y-31973733D02*
X47593953Y-31878495D01*
X47593953Y-31878495D02*
X47641572Y-31830876D01*
X47641572Y-31830876D02*
X47736810Y-31783257D01*
X47736810Y-31783257D02*
X47879667Y-31783257D01*
X47879667Y-31783257D02*
X47974905Y-31830876D01*
X47974905Y-31830876D02*
X48022524Y-31878495D01*
X48022524Y-31878495D02*
X48070143Y-31973733D01*
X48070143Y-31973733D02*
X48070143Y-32354685D01*
X48546334Y-30830876D02*
X48546334Y-31402304D01*
X48546334Y-31116590D02*
X47546334Y-31116590D01*
X47546334Y-31116590D02*
X47689191Y-31211828D01*
X47689191Y-31211828D02*
X47784429Y-31307066D01*
X47784429Y-31307066D02*
X47832048Y-31402304D01*
X48546334Y-29878495D02*
X48546334Y-30449923D01*
X48546334Y-30164209D02*
X47546334Y-30164209D01*
X47546334Y-30164209D02*
X47689191Y-30259447D01*
X47689191Y-30259447D02*
X47784429Y-30354685D01*
X47784429Y-30354685D02*
X47832048Y-30449923D01*
X103076476Y-27140819D02*
X103076476Y-27855104D01*
X103076476Y-27855104D02*
X103028857Y-27997961D01*
X103028857Y-27997961D02*
X102933619Y-28093200D01*
X102933619Y-28093200D02*
X102790762Y-28140819D01*
X102790762Y-28140819D02*
X102695524Y-28140819D01*
X104076476Y-28140819D02*
X103505048Y-28140819D01*
X103790762Y-28140819D02*
X103790762Y-27140819D01*
X103790762Y-27140819D02*
X103695524Y-27283676D01*
X103695524Y-27283676D02*
X103600286Y-27378914D01*
X103600286Y-27378914D02*
X103505048Y-27426533D01*
X105028857Y-28140819D02*
X104457429Y-28140819D01*
X104743143Y-28140819D02*
X104743143Y-27140819D01*
X104743143Y-27140819D02*
X104647905Y-27283676D01*
X104647905Y-27283676D02*
X104552667Y-27378914D01*
X104552667Y-27378914D02*
X104457429Y-27426533D01*
X72917616Y-38768854D02*
X72869997Y-38816474D01*
X72869997Y-38816474D02*
X72727140Y-38864093D01*
X72727140Y-38864093D02*
X72631902Y-38864093D01*
X72631902Y-38864093D02*
X72489045Y-38816474D01*
X72489045Y-38816474D02*
X72393807Y-38721235D01*
X72393807Y-38721235D02*
X72346188Y-38625997D01*
X72346188Y-38625997D02*
X72298569Y-38435521D01*
X72298569Y-38435521D02*
X72298569Y-38292664D01*
X72298569Y-38292664D02*
X72346188Y-38102188D01*
X72346188Y-38102188D02*
X72393807Y-38006950D01*
X72393807Y-38006950D02*
X72489045Y-37911712D01*
X72489045Y-37911712D02*
X72631902Y-37864093D01*
X72631902Y-37864093D02*
X72727140Y-37864093D01*
X72727140Y-37864093D02*
X72869997Y-37911712D01*
X72869997Y-37911712D02*
X72917616Y-37959331D01*
X73869997Y-38864093D02*
X73298569Y-38864093D01*
X73584283Y-38864093D02*
X73584283Y-37864093D01*
X73584283Y-37864093D02*
X73489045Y-38006950D01*
X73489045Y-38006950D02*
X73393807Y-38102188D01*
X73393807Y-38102188D02*
X73298569Y-38149807D01*
X74441426Y-38292664D02*
X74346188Y-38245045D01*
X74346188Y-38245045D02*
X74298569Y-38197426D01*
X74298569Y-38197426D02*
X74250950Y-38102188D01*
X74250950Y-38102188D02*
X74250950Y-38054569D01*
X74250950Y-38054569D02*
X74298569Y-37959331D01*
X74298569Y-37959331D02*
X74346188Y-37911712D01*
X74346188Y-37911712D02*
X74441426Y-37864093D01*
X74441426Y-37864093D02*
X74631902Y-37864093D01*
X74631902Y-37864093D02*
X74727140Y-37911712D01*
X74727140Y-37911712D02*
X74774759Y-37959331D01*
X74774759Y-37959331D02*
X74822378Y-38054569D01*
X74822378Y-38054569D02*
X74822378Y-38102188D01*
X74822378Y-38102188D02*
X74774759Y-38197426D01*
X74774759Y-38197426D02*
X74727140Y-38245045D01*
X74727140Y-38245045D02*
X74631902Y-38292664D01*
X74631902Y-38292664D02*
X74441426Y-38292664D01*
X74441426Y-38292664D02*
X74346188Y-38340283D01*
X74346188Y-38340283D02*
X74298569Y-38387902D01*
X74298569Y-38387902D02*
X74250950Y-38483140D01*
X74250950Y-38483140D02*
X74250950Y-38673616D01*
X74250950Y-38673616D02*
X74298569Y-38768854D01*
X74298569Y-38768854D02*
X74346188Y-38816474D01*
X74346188Y-38816474D02*
X74441426Y-38864093D01*
X74441426Y-38864093D02*
X74631902Y-38864093D01*
X74631902Y-38864093D02*
X74727140Y-38816474D01*
X74727140Y-38816474D02*
X74774759Y-38768854D01*
X74774759Y-38768854D02*
X74822378Y-38673616D01*
X74822378Y-38673616D02*
X74822378Y-38483140D01*
X74822378Y-38483140D02*
X74774759Y-38387902D01*
X74774759Y-38387902D02*
X74727140Y-38340283D01*
X74727140Y-38340283D02*
X74631902Y-38292664D01*
X69786667Y-66701200D02*
X69929524Y-66748819D01*
X69929524Y-66748819D02*
X70167619Y-66748819D01*
X70167619Y-66748819D02*
X70262857Y-66701200D01*
X70262857Y-66701200D02*
X70310476Y-66653580D01*
X70310476Y-66653580D02*
X70358095Y-66558342D01*
X70358095Y-66558342D02*
X70358095Y-66463104D01*
X70358095Y-66463104D02*
X70310476Y-66367866D01*
X70310476Y-66367866D02*
X70262857Y-66320247D01*
X70262857Y-66320247D02*
X70167619Y-66272628D01*
X70167619Y-66272628D02*
X69977143Y-66225009D01*
X69977143Y-66225009D02*
X69881905Y-66177390D01*
X69881905Y-66177390D02*
X69834286Y-66129771D01*
X69834286Y-66129771D02*
X69786667Y-66034533D01*
X69786667Y-66034533D02*
X69786667Y-65939295D01*
X69786667Y-65939295D02*
X69834286Y-65844057D01*
X69834286Y-65844057D02*
X69881905Y-65796438D01*
X69881905Y-65796438D02*
X69977143Y-65748819D01*
X69977143Y-65748819D02*
X70215238Y-65748819D01*
X70215238Y-65748819D02*
X70358095Y-65796438D01*
X70691429Y-65748819D02*
X70929524Y-66748819D01*
X70929524Y-66748819D02*
X71120000Y-66034533D01*
X71120000Y-66034533D02*
X71310476Y-66748819D01*
X71310476Y-66748819D02*
X71548572Y-65748819D01*
X72453333Y-66748819D02*
X71881905Y-66748819D01*
X72167619Y-66748819D02*
X72167619Y-65748819D01*
X72167619Y-65748819D02*
X72072381Y-65891676D01*
X72072381Y-65891676D02*
X71977143Y-65986914D01*
X71977143Y-65986914D02*
X71881905Y-66034533D01*
X32210476Y-40602819D02*
X32210476Y-41317104D01*
X32210476Y-41317104D02*
X32162857Y-41459961D01*
X32162857Y-41459961D02*
X32067619Y-41555200D01*
X32067619Y-41555200D02*
X31924762Y-41602819D01*
X31924762Y-41602819D02*
X31829524Y-41602819D01*
X33210476Y-41602819D02*
X32639048Y-41602819D01*
X32924762Y-41602819D02*
X32924762Y-40602819D01*
X32924762Y-40602819D02*
X32829524Y-40745676D01*
X32829524Y-40745676D02*
X32734286Y-40840914D01*
X32734286Y-40840914D02*
X32639048Y-40888533D01*
X33591429Y-40698057D02*
X33639048Y-40650438D01*
X33639048Y-40650438D02*
X33734286Y-40602819D01*
X33734286Y-40602819D02*
X33972381Y-40602819D01*
X33972381Y-40602819D02*
X34067619Y-40650438D01*
X34067619Y-40650438D02*
X34115238Y-40698057D01*
X34115238Y-40698057D02*
X34162857Y-40793295D01*
X34162857Y-40793295D02*
X34162857Y-40888533D01*
X34162857Y-40888533D02*
X34115238Y-41031390D01*
X34115238Y-41031390D02*
X33543810Y-41602819D01*
X33543810Y-41602819D02*
X34162857Y-41602819D01*
X73098819Y-30646666D02*
X72622628Y-30979999D01*
X73098819Y-31218094D02*
X72098819Y-31218094D01*
X72098819Y-31218094D02*
X72098819Y-30837142D01*
X72098819Y-30837142D02*
X72146438Y-30741904D01*
X72146438Y-30741904D02*
X72194057Y-30694285D01*
X72194057Y-30694285D02*
X72289295Y-30646666D01*
X72289295Y-30646666D02*
X72432152Y-30646666D01*
X72432152Y-30646666D02*
X72527390Y-30694285D01*
X72527390Y-30694285D02*
X72575009Y-30741904D01*
X72575009Y-30741904D02*
X72622628Y-30837142D01*
X72622628Y-30837142D02*
X72622628Y-31218094D01*
X73098819Y-29694285D02*
X73098819Y-30265713D01*
X73098819Y-29979999D02*
X72098819Y-29979999D01*
X72098819Y-29979999D02*
X72241676Y-30075237D01*
X72241676Y-30075237D02*
X72336914Y-30170475D01*
X72336914Y-30170475D02*
X72384533Y-30265713D01*
X64875580Y-50274457D02*
X64923200Y-50322076D01*
X64923200Y-50322076D02*
X64970819Y-50464933D01*
X64970819Y-50464933D02*
X64970819Y-50560171D01*
X64970819Y-50560171D02*
X64923200Y-50703028D01*
X64923200Y-50703028D02*
X64827961Y-50798266D01*
X64827961Y-50798266D02*
X64732723Y-50845885D01*
X64732723Y-50845885D02*
X64542247Y-50893504D01*
X64542247Y-50893504D02*
X64399390Y-50893504D01*
X64399390Y-50893504D02*
X64208914Y-50845885D01*
X64208914Y-50845885D02*
X64113676Y-50798266D01*
X64113676Y-50798266D02*
X64018438Y-50703028D01*
X64018438Y-50703028D02*
X63970819Y-50560171D01*
X63970819Y-50560171D02*
X63970819Y-50464933D01*
X63970819Y-50464933D02*
X64018438Y-50322076D01*
X64018438Y-50322076D02*
X64066057Y-50274457D01*
X64970819Y-49322076D02*
X64970819Y-49893504D01*
X64970819Y-49607790D02*
X63970819Y-49607790D01*
X63970819Y-49607790D02*
X64113676Y-49703028D01*
X64113676Y-49703028D02*
X64208914Y-49798266D01*
X64208914Y-49798266D02*
X64256533Y-49893504D01*
X63970819Y-48417314D02*
X63970819Y-48893504D01*
X63970819Y-48893504D02*
X64447009Y-48941123D01*
X64447009Y-48941123D02*
X64399390Y-48893504D01*
X64399390Y-48893504D02*
X64351771Y-48798266D01*
X64351771Y-48798266D02*
X64351771Y-48560171D01*
X64351771Y-48560171D02*
X64399390Y-48464933D01*
X64399390Y-48464933D02*
X64447009Y-48417314D01*
X64447009Y-48417314D02*
X64542247Y-48369695D01*
X64542247Y-48369695D02*
X64780342Y-48369695D01*
X64780342Y-48369695D02*
X64875580Y-48417314D01*
X64875580Y-48417314D02*
X64923200Y-48464933D01*
X64923200Y-48464933D02*
X64970819Y-48560171D01*
X64970819Y-48560171D02*
X64970819Y-48798266D01*
X64970819Y-48798266D02*
X64923200Y-48893504D01*
X64923200Y-48893504D02*
X64875580Y-48941123D01*
X74301871Y-72280824D02*
X74254252Y-72328444D01*
X74254252Y-72328444D02*
X74111395Y-72376063D01*
X74111395Y-72376063D02*
X74016157Y-72376063D01*
X74016157Y-72376063D02*
X73873300Y-72328444D01*
X73873300Y-72328444D02*
X73778062Y-72233205D01*
X73778062Y-72233205D02*
X73730443Y-72137967D01*
X73730443Y-72137967D02*
X73682824Y-71947491D01*
X73682824Y-71947491D02*
X73682824Y-71804634D01*
X73682824Y-71804634D02*
X73730443Y-71614158D01*
X73730443Y-71614158D02*
X73778062Y-71518920D01*
X73778062Y-71518920D02*
X73873300Y-71423682D01*
X73873300Y-71423682D02*
X74016157Y-71376063D01*
X74016157Y-71376063D02*
X74111395Y-71376063D01*
X74111395Y-71376063D02*
X74254252Y-71423682D01*
X74254252Y-71423682D02*
X74301871Y-71471301D01*
X74682824Y-71471301D02*
X74730443Y-71423682D01*
X74730443Y-71423682D02*
X74825681Y-71376063D01*
X74825681Y-71376063D02*
X75063776Y-71376063D01*
X75063776Y-71376063D02*
X75159014Y-71423682D01*
X75159014Y-71423682D02*
X75206633Y-71471301D01*
X75206633Y-71471301D02*
X75254252Y-71566539D01*
X75254252Y-71566539D02*
X75254252Y-71661777D01*
X75254252Y-71661777D02*
X75206633Y-71804634D01*
X75206633Y-71804634D02*
X74635205Y-72376063D01*
X74635205Y-72376063D02*
X75254252Y-72376063D01*
X75873300Y-71376063D02*
X75968538Y-71376063D01*
X75968538Y-71376063D02*
X76063776Y-71423682D01*
X76063776Y-71423682D02*
X76111395Y-71471301D01*
X76111395Y-71471301D02*
X76159014Y-71566539D01*
X76159014Y-71566539D02*
X76206633Y-71757015D01*
X76206633Y-71757015D02*
X76206633Y-71995110D01*
X76206633Y-71995110D02*
X76159014Y-72185586D01*
X76159014Y-72185586D02*
X76111395Y-72280824D01*
X76111395Y-72280824D02*
X76063776Y-72328444D01*
X76063776Y-72328444D02*
X75968538Y-72376063D01*
X75968538Y-72376063D02*
X75873300Y-72376063D01*
X75873300Y-72376063D02*
X75778062Y-72328444D01*
X75778062Y-72328444D02*
X75730443Y-72280824D01*
X75730443Y-72280824D02*
X75682824Y-72185586D01*
X75682824Y-72185586D02*
X75635205Y-71995110D01*
X75635205Y-71995110D02*
X75635205Y-71757015D01*
X75635205Y-71757015D02*
X75682824Y-71566539D01*
X75682824Y-71566539D02*
X75730443Y-71471301D01*
X75730443Y-71471301D02*
X75778062Y-71423682D01*
X75778062Y-71423682D02*
X75873300Y-71376063D01*
X58344819Y-41439904D02*
X59154342Y-41439904D01*
X59154342Y-41439904D02*
X59249580Y-41392285D01*
X59249580Y-41392285D02*
X59297200Y-41344666D01*
X59297200Y-41344666D02*
X59344819Y-41249428D01*
X59344819Y-41249428D02*
X59344819Y-41058952D01*
X59344819Y-41058952D02*
X59297200Y-40963714D01*
X59297200Y-40963714D02*
X59249580Y-40916095D01*
X59249580Y-40916095D02*
X59154342Y-40868476D01*
X59154342Y-40868476D02*
X58344819Y-40868476D01*
X58440057Y-40439904D02*
X58392438Y-40392285D01*
X58392438Y-40392285D02*
X58344819Y-40297047D01*
X58344819Y-40297047D02*
X58344819Y-40058952D01*
X58344819Y-40058952D02*
X58392438Y-39963714D01*
X58392438Y-39963714D02*
X58440057Y-39916095D01*
X58440057Y-39916095D02*
X58535295Y-39868476D01*
X58535295Y-39868476D02*
X58630533Y-39868476D01*
X58630533Y-39868476D02*
X58773390Y-39916095D01*
X58773390Y-39916095D02*
X59344819Y-40487523D01*
X59344819Y-40487523D02*
X59344819Y-39868476D01*
X54826819Y-52069904D02*
X55636342Y-52069904D01*
X55636342Y-52069904D02*
X55731580Y-52022285D01*
X55731580Y-52022285D02*
X55779200Y-51974666D01*
X55779200Y-51974666D02*
X55826819Y-51879428D01*
X55826819Y-51879428D02*
X55826819Y-51688952D01*
X55826819Y-51688952D02*
X55779200Y-51593714D01*
X55779200Y-51593714D02*
X55731580Y-51546095D01*
X55731580Y-51546095D02*
X55636342Y-51498476D01*
X55636342Y-51498476D02*
X54826819Y-51498476D01*
X55160152Y-50593714D02*
X55826819Y-50593714D01*
X54779200Y-50831809D02*
X55493485Y-51069904D01*
X55493485Y-51069904D02*
X55493485Y-50450857D01*
X32871580Y-74810857D02*
X32919200Y-74858476D01*
X32919200Y-74858476D02*
X32966819Y-75001333D01*
X32966819Y-75001333D02*
X32966819Y-75096571D01*
X32966819Y-75096571D02*
X32919200Y-75239428D01*
X32919200Y-75239428D02*
X32823961Y-75334666D01*
X32823961Y-75334666D02*
X32728723Y-75382285D01*
X32728723Y-75382285D02*
X32538247Y-75429904D01*
X32538247Y-75429904D02*
X32395390Y-75429904D01*
X32395390Y-75429904D02*
X32204914Y-75382285D01*
X32204914Y-75382285D02*
X32109676Y-75334666D01*
X32109676Y-75334666D02*
X32014438Y-75239428D01*
X32014438Y-75239428D02*
X31966819Y-75096571D01*
X31966819Y-75096571D02*
X31966819Y-75001333D01*
X31966819Y-75001333D02*
X32014438Y-74858476D01*
X32014438Y-74858476D02*
X32062057Y-74810857D01*
X32062057Y-74429904D02*
X32014438Y-74382285D01*
X32014438Y-74382285D02*
X31966819Y-74287047D01*
X31966819Y-74287047D02*
X31966819Y-74048952D01*
X31966819Y-74048952D02*
X32014438Y-73953714D01*
X32014438Y-73953714D02*
X32062057Y-73906095D01*
X32062057Y-73906095D02*
X32157295Y-73858476D01*
X32157295Y-73858476D02*
X32252533Y-73858476D01*
X32252533Y-73858476D02*
X32395390Y-73906095D01*
X32395390Y-73906095D02*
X32966819Y-74477523D01*
X32966819Y-74477523D02*
X32966819Y-73858476D01*
X32062057Y-73477523D02*
X32014438Y-73429904D01*
X32014438Y-73429904D02*
X31966819Y-73334666D01*
X31966819Y-73334666D02*
X31966819Y-73096571D01*
X31966819Y-73096571D02*
X32014438Y-73001333D01*
X32014438Y-73001333D02*
X32062057Y-72953714D01*
X32062057Y-72953714D02*
X32157295Y-72906095D01*
X32157295Y-72906095D02*
X32252533Y-72906095D01*
X32252533Y-72906095D02*
X32395390Y-72953714D01*
X32395390Y-72953714D02*
X32966819Y-73525142D01*
X32966819Y-73525142D02*
X32966819Y-72906095D01*
X88370161Y-72140509D02*
X88322542Y-72188129D01*
X88322542Y-72188129D02*
X88179685Y-72235748D01*
X88179685Y-72235748D02*
X88084447Y-72235748D01*
X88084447Y-72235748D02*
X87941590Y-72188129D01*
X87941590Y-72188129D02*
X87846352Y-72092890D01*
X87846352Y-72092890D02*
X87798733Y-71997652D01*
X87798733Y-71997652D02*
X87751114Y-71807176D01*
X87751114Y-71807176D02*
X87751114Y-71664319D01*
X87751114Y-71664319D02*
X87798733Y-71473843D01*
X87798733Y-71473843D02*
X87846352Y-71378605D01*
X87846352Y-71378605D02*
X87941590Y-71283367D01*
X87941590Y-71283367D02*
X88084447Y-71235748D01*
X88084447Y-71235748D02*
X88179685Y-71235748D01*
X88179685Y-71235748D02*
X88322542Y-71283367D01*
X88322542Y-71283367D02*
X88370161Y-71330986D01*
X88751114Y-71330986D02*
X88798733Y-71283367D01*
X88798733Y-71283367D02*
X88893971Y-71235748D01*
X88893971Y-71235748D02*
X89132066Y-71235748D01*
X89132066Y-71235748D02*
X89227304Y-71283367D01*
X89227304Y-71283367D02*
X89274923Y-71330986D01*
X89274923Y-71330986D02*
X89322542Y-71426224D01*
X89322542Y-71426224D02*
X89322542Y-71521462D01*
X89322542Y-71521462D02*
X89274923Y-71664319D01*
X89274923Y-71664319D02*
X88703495Y-72235748D01*
X88703495Y-72235748D02*
X89322542Y-72235748D01*
X90274923Y-72235748D02*
X89703495Y-72235748D01*
X89989209Y-72235748D02*
X89989209Y-71235748D01*
X89989209Y-71235748D02*
X89893971Y-71378605D01*
X89893971Y-71378605D02*
X89798733Y-71473843D01*
X89798733Y-71473843D02*
X89703495Y-71521462D01*
X89354819Y-51696857D02*
X88878628Y-52030190D01*
X89354819Y-52268285D02*
X88354819Y-52268285D01*
X88354819Y-52268285D02*
X88354819Y-51887333D01*
X88354819Y-51887333D02*
X88402438Y-51792095D01*
X88402438Y-51792095D02*
X88450057Y-51744476D01*
X88450057Y-51744476D02*
X88545295Y-51696857D01*
X88545295Y-51696857D02*
X88688152Y-51696857D01*
X88688152Y-51696857D02*
X88783390Y-51744476D01*
X88783390Y-51744476D02*
X88831009Y-51792095D01*
X88831009Y-51792095D02*
X88878628Y-51887333D01*
X88878628Y-51887333D02*
X88878628Y-52268285D01*
X89354819Y-50744476D02*
X89354819Y-51315904D01*
X89354819Y-51030190D02*
X88354819Y-51030190D01*
X88354819Y-51030190D02*
X88497676Y-51125428D01*
X88497676Y-51125428D02*
X88592914Y-51220666D01*
X88592914Y-51220666D02*
X88640533Y-51315904D01*
X88354819Y-50411142D02*
X88354819Y-49744476D01*
X88354819Y-49744476D02*
X89354819Y-50173047D01*
X55888095Y-61306819D02*
X56459523Y-61306819D01*
X56173809Y-62306819D02*
X56173809Y-61306819D01*
X56792857Y-62306819D02*
X56792857Y-61306819D01*
X56792857Y-61306819D02*
X57173809Y-61306819D01*
X57173809Y-61306819D02*
X57269047Y-61354438D01*
X57269047Y-61354438D02*
X57316666Y-61402057D01*
X57316666Y-61402057D02*
X57364285Y-61497295D01*
X57364285Y-61497295D02*
X57364285Y-61640152D01*
X57364285Y-61640152D02*
X57316666Y-61735390D01*
X57316666Y-61735390D02*
X57269047Y-61783009D01*
X57269047Y-61783009D02*
X57173809Y-61830628D01*
X57173809Y-61830628D02*
X56792857Y-61830628D01*
X57697619Y-61306819D02*
X58316666Y-61306819D01*
X58316666Y-61306819D02*
X57983333Y-61687771D01*
X57983333Y-61687771D02*
X58126190Y-61687771D01*
X58126190Y-61687771D02*
X58221428Y-61735390D01*
X58221428Y-61735390D02*
X58269047Y-61783009D01*
X58269047Y-61783009D02*
X58316666Y-61878247D01*
X58316666Y-61878247D02*
X58316666Y-62116342D01*
X58316666Y-62116342D02*
X58269047Y-62211580D01*
X58269047Y-62211580D02*
X58221428Y-62259200D01*
X58221428Y-62259200D02*
X58126190Y-62306819D01*
X58126190Y-62306819D02*
X57840476Y-62306819D01*
X57840476Y-62306819D02*
X57745238Y-62259200D01*
X57745238Y-62259200D02*
X57697619Y-62211580D01*
X89354352Y-70965748D02*
X89021019Y-70489557D01*
X88782924Y-70965748D02*
X88782924Y-69965748D01*
X88782924Y-69965748D02*
X89163876Y-69965748D01*
X89163876Y-69965748D02*
X89259114Y-70013367D01*
X89259114Y-70013367D02*
X89306733Y-70060986D01*
X89306733Y-70060986D02*
X89354352Y-70156224D01*
X89354352Y-70156224D02*
X89354352Y-70299081D01*
X89354352Y-70299081D02*
X89306733Y-70394319D01*
X89306733Y-70394319D02*
X89259114Y-70441938D01*
X89259114Y-70441938D02*
X89163876Y-70489557D01*
X89163876Y-70489557D02*
X88782924Y-70489557D01*
X89687686Y-69965748D02*
X90354352Y-69965748D01*
X90354352Y-69965748D02*
X89925781Y-70965748D01*
X49136788Y-54814357D02*
X48660597Y-55147690D01*
X49136788Y-55385785D02*
X48136788Y-55385785D01*
X48136788Y-55385785D02*
X48136788Y-55004833D01*
X48136788Y-55004833D02*
X48184407Y-54909595D01*
X48184407Y-54909595D02*
X48232026Y-54861976D01*
X48232026Y-54861976D02*
X48327264Y-54814357D01*
X48327264Y-54814357D02*
X48470121Y-54814357D01*
X48470121Y-54814357D02*
X48565359Y-54861976D01*
X48565359Y-54861976D02*
X48612978Y-54909595D01*
X48612978Y-54909595D02*
X48660597Y-55004833D01*
X48660597Y-55004833D02*
X48660597Y-55385785D01*
X49136788Y-53861976D02*
X49136788Y-54433404D01*
X49136788Y-54147690D02*
X48136788Y-54147690D01*
X48136788Y-54147690D02*
X48279645Y-54242928D01*
X48279645Y-54242928D02*
X48374883Y-54338166D01*
X48374883Y-54338166D02*
X48422502Y-54433404D01*
X48136788Y-53528642D02*
X48136788Y-52909595D01*
X48136788Y-52909595D02*
X48517740Y-53242928D01*
X48517740Y-53242928D02*
X48517740Y-53100071D01*
X48517740Y-53100071D02*
X48565359Y-53004833D01*
X48565359Y-53004833D02*
X48612978Y-52957214D01*
X48612978Y-52957214D02*
X48708216Y-52909595D01*
X48708216Y-52909595D02*
X48946311Y-52909595D01*
X48946311Y-52909595D02*
X49041549Y-52957214D01*
X49041549Y-52957214D02*
X49089169Y-53004833D01*
X49089169Y-53004833D02*
X49136788Y-53100071D01*
X49136788Y-53100071D02*
X49136788Y-53385785D01*
X49136788Y-53385785D02*
X49089169Y-53481023D01*
X49089169Y-53481023D02*
X49041549Y-53528642D01*
X72001011Y-43160312D02*
X72048631Y-43207931D01*
X72048631Y-43207931D02*
X72096250Y-43350788D01*
X72096250Y-43350788D02*
X72096250Y-43446026D01*
X72096250Y-43446026D02*
X72048631Y-43588883D01*
X72048631Y-43588883D02*
X71953392Y-43684121D01*
X71953392Y-43684121D02*
X71858154Y-43731740D01*
X71858154Y-43731740D02*
X71667678Y-43779359D01*
X71667678Y-43779359D02*
X71524821Y-43779359D01*
X71524821Y-43779359D02*
X71334345Y-43731740D01*
X71334345Y-43731740D02*
X71239107Y-43684121D01*
X71239107Y-43684121D02*
X71143869Y-43588883D01*
X71143869Y-43588883D02*
X71096250Y-43446026D01*
X71096250Y-43446026D02*
X71096250Y-43350788D01*
X71096250Y-43350788D02*
X71143869Y-43207931D01*
X71143869Y-43207931D02*
X71191488Y-43160312D01*
X71191488Y-42779359D02*
X71143869Y-42731740D01*
X71143869Y-42731740D02*
X71096250Y-42636502D01*
X71096250Y-42636502D02*
X71096250Y-42398407D01*
X71096250Y-42398407D02*
X71143869Y-42303169D01*
X71143869Y-42303169D02*
X71191488Y-42255550D01*
X71191488Y-42255550D02*
X71286726Y-42207931D01*
X71286726Y-42207931D02*
X71381964Y-42207931D01*
X71381964Y-42207931D02*
X71524821Y-42255550D01*
X71524821Y-42255550D02*
X72096250Y-42826978D01*
X72096250Y-42826978D02*
X72096250Y-42207931D01*
X70073101Y-46214484D02*
X70120721Y-46262103D01*
X70120721Y-46262103D02*
X70168340Y-46404960D01*
X70168340Y-46404960D02*
X70168340Y-46500198D01*
X70168340Y-46500198D02*
X70120721Y-46643055D01*
X70120721Y-46643055D02*
X70025482Y-46738293D01*
X70025482Y-46738293D02*
X69930244Y-46785912D01*
X69930244Y-46785912D02*
X69739768Y-46833531D01*
X69739768Y-46833531D02*
X69596911Y-46833531D01*
X69596911Y-46833531D02*
X69406435Y-46785912D01*
X69406435Y-46785912D02*
X69311197Y-46738293D01*
X69311197Y-46738293D02*
X69215959Y-46643055D01*
X69215959Y-46643055D02*
X69168340Y-46500198D01*
X69168340Y-46500198D02*
X69168340Y-46404960D01*
X69168340Y-46404960D02*
X69215959Y-46262103D01*
X69215959Y-46262103D02*
X69263578Y-46214484D01*
X70168340Y-45262103D02*
X70168340Y-45833531D01*
X70168340Y-45547817D02*
X69168340Y-45547817D01*
X69168340Y-45547817D02*
X69311197Y-45643055D01*
X69311197Y-45643055D02*
X69406435Y-45738293D01*
X69406435Y-45738293D02*
X69454054Y-45833531D01*
X69168340Y-44404960D02*
X69168340Y-44595436D01*
X69168340Y-44595436D02*
X69215959Y-44690674D01*
X69215959Y-44690674D02*
X69263578Y-44738293D01*
X69263578Y-44738293D02*
X69406435Y-44833531D01*
X69406435Y-44833531D02*
X69596911Y-44881150D01*
X69596911Y-44881150D02*
X69977863Y-44881150D01*
X69977863Y-44881150D02*
X70073101Y-44833531D01*
X70073101Y-44833531D02*
X70120721Y-44785912D01*
X70120721Y-44785912D02*
X70168340Y-44690674D01*
X70168340Y-44690674D02*
X70168340Y-44500198D01*
X70168340Y-44500198D02*
X70120721Y-44404960D01*
X70120721Y-44404960D02*
X70073101Y-44357341D01*
X70073101Y-44357341D02*
X69977863Y-44309722D01*
X69977863Y-44309722D02*
X69739768Y-44309722D01*
X69739768Y-44309722D02*
X69644530Y-44357341D01*
X69644530Y-44357341D02*
X69596911Y-44404960D01*
X69596911Y-44404960D02*
X69549292Y-44500198D01*
X69549292Y-44500198D02*
X69549292Y-44690674D01*
X69549292Y-44690674D02*
X69596911Y-44785912D01*
X69596911Y-44785912D02*
X69644530Y-44833531D01*
X69644530Y-44833531D02*
X69739768Y-44881150D01*
X78863646Y-62724517D02*
X78911266Y-62772136D01*
X78911266Y-62772136D02*
X78958885Y-62914993D01*
X78958885Y-62914993D02*
X78958885Y-63010231D01*
X78958885Y-63010231D02*
X78911266Y-63153088D01*
X78911266Y-63153088D02*
X78816027Y-63248326D01*
X78816027Y-63248326D02*
X78720789Y-63295945D01*
X78720789Y-63295945D02*
X78530313Y-63343564D01*
X78530313Y-63343564D02*
X78387456Y-63343564D01*
X78387456Y-63343564D02*
X78196980Y-63295945D01*
X78196980Y-63295945D02*
X78101742Y-63248326D01*
X78101742Y-63248326D02*
X78006504Y-63153088D01*
X78006504Y-63153088D02*
X77958885Y-63010231D01*
X77958885Y-63010231D02*
X77958885Y-62914993D01*
X77958885Y-62914993D02*
X78006504Y-62772136D01*
X78006504Y-62772136D02*
X78054123Y-62724517D01*
X78958885Y-61772136D02*
X78958885Y-62343564D01*
X78958885Y-62057850D02*
X77958885Y-62057850D01*
X77958885Y-62057850D02*
X78101742Y-62153088D01*
X78101742Y-62153088D02*
X78196980Y-62248326D01*
X78196980Y-62248326D02*
X78244599Y-62343564D01*
X77958885Y-61438802D02*
X77958885Y-60772136D01*
X77958885Y-60772136D02*
X78958885Y-61200707D01*
X80233408Y-54134251D02*
X80804836Y-54134251D01*
X80519122Y-55134251D02*
X80519122Y-54134251D01*
X81138170Y-55134251D02*
X81138170Y-54134251D01*
X81138170Y-54134251D02*
X81519122Y-54134251D01*
X81519122Y-54134251D02*
X81614360Y-54181870D01*
X81614360Y-54181870D02*
X81661979Y-54229489D01*
X81661979Y-54229489D02*
X81709598Y-54324727D01*
X81709598Y-54324727D02*
X81709598Y-54467584D01*
X81709598Y-54467584D02*
X81661979Y-54562822D01*
X81661979Y-54562822D02*
X81614360Y-54610441D01*
X81614360Y-54610441D02*
X81519122Y-54658060D01*
X81519122Y-54658060D02*
X81138170Y-54658060D01*
X82281027Y-54562822D02*
X82185789Y-54515203D01*
X82185789Y-54515203D02*
X82138170Y-54467584D01*
X82138170Y-54467584D02*
X82090551Y-54372346D01*
X82090551Y-54372346D02*
X82090551Y-54324727D01*
X82090551Y-54324727D02*
X82138170Y-54229489D01*
X82138170Y-54229489D02*
X82185789Y-54181870D01*
X82185789Y-54181870D02*
X82281027Y-54134251D01*
X82281027Y-54134251D02*
X82471503Y-54134251D01*
X82471503Y-54134251D02*
X82566741Y-54181870D01*
X82566741Y-54181870D02*
X82614360Y-54229489D01*
X82614360Y-54229489D02*
X82661979Y-54324727D01*
X82661979Y-54324727D02*
X82661979Y-54372346D01*
X82661979Y-54372346D02*
X82614360Y-54467584D01*
X82614360Y-54467584D02*
X82566741Y-54515203D01*
X82566741Y-54515203D02*
X82471503Y-54562822D01*
X82471503Y-54562822D02*
X82281027Y-54562822D01*
X82281027Y-54562822D02*
X82185789Y-54610441D01*
X82185789Y-54610441D02*
X82138170Y-54658060D01*
X82138170Y-54658060D02*
X82090551Y-54753298D01*
X82090551Y-54753298D02*
X82090551Y-54943774D01*
X82090551Y-54943774D02*
X82138170Y-55039012D01*
X82138170Y-55039012D02*
X82185789Y-55086632D01*
X82185789Y-55086632D02*
X82281027Y-55134251D01*
X82281027Y-55134251D02*
X82471503Y-55134251D01*
X82471503Y-55134251D02*
X82566741Y-55086632D01*
X82566741Y-55086632D02*
X82614360Y-55039012D01*
X82614360Y-55039012D02*
X82661979Y-54943774D01*
X82661979Y-54943774D02*
X82661979Y-54753298D01*
X82661979Y-54753298D02*
X82614360Y-54658060D01*
X82614360Y-54658060D02*
X82566741Y-54610441D01*
X82566741Y-54610441D02*
X82471503Y-54562822D01*
X77663284Y-30085225D02*
X77615665Y-30132845D01*
X77615665Y-30132845D02*
X77472808Y-30180464D01*
X77472808Y-30180464D02*
X77377570Y-30180464D01*
X77377570Y-30180464D02*
X77234713Y-30132845D01*
X77234713Y-30132845D02*
X77139475Y-30037606D01*
X77139475Y-30037606D02*
X77091856Y-29942368D01*
X77091856Y-29942368D02*
X77044237Y-29751892D01*
X77044237Y-29751892D02*
X77044237Y-29609035D01*
X77044237Y-29609035D02*
X77091856Y-29418559D01*
X77091856Y-29418559D02*
X77139475Y-29323321D01*
X77139475Y-29323321D02*
X77234713Y-29228083D01*
X77234713Y-29228083D02*
X77377570Y-29180464D01*
X77377570Y-29180464D02*
X77472808Y-29180464D01*
X77472808Y-29180464D02*
X77615665Y-29228083D01*
X77615665Y-29228083D02*
X77663284Y-29275702D01*
X78615665Y-30180464D02*
X78044237Y-30180464D01*
X78329951Y-30180464D02*
X78329951Y-29180464D01*
X78329951Y-29180464D02*
X78234713Y-29323321D01*
X78234713Y-29323321D02*
X78139475Y-29418559D01*
X78139475Y-29418559D02*
X78044237Y-29466178D01*
X79568046Y-30180464D02*
X78996618Y-30180464D01*
X79282332Y-30180464D02*
X79282332Y-29180464D01*
X79282332Y-29180464D02*
X79187094Y-29323321D01*
X79187094Y-29323321D02*
X79091856Y-29418559D01*
X79091856Y-29418559D02*
X78996618Y-29466178D01*
X68858275Y-51786308D02*
X68858275Y-52119641D01*
X69382085Y-52119641D02*
X68382085Y-52119641D01*
X68382085Y-52119641D02*
X68382085Y-51643451D01*
X68858275Y-50929165D02*
X68905894Y-50786308D01*
X68905894Y-50786308D02*
X68953513Y-50738689D01*
X68953513Y-50738689D02*
X69048751Y-50691070D01*
X69048751Y-50691070D02*
X69191608Y-50691070D01*
X69191608Y-50691070D02*
X69286846Y-50738689D01*
X69286846Y-50738689D02*
X69334466Y-50786308D01*
X69334466Y-50786308D02*
X69382085Y-50881546D01*
X69382085Y-50881546D02*
X69382085Y-51262498D01*
X69382085Y-51262498D02*
X68382085Y-51262498D01*
X68382085Y-51262498D02*
X68382085Y-50929165D01*
X68382085Y-50929165D02*
X68429704Y-50833927D01*
X68429704Y-50833927D02*
X68477323Y-50786308D01*
X68477323Y-50786308D02*
X68572561Y-50738689D01*
X68572561Y-50738689D02*
X68667799Y-50738689D01*
X68667799Y-50738689D02*
X68763037Y-50786308D01*
X68763037Y-50786308D02*
X68810656Y-50833927D01*
X68810656Y-50833927D02*
X68858275Y-50929165D01*
X68858275Y-50929165D02*
X68858275Y-51262498D01*
X69382085Y-49738689D02*
X69382085Y-50310117D01*
X69382085Y-50024403D02*
X68382085Y-50024403D01*
X68382085Y-50024403D02*
X68524942Y-50119641D01*
X68524942Y-50119641D02*
X68620180Y-50214879D01*
X68620180Y-50214879D02*
X68667799Y-50310117D01*
X44931167Y-54709053D02*
X44454976Y-55042386D01*
X44931167Y-55280481D02*
X43931167Y-55280481D01*
X43931167Y-55280481D02*
X43931167Y-54899529D01*
X43931167Y-54899529D02*
X43978786Y-54804291D01*
X43978786Y-54804291D02*
X44026405Y-54756672D01*
X44026405Y-54756672D02*
X44121643Y-54709053D01*
X44121643Y-54709053D02*
X44264500Y-54709053D01*
X44264500Y-54709053D02*
X44359738Y-54756672D01*
X44359738Y-54756672D02*
X44407357Y-54804291D01*
X44407357Y-54804291D02*
X44454976Y-54899529D01*
X44454976Y-54899529D02*
X44454976Y-55280481D01*
X44931167Y-53756672D02*
X44931167Y-54328100D01*
X44931167Y-54042386D02*
X43931167Y-54042386D01*
X43931167Y-54042386D02*
X44074024Y-54137624D01*
X44074024Y-54137624D02*
X44169262Y-54232862D01*
X44169262Y-54232862D02*
X44216881Y-54328100D01*
X43931167Y-52851910D02*
X43931167Y-53328100D01*
X43931167Y-53328100D02*
X44407357Y-53375719D01*
X44407357Y-53375719D02*
X44359738Y-53328100D01*
X44359738Y-53328100D02*
X44312119Y-53232862D01*
X44312119Y-53232862D02*
X44312119Y-52994767D01*
X44312119Y-52994767D02*
X44359738Y-52899529D01*
X44359738Y-52899529D02*
X44407357Y-52851910D01*
X44407357Y-52851910D02*
X44502595Y-52804291D01*
X44502595Y-52804291D02*
X44740690Y-52804291D01*
X44740690Y-52804291D02*
X44835928Y-52851910D01*
X44835928Y-52851910D02*
X44883548Y-52899529D01*
X44883548Y-52899529D02*
X44931167Y-52994767D01*
X44931167Y-52994767D02*
X44931167Y-53232862D01*
X44931167Y-53232862D02*
X44883548Y-53328100D01*
X44883548Y-53328100D02*
X44835928Y-53375719D01*
X61962890Y-47095580D02*
X61915271Y-47143200D01*
X61915271Y-47143200D02*
X61772414Y-47190819D01*
X61772414Y-47190819D02*
X61677176Y-47190819D01*
X61677176Y-47190819D02*
X61534319Y-47143200D01*
X61534319Y-47143200D02*
X61439081Y-47047961D01*
X61439081Y-47047961D02*
X61391462Y-46952723D01*
X61391462Y-46952723D02*
X61343843Y-46762247D01*
X61343843Y-46762247D02*
X61343843Y-46619390D01*
X61343843Y-46619390D02*
X61391462Y-46428914D01*
X61391462Y-46428914D02*
X61439081Y-46333676D01*
X61439081Y-46333676D02*
X61534319Y-46238438D01*
X61534319Y-46238438D02*
X61677176Y-46190819D01*
X61677176Y-46190819D02*
X61772414Y-46190819D01*
X61772414Y-46190819D02*
X61915271Y-46238438D01*
X61915271Y-46238438D02*
X61962890Y-46286057D01*
X62915271Y-47190819D02*
X62343843Y-47190819D01*
X62629557Y-47190819D02*
X62629557Y-46190819D01*
X62629557Y-46190819D02*
X62534319Y-46333676D01*
X62534319Y-46333676D02*
X62439081Y-46428914D01*
X62439081Y-46428914D02*
X62343843Y-46476533D01*
X42196666Y-28664819D02*
X42196666Y-29379104D01*
X42196666Y-29379104D02*
X42149047Y-29521961D01*
X42149047Y-29521961D02*
X42053809Y-29617200D01*
X42053809Y-29617200D02*
X41910952Y-29664819D01*
X41910952Y-29664819D02*
X41815714Y-29664819D01*
X43196666Y-29664819D02*
X42625238Y-29664819D01*
X42910952Y-29664819D02*
X42910952Y-28664819D01*
X42910952Y-28664819D02*
X42815714Y-28807676D01*
X42815714Y-28807676D02*
X42720476Y-28902914D01*
X42720476Y-28902914D02*
X42625238Y-28950533D01*
X87804666Y-26632819D02*
X87804666Y-27347104D01*
X87804666Y-27347104D02*
X87757047Y-27489961D01*
X87757047Y-27489961D02*
X87661809Y-27585200D01*
X87661809Y-27585200D02*
X87518952Y-27632819D01*
X87518952Y-27632819D02*
X87423714Y-27632819D01*
X88709428Y-26966152D02*
X88709428Y-27632819D01*
X88471333Y-26585200D02*
X88233238Y-27299485D01*
X88233238Y-27299485D02*
X88852285Y-27299485D01*
X73474142Y-49775580D02*
X73426523Y-49823200D01*
X73426523Y-49823200D02*
X73283666Y-49870819D01*
X73283666Y-49870819D02*
X73188428Y-49870819D01*
X73188428Y-49870819D02*
X73045571Y-49823200D01*
X73045571Y-49823200D02*
X72950333Y-49727961D01*
X72950333Y-49727961D02*
X72902714Y-49632723D01*
X72902714Y-49632723D02*
X72855095Y-49442247D01*
X72855095Y-49442247D02*
X72855095Y-49299390D01*
X72855095Y-49299390D02*
X72902714Y-49108914D01*
X72902714Y-49108914D02*
X72950333Y-49013676D01*
X72950333Y-49013676D02*
X73045571Y-48918438D01*
X73045571Y-48918438D02*
X73188428Y-48870819D01*
X73188428Y-48870819D02*
X73283666Y-48870819D01*
X73283666Y-48870819D02*
X73426523Y-48918438D01*
X73426523Y-48918438D02*
X73474142Y-48966057D01*
X74426523Y-49870819D02*
X73855095Y-49870819D01*
X74140809Y-49870819D02*
X74140809Y-48870819D01*
X74140809Y-48870819D02*
X74045571Y-49013676D01*
X74045571Y-49013676D02*
X73950333Y-49108914D01*
X73950333Y-49108914D02*
X73855095Y-49156533D01*
X75045571Y-48870819D02*
X75140809Y-48870819D01*
X75140809Y-48870819D02*
X75236047Y-48918438D01*
X75236047Y-48918438D02*
X75283666Y-48966057D01*
X75283666Y-48966057D02*
X75331285Y-49061295D01*
X75331285Y-49061295D02*
X75378904Y-49251771D01*
X75378904Y-49251771D02*
X75378904Y-49489866D01*
X75378904Y-49489866D02*
X75331285Y-49680342D01*
X75331285Y-49680342D02*
X75283666Y-49775580D01*
X75283666Y-49775580D02*
X75236047Y-49823200D01*
X75236047Y-49823200D02*
X75140809Y-49870819D01*
X75140809Y-49870819D02*
X75045571Y-49870819D01*
X75045571Y-49870819D02*
X74950333Y-49823200D01*
X74950333Y-49823200D02*
X74902714Y-49775580D01*
X74902714Y-49775580D02*
X74855095Y-49680342D01*
X74855095Y-49680342D02*
X74807476Y-49489866D01*
X74807476Y-49489866D02*
X74807476Y-49251771D01*
X74807476Y-49251771D02*
X74855095Y-49061295D01*
X74855095Y-49061295D02*
X74902714Y-48966057D01*
X74902714Y-48966057D02*
X74950333Y-48918438D01*
X74950333Y-48918438D02*
X75045571Y-48870819D01*
X66664054Y-35690486D02*
X66711674Y-35738105D01*
X66711674Y-35738105D02*
X66759293Y-35880962D01*
X66759293Y-35880962D02*
X66759293Y-35976200D01*
X66759293Y-35976200D02*
X66711674Y-36119057D01*
X66711674Y-36119057D02*
X66616435Y-36214295D01*
X66616435Y-36214295D02*
X66521197Y-36261914D01*
X66521197Y-36261914D02*
X66330721Y-36309533D01*
X66330721Y-36309533D02*
X66187864Y-36309533D01*
X66187864Y-36309533D02*
X65997388Y-36261914D01*
X65997388Y-36261914D02*
X65902150Y-36214295D01*
X65902150Y-36214295D02*
X65806912Y-36119057D01*
X65806912Y-36119057D02*
X65759293Y-35976200D01*
X65759293Y-35976200D02*
X65759293Y-35880962D01*
X65759293Y-35880962D02*
X65806912Y-35738105D01*
X65806912Y-35738105D02*
X65854531Y-35690486D01*
X65759293Y-34785724D02*
X65759293Y-35261914D01*
X65759293Y-35261914D02*
X66235483Y-35309533D01*
X66235483Y-35309533D02*
X66187864Y-35261914D01*
X66187864Y-35261914D02*
X66140245Y-35166676D01*
X66140245Y-35166676D02*
X66140245Y-34928581D01*
X66140245Y-34928581D02*
X66187864Y-34833343D01*
X66187864Y-34833343D02*
X66235483Y-34785724D01*
X66235483Y-34785724D02*
X66330721Y-34738105D01*
X66330721Y-34738105D02*
X66568816Y-34738105D01*
X66568816Y-34738105D02*
X66664054Y-34785724D01*
X66664054Y-34785724D02*
X66711674Y-34833343D01*
X66711674Y-34833343D02*
X66759293Y-34928581D01*
X66759293Y-34928581D02*
X66759293Y-35166676D01*
X66759293Y-35166676D02*
X66711674Y-35261914D01*
X66711674Y-35261914D02*
X66664054Y-35309533D01*
X83630195Y-29092419D02*
X83630195Y-29901942D01*
X83630195Y-29901942D02*
X83677814Y-29997180D01*
X83677814Y-29997180D02*
X83725433Y-30044800D01*
X83725433Y-30044800D02*
X83820671Y-30092419D01*
X83820671Y-30092419D02*
X84011147Y-30092419D01*
X84011147Y-30092419D02*
X84106385Y-30044800D01*
X84106385Y-30044800D02*
X84154004Y-29997180D01*
X84154004Y-29997180D02*
X84201623Y-29901942D01*
X84201623Y-29901942D02*
X84201623Y-29092419D01*
X85201623Y-30092419D02*
X84630195Y-30092419D01*
X84915909Y-30092419D02*
X84915909Y-29092419D01*
X84915909Y-29092419D02*
X84820671Y-29235276D01*
X84820671Y-29235276D02*
X84725433Y-29330514D01*
X84725433Y-29330514D02*
X84630195Y-29378133D01*
X103298666Y-76670819D02*
X103298666Y-77385104D01*
X103298666Y-77385104D02*
X103251047Y-77527961D01*
X103251047Y-77527961D02*
X103155809Y-77623200D01*
X103155809Y-77623200D02*
X103012952Y-77670819D01*
X103012952Y-77670819D02*
X102917714Y-77670819D01*
X103679619Y-76670819D02*
X104346285Y-76670819D01*
X104346285Y-76670819D02*
X103917714Y-77670819D01*
X61065580Y-48934666D02*
X61113200Y-48982285D01*
X61113200Y-48982285D02*
X61160819Y-49125142D01*
X61160819Y-49125142D02*
X61160819Y-49220380D01*
X61160819Y-49220380D02*
X61113200Y-49363237D01*
X61113200Y-49363237D02*
X61017961Y-49458475D01*
X61017961Y-49458475D02*
X60922723Y-49506094D01*
X60922723Y-49506094D02*
X60732247Y-49553713D01*
X60732247Y-49553713D02*
X60589390Y-49553713D01*
X60589390Y-49553713D02*
X60398914Y-49506094D01*
X60398914Y-49506094D02*
X60303676Y-49458475D01*
X60303676Y-49458475D02*
X60208438Y-49363237D01*
X60208438Y-49363237D02*
X60160819Y-49220380D01*
X60160819Y-49220380D02*
X60160819Y-49125142D01*
X60160819Y-49125142D02*
X60208438Y-48982285D01*
X60208438Y-48982285D02*
X60256057Y-48934666D01*
X60494152Y-48077523D02*
X61160819Y-48077523D01*
X60113200Y-48315618D02*
X60827485Y-48553713D01*
X60827485Y-48553713D02*
X60827485Y-47934666D01*
X40386095Y-50254819D02*
X40386095Y-51064342D01*
X40386095Y-51064342D02*
X40433714Y-51159580D01*
X40433714Y-51159580D02*
X40481333Y-51207200D01*
X40481333Y-51207200D02*
X40576571Y-51254819D01*
X40576571Y-51254819D02*
X40767047Y-51254819D01*
X40767047Y-51254819D02*
X40862285Y-51207200D01*
X40862285Y-51207200D02*
X40909904Y-51159580D01*
X40909904Y-51159580D02*
X40957523Y-51064342D01*
X40957523Y-51064342D02*
X40957523Y-50254819D01*
X41338476Y-50254819D02*
X41957523Y-50254819D01*
X41957523Y-50254819D02*
X41624190Y-50635771D01*
X41624190Y-50635771D02*
X41767047Y-50635771D01*
X41767047Y-50635771D02*
X41862285Y-50683390D01*
X41862285Y-50683390D02*
X41909904Y-50731009D01*
X41909904Y-50731009D02*
X41957523Y-50826247D01*
X41957523Y-50826247D02*
X41957523Y-51064342D01*
X41957523Y-51064342D02*
X41909904Y-51159580D01*
X41909904Y-51159580D02*
X41862285Y-51207200D01*
X41862285Y-51207200D02*
X41767047Y-51254819D01*
X41767047Y-51254819D02*
X41481333Y-51254819D01*
X41481333Y-51254819D02*
X41386095Y-51207200D01*
X41386095Y-51207200D02*
X41338476Y-51159580D01*
X88482139Y-42355216D02*
X88005948Y-42688549D01*
X88482139Y-42926644D02*
X87482139Y-42926644D01*
X87482139Y-42926644D02*
X87482139Y-42545692D01*
X87482139Y-42545692D02*
X87529758Y-42450454D01*
X87529758Y-42450454D02*
X87577377Y-42402835D01*
X87577377Y-42402835D02*
X87672615Y-42355216D01*
X87672615Y-42355216D02*
X87815472Y-42355216D01*
X87815472Y-42355216D02*
X87910710Y-42402835D01*
X87910710Y-42402835D02*
X87958329Y-42450454D01*
X87958329Y-42450454D02*
X88005948Y-42545692D01*
X88005948Y-42545692D02*
X88005948Y-42926644D01*
X88482139Y-41402835D02*
X88482139Y-41974263D01*
X88482139Y-41688549D02*
X87482139Y-41688549D01*
X87482139Y-41688549D02*
X87624996Y-41783787D01*
X87624996Y-41783787D02*
X87720234Y-41879025D01*
X87720234Y-41879025D02*
X87767853Y-41974263D01*
X88482139Y-40926644D02*
X88482139Y-40736168D01*
X88482139Y-40736168D02*
X88434520Y-40640930D01*
X88434520Y-40640930D02*
X88386900Y-40593311D01*
X88386900Y-40593311D02*
X88244043Y-40498073D01*
X88244043Y-40498073D02*
X88053567Y-40450454D01*
X88053567Y-40450454D02*
X87672615Y-40450454D01*
X87672615Y-40450454D02*
X87577377Y-40498073D01*
X87577377Y-40498073D02*
X87529758Y-40545692D01*
X87529758Y-40545692D02*
X87482139Y-40640930D01*
X87482139Y-40640930D02*
X87482139Y-40831406D01*
X87482139Y-40831406D02*
X87529758Y-40926644D01*
X87529758Y-40926644D02*
X87577377Y-40974263D01*
X87577377Y-40974263D02*
X87672615Y-41021882D01*
X87672615Y-41021882D02*
X87910710Y-41021882D01*
X87910710Y-41021882D02*
X88005948Y-40974263D01*
X88005948Y-40974263D02*
X88053567Y-40926644D01*
X88053567Y-40926644D02*
X88101186Y-40831406D01*
X88101186Y-40831406D02*
X88101186Y-40640930D01*
X88101186Y-40640930D02*
X88053567Y-40545692D01*
X88053567Y-40545692D02*
X88005948Y-40498073D01*
X88005948Y-40498073D02*
X87910710Y-40450454D01*
X54302819Y-27954266D02*
X53826628Y-28287599D01*
X54302819Y-28525694D02*
X53302819Y-28525694D01*
X53302819Y-28525694D02*
X53302819Y-28144742D01*
X53302819Y-28144742D02*
X53350438Y-28049504D01*
X53350438Y-28049504D02*
X53398057Y-28001885D01*
X53398057Y-28001885D02*
X53493295Y-27954266D01*
X53493295Y-27954266D02*
X53636152Y-27954266D01*
X53636152Y-27954266D02*
X53731390Y-28001885D01*
X53731390Y-28001885D02*
X53779009Y-28049504D01*
X53779009Y-28049504D02*
X53826628Y-28144742D01*
X53826628Y-28144742D02*
X53826628Y-28525694D01*
X53636152Y-27097123D02*
X54302819Y-27097123D01*
X53255200Y-27335218D02*
X53969485Y-27573313D01*
X53969485Y-27573313D02*
X53969485Y-26954266D01*
X94996095Y-47714819D02*
X94996095Y-48524342D01*
X94996095Y-48524342D02*
X95043714Y-48619580D01*
X95043714Y-48619580D02*
X95091333Y-48667200D01*
X95091333Y-48667200D02*
X95186571Y-48714819D01*
X95186571Y-48714819D02*
X95377047Y-48714819D01*
X95377047Y-48714819D02*
X95472285Y-48667200D01*
X95472285Y-48667200D02*
X95519904Y-48619580D01*
X95519904Y-48619580D02*
X95567523Y-48524342D01*
X95567523Y-48524342D02*
X95567523Y-47714819D01*
X96519904Y-47714819D02*
X96043714Y-47714819D01*
X96043714Y-47714819D02*
X95996095Y-48191009D01*
X95996095Y-48191009D02*
X96043714Y-48143390D01*
X96043714Y-48143390D02*
X96138952Y-48095771D01*
X96138952Y-48095771D02*
X96377047Y-48095771D01*
X96377047Y-48095771D02*
X96472285Y-48143390D01*
X96472285Y-48143390D02*
X96519904Y-48191009D01*
X96519904Y-48191009D02*
X96567523Y-48286247D01*
X96567523Y-48286247D02*
X96567523Y-48524342D01*
X96567523Y-48524342D02*
X96519904Y-48619580D01*
X96519904Y-48619580D02*
X96472285Y-48667200D01*
X96472285Y-48667200D02*
X96377047Y-48714819D01*
X96377047Y-48714819D02*
X96138952Y-48714819D01*
X96138952Y-48714819D02*
X96043714Y-48667200D01*
X96043714Y-48667200D02*
X95996095Y-48619580D01*
X83024742Y-38815180D02*
X82977123Y-38862800D01*
X82977123Y-38862800D02*
X82834266Y-38910419D01*
X82834266Y-38910419D02*
X82739028Y-38910419D01*
X82739028Y-38910419D02*
X82596171Y-38862800D01*
X82596171Y-38862800D02*
X82500933Y-38767561D01*
X82500933Y-38767561D02*
X82453314Y-38672323D01*
X82453314Y-38672323D02*
X82405695Y-38481847D01*
X82405695Y-38481847D02*
X82405695Y-38338990D01*
X82405695Y-38338990D02*
X82453314Y-38148514D01*
X82453314Y-38148514D02*
X82500933Y-38053276D01*
X82500933Y-38053276D02*
X82596171Y-37958038D01*
X82596171Y-37958038D02*
X82739028Y-37910419D01*
X82739028Y-37910419D02*
X82834266Y-37910419D01*
X82834266Y-37910419D02*
X82977123Y-37958038D01*
X82977123Y-37958038D02*
X83024742Y-38005657D01*
X83977123Y-38910419D02*
X83405695Y-38910419D01*
X83691409Y-38910419D02*
X83691409Y-37910419D01*
X83691409Y-37910419D02*
X83596171Y-38053276D01*
X83596171Y-38053276D02*
X83500933Y-38148514D01*
X83500933Y-38148514D02*
X83405695Y-38196133D01*
X84834266Y-38243752D02*
X84834266Y-38910419D01*
X84596171Y-37862800D02*
X84358076Y-38577085D01*
X84358076Y-38577085D02*
X84977123Y-38577085D01*
X47885798Y-55212325D02*
X47409607Y-55545658D01*
X47885798Y-55783753D02*
X46885798Y-55783753D01*
X46885798Y-55783753D02*
X46885798Y-55402801D01*
X46885798Y-55402801D02*
X46933417Y-55307563D01*
X46933417Y-55307563D02*
X46981036Y-55259944D01*
X46981036Y-55259944D02*
X47076274Y-55212325D01*
X47076274Y-55212325D02*
X47219131Y-55212325D01*
X47219131Y-55212325D02*
X47314369Y-55259944D01*
X47314369Y-55259944D02*
X47361988Y-55307563D01*
X47361988Y-55307563D02*
X47409607Y-55402801D01*
X47409607Y-55402801D02*
X47409607Y-55783753D01*
X47885798Y-54259944D02*
X47885798Y-54831372D01*
X47885798Y-54545658D02*
X46885798Y-54545658D01*
X46885798Y-54545658D02*
X47028655Y-54640896D01*
X47028655Y-54640896D02*
X47123893Y-54736134D01*
X47123893Y-54736134D02*
X47171512Y-54831372D01*
X46981036Y-53878991D02*
X46933417Y-53831372D01*
X46933417Y-53831372D02*
X46885798Y-53736134D01*
X46885798Y-53736134D02*
X46885798Y-53498039D01*
X46885798Y-53498039D02*
X46933417Y-53402801D01*
X46933417Y-53402801D02*
X46981036Y-53355182D01*
X46981036Y-53355182D02*
X47076274Y-53307563D01*
X47076274Y-53307563D02*
X47171512Y-53307563D01*
X47171512Y-53307563D02*
X47314369Y-53355182D01*
X47314369Y-53355182D02*
X47885798Y-53926610D01*
X47885798Y-53926610D02*
X47885798Y-53307563D01*
X99750666Y-60160819D02*
X99750666Y-60875104D01*
X99750666Y-60875104D02*
X99703047Y-61017961D01*
X99703047Y-61017961D02*
X99607809Y-61113200D01*
X99607809Y-61113200D02*
X99464952Y-61160819D01*
X99464952Y-61160819D02*
X99369714Y-61160819D01*
X100226857Y-61160819D02*
X100226857Y-60160819D01*
X100226857Y-60160819D02*
X100607809Y-60160819D01*
X100607809Y-60160819D02*
X100703047Y-60208438D01*
X100703047Y-60208438D02*
X100750666Y-60256057D01*
X100750666Y-60256057D02*
X100798285Y-60351295D01*
X100798285Y-60351295D02*
X100798285Y-60494152D01*
X100798285Y-60494152D02*
X100750666Y-60589390D01*
X100750666Y-60589390D02*
X100703047Y-60637009D01*
X100703047Y-60637009D02*
X100607809Y-60684628D01*
X100607809Y-60684628D02*
X100226857Y-60684628D01*
X101179238Y-60256057D02*
X101226857Y-60208438D01*
X101226857Y-60208438D02*
X101322095Y-60160819D01*
X101322095Y-60160819D02*
X101560190Y-60160819D01*
X101560190Y-60160819D02*
X101655428Y-60208438D01*
X101655428Y-60208438D02*
X101703047Y-60256057D01*
X101703047Y-60256057D02*
X101750666Y-60351295D01*
X101750666Y-60351295D02*
X101750666Y-60446533D01*
X101750666Y-60446533D02*
X101703047Y-60589390D01*
X101703047Y-60589390D02*
X101131619Y-61160819D01*
X101131619Y-61160819D02*
X101750666Y-61160819D01*
X73442332Y-48068940D02*
X73394713Y-48116560D01*
X73394713Y-48116560D02*
X73251856Y-48164179D01*
X73251856Y-48164179D02*
X73156618Y-48164179D01*
X73156618Y-48164179D02*
X73013761Y-48116560D01*
X73013761Y-48116560D02*
X72918523Y-48021321D01*
X72918523Y-48021321D02*
X72870904Y-47926083D01*
X72870904Y-47926083D02*
X72823285Y-47735607D01*
X72823285Y-47735607D02*
X72823285Y-47592750D01*
X72823285Y-47592750D02*
X72870904Y-47402274D01*
X72870904Y-47402274D02*
X72918523Y-47307036D01*
X72918523Y-47307036D02*
X73013761Y-47211798D01*
X73013761Y-47211798D02*
X73156618Y-47164179D01*
X73156618Y-47164179D02*
X73251856Y-47164179D01*
X73251856Y-47164179D02*
X73394713Y-47211798D01*
X73394713Y-47211798D02*
X73442332Y-47259417D01*
X73918523Y-48164179D02*
X74108999Y-48164179D01*
X74108999Y-48164179D02*
X74204237Y-48116560D01*
X74204237Y-48116560D02*
X74251856Y-48068940D01*
X74251856Y-48068940D02*
X74347094Y-47926083D01*
X74347094Y-47926083D02*
X74394713Y-47735607D01*
X74394713Y-47735607D02*
X74394713Y-47354655D01*
X74394713Y-47354655D02*
X74347094Y-47259417D01*
X74347094Y-47259417D02*
X74299475Y-47211798D01*
X74299475Y-47211798D02*
X74204237Y-47164179D01*
X74204237Y-47164179D02*
X74013761Y-47164179D01*
X74013761Y-47164179D02*
X73918523Y-47211798D01*
X73918523Y-47211798D02*
X73870904Y-47259417D01*
X73870904Y-47259417D02*
X73823285Y-47354655D01*
X73823285Y-47354655D02*
X73823285Y-47592750D01*
X73823285Y-47592750D02*
X73870904Y-47687988D01*
X73870904Y-47687988D02*
X73918523Y-47735607D01*
X73918523Y-47735607D02*
X74013761Y-47783226D01*
X74013761Y-47783226D02*
X74204237Y-47783226D01*
X74204237Y-47783226D02*
X74299475Y-47735607D01*
X74299475Y-47735607D02*
X74347094Y-47687988D01*
X74347094Y-47687988D02*
X74394713Y-47592750D01*
X76559580Y-41790857D02*
X76607200Y-41838476D01*
X76607200Y-41838476D02*
X76654819Y-41981333D01*
X76654819Y-41981333D02*
X76654819Y-42076571D01*
X76654819Y-42076571D02*
X76607200Y-42219428D01*
X76607200Y-42219428D02*
X76511961Y-42314666D01*
X76511961Y-42314666D02*
X76416723Y-42362285D01*
X76416723Y-42362285D02*
X76226247Y-42409904D01*
X76226247Y-42409904D02*
X76083390Y-42409904D01*
X76083390Y-42409904D02*
X75892914Y-42362285D01*
X75892914Y-42362285D02*
X75797676Y-42314666D01*
X75797676Y-42314666D02*
X75702438Y-42219428D01*
X75702438Y-42219428D02*
X75654819Y-42076571D01*
X75654819Y-42076571D02*
X75654819Y-41981333D01*
X75654819Y-41981333D02*
X75702438Y-41838476D01*
X75702438Y-41838476D02*
X75750057Y-41790857D01*
X76654819Y-40838476D02*
X76654819Y-41409904D01*
X76654819Y-41124190D02*
X75654819Y-41124190D01*
X75654819Y-41124190D02*
X75797676Y-41219428D01*
X75797676Y-41219428D02*
X75892914Y-41314666D01*
X75892914Y-41314666D02*
X75940533Y-41409904D01*
X75654819Y-40505142D02*
X75654819Y-39886095D01*
X75654819Y-39886095D02*
X76035771Y-40219428D01*
X76035771Y-40219428D02*
X76035771Y-40076571D01*
X76035771Y-40076571D02*
X76083390Y-39981333D01*
X76083390Y-39981333D02*
X76131009Y-39933714D01*
X76131009Y-39933714D02*
X76226247Y-39886095D01*
X76226247Y-39886095D02*
X76464342Y-39886095D01*
X76464342Y-39886095D02*
X76559580Y-39933714D01*
X76559580Y-39933714D02*
X76607200Y-39981333D01*
X76607200Y-39981333D02*
X76654819Y-40076571D01*
X76654819Y-40076571D02*
X76654819Y-40362285D01*
X76654819Y-40362285D02*
X76607200Y-40457523D01*
X76607200Y-40457523D02*
X76559580Y-40505142D01*
X103552666Y-71590819D02*
X103552666Y-72305104D01*
X103552666Y-72305104D02*
X103505047Y-72447961D01*
X103505047Y-72447961D02*
X103409809Y-72543200D01*
X103409809Y-72543200D02*
X103266952Y-72590819D01*
X103266952Y-72590819D02*
X103171714Y-72590819D01*
X104076476Y-72590819D02*
X104266952Y-72590819D01*
X104266952Y-72590819D02*
X104362190Y-72543200D01*
X104362190Y-72543200D02*
X104409809Y-72495580D01*
X104409809Y-72495580D02*
X104505047Y-72352723D01*
X104505047Y-72352723D02*
X104552666Y-72162247D01*
X104552666Y-72162247D02*
X104552666Y-71781295D01*
X104552666Y-71781295D02*
X104505047Y-71686057D01*
X104505047Y-71686057D02*
X104457428Y-71638438D01*
X104457428Y-71638438D02*
X104362190Y-71590819D01*
X104362190Y-71590819D02*
X104171714Y-71590819D01*
X104171714Y-71590819D02*
X104076476Y-71638438D01*
X104076476Y-71638438D02*
X104028857Y-71686057D01*
X104028857Y-71686057D02*
X103981238Y-71781295D01*
X103981238Y-71781295D02*
X103981238Y-72019390D01*
X103981238Y-72019390D02*
X104028857Y-72114628D01*
X104028857Y-72114628D02*
X104076476Y-72162247D01*
X104076476Y-72162247D02*
X104171714Y-72209866D01*
X104171714Y-72209866D02*
X104362190Y-72209866D01*
X104362190Y-72209866D02*
X104457428Y-72162247D01*
X104457428Y-72162247D02*
X104505047Y-72114628D01*
X104505047Y-72114628D02*
X104552666Y-72019390D01*
X42624476Y-30442819D02*
X42624476Y-31157104D01*
X42624476Y-31157104D02*
X42576857Y-31299961D01*
X42576857Y-31299961D02*
X42481619Y-31395200D01*
X42481619Y-31395200D02*
X42338762Y-31442819D01*
X42338762Y-31442819D02*
X42243524Y-31442819D01*
X43624476Y-31442819D02*
X43053048Y-31442819D01*
X43338762Y-31442819D02*
X43338762Y-30442819D01*
X43338762Y-30442819D02*
X43243524Y-30585676D01*
X43243524Y-30585676D02*
X43148286Y-30680914D01*
X43148286Y-30680914D02*
X43053048Y-30728533D01*
X44481619Y-30776152D02*
X44481619Y-31442819D01*
X44243524Y-30395200D02*
X44005429Y-31109485D01*
X44005429Y-31109485D02*
X44624476Y-31109485D01*
X75104666Y-76670819D02*
X75104666Y-77385104D01*
X75104666Y-77385104D02*
X75057047Y-77527961D01*
X75057047Y-77527961D02*
X74961809Y-77623200D01*
X74961809Y-77623200D02*
X74818952Y-77670819D01*
X74818952Y-77670819D02*
X74723714Y-77670819D01*
X75485619Y-76670819D02*
X76104666Y-76670819D01*
X76104666Y-76670819D02*
X75771333Y-77051771D01*
X75771333Y-77051771D02*
X75914190Y-77051771D01*
X75914190Y-77051771D02*
X76009428Y-77099390D01*
X76009428Y-77099390D02*
X76057047Y-77147009D01*
X76057047Y-77147009D02*
X76104666Y-77242247D01*
X76104666Y-77242247D02*
X76104666Y-77480342D01*
X76104666Y-77480342D02*
X76057047Y-77575580D01*
X76057047Y-77575580D02*
X76009428Y-77623200D01*
X76009428Y-77623200D02*
X75914190Y-77670819D01*
X75914190Y-77670819D02*
X75628476Y-77670819D01*
X75628476Y-77670819D02*
X75533238Y-77623200D01*
X75533238Y-77623200D02*
X75485619Y-77575580D01*
X42934095Y-40478819D02*
X43505523Y-40478819D01*
X43219809Y-41478819D02*
X43219809Y-40478819D01*
X43838857Y-41478819D02*
X43838857Y-40478819D01*
X43838857Y-40478819D02*
X44219809Y-40478819D01*
X44219809Y-40478819D02*
X44315047Y-40526438D01*
X44315047Y-40526438D02*
X44362666Y-40574057D01*
X44362666Y-40574057D02*
X44410285Y-40669295D01*
X44410285Y-40669295D02*
X44410285Y-40812152D01*
X44410285Y-40812152D02*
X44362666Y-40907390D01*
X44362666Y-40907390D02*
X44315047Y-40955009D01*
X44315047Y-40955009D02*
X44219809Y-41002628D01*
X44219809Y-41002628D02*
X43838857Y-41002628D01*
X45267428Y-40812152D02*
X45267428Y-41478819D01*
X45029333Y-40431200D02*
X44791238Y-41145485D01*
X44791238Y-41145485D02*
X45410285Y-41145485D01*
X75385447Y-71007832D02*
X75052114Y-70531641D01*
X74814019Y-71007832D02*
X74814019Y-70007832D01*
X74814019Y-70007832D02*
X75194971Y-70007832D01*
X75194971Y-70007832D02*
X75290209Y-70055451D01*
X75290209Y-70055451D02*
X75337828Y-70103070D01*
X75337828Y-70103070D02*
X75385447Y-70198308D01*
X75385447Y-70198308D02*
X75385447Y-70341165D01*
X75385447Y-70341165D02*
X75337828Y-70436403D01*
X75337828Y-70436403D02*
X75290209Y-70484022D01*
X75290209Y-70484022D02*
X75194971Y-70531641D01*
X75194971Y-70531641D02*
X74814019Y-70531641D01*
X76242590Y-70007832D02*
X76052114Y-70007832D01*
X76052114Y-70007832D02*
X75956876Y-70055451D01*
X75956876Y-70055451D02*
X75909257Y-70103070D01*
X75909257Y-70103070D02*
X75814019Y-70245927D01*
X75814019Y-70245927D02*
X75766400Y-70436403D01*
X75766400Y-70436403D02*
X75766400Y-70817355D01*
X75766400Y-70817355D02*
X75814019Y-70912593D01*
X75814019Y-70912593D02*
X75861638Y-70960213D01*
X75861638Y-70960213D02*
X75956876Y-71007832D01*
X75956876Y-71007832D02*
X76147352Y-71007832D01*
X76147352Y-71007832D02*
X76242590Y-70960213D01*
X76242590Y-70960213D02*
X76290209Y-70912593D01*
X76290209Y-70912593D02*
X76337828Y-70817355D01*
X76337828Y-70817355D02*
X76337828Y-70579260D01*
X76337828Y-70579260D02*
X76290209Y-70484022D01*
X76290209Y-70484022D02*
X76242590Y-70436403D01*
X76242590Y-70436403D02*
X76147352Y-70388784D01*
X76147352Y-70388784D02*
X75956876Y-70388784D01*
X75956876Y-70388784D02*
X75861638Y-70436403D01*
X75861638Y-70436403D02*
X75814019Y-70484022D01*
X75814019Y-70484022D02*
X75766400Y-70579260D01*
X56185486Y-53336614D02*
X56137867Y-53384234D01*
X56137867Y-53384234D02*
X55995010Y-53431853D01*
X55995010Y-53431853D02*
X55899772Y-53431853D01*
X55899772Y-53431853D02*
X55756915Y-53384234D01*
X55756915Y-53384234D02*
X55661677Y-53288995D01*
X55661677Y-53288995D02*
X55614058Y-53193757D01*
X55614058Y-53193757D02*
X55566439Y-53003281D01*
X55566439Y-53003281D02*
X55566439Y-52860424D01*
X55566439Y-52860424D02*
X55614058Y-52669948D01*
X55614058Y-52669948D02*
X55661677Y-52574710D01*
X55661677Y-52574710D02*
X55756915Y-52479472D01*
X55756915Y-52479472D02*
X55899772Y-52431853D01*
X55899772Y-52431853D02*
X55995010Y-52431853D01*
X55995010Y-52431853D02*
X56137867Y-52479472D01*
X56137867Y-52479472D02*
X56185486Y-52527091D01*
X56566439Y-52527091D02*
X56614058Y-52479472D01*
X56614058Y-52479472D02*
X56709296Y-52431853D01*
X56709296Y-52431853D02*
X56947391Y-52431853D01*
X56947391Y-52431853D02*
X57042629Y-52479472D01*
X57042629Y-52479472D02*
X57090248Y-52527091D01*
X57090248Y-52527091D02*
X57137867Y-52622329D01*
X57137867Y-52622329D02*
X57137867Y-52717567D01*
X57137867Y-52717567D02*
X57090248Y-52860424D01*
X57090248Y-52860424D02*
X56518820Y-53431853D01*
X56518820Y-53431853D02*
X57137867Y-53431853D01*
X57471201Y-52431853D02*
X58137867Y-52431853D01*
X58137867Y-52431853D02*
X57709296Y-53431853D01*
X53892031Y-45263025D02*
X53939651Y-45310644D01*
X53939651Y-45310644D02*
X53987270Y-45453501D01*
X53987270Y-45453501D02*
X53987270Y-45548739D01*
X53987270Y-45548739D02*
X53939651Y-45691596D01*
X53939651Y-45691596D02*
X53844412Y-45786834D01*
X53844412Y-45786834D02*
X53749174Y-45834453D01*
X53749174Y-45834453D02*
X53558698Y-45882072D01*
X53558698Y-45882072D02*
X53415841Y-45882072D01*
X53415841Y-45882072D02*
X53225365Y-45834453D01*
X53225365Y-45834453D02*
X53130127Y-45786834D01*
X53130127Y-45786834D02*
X53034889Y-45691596D01*
X53034889Y-45691596D02*
X52987270Y-45548739D01*
X52987270Y-45548739D02*
X52987270Y-45453501D01*
X52987270Y-45453501D02*
X53034889Y-45310644D01*
X53034889Y-45310644D02*
X53082508Y-45263025D01*
X53082508Y-44882072D02*
X53034889Y-44834453D01*
X53034889Y-44834453D02*
X52987270Y-44739215D01*
X52987270Y-44739215D02*
X52987270Y-44501120D01*
X52987270Y-44501120D02*
X53034889Y-44405882D01*
X53034889Y-44405882D02*
X53082508Y-44358263D01*
X53082508Y-44358263D02*
X53177746Y-44310644D01*
X53177746Y-44310644D02*
X53272984Y-44310644D01*
X53272984Y-44310644D02*
X53415841Y-44358263D01*
X53415841Y-44358263D02*
X53987270Y-44929691D01*
X53987270Y-44929691D02*
X53987270Y-44310644D01*
X53987270Y-43834453D02*
X53987270Y-43643977D01*
X53987270Y-43643977D02*
X53939651Y-43548739D01*
X53939651Y-43548739D02*
X53892031Y-43501120D01*
X53892031Y-43501120D02*
X53749174Y-43405882D01*
X53749174Y-43405882D02*
X53558698Y-43358263D01*
X53558698Y-43358263D02*
X53177746Y-43358263D01*
X53177746Y-43358263D02*
X53082508Y-43405882D01*
X53082508Y-43405882D02*
X53034889Y-43453501D01*
X53034889Y-43453501D02*
X52987270Y-43548739D01*
X52987270Y-43548739D02*
X52987270Y-43739215D01*
X52987270Y-43739215D02*
X53034889Y-43834453D01*
X53034889Y-43834453D02*
X53082508Y-43882072D01*
X53082508Y-43882072D02*
X53177746Y-43929691D01*
X53177746Y-43929691D02*
X53415841Y-43929691D01*
X53415841Y-43929691D02*
X53511079Y-43882072D01*
X53511079Y-43882072D02*
X53558698Y-43834453D01*
X53558698Y-43834453D02*
X53606317Y-43739215D01*
X53606317Y-43739215D02*
X53606317Y-43548739D01*
X53606317Y-43548739D02*
X53558698Y-43453501D01*
X53558698Y-43453501D02*
X53511079Y-43405882D01*
X53511079Y-43405882D02*
X53415841Y-43358263D01*
X89862819Y-43060857D02*
X89386628Y-43394190D01*
X89862819Y-43632285D02*
X88862819Y-43632285D01*
X88862819Y-43632285D02*
X88862819Y-43251333D01*
X88862819Y-43251333D02*
X88910438Y-43156095D01*
X88910438Y-43156095D02*
X88958057Y-43108476D01*
X88958057Y-43108476D02*
X89053295Y-43060857D01*
X89053295Y-43060857D02*
X89196152Y-43060857D01*
X89196152Y-43060857D02*
X89291390Y-43108476D01*
X89291390Y-43108476D02*
X89339009Y-43156095D01*
X89339009Y-43156095D02*
X89386628Y-43251333D01*
X89386628Y-43251333D02*
X89386628Y-43632285D01*
X89862819Y-42108476D02*
X89862819Y-42679904D01*
X89862819Y-42394190D02*
X88862819Y-42394190D01*
X88862819Y-42394190D02*
X89005676Y-42489428D01*
X89005676Y-42489428D02*
X89100914Y-42584666D01*
X89100914Y-42584666D02*
X89148533Y-42679904D01*
X89291390Y-41537047D02*
X89243771Y-41632285D01*
X89243771Y-41632285D02*
X89196152Y-41679904D01*
X89196152Y-41679904D02*
X89100914Y-41727523D01*
X89100914Y-41727523D02*
X89053295Y-41727523D01*
X89053295Y-41727523D02*
X88958057Y-41679904D01*
X88958057Y-41679904D02*
X88910438Y-41632285D01*
X88910438Y-41632285D02*
X88862819Y-41537047D01*
X88862819Y-41537047D02*
X88862819Y-41346571D01*
X88862819Y-41346571D02*
X88910438Y-41251333D01*
X88910438Y-41251333D02*
X88958057Y-41203714D01*
X88958057Y-41203714D02*
X89053295Y-41156095D01*
X89053295Y-41156095D02*
X89100914Y-41156095D01*
X89100914Y-41156095D02*
X89196152Y-41203714D01*
X89196152Y-41203714D02*
X89243771Y-41251333D01*
X89243771Y-41251333D02*
X89291390Y-41346571D01*
X89291390Y-41346571D02*
X89291390Y-41537047D01*
X89291390Y-41537047D02*
X89339009Y-41632285D01*
X89339009Y-41632285D02*
X89386628Y-41679904D01*
X89386628Y-41679904D02*
X89481866Y-41727523D01*
X89481866Y-41727523D02*
X89672342Y-41727523D01*
X89672342Y-41727523D02*
X89767580Y-41679904D01*
X89767580Y-41679904D02*
X89815200Y-41632285D01*
X89815200Y-41632285D02*
X89862819Y-41537047D01*
X89862819Y-41537047D02*
X89862819Y-41346571D01*
X89862819Y-41346571D02*
X89815200Y-41251333D01*
X89815200Y-41251333D02*
X89767580Y-41203714D01*
X89767580Y-41203714D02*
X89672342Y-41156095D01*
X89672342Y-41156095D02*
X89481866Y-41156095D01*
X89481866Y-41156095D02*
X89386628Y-41203714D01*
X89386628Y-41203714D02*
X89339009Y-41251333D01*
X89339009Y-41251333D02*
X89291390Y-41346571D01*
X84955142Y-43379580D02*
X84907523Y-43427200D01*
X84907523Y-43427200D02*
X84764666Y-43474819D01*
X84764666Y-43474819D02*
X84669428Y-43474819D01*
X84669428Y-43474819D02*
X84526571Y-43427200D01*
X84526571Y-43427200D02*
X84431333Y-43331961D01*
X84431333Y-43331961D02*
X84383714Y-43236723D01*
X84383714Y-43236723D02*
X84336095Y-43046247D01*
X84336095Y-43046247D02*
X84336095Y-42903390D01*
X84336095Y-42903390D02*
X84383714Y-42712914D01*
X84383714Y-42712914D02*
X84431333Y-42617676D01*
X84431333Y-42617676D02*
X84526571Y-42522438D01*
X84526571Y-42522438D02*
X84669428Y-42474819D01*
X84669428Y-42474819D02*
X84764666Y-42474819D01*
X84764666Y-42474819D02*
X84907523Y-42522438D01*
X84907523Y-42522438D02*
X84955142Y-42570057D01*
X85288476Y-42474819D02*
X85907523Y-42474819D01*
X85907523Y-42474819D02*
X85574190Y-42855771D01*
X85574190Y-42855771D02*
X85717047Y-42855771D01*
X85717047Y-42855771D02*
X85812285Y-42903390D01*
X85812285Y-42903390D02*
X85859904Y-42951009D01*
X85859904Y-42951009D02*
X85907523Y-43046247D01*
X85907523Y-43046247D02*
X85907523Y-43284342D01*
X85907523Y-43284342D02*
X85859904Y-43379580D01*
X85859904Y-43379580D02*
X85812285Y-43427200D01*
X85812285Y-43427200D02*
X85717047Y-43474819D01*
X85717047Y-43474819D02*
X85431333Y-43474819D01*
X85431333Y-43474819D02*
X85336095Y-43427200D01*
X85336095Y-43427200D02*
X85288476Y-43379580D01*
X86859904Y-43474819D02*
X86288476Y-43474819D01*
X86574190Y-43474819D02*
X86574190Y-42474819D01*
X86574190Y-42474819D02*
X86478952Y-42617676D01*
X86478952Y-42617676D02*
X86383714Y-42712914D01*
X86383714Y-42712914D02*
X86288476Y-42760533D01*
X56493580Y-48782955D02*
X56541200Y-48830574D01*
X56541200Y-48830574D02*
X56588819Y-48973431D01*
X56588819Y-48973431D02*
X56588819Y-49068669D01*
X56588819Y-49068669D02*
X56541200Y-49211526D01*
X56541200Y-49211526D02*
X56445961Y-49306764D01*
X56445961Y-49306764D02*
X56350723Y-49354383D01*
X56350723Y-49354383D02*
X56160247Y-49402002D01*
X56160247Y-49402002D02*
X56017390Y-49402002D01*
X56017390Y-49402002D02*
X55826914Y-49354383D01*
X55826914Y-49354383D02*
X55731676Y-49306764D01*
X55731676Y-49306764D02*
X55636438Y-49211526D01*
X55636438Y-49211526D02*
X55588819Y-49068669D01*
X55588819Y-49068669D02*
X55588819Y-48973431D01*
X55588819Y-48973431D02*
X55636438Y-48830574D01*
X55636438Y-48830574D02*
X55684057Y-48782955D01*
X55684057Y-48402002D02*
X55636438Y-48354383D01*
X55636438Y-48354383D02*
X55588819Y-48259145D01*
X55588819Y-48259145D02*
X55588819Y-48021050D01*
X55588819Y-48021050D02*
X55636438Y-47925812D01*
X55636438Y-47925812D02*
X55684057Y-47878193D01*
X55684057Y-47878193D02*
X55779295Y-47830574D01*
X55779295Y-47830574D02*
X55874533Y-47830574D01*
X55874533Y-47830574D02*
X56017390Y-47878193D01*
X56017390Y-47878193D02*
X56588819Y-48449621D01*
X56588819Y-48449621D02*
X56588819Y-47830574D01*
X56017390Y-47259145D02*
X55969771Y-47354383D01*
X55969771Y-47354383D02*
X55922152Y-47402002D01*
X55922152Y-47402002D02*
X55826914Y-47449621D01*
X55826914Y-47449621D02*
X55779295Y-47449621D01*
X55779295Y-47449621D02*
X55684057Y-47402002D01*
X55684057Y-47402002D02*
X55636438Y-47354383D01*
X55636438Y-47354383D02*
X55588819Y-47259145D01*
X55588819Y-47259145D02*
X55588819Y-47068669D01*
X55588819Y-47068669D02*
X55636438Y-46973431D01*
X55636438Y-46973431D02*
X55684057Y-46925812D01*
X55684057Y-46925812D02*
X55779295Y-46878193D01*
X55779295Y-46878193D02*
X55826914Y-46878193D01*
X55826914Y-46878193D02*
X55922152Y-46925812D01*
X55922152Y-46925812D02*
X55969771Y-46973431D01*
X55969771Y-46973431D02*
X56017390Y-47068669D01*
X56017390Y-47068669D02*
X56017390Y-47259145D01*
X56017390Y-47259145D02*
X56065009Y-47354383D01*
X56065009Y-47354383D02*
X56112628Y-47402002D01*
X56112628Y-47402002D02*
X56207866Y-47449621D01*
X56207866Y-47449621D02*
X56398342Y-47449621D01*
X56398342Y-47449621D02*
X56493580Y-47402002D01*
X56493580Y-47402002D02*
X56541200Y-47354383D01*
X56541200Y-47354383D02*
X56588819Y-47259145D01*
X56588819Y-47259145D02*
X56588819Y-47068669D01*
X56588819Y-47068669D02*
X56541200Y-46973431D01*
X56541200Y-46973431D02*
X56493580Y-46925812D01*
X56493580Y-46925812D02*
X56398342Y-46878193D01*
X56398342Y-46878193D02*
X56207866Y-46878193D01*
X56207866Y-46878193D02*
X56112628Y-46925812D01*
X56112628Y-46925812D02*
X56065009Y-46973431D01*
X56065009Y-46973431D02*
X56017390Y-47068669D01*
X91425550Y-42326857D02*
X91473170Y-42374476D01*
X91473170Y-42374476D02*
X91520789Y-42517333D01*
X91520789Y-42517333D02*
X91520789Y-42612571D01*
X91520789Y-42612571D02*
X91473170Y-42755428D01*
X91473170Y-42755428D02*
X91377931Y-42850666D01*
X91377931Y-42850666D02*
X91282693Y-42898285D01*
X91282693Y-42898285D02*
X91092217Y-42945904D01*
X91092217Y-42945904D02*
X90949360Y-42945904D01*
X90949360Y-42945904D02*
X90758884Y-42898285D01*
X90758884Y-42898285D02*
X90663646Y-42850666D01*
X90663646Y-42850666D02*
X90568408Y-42755428D01*
X90568408Y-42755428D02*
X90520789Y-42612571D01*
X90520789Y-42612571D02*
X90520789Y-42517333D01*
X90520789Y-42517333D02*
X90568408Y-42374476D01*
X90568408Y-42374476D02*
X90616027Y-42326857D01*
X90520789Y-41993523D02*
X90520789Y-41374476D01*
X90520789Y-41374476D02*
X90901741Y-41707809D01*
X90901741Y-41707809D02*
X90901741Y-41564952D01*
X90901741Y-41564952D02*
X90949360Y-41469714D01*
X90949360Y-41469714D02*
X90996979Y-41422095D01*
X90996979Y-41422095D02*
X91092217Y-41374476D01*
X91092217Y-41374476D02*
X91330312Y-41374476D01*
X91330312Y-41374476D02*
X91425550Y-41422095D01*
X91425550Y-41422095D02*
X91473170Y-41469714D01*
X91473170Y-41469714D02*
X91520789Y-41564952D01*
X91520789Y-41564952D02*
X91520789Y-41850666D01*
X91520789Y-41850666D02*
X91473170Y-41945904D01*
X91473170Y-41945904D02*
X91425550Y-41993523D01*
X90520789Y-41041142D02*
X90520789Y-40422095D01*
X90520789Y-40422095D02*
X90901741Y-40755428D01*
X90901741Y-40755428D02*
X90901741Y-40612571D01*
X90901741Y-40612571D02*
X90949360Y-40517333D01*
X90949360Y-40517333D02*
X90996979Y-40469714D01*
X90996979Y-40469714D02*
X91092217Y-40422095D01*
X91092217Y-40422095D02*
X91330312Y-40422095D01*
X91330312Y-40422095D02*
X91425550Y-40469714D01*
X91425550Y-40469714D02*
X91473170Y-40517333D01*
X91473170Y-40517333D02*
X91520789Y-40612571D01*
X91520789Y-40612571D02*
X91520789Y-40898285D01*
X91520789Y-40898285D02*
X91473170Y-40993523D01*
X91473170Y-40993523D02*
X91425550Y-41041142D01*
X73192819Y-34774094D02*
X72192819Y-34774094D01*
X72192819Y-34774094D02*
X72192819Y-34535999D01*
X72192819Y-34535999D02*
X72240438Y-34393142D01*
X72240438Y-34393142D02*
X72335676Y-34297904D01*
X72335676Y-34297904D02*
X72430914Y-34250285D01*
X72430914Y-34250285D02*
X72621390Y-34202666D01*
X72621390Y-34202666D02*
X72764247Y-34202666D01*
X72764247Y-34202666D02*
X72954723Y-34250285D01*
X72954723Y-34250285D02*
X73049961Y-34297904D01*
X73049961Y-34297904D02*
X73145200Y-34393142D01*
X73145200Y-34393142D02*
X73192819Y-34535999D01*
X73192819Y-34535999D02*
X73192819Y-34774094D01*
X73192819Y-33250285D02*
X73192819Y-33821713D01*
X73192819Y-33535999D02*
X72192819Y-33535999D01*
X72192819Y-33535999D02*
X72335676Y-33631237D01*
X72335676Y-33631237D02*
X72430914Y-33726475D01*
X72430914Y-33726475D02*
X72478533Y-33821713D01*
X32432666Y-60414819D02*
X32432666Y-61129104D01*
X32432666Y-61129104D02*
X32385047Y-61271961D01*
X32385047Y-61271961D02*
X32289809Y-61367200D01*
X32289809Y-61367200D02*
X32146952Y-61414819D01*
X32146952Y-61414819D02*
X32051714Y-61414819D01*
X33051714Y-60843390D02*
X32956476Y-60795771D01*
X32956476Y-60795771D02*
X32908857Y-60748152D01*
X32908857Y-60748152D02*
X32861238Y-60652914D01*
X32861238Y-60652914D02*
X32861238Y-60605295D01*
X32861238Y-60605295D02*
X32908857Y-60510057D01*
X32908857Y-60510057D02*
X32956476Y-60462438D01*
X32956476Y-60462438D02*
X33051714Y-60414819D01*
X33051714Y-60414819D02*
X33242190Y-60414819D01*
X33242190Y-60414819D02*
X33337428Y-60462438D01*
X33337428Y-60462438D02*
X33385047Y-60510057D01*
X33385047Y-60510057D02*
X33432666Y-60605295D01*
X33432666Y-60605295D02*
X33432666Y-60652914D01*
X33432666Y-60652914D02*
X33385047Y-60748152D01*
X33385047Y-60748152D02*
X33337428Y-60795771D01*
X33337428Y-60795771D02*
X33242190Y-60843390D01*
X33242190Y-60843390D02*
X33051714Y-60843390D01*
X33051714Y-60843390D02*
X32956476Y-60891009D01*
X32956476Y-60891009D02*
X32908857Y-60938628D01*
X32908857Y-60938628D02*
X32861238Y-61033866D01*
X32861238Y-61033866D02*
X32861238Y-61224342D01*
X32861238Y-61224342D02*
X32908857Y-61319580D01*
X32908857Y-61319580D02*
X32956476Y-61367200D01*
X32956476Y-61367200D02*
X33051714Y-61414819D01*
X33051714Y-61414819D02*
X33242190Y-61414819D01*
X33242190Y-61414819D02*
X33337428Y-61367200D01*
X33337428Y-61367200D02*
X33385047Y-61319580D01*
X33385047Y-61319580D02*
X33432666Y-61224342D01*
X33432666Y-61224342D02*
X33432666Y-61033866D01*
X33432666Y-61033866D02*
X33385047Y-60938628D01*
X33385047Y-60938628D02*
X33337428Y-60891009D01*
X33337428Y-60891009D02*
X33242190Y-60843390D01*
X38870095Y-39716819D02*
X39441523Y-39716819D01*
X39155809Y-40716819D02*
X39155809Y-39716819D01*
X39774857Y-40716819D02*
X39774857Y-39716819D01*
X39774857Y-39716819D02*
X40155809Y-39716819D01*
X40155809Y-39716819D02*
X40251047Y-39764438D01*
X40251047Y-39764438D02*
X40298666Y-39812057D01*
X40298666Y-39812057D02*
X40346285Y-39907295D01*
X40346285Y-39907295D02*
X40346285Y-40050152D01*
X40346285Y-40050152D02*
X40298666Y-40145390D01*
X40298666Y-40145390D02*
X40251047Y-40193009D01*
X40251047Y-40193009D02*
X40155809Y-40240628D01*
X40155809Y-40240628D02*
X39774857Y-40240628D01*
X41251047Y-39716819D02*
X40774857Y-39716819D01*
X40774857Y-39716819D02*
X40727238Y-40193009D01*
X40727238Y-40193009D02*
X40774857Y-40145390D01*
X40774857Y-40145390D02*
X40870095Y-40097771D01*
X40870095Y-40097771D02*
X41108190Y-40097771D01*
X41108190Y-40097771D02*
X41203428Y-40145390D01*
X41203428Y-40145390D02*
X41251047Y-40193009D01*
X41251047Y-40193009D02*
X41298666Y-40288247D01*
X41298666Y-40288247D02*
X41298666Y-40526342D01*
X41298666Y-40526342D02*
X41251047Y-40621580D01*
X41251047Y-40621580D02*
X41203428Y-40669200D01*
X41203428Y-40669200D02*
X41108190Y-40716819D01*
X41108190Y-40716819D02*
X40870095Y-40716819D01*
X40870095Y-40716819D02*
X40774857Y-40669200D01*
X40774857Y-40669200D02*
X40727238Y-40621580D01*
X66705275Y-52703114D02*
X67181466Y-52703114D01*
X66181466Y-53036447D02*
X66705275Y-52703114D01*
X66705275Y-52703114D02*
X66181466Y-52369781D01*
X67181466Y-51512638D02*
X67181466Y-52084066D01*
X67181466Y-51798352D02*
X66181466Y-51798352D01*
X66181466Y-51798352D02*
X66324323Y-51893590D01*
X66324323Y-51893590D02*
X66419561Y-51988828D01*
X66419561Y-51988828D02*
X66467180Y-52084066D01*
X86865642Y-55157580D02*
X86818023Y-55205200D01*
X86818023Y-55205200D02*
X86675166Y-55252819D01*
X86675166Y-55252819D02*
X86579928Y-55252819D01*
X86579928Y-55252819D02*
X86437071Y-55205200D01*
X86437071Y-55205200D02*
X86341833Y-55109961D01*
X86341833Y-55109961D02*
X86294214Y-55014723D01*
X86294214Y-55014723D02*
X86246595Y-54824247D01*
X86246595Y-54824247D02*
X86246595Y-54681390D01*
X86246595Y-54681390D02*
X86294214Y-54490914D01*
X86294214Y-54490914D02*
X86341833Y-54395676D01*
X86341833Y-54395676D02*
X86437071Y-54300438D01*
X86437071Y-54300438D02*
X86579928Y-54252819D01*
X86579928Y-54252819D02*
X86675166Y-54252819D01*
X86675166Y-54252819D02*
X86818023Y-54300438D01*
X86818023Y-54300438D02*
X86865642Y-54348057D01*
X87198976Y-54252819D02*
X87818023Y-54252819D01*
X87818023Y-54252819D02*
X87484690Y-54633771D01*
X87484690Y-54633771D02*
X87627547Y-54633771D01*
X87627547Y-54633771D02*
X87722785Y-54681390D01*
X87722785Y-54681390D02*
X87770404Y-54729009D01*
X87770404Y-54729009D02*
X87818023Y-54824247D01*
X87818023Y-54824247D02*
X87818023Y-55062342D01*
X87818023Y-55062342D02*
X87770404Y-55157580D01*
X87770404Y-55157580D02*
X87722785Y-55205200D01*
X87722785Y-55205200D02*
X87627547Y-55252819D01*
X87627547Y-55252819D02*
X87341833Y-55252819D01*
X87341833Y-55252819D02*
X87246595Y-55205200D01*
X87246595Y-55205200D02*
X87198976Y-55157580D01*
X88722785Y-54252819D02*
X88246595Y-54252819D01*
X88246595Y-54252819D02*
X88198976Y-54729009D01*
X88198976Y-54729009D02*
X88246595Y-54681390D01*
X88246595Y-54681390D02*
X88341833Y-54633771D01*
X88341833Y-54633771D02*
X88579928Y-54633771D01*
X88579928Y-54633771D02*
X88675166Y-54681390D01*
X88675166Y-54681390D02*
X88722785Y-54729009D01*
X88722785Y-54729009D02*
X88770404Y-54824247D01*
X88770404Y-54824247D02*
X88770404Y-55062342D01*
X88770404Y-55062342D02*
X88722785Y-55157580D01*
X88722785Y-55157580D02*
X88675166Y-55205200D01*
X88675166Y-55205200D02*
X88579928Y-55252819D01*
X88579928Y-55252819D02*
X88341833Y-55252819D01*
X88341833Y-55252819D02*
X88246595Y-55205200D01*
X88246595Y-55205200D02*
X88198976Y-55157580D01*
X48406282Y-38742857D02*
X47930091Y-39076190D01*
X48406282Y-39314285D02*
X47406282Y-39314285D01*
X47406282Y-39314285D02*
X47406282Y-38933333D01*
X47406282Y-38933333D02*
X47453901Y-38838095D01*
X47453901Y-38838095D02*
X47501520Y-38790476D01*
X47501520Y-38790476D02*
X47596758Y-38742857D01*
X47596758Y-38742857D02*
X47739615Y-38742857D01*
X47739615Y-38742857D02*
X47834853Y-38790476D01*
X47834853Y-38790476D02*
X47882472Y-38838095D01*
X47882472Y-38838095D02*
X47930091Y-38933333D01*
X47930091Y-38933333D02*
X47930091Y-39314285D01*
X48406282Y-37790476D02*
X48406282Y-38361904D01*
X48406282Y-38076190D02*
X47406282Y-38076190D01*
X47406282Y-38076190D02*
X47549139Y-38171428D01*
X47549139Y-38171428D02*
X47644377Y-38266666D01*
X47644377Y-38266666D02*
X47691996Y-38361904D01*
X47406282Y-37171428D02*
X47406282Y-37076190D01*
X47406282Y-37076190D02*
X47453901Y-36980952D01*
X47453901Y-36980952D02*
X47501520Y-36933333D01*
X47501520Y-36933333D02*
X47596758Y-36885714D01*
X47596758Y-36885714D02*
X47787234Y-36838095D01*
X47787234Y-36838095D02*
X48025329Y-36838095D01*
X48025329Y-36838095D02*
X48215805Y-36885714D01*
X48215805Y-36885714D02*
X48311043Y-36933333D01*
X48311043Y-36933333D02*
X48358663Y-36980952D01*
X48358663Y-36980952D02*
X48406282Y-37076190D01*
X48406282Y-37076190D02*
X48406282Y-37171428D01*
X48406282Y-37171428D02*
X48358663Y-37266666D01*
X48358663Y-37266666D02*
X48311043Y-37314285D01*
X48311043Y-37314285D02*
X48215805Y-37361904D01*
X48215805Y-37361904D02*
X48025329Y-37409523D01*
X48025329Y-37409523D02*
X47787234Y-37409523D01*
X47787234Y-37409523D02*
X47596758Y-37361904D01*
X47596758Y-37361904D02*
X47501520Y-37314285D01*
X47501520Y-37314285D02*
X47453901Y-37266666D01*
X47453901Y-37266666D02*
X47406282Y-37171428D01*
X42537142Y-47698819D02*
X42203809Y-47222628D01*
X41965714Y-47698819D02*
X41965714Y-46698819D01*
X41965714Y-46698819D02*
X42346666Y-46698819D01*
X42346666Y-46698819D02*
X42441904Y-46746438D01*
X42441904Y-46746438D02*
X42489523Y-46794057D01*
X42489523Y-46794057D02*
X42537142Y-46889295D01*
X42537142Y-46889295D02*
X42537142Y-47032152D01*
X42537142Y-47032152D02*
X42489523Y-47127390D01*
X42489523Y-47127390D02*
X42441904Y-47175009D01*
X42441904Y-47175009D02*
X42346666Y-47222628D01*
X42346666Y-47222628D02*
X41965714Y-47222628D01*
X43489523Y-47698819D02*
X42918095Y-47698819D01*
X43203809Y-47698819D02*
X43203809Y-46698819D01*
X43203809Y-46698819D02*
X43108571Y-46841676D01*
X43108571Y-46841676D02*
X43013333Y-46936914D01*
X43013333Y-46936914D02*
X42918095Y-46984533D01*
X44346666Y-47032152D02*
X44346666Y-47698819D01*
X44108571Y-46651200D02*
X43870476Y-47365485D01*
X43870476Y-47365485D02*
X44489523Y-47365485D01*
X104401091Y-65297046D02*
X104448711Y-65344665D01*
X104448711Y-65344665D02*
X104496330Y-65487522D01*
X104496330Y-65487522D02*
X104496330Y-65582760D01*
X104496330Y-65582760D02*
X104448711Y-65725617D01*
X104448711Y-65725617D02*
X104353472Y-65820855D01*
X104353472Y-65820855D02*
X104258234Y-65868474D01*
X104258234Y-65868474D02*
X104067758Y-65916093D01*
X104067758Y-65916093D02*
X103924901Y-65916093D01*
X103924901Y-65916093D02*
X103734425Y-65868474D01*
X103734425Y-65868474D02*
X103639187Y-65820855D01*
X103639187Y-65820855D02*
X103543949Y-65725617D01*
X103543949Y-65725617D02*
X103496330Y-65582760D01*
X103496330Y-65582760D02*
X103496330Y-65487522D01*
X103496330Y-65487522D02*
X103543949Y-65344665D01*
X103543949Y-65344665D02*
X103591568Y-65297046D01*
X103591568Y-64916093D02*
X103543949Y-64868474D01*
X103543949Y-64868474D02*
X103496330Y-64773236D01*
X103496330Y-64773236D02*
X103496330Y-64535141D01*
X103496330Y-64535141D02*
X103543949Y-64439903D01*
X103543949Y-64439903D02*
X103591568Y-64392284D01*
X103591568Y-64392284D02*
X103686806Y-64344665D01*
X103686806Y-64344665D02*
X103782044Y-64344665D01*
X103782044Y-64344665D02*
X103924901Y-64392284D01*
X103924901Y-64392284D02*
X104496330Y-64963712D01*
X104496330Y-64963712D02*
X104496330Y-64344665D01*
X103496330Y-64011331D02*
X103496330Y-63392284D01*
X103496330Y-63392284D02*
X103877282Y-63725617D01*
X103877282Y-63725617D02*
X103877282Y-63582760D01*
X103877282Y-63582760D02*
X103924901Y-63487522D01*
X103924901Y-63487522D02*
X103972520Y-63439903D01*
X103972520Y-63439903D02*
X104067758Y-63392284D01*
X104067758Y-63392284D02*
X104305853Y-63392284D01*
X104305853Y-63392284D02*
X104401091Y-63439903D01*
X104401091Y-63439903D02*
X104448711Y-63487522D01*
X104448711Y-63487522D02*
X104496330Y-63582760D01*
X104496330Y-63582760D02*
X104496330Y-63868474D01*
X104496330Y-63868474D02*
X104448711Y-63963712D01*
X104448711Y-63963712D02*
X104401091Y-64011331D01*
X89074666Y-76670819D02*
X89074666Y-77385104D01*
X89074666Y-77385104D02*
X89027047Y-77527961D01*
X89027047Y-77527961D02*
X88931809Y-77623200D01*
X88931809Y-77623200D02*
X88788952Y-77670819D01*
X88788952Y-77670819D02*
X88693714Y-77670819D01*
X89979428Y-76670819D02*
X89788952Y-76670819D01*
X89788952Y-76670819D02*
X89693714Y-76718438D01*
X89693714Y-76718438D02*
X89646095Y-76766057D01*
X89646095Y-76766057D02*
X89550857Y-76908914D01*
X89550857Y-76908914D02*
X89503238Y-77099390D01*
X89503238Y-77099390D02*
X89503238Y-77480342D01*
X89503238Y-77480342D02*
X89550857Y-77575580D01*
X89550857Y-77575580D02*
X89598476Y-77623200D01*
X89598476Y-77623200D02*
X89693714Y-77670819D01*
X89693714Y-77670819D02*
X89884190Y-77670819D01*
X89884190Y-77670819D02*
X89979428Y-77623200D01*
X89979428Y-77623200D02*
X90027047Y-77575580D01*
X90027047Y-77575580D02*
X90074666Y-77480342D01*
X90074666Y-77480342D02*
X90074666Y-77242247D01*
X90074666Y-77242247D02*
X90027047Y-77147009D01*
X90027047Y-77147009D02*
X89979428Y-77099390D01*
X89979428Y-77099390D02*
X89884190Y-77051771D01*
X89884190Y-77051771D02*
X89693714Y-77051771D01*
X89693714Y-77051771D02*
X89598476Y-77099390D01*
X89598476Y-77099390D02*
X89550857Y-77147009D01*
X89550857Y-77147009D02*
X89503238Y-77242247D01*
X45920819Y-45854857D02*
X45444628Y-46188190D01*
X45920819Y-46426285D02*
X44920819Y-46426285D01*
X44920819Y-46426285D02*
X44920819Y-46045333D01*
X44920819Y-46045333D02*
X44968438Y-45950095D01*
X44968438Y-45950095D02*
X45016057Y-45902476D01*
X45016057Y-45902476D02*
X45111295Y-45854857D01*
X45111295Y-45854857D02*
X45254152Y-45854857D01*
X45254152Y-45854857D02*
X45349390Y-45902476D01*
X45349390Y-45902476D02*
X45397009Y-45950095D01*
X45397009Y-45950095D02*
X45444628Y-46045333D01*
X45444628Y-46045333D02*
X45444628Y-46426285D01*
X45920819Y-44902476D02*
X45920819Y-45473904D01*
X45920819Y-45188190D02*
X44920819Y-45188190D01*
X44920819Y-45188190D02*
X45063676Y-45283428D01*
X45063676Y-45283428D02*
X45158914Y-45378666D01*
X45158914Y-45378666D02*
X45206533Y-45473904D01*
X44920819Y-44045333D02*
X44920819Y-44235809D01*
X44920819Y-44235809D02*
X44968438Y-44331047D01*
X44968438Y-44331047D02*
X45016057Y-44378666D01*
X45016057Y-44378666D02*
X45158914Y-44473904D01*
X45158914Y-44473904D02*
X45349390Y-44521523D01*
X45349390Y-44521523D02*
X45730342Y-44521523D01*
X45730342Y-44521523D02*
X45825580Y-44473904D01*
X45825580Y-44473904D02*
X45873200Y-44426285D01*
X45873200Y-44426285D02*
X45920819Y-44331047D01*
X45920819Y-44331047D02*
X45920819Y-44140571D01*
X45920819Y-44140571D02*
X45873200Y-44045333D01*
X45873200Y-44045333D02*
X45825580Y-43997714D01*
X45825580Y-43997714D02*
X45730342Y-43950095D01*
X45730342Y-43950095D02*
X45492247Y-43950095D01*
X45492247Y-43950095D02*
X45397009Y-43997714D01*
X45397009Y-43997714D02*
X45349390Y-44045333D01*
X45349390Y-44045333D02*
X45301771Y-44140571D01*
X45301771Y-44140571D02*
X45301771Y-44331047D01*
X45301771Y-44331047D02*
X45349390Y-44426285D01*
X45349390Y-44426285D02*
X45397009Y-44473904D01*
X45397009Y-44473904D02*
X45492247Y-44521523D01*
X79420405Y-45492819D02*
X79991833Y-45492819D01*
X79706119Y-46492819D02*
X79706119Y-45492819D01*
X80325167Y-46492819D02*
X80325167Y-45492819D01*
X80325167Y-45492819D02*
X80706119Y-45492819D01*
X80706119Y-45492819D02*
X80801357Y-45540438D01*
X80801357Y-45540438D02*
X80848976Y-45588057D01*
X80848976Y-45588057D02*
X80896595Y-45683295D01*
X80896595Y-45683295D02*
X80896595Y-45826152D01*
X80896595Y-45826152D02*
X80848976Y-45921390D01*
X80848976Y-45921390D02*
X80801357Y-45969009D01*
X80801357Y-45969009D02*
X80706119Y-46016628D01*
X80706119Y-46016628D02*
X80325167Y-46016628D01*
X81848976Y-46492819D02*
X81277548Y-46492819D01*
X81563262Y-46492819D02*
X81563262Y-45492819D01*
X81563262Y-45492819D02*
X81468024Y-45635676D01*
X81468024Y-45635676D02*
X81372786Y-45730914D01*
X81372786Y-45730914D02*
X81277548Y-45778533D01*
X82468024Y-45492819D02*
X82563262Y-45492819D01*
X82563262Y-45492819D02*
X82658500Y-45540438D01*
X82658500Y-45540438D02*
X82706119Y-45588057D01*
X82706119Y-45588057D02*
X82753738Y-45683295D01*
X82753738Y-45683295D02*
X82801357Y-45873771D01*
X82801357Y-45873771D02*
X82801357Y-46111866D01*
X82801357Y-46111866D02*
X82753738Y-46302342D01*
X82753738Y-46302342D02*
X82706119Y-46397580D01*
X82706119Y-46397580D02*
X82658500Y-46445200D01*
X82658500Y-46445200D02*
X82563262Y-46492819D01*
X82563262Y-46492819D02*
X82468024Y-46492819D01*
X82468024Y-46492819D02*
X82372786Y-46445200D01*
X82372786Y-46445200D02*
X82325167Y-46397580D01*
X82325167Y-46397580D02*
X82277548Y-46302342D01*
X82277548Y-46302342D02*
X82229929Y-46111866D01*
X82229929Y-46111866D02*
X82229929Y-45873771D01*
X82229929Y-45873771D02*
X82277548Y-45683295D01*
X82277548Y-45683295D02*
X82325167Y-45588057D01*
X82325167Y-45588057D02*
X82372786Y-45540438D01*
X82372786Y-45540438D02*
X82468024Y-45492819D01*
X54396819Y-24969694D02*
X53396819Y-24969694D01*
X53396819Y-24969694D02*
X53396819Y-24731599D01*
X53396819Y-24731599D02*
X53444438Y-24588742D01*
X53444438Y-24588742D02*
X53539676Y-24493504D01*
X53539676Y-24493504D02*
X53634914Y-24445885D01*
X53634914Y-24445885D02*
X53825390Y-24398266D01*
X53825390Y-24398266D02*
X53968247Y-24398266D01*
X53968247Y-24398266D02*
X54158723Y-24445885D01*
X54158723Y-24445885D02*
X54253961Y-24493504D01*
X54253961Y-24493504D02*
X54349200Y-24588742D01*
X54349200Y-24588742D02*
X54396819Y-24731599D01*
X54396819Y-24731599D02*
X54396819Y-24969694D01*
X53396819Y-24064932D02*
X53396819Y-23445885D01*
X53396819Y-23445885D02*
X53777771Y-23779218D01*
X53777771Y-23779218D02*
X53777771Y-23636361D01*
X53777771Y-23636361D02*
X53825390Y-23541123D01*
X53825390Y-23541123D02*
X53873009Y-23493504D01*
X53873009Y-23493504D02*
X53968247Y-23445885D01*
X53968247Y-23445885D02*
X54206342Y-23445885D01*
X54206342Y-23445885D02*
X54301580Y-23493504D01*
X54301580Y-23493504D02*
X54349200Y-23541123D01*
X54349200Y-23541123D02*
X54396819Y-23636361D01*
X54396819Y-23636361D02*
X54396819Y-23922075D01*
X54396819Y-23922075D02*
X54349200Y-24017313D01*
X54349200Y-24017313D02*
X54301580Y-24064932D01*
X42076761Y-64660819D02*
X41743428Y-64184628D01*
X41505333Y-64660819D02*
X41505333Y-63660819D01*
X41505333Y-63660819D02*
X41886285Y-63660819D01*
X41886285Y-63660819D02*
X41981523Y-63708438D01*
X41981523Y-63708438D02*
X42029142Y-63756057D01*
X42029142Y-63756057D02*
X42076761Y-63851295D01*
X42076761Y-63851295D02*
X42076761Y-63994152D01*
X42076761Y-63994152D02*
X42029142Y-64089390D01*
X42029142Y-64089390D02*
X41981523Y-64137009D01*
X41981523Y-64137009D02*
X41886285Y-64184628D01*
X41886285Y-64184628D02*
X41505333Y-64184628D01*
X42362476Y-63660819D02*
X42695809Y-64660819D01*
X42695809Y-64660819D02*
X43029142Y-63660819D01*
X43886285Y-64660819D02*
X43314857Y-64660819D01*
X43600571Y-64660819D02*
X43600571Y-63660819D01*
X43600571Y-63660819D02*
X43505333Y-63803676D01*
X43505333Y-63803676D02*
X43410095Y-63898914D01*
X43410095Y-63898914D02*
X43314857Y-63946533D01*
X34236819Y-73826666D02*
X33760628Y-74159999D01*
X34236819Y-74398094D02*
X33236819Y-74398094D01*
X33236819Y-74398094D02*
X33236819Y-74017142D01*
X33236819Y-74017142D02*
X33284438Y-73921904D01*
X33284438Y-73921904D02*
X33332057Y-73874285D01*
X33332057Y-73874285D02*
X33427295Y-73826666D01*
X33427295Y-73826666D02*
X33570152Y-73826666D01*
X33570152Y-73826666D02*
X33665390Y-73874285D01*
X33665390Y-73874285D02*
X33713009Y-73921904D01*
X33713009Y-73921904D02*
X33760628Y-74017142D01*
X33760628Y-74017142D02*
X33760628Y-74398094D01*
X33665390Y-73255237D02*
X33617771Y-73350475D01*
X33617771Y-73350475D02*
X33570152Y-73398094D01*
X33570152Y-73398094D02*
X33474914Y-73445713D01*
X33474914Y-73445713D02*
X33427295Y-73445713D01*
X33427295Y-73445713D02*
X33332057Y-73398094D01*
X33332057Y-73398094D02*
X33284438Y-73350475D01*
X33284438Y-73350475D02*
X33236819Y-73255237D01*
X33236819Y-73255237D02*
X33236819Y-73064761D01*
X33236819Y-73064761D02*
X33284438Y-72969523D01*
X33284438Y-72969523D02*
X33332057Y-72921904D01*
X33332057Y-72921904D02*
X33427295Y-72874285D01*
X33427295Y-72874285D02*
X33474914Y-72874285D01*
X33474914Y-72874285D02*
X33570152Y-72921904D01*
X33570152Y-72921904D02*
X33617771Y-72969523D01*
X33617771Y-72969523D02*
X33665390Y-73064761D01*
X33665390Y-73064761D02*
X33665390Y-73255237D01*
X33665390Y-73255237D02*
X33713009Y-73350475D01*
X33713009Y-73350475D02*
X33760628Y-73398094D01*
X33760628Y-73398094D02*
X33855866Y-73445713D01*
X33855866Y-73445713D02*
X34046342Y-73445713D01*
X34046342Y-73445713D02*
X34141580Y-73398094D01*
X34141580Y-73398094D02*
X34189200Y-73350475D01*
X34189200Y-73350475D02*
X34236819Y-73255237D01*
X34236819Y-73255237D02*
X34236819Y-73064761D01*
X34236819Y-73064761D02*
X34189200Y-72969523D01*
X34189200Y-72969523D02*
X34141580Y-72921904D01*
X34141580Y-72921904D02*
X34046342Y-72874285D01*
X34046342Y-72874285D02*
X33855866Y-72874285D01*
X33855866Y-72874285D02*
X33760628Y-72921904D01*
X33760628Y-72921904D02*
X33713009Y-72969523D01*
X33713009Y-72969523D02*
X33665390Y-73064761D01*
X87786380Y-52255657D02*
X87834000Y-52303276D01*
X87834000Y-52303276D02*
X87881619Y-52446133D01*
X87881619Y-52446133D02*
X87881619Y-52541371D01*
X87881619Y-52541371D02*
X87834000Y-52684228D01*
X87834000Y-52684228D02*
X87738761Y-52779466D01*
X87738761Y-52779466D02*
X87643523Y-52827085D01*
X87643523Y-52827085D02*
X87453047Y-52874704D01*
X87453047Y-52874704D02*
X87310190Y-52874704D01*
X87310190Y-52874704D02*
X87119714Y-52827085D01*
X87119714Y-52827085D02*
X87024476Y-52779466D01*
X87024476Y-52779466D02*
X86929238Y-52684228D01*
X86929238Y-52684228D02*
X86881619Y-52541371D01*
X86881619Y-52541371D02*
X86881619Y-52446133D01*
X86881619Y-52446133D02*
X86929238Y-52303276D01*
X86929238Y-52303276D02*
X86976857Y-52255657D01*
X86881619Y-51922323D02*
X86881619Y-51303276D01*
X86881619Y-51303276D02*
X87262571Y-51636609D01*
X87262571Y-51636609D02*
X87262571Y-51493752D01*
X87262571Y-51493752D02*
X87310190Y-51398514D01*
X87310190Y-51398514D02*
X87357809Y-51350895D01*
X87357809Y-51350895D02*
X87453047Y-51303276D01*
X87453047Y-51303276D02*
X87691142Y-51303276D01*
X87691142Y-51303276D02*
X87786380Y-51350895D01*
X87786380Y-51350895D02*
X87834000Y-51398514D01*
X87834000Y-51398514D02*
X87881619Y-51493752D01*
X87881619Y-51493752D02*
X87881619Y-51779466D01*
X87881619Y-51779466D02*
X87834000Y-51874704D01*
X87834000Y-51874704D02*
X87786380Y-51922323D01*
X87214952Y-50446133D02*
X87881619Y-50446133D01*
X86834000Y-50684228D02*
X87548285Y-50922323D01*
X87548285Y-50922323D02*
X87548285Y-50303276D01*
X78444885Y-59708326D02*
X77968694Y-60041659D01*
X78444885Y-60279754D02*
X77444885Y-60279754D01*
X77444885Y-60279754D02*
X77444885Y-59898802D01*
X77444885Y-59898802D02*
X77492504Y-59803564D01*
X77492504Y-59803564D02*
X77540123Y-59755945D01*
X77540123Y-59755945D02*
X77635361Y-59708326D01*
X77635361Y-59708326D02*
X77778218Y-59708326D01*
X77778218Y-59708326D02*
X77873456Y-59755945D01*
X77873456Y-59755945D02*
X77921075Y-59803564D01*
X77921075Y-59803564D02*
X77968694Y-59898802D01*
X77968694Y-59898802D02*
X77968694Y-60279754D01*
X77444885Y-58803564D02*
X77444885Y-59279754D01*
X77444885Y-59279754D02*
X77921075Y-59327373D01*
X77921075Y-59327373D02*
X77873456Y-59279754D01*
X77873456Y-59279754D02*
X77825837Y-59184516D01*
X77825837Y-59184516D02*
X77825837Y-58946421D01*
X77825837Y-58946421D02*
X77873456Y-58851183D01*
X77873456Y-58851183D02*
X77921075Y-58803564D01*
X77921075Y-58803564D02*
X78016313Y-58755945D01*
X78016313Y-58755945D02*
X78254408Y-58755945D01*
X78254408Y-58755945D02*
X78349646Y-58803564D01*
X78349646Y-58803564D02*
X78397266Y-58851183D01*
X78397266Y-58851183D02*
X78444885Y-58946421D01*
X78444885Y-58946421D02*
X78444885Y-59184516D01*
X78444885Y-59184516D02*
X78397266Y-59279754D01*
X78397266Y-59279754D02*
X78349646Y-59327373D01*
X61522780Y-31884857D02*
X61570400Y-31932476D01*
X61570400Y-31932476D02*
X61618019Y-32075333D01*
X61618019Y-32075333D02*
X61618019Y-32170571D01*
X61618019Y-32170571D02*
X61570400Y-32313428D01*
X61570400Y-32313428D02*
X61475161Y-32408666D01*
X61475161Y-32408666D02*
X61379923Y-32456285D01*
X61379923Y-32456285D02*
X61189447Y-32503904D01*
X61189447Y-32503904D02*
X61046590Y-32503904D01*
X61046590Y-32503904D02*
X60856114Y-32456285D01*
X60856114Y-32456285D02*
X60760876Y-32408666D01*
X60760876Y-32408666D02*
X60665638Y-32313428D01*
X60665638Y-32313428D02*
X60618019Y-32170571D01*
X60618019Y-32170571D02*
X60618019Y-32075333D01*
X60618019Y-32075333D02*
X60665638Y-31932476D01*
X60665638Y-31932476D02*
X60713257Y-31884857D01*
X61618019Y-30932476D02*
X61618019Y-31503904D01*
X61618019Y-31218190D02*
X60618019Y-31218190D01*
X60618019Y-31218190D02*
X60760876Y-31313428D01*
X60760876Y-31313428D02*
X60856114Y-31408666D01*
X60856114Y-31408666D02*
X60903733Y-31503904D01*
X61618019Y-30456285D02*
X61618019Y-30265809D01*
X61618019Y-30265809D02*
X61570400Y-30170571D01*
X61570400Y-30170571D02*
X61522780Y-30122952D01*
X61522780Y-30122952D02*
X61379923Y-30027714D01*
X61379923Y-30027714D02*
X61189447Y-29980095D01*
X61189447Y-29980095D02*
X60808495Y-29980095D01*
X60808495Y-29980095D02*
X60713257Y-30027714D01*
X60713257Y-30027714D02*
X60665638Y-30075333D01*
X60665638Y-30075333D02*
X60618019Y-30170571D01*
X60618019Y-30170571D02*
X60618019Y-30361047D01*
X60618019Y-30361047D02*
X60665638Y-30456285D01*
X60665638Y-30456285D02*
X60713257Y-30503904D01*
X60713257Y-30503904D02*
X60808495Y-30551523D01*
X60808495Y-30551523D02*
X61046590Y-30551523D01*
X61046590Y-30551523D02*
X61141828Y-30503904D01*
X61141828Y-30503904D02*
X61189447Y-30456285D01*
X61189447Y-30456285D02*
X61237066Y-30361047D01*
X61237066Y-30361047D02*
X61237066Y-30170571D01*
X61237066Y-30170571D02*
X61189447Y-30075333D01*
X61189447Y-30075333D02*
X61141828Y-30027714D01*
X61141828Y-30027714D02*
X61046590Y-29980095D01*
X59084156Y-34456666D02*
X59131776Y-34504285D01*
X59131776Y-34504285D02*
X59179395Y-34647142D01*
X59179395Y-34647142D02*
X59179395Y-34742380D01*
X59179395Y-34742380D02*
X59131776Y-34885237D01*
X59131776Y-34885237D02*
X59036537Y-34980475D01*
X59036537Y-34980475D02*
X58941299Y-35028094D01*
X58941299Y-35028094D02*
X58750823Y-35075713D01*
X58750823Y-35075713D02*
X58607966Y-35075713D01*
X58607966Y-35075713D02*
X58417490Y-35028094D01*
X58417490Y-35028094D02*
X58322252Y-34980475D01*
X58322252Y-34980475D02*
X58227014Y-34885237D01*
X58227014Y-34885237D02*
X58179395Y-34742380D01*
X58179395Y-34742380D02*
X58179395Y-34647142D01*
X58179395Y-34647142D02*
X58227014Y-34504285D01*
X58227014Y-34504285D02*
X58274633Y-34456666D01*
X58179395Y-33599523D02*
X58179395Y-33789999D01*
X58179395Y-33789999D02*
X58227014Y-33885237D01*
X58227014Y-33885237D02*
X58274633Y-33932856D01*
X58274633Y-33932856D02*
X58417490Y-34028094D01*
X58417490Y-34028094D02*
X58607966Y-34075713D01*
X58607966Y-34075713D02*
X58988918Y-34075713D01*
X58988918Y-34075713D02*
X59084156Y-34028094D01*
X59084156Y-34028094D02*
X59131776Y-33980475D01*
X59131776Y-33980475D02*
X59179395Y-33885237D01*
X59179395Y-33885237D02*
X59179395Y-33694761D01*
X59179395Y-33694761D02*
X59131776Y-33599523D01*
X59131776Y-33599523D02*
X59084156Y-33551904D01*
X59084156Y-33551904D02*
X58988918Y-33504285D01*
X58988918Y-33504285D02*
X58750823Y-33504285D01*
X58750823Y-33504285D02*
X58655585Y-33551904D01*
X58655585Y-33551904D02*
X58607966Y-33599523D01*
X58607966Y-33599523D02*
X58560347Y-33694761D01*
X58560347Y-33694761D02*
X58560347Y-33885237D01*
X58560347Y-33885237D02*
X58607966Y-33980475D01*
X58607966Y-33980475D02*
X58655585Y-34028094D01*
X58655585Y-34028094D02*
X58750823Y-34075713D01*
X36758666Y-59144819D02*
X36758666Y-59859104D01*
X36758666Y-59859104D02*
X36711047Y-60001961D01*
X36711047Y-60001961D02*
X36615809Y-60097200D01*
X36615809Y-60097200D02*
X36472952Y-60144819D01*
X36472952Y-60144819D02*
X36377714Y-60144819D01*
X37234857Y-60144819D02*
X37234857Y-59144819D01*
X37234857Y-59144819D02*
X37615809Y-59144819D01*
X37615809Y-59144819D02*
X37711047Y-59192438D01*
X37711047Y-59192438D02*
X37758666Y-59240057D01*
X37758666Y-59240057D02*
X37806285Y-59335295D01*
X37806285Y-59335295D02*
X37806285Y-59478152D01*
X37806285Y-59478152D02*
X37758666Y-59573390D01*
X37758666Y-59573390D02*
X37711047Y-59621009D01*
X37711047Y-59621009D02*
X37615809Y-59668628D01*
X37615809Y-59668628D02*
X37234857Y-59668628D01*
X38758666Y-60144819D02*
X38187238Y-60144819D01*
X38472952Y-60144819D02*
X38472952Y-59144819D01*
X38472952Y-59144819D02*
X38377714Y-59287676D01*
X38377714Y-59287676D02*
X38282476Y-59382914D01*
X38282476Y-59382914D02*
X38187238Y-59430533D01*
X102822476Y-40094819D02*
X102822476Y-40809104D01*
X102822476Y-40809104D02*
X102774857Y-40951961D01*
X102774857Y-40951961D02*
X102679619Y-41047200D01*
X102679619Y-41047200D02*
X102536762Y-41094819D01*
X102536762Y-41094819D02*
X102441524Y-41094819D01*
X103822476Y-41094819D02*
X103251048Y-41094819D01*
X103536762Y-41094819D02*
X103536762Y-40094819D01*
X103536762Y-40094819D02*
X103441524Y-40237676D01*
X103441524Y-40237676D02*
X103346286Y-40332914D01*
X103346286Y-40332914D02*
X103251048Y-40380533D01*
X104155810Y-40094819D02*
X104774857Y-40094819D01*
X104774857Y-40094819D02*
X104441524Y-40475771D01*
X104441524Y-40475771D02*
X104584381Y-40475771D01*
X104584381Y-40475771D02*
X104679619Y-40523390D01*
X104679619Y-40523390D02*
X104727238Y-40571009D01*
X104727238Y-40571009D02*
X104774857Y-40666247D01*
X104774857Y-40666247D02*
X104774857Y-40904342D01*
X104774857Y-40904342D02*
X104727238Y-40999580D01*
X104727238Y-40999580D02*
X104679619Y-41047200D01*
X104679619Y-41047200D02*
X104584381Y-41094819D01*
X104584381Y-41094819D02*
X104298667Y-41094819D01*
X104298667Y-41094819D02*
X104203429Y-41047200D01*
X104203429Y-41047200D02*
X104155810Y-40999580D01*
X77880380Y-42146457D02*
X77928000Y-42194076D01*
X77928000Y-42194076D02*
X77975619Y-42336933D01*
X77975619Y-42336933D02*
X77975619Y-42432171D01*
X77975619Y-42432171D02*
X77928000Y-42575028D01*
X77928000Y-42575028D02*
X77832761Y-42670266D01*
X77832761Y-42670266D02*
X77737523Y-42717885D01*
X77737523Y-42717885D02*
X77547047Y-42765504D01*
X77547047Y-42765504D02*
X77404190Y-42765504D01*
X77404190Y-42765504D02*
X77213714Y-42717885D01*
X77213714Y-42717885D02*
X77118476Y-42670266D01*
X77118476Y-42670266D02*
X77023238Y-42575028D01*
X77023238Y-42575028D02*
X76975619Y-42432171D01*
X76975619Y-42432171D02*
X76975619Y-42336933D01*
X76975619Y-42336933D02*
X77023238Y-42194076D01*
X77023238Y-42194076D02*
X77070857Y-42146457D01*
X77975619Y-41194076D02*
X77975619Y-41765504D01*
X77975619Y-41479790D02*
X76975619Y-41479790D01*
X76975619Y-41479790D02*
X77118476Y-41575028D01*
X77118476Y-41575028D02*
X77213714Y-41670266D01*
X77213714Y-41670266D02*
X77261333Y-41765504D01*
X77070857Y-40813123D02*
X77023238Y-40765504D01*
X77023238Y-40765504D02*
X76975619Y-40670266D01*
X76975619Y-40670266D02*
X76975619Y-40432171D01*
X76975619Y-40432171D02*
X77023238Y-40336933D01*
X77023238Y-40336933D02*
X77070857Y-40289314D01*
X77070857Y-40289314D02*
X77166095Y-40241695D01*
X77166095Y-40241695D02*
X77261333Y-40241695D01*
X77261333Y-40241695D02*
X77404190Y-40289314D01*
X77404190Y-40289314D02*
X77975619Y-40860742D01*
X77975619Y-40860742D02*
X77975619Y-40241695D01*
X57604819Y-27891266D02*
X57128628Y-28224599D01*
X57604819Y-28462694D02*
X56604819Y-28462694D01*
X56604819Y-28462694D02*
X56604819Y-28081742D01*
X56604819Y-28081742D02*
X56652438Y-27986504D01*
X56652438Y-27986504D02*
X56700057Y-27938885D01*
X56700057Y-27938885D02*
X56795295Y-27891266D01*
X56795295Y-27891266D02*
X56938152Y-27891266D01*
X56938152Y-27891266D02*
X57033390Y-27938885D01*
X57033390Y-27938885D02*
X57081009Y-27986504D01*
X57081009Y-27986504D02*
X57128628Y-28081742D01*
X57128628Y-28081742D02*
X57128628Y-28462694D01*
X56604819Y-27557932D02*
X56604819Y-26938885D01*
X56604819Y-26938885D02*
X56985771Y-27272218D01*
X56985771Y-27272218D02*
X56985771Y-27129361D01*
X56985771Y-27129361D02*
X57033390Y-27034123D01*
X57033390Y-27034123D02*
X57081009Y-26986504D01*
X57081009Y-26986504D02*
X57176247Y-26938885D01*
X57176247Y-26938885D02*
X57414342Y-26938885D01*
X57414342Y-26938885D02*
X57509580Y-26986504D01*
X57509580Y-26986504D02*
X57557200Y-27034123D01*
X57557200Y-27034123D02*
X57604819Y-27129361D01*
X57604819Y-27129361D02*
X57604819Y-27415075D01*
X57604819Y-27415075D02*
X57557200Y-27510313D01*
X57557200Y-27510313D02*
X57509580Y-27557932D01*
X103226330Y-64299855D02*
X102750139Y-64633188D01*
X103226330Y-64871283D02*
X102226330Y-64871283D01*
X102226330Y-64871283D02*
X102226330Y-64490331D01*
X102226330Y-64490331D02*
X102273949Y-64395093D01*
X102273949Y-64395093D02*
X102321568Y-64347474D01*
X102321568Y-64347474D02*
X102416806Y-64299855D01*
X102416806Y-64299855D02*
X102559663Y-64299855D01*
X102559663Y-64299855D02*
X102654901Y-64347474D01*
X102654901Y-64347474D02*
X102702520Y-64395093D01*
X102702520Y-64395093D02*
X102750139Y-64490331D01*
X102750139Y-64490331D02*
X102750139Y-64871283D01*
X103226330Y-63823664D02*
X103226330Y-63633188D01*
X103226330Y-63633188D02*
X103178711Y-63537950D01*
X103178711Y-63537950D02*
X103131091Y-63490331D01*
X103131091Y-63490331D02*
X102988234Y-63395093D01*
X102988234Y-63395093D02*
X102797758Y-63347474D01*
X102797758Y-63347474D02*
X102416806Y-63347474D01*
X102416806Y-63347474D02*
X102321568Y-63395093D01*
X102321568Y-63395093D02*
X102273949Y-63442712D01*
X102273949Y-63442712D02*
X102226330Y-63537950D01*
X102226330Y-63537950D02*
X102226330Y-63728426D01*
X102226330Y-63728426D02*
X102273949Y-63823664D01*
X102273949Y-63823664D02*
X102321568Y-63871283D01*
X102321568Y-63871283D02*
X102416806Y-63918902D01*
X102416806Y-63918902D02*
X102654901Y-63918902D01*
X102654901Y-63918902D02*
X102750139Y-63871283D01*
X102750139Y-63871283D02*
X102797758Y-63823664D01*
X102797758Y-63823664D02*
X102845377Y-63728426D01*
X102845377Y-63728426D02*
X102845377Y-63537950D01*
X102845377Y-63537950D02*
X102797758Y-63442712D01*
X102797758Y-63442712D02*
X102750139Y-63395093D01*
X102750139Y-63395093D02*
X102654901Y-63347474D01*
X83212269Y-54817713D02*
X83783697Y-54817713D01*
X83497983Y-55817713D02*
X83497983Y-54817713D01*
X84117031Y-55817713D02*
X84117031Y-54817713D01*
X84117031Y-54817713D02*
X84497983Y-54817713D01*
X84497983Y-54817713D02*
X84593221Y-54865332D01*
X84593221Y-54865332D02*
X84640840Y-54912951D01*
X84640840Y-54912951D02*
X84688459Y-55008189D01*
X84688459Y-55008189D02*
X84688459Y-55151046D01*
X84688459Y-55151046D02*
X84640840Y-55246284D01*
X84640840Y-55246284D02*
X84593221Y-55293903D01*
X84593221Y-55293903D02*
X84497983Y-55341522D01*
X84497983Y-55341522D02*
X84117031Y-55341522D01*
X85164650Y-55817713D02*
X85355126Y-55817713D01*
X85355126Y-55817713D02*
X85450364Y-55770094D01*
X85450364Y-55770094D02*
X85497983Y-55722474D01*
X85497983Y-55722474D02*
X85593221Y-55579617D01*
X85593221Y-55579617D02*
X85640840Y-55389141D01*
X85640840Y-55389141D02*
X85640840Y-55008189D01*
X85640840Y-55008189D02*
X85593221Y-54912951D01*
X85593221Y-54912951D02*
X85545602Y-54865332D01*
X85545602Y-54865332D02*
X85450364Y-54817713D01*
X85450364Y-54817713D02*
X85259888Y-54817713D01*
X85259888Y-54817713D02*
X85164650Y-54865332D01*
X85164650Y-54865332D02*
X85117031Y-54912951D01*
X85117031Y-54912951D02*
X85069412Y-55008189D01*
X85069412Y-55008189D02*
X85069412Y-55246284D01*
X85069412Y-55246284D02*
X85117031Y-55341522D01*
X85117031Y-55341522D02*
X85164650Y-55389141D01*
X85164650Y-55389141D02*
X85259888Y-55436760D01*
X85259888Y-55436760D02*
X85450364Y-55436760D01*
X85450364Y-55436760D02*
X85545602Y-55389141D01*
X85545602Y-55389141D02*
X85593221Y-55341522D01*
X85593221Y-55341522D02*
X85640840Y-55246284D01*
X94289345Y-55825754D02*
X93813154Y-56159087D01*
X94289345Y-56397182D02*
X93289345Y-56397182D01*
X93289345Y-56397182D02*
X93289345Y-56016230D01*
X93289345Y-56016230D02*
X93336964Y-55920992D01*
X93336964Y-55920992D02*
X93384583Y-55873373D01*
X93384583Y-55873373D02*
X93479821Y-55825754D01*
X93479821Y-55825754D02*
X93622678Y-55825754D01*
X93622678Y-55825754D02*
X93717916Y-55873373D01*
X93717916Y-55873373D02*
X93765535Y-55920992D01*
X93765535Y-55920992D02*
X93813154Y-56016230D01*
X93813154Y-56016230D02*
X93813154Y-56397182D01*
X93384583Y-55444801D02*
X93336964Y-55397182D01*
X93336964Y-55397182D02*
X93289345Y-55301944D01*
X93289345Y-55301944D02*
X93289345Y-55063849D01*
X93289345Y-55063849D02*
X93336964Y-54968611D01*
X93336964Y-54968611D02*
X93384583Y-54920992D01*
X93384583Y-54920992D02*
X93479821Y-54873373D01*
X93479821Y-54873373D02*
X93575059Y-54873373D01*
X93575059Y-54873373D02*
X93717916Y-54920992D01*
X93717916Y-54920992D02*
X94289345Y-55492420D01*
X94289345Y-55492420D02*
X94289345Y-54873373D01*
X94289345Y-53920992D02*
X94289345Y-54492420D01*
X94289345Y-54206706D02*
X93289345Y-54206706D01*
X93289345Y-54206706D02*
X93432202Y-54301944D01*
X93432202Y-54301944D02*
X93527440Y-54397182D01*
X93527440Y-54397182D02*
X93575059Y-54492420D01*
X54022666Y-76670819D02*
X54022666Y-77385104D01*
X54022666Y-77385104D02*
X53975047Y-77527961D01*
X53975047Y-77527961D02*
X53879809Y-77623200D01*
X53879809Y-77623200D02*
X53736952Y-77670819D01*
X53736952Y-77670819D02*
X53641714Y-77670819D01*
X54451238Y-76766057D02*
X54498857Y-76718438D01*
X54498857Y-76718438D02*
X54594095Y-76670819D01*
X54594095Y-76670819D02*
X54832190Y-76670819D01*
X54832190Y-76670819D02*
X54927428Y-76718438D01*
X54927428Y-76718438D02*
X54975047Y-76766057D01*
X54975047Y-76766057D02*
X55022666Y-76861295D01*
X55022666Y-76861295D02*
X55022666Y-76956533D01*
X55022666Y-76956533D02*
X54975047Y-77099390D01*
X54975047Y-77099390D02*
X54403619Y-77670819D01*
X54403619Y-77670819D02*
X55022666Y-77670819D01*
D11*
%TO.C,C24*%
X47409452Y-49224050D02*
X47625124Y-49224050D01*
X47409452Y-49944050D02*
X47625124Y-49944050D01*
%TO.C,TP1*%
X53020000Y-66294000D02*
G75*
G03*
X51120000Y-66294000I-950000J0D01*
G01*
X51120000Y-66294000D02*
G75*
G03*
X53020000Y-66294000I950000J0D01*
G01*
%TO.C,C7*%
X68316446Y-35111490D02*
X68316446Y-34830330D01*
X69336446Y-35111490D02*
X69336446Y-34830330D01*
%TO.C,C30*%
X90377968Y-50642688D02*
X90377968Y-50858360D01*
X89657968Y-50642688D02*
X89657968Y-50858360D01*
%TO.C,TP11*%
X99959200Y-41148000D02*
G75*
G03*
X98059200Y-41148000I-950000J0D01*
G01*
X98059200Y-41148000D02*
G75*
G03*
X99959200Y-41148000I950000J0D01*
G01*
%TO.C,C36*%
X81024000Y-43828580D02*
X81024000Y-43547420D01*
X82044000Y-43828580D02*
X82044000Y-43547420D01*
%TO.C,C32*%
X93522748Y-51414000D02*
X94945252Y-51414000D01*
X93522748Y-53234000D02*
X94945252Y-53234000D01*
%TO.C,R2*%
X56541641Y-42789820D02*
X56234359Y-42789820D01*
X56541641Y-42029820D02*
X56234359Y-42029820D01*
%TO.C,TP2*%
X55814000Y-65278000D02*
G75*
G03*
X53914000Y-65278000I-950000J0D01*
G01*
X53914000Y-65278000D02*
G75*
G03*
X55814000Y-65278000I950000J0D01*
G01*
%TO.C,C26*%
X50948211Y-48129097D02*
X50948211Y-47913425D01*
X51668211Y-48129097D02*
X51668211Y-47913425D01*
%TO.C,C25*%
X49118272Y-48715548D02*
X47695768Y-48715548D01*
X49118272Y-46895548D02*
X47695768Y-46895548D01*
%TO.C,D2*%
X57939000Y-25716600D02*
X59409000Y-25716600D01*
X59409000Y-25716600D02*
X59409000Y-23431600D01*
X57939000Y-23431600D02*
X57939000Y-25716600D01*
%TO.C,R20*%
X93117641Y-45084000D02*
X92810359Y-45084000D01*
X93117641Y-44324000D02*
X92810359Y-44324000D01*
%TO.C,J5*%
X70104000Y-26602000D02*
X69724000Y-26602000D01*
X70104000Y-24832000D02*
X70104000Y-26602000D01*
X70104000Y-22292000D02*
X70104000Y-22552000D01*
X62484000Y-26602000D02*
X62864000Y-26602000D01*
X62484000Y-26602000D02*
X62484000Y-24832000D01*
X62484000Y-22552000D02*
X62484000Y-22292000D01*
%TO.C,RV2*%
X50780000Y-62576000D02*
X50780000Y-58836000D01*
X50780000Y-62576000D02*
X50400000Y-62576000D01*
X50780000Y-58836000D02*
X49500000Y-58836000D01*
X48620000Y-62576000D02*
X47900000Y-62576000D01*
X47020000Y-58836000D02*
X45740000Y-58836000D01*
X46120000Y-62576000D02*
X45740000Y-62576000D01*
X45740000Y-62576000D02*
X45740000Y-58836000D01*
D10*
%TO.C,U6*%
X83211000Y-51663000D02*
X83386000Y-51663000D01*
X83211000Y-51663000D02*
X83211000Y-48413000D01*
X83386000Y-51663000D02*
X83386000Y-52738000D01*
X86461000Y-51663000D02*
X86186000Y-51663000D01*
X86461000Y-51663000D02*
X86461000Y-48413000D01*
X83211000Y-48413000D02*
X83486000Y-48413000D01*
X86461000Y-48413000D02*
X86186000Y-48413000D01*
D11*
%TO.C,C8*%
X68330400Y-46628164D02*
X68330400Y-46843836D01*
X67610400Y-46628164D02*
X67610400Y-46843836D01*
%TO.C,TP6*%
X79314500Y-48702000D02*
G75*
G03*
X77414500Y-48702000I-950000J0D01*
G01*
X77414500Y-48702000D02*
G75*
G03*
X79314500Y-48702000I950000J0D01*
G01*
%TO.C,TP7*%
X79944000Y-54102000D02*
G75*
G03*
X78044000Y-54102000I-950000J0D01*
G01*
X78044000Y-54102000D02*
G75*
G03*
X79944000Y-54102000I950000J0D01*
G01*
%TO.C,C3*%
X58751908Y-45318000D02*
X58536236Y-45318000D01*
X58751908Y-44598000D02*
X58536236Y-44598000D01*
%TO.C,R22*%
X92097270Y-43206017D02*
X92097270Y-42898735D01*
X92857270Y-43206017D02*
X92857270Y-42898735D01*
D12*
%TO.C,J10*%
X27408658Y-40386000D02*
X31472658Y-40386000D01*
X31472658Y-40386000D02*
X31472658Y-28702000D01*
X31472658Y-28702000D02*
X27408658Y-28702000D01*
X27408658Y-28702000D02*
X27408658Y-40386000D01*
D11*
%TO.C,R11*%
X48319115Y-33374359D02*
X48319115Y-33681641D01*
X47559115Y-33374359D02*
X47559115Y-33681641D01*
D12*
%TO.C,J11*%
X109220000Y-28448000D02*
X105156000Y-28448000D01*
X105156000Y-28448000D02*
X105156000Y-40132000D01*
X105156000Y-40132000D02*
X109220000Y-40132000D01*
X109220000Y-40132000D02*
X109220000Y-28448000D01*
D11*
%TO.C,C18*%
X70292793Y-37844000D02*
X70573953Y-37844000D01*
X70292793Y-38864000D02*
X70573953Y-38864000D01*
%TO.C,SW1*%
X67890000Y-58746000D02*
X74350000Y-58746000D01*
X67890000Y-58776000D02*
X67890000Y-58746000D01*
X67890000Y-60676000D02*
X67890000Y-63276000D01*
X67890000Y-65206000D02*
X67890000Y-65176000D01*
X67890000Y-65206000D02*
X74350000Y-65206000D01*
X74350000Y-58746000D02*
X74350000Y-58776000D01*
X74350000Y-60676000D02*
X74350000Y-63276000D01*
X74350000Y-65206000D02*
X74350000Y-65176000D01*
D12*
%TO.C,J12*%
X31496000Y-40894000D02*
X27432000Y-40894000D01*
X27432000Y-40894000D02*
X27432000Y-59690000D01*
X27432000Y-59690000D02*
X31496000Y-59690000D01*
X31496000Y-59690000D02*
X31496000Y-40894000D01*
D11*
%TO.C,R1*%
X74690500Y-30242742D02*
X74690500Y-30717258D01*
X73645500Y-30242742D02*
X73645500Y-30717258D01*
%TO.C,C15*%
X64876000Y-46729764D02*
X64876000Y-46945436D01*
X64156000Y-46729764D02*
X64156000Y-46945436D01*
%TO.C,C20*%
X77938534Y-71313013D02*
X78219694Y-71313013D01*
X77938534Y-72333013D02*
X78219694Y-72333013D01*
%TO.C,U2*%
X68372000Y-45258000D02*
X67847000Y-45258000D01*
X60152000Y-44733000D02*
X60152000Y-45258000D01*
X68372000Y-44733000D02*
X68372000Y-45258000D01*
X60152000Y-37563000D02*
X60152000Y-37038000D01*
X68372000Y-37563000D02*
X68372000Y-37038000D01*
X60152000Y-37038000D02*
X60677000Y-37038000D01*
X68372000Y-37038000D02*
X67847000Y-37038000D01*
D10*
%TO.C,U4*%
X50977516Y-53765724D02*
X51152516Y-53765724D01*
X50977516Y-53765724D02*
X50977516Y-50515724D01*
X51152516Y-53765724D02*
X51152516Y-54840724D01*
X54227516Y-53765724D02*
X53952516Y-53765724D01*
X54227516Y-53765724D02*
X54227516Y-50515724D01*
X50977516Y-50515724D02*
X51252516Y-50515724D01*
X54227516Y-50515724D02*
X53952516Y-50515724D01*
D11*
%TO.C,C22*%
X33234844Y-70619407D02*
X33234844Y-70900567D01*
X32214844Y-70619407D02*
X32214844Y-70900567D01*
%TO.C,C21*%
X91920439Y-71270929D02*
X92201599Y-71270929D01*
X91920439Y-72290929D02*
X92201599Y-72290929D01*
%TO.C,R17*%
X90252400Y-47946765D02*
X90252400Y-48421281D01*
X89207400Y-47946765D02*
X89207400Y-48421281D01*
%TO.C,TP3*%
X58100000Y-63500000D02*
G75*
G03*
X56200000Y-63500000I-950000J0D01*
G01*
X56200000Y-63500000D02*
G75*
G03*
X58100000Y-63500000I950000J0D01*
G01*
%TO.C,R7*%
X91399378Y-70130929D02*
X91706660Y-70130929D01*
X91399378Y-70890929D02*
X91706660Y-70890929D01*
%TO.C,R13*%
X50585969Y-54017859D02*
X50585969Y-54325141D01*
X49825969Y-54017859D02*
X49825969Y-54325141D01*
%TO.C,C2*%
X69747176Y-42616800D02*
X69962848Y-42616800D01*
X69747176Y-43336800D02*
X69962848Y-43336800D01*
%TO.C,C16*%
X66296703Y-47646563D02*
X66296703Y-47862235D01*
X65576703Y-47646563D02*
X65576703Y-47862235D01*
%TO.C,C17*%
X77584066Y-61941080D02*
X77584066Y-62222240D01*
X76564066Y-61941080D02*
X76564066Y-62222240D01*
%TO.C,TP8*%
X82445313Y-56327432D02*
G75*
G03*
X80545313Y-56327432I-950000J0D01*
G01*
X80545313Y-56327432D02*
G75*
G03*
X82445313Y-56327432I950000J0D01*
G01*
%TO.C,C11*%
X81291820Y-29208000D02*
X81572980Y-29208000D01*
X81291820Y-30228000D02*
X81572980Y-30228000D01*
%TO.C,FB1*%
X69417000Y-48500359D02*
X69417000Y-48807641D01*
X68657000Y-48500359D02*
X68657000Y-48807641D01*
%TO.C,R15*%
X43568848Y-53828938D02*
X43568848Y-54303454D01*
X42523848Y-53828938D02*
X42523848Y-54303454D01*
%TO.C,C1*%
X63860000Y-46677910D02*
X63860000Y-46893582D01*
X63140000Y-46677910D02*
X63140000Y-46893582D01*
D12*
%TO.C,J1*%
X33132000Y-23368000D02*
X51928000Y-23368000D01*
X51928000Y-23368000D02*
X51928000Y-27432000D01*
X51928000Y-27432000D02*
X33132000Y-27432000D01*
X33132000Y-27432000D02*
X33132000Y-23368000D01*
D11*
%TO.C,J4*%
X89348000Y-26730000D02*
X89348000Y-25400000D01*
X90678000Y-26730000D02*
X89348000Y-26730000D01*
X91948000Y-26730000D02*
X99628000Y-26730000D01*
X91948000Y-26730000D02*
X91948000Y-24070000D01*
X99628000Y-26730000D02*
X99628000Y-24070000D01*
X91948000Y-24070000D02*
X99628000Y-24070000D01*
%TO.C,C10*%
X70941420Y-48906000D02*
X71222580Y-48906000D01*
X70941420Y-49926000D02*
X71222580Y-49926000D01*
%TO.C,C5*%
X67104474Y-35631656D02*
X67104474Y-35415984D01*
X67824474Y-35631656D02*
X67824474Y-35415984D01*
%TO.C,U1*%
X80292100Y-30727600D02*
X86302100Y-30727600D01*
X82542100Y-37547600D02*
X86302100Y-37547600D01*
X86302100Y-30727600D02*
X86302100Y-31987600D01*
X86302100Y-37547600D02*
X86302100Y-36287600D01*
D12*
%TO.C,J7*%
X90678000Y-72898000D02*
X102362000Y-72898000D01*
X102362000Y-72898000D02*
X102362000Y-76962000D01*
X102362000Y-76962000D02*
X90678000Y-76962000D01*
X90678000Y-76962000D02*
X90678000Y-72898000D01*
D11*
%TO.C,C4*%
X61066000Y-46628164D02*
X61066000Y-46843836D01*
X60346000Y-46628164D02*
X60346000Y-46843836D01*
%TO.C,U3*%
X44450000Y-49240000D02*
X42650000Y-49240000D01*
X44450000Y-49240000D02*
X45250000Y-49240000D01*
X44450000Y-52360000D02*
X43650000Y-52360000D01*
X44450000Y-52360000D02*
X45250000Y-52360000D01*
%TO.C,R19*%
X87393320Y-44406000D02*
X87393320Y-44098718D01*
X88153320Y-44406000D02*
X88153320Y-44098718D01*
%TO.C,R4*%
X55894500Y-27550342D02*
X55894500Y-28024858D01*
X54849500Y-27550342D02*
X54849500Y-28024858D01*
%TO.C,U5*%
X92710000Y-49566000D02*
X94510000Y-49566000D01*
X92710000Y-49566000D02*
X91910000Y-49566000D01*
X92710000Y-46446000D02*
X93510000Y-46446000D01*
X92710000Y-46446000D02*
X91910000Y-46446000D01*
%TO.C,C14*%
X80765764Y-38095600D02*
X80981436Y-38095600D01*
X80765764Y-38815600D02*
X80981436Y-38815600D01*
%TO.C,R12*%
X46824583Y-51879237D02*
X46824583Y-51404721D01*
X47869583Y-51879237D02*
X47869583Y-51404721D01*
%TO.C,JP2*%
X100820438Y-51681352D02*
X102150438Y-51681352D01*
X100820438Y-53011352D02*
X100820438Y-51681352D01*
X100820438Y-54281352D02*
X100820438Y-59421352D01*
X100820438Y-54281352D02*
X103480438Y-54281352D01*
X100820438Y-59421352D02*
X103480438Y-59421352D01*
X103480438Y-54281352D02*
X103480438Y-59421352D01*
%TO.C,C9*%
X70928420Y-47382000D02*
X71209580Y-47382000D01*
X70928420Y-48402000D02*
X71209580Y-48402000D01*
%TO.C,C13*%
X76710000Y-37959420D02*
X76710000Y-38240580D01*
X75690000Y-37959420D02*
X75690000Y-38240580D01*
D12*
%TO.C,J9*%
X109243342Y-60196393D02*
X105179342Y-60196393D01*
X105179342Y-60196393D02*
X105179342Y-71880393D01*
X105179342Y-71880393D02*
X109243342Y-71880393D01*
X109243342Y-71880393D02*
X109243342Y-60196393D01*
D11*
%TO.C,J14*%
X46734000Y-32144000D02*
X46734000Y-33274000D01*
X45974000Y-32144000D02*
X46734000Y-32144000D01*
X45214000Y-32144000D02*
X40199000Y-32144000D01*
X45214000Y-32144000D02*
X45214000Y-32710529D01*
X40199000Y-32144000D02*
X40199000Y-32966470D01*
X40199000Y-33581530D02*
X40199000Y-34236470D01*
X45214000Y-33837471D02*
X45214000Y-33980529D01*
X46669000Y-34034000D02*
X46669000Y-34236470D01*
X46537471Y-34034000D02*
X46669000Y-34034000D01*
X45267471Y-34034000D02*
X45410529Y-34034000D01*
X46669000Y-34851530D02*
X46669000Y-35674000D01*
X40199000Y-34851530D02*
X40199000Y-35674000D01*
X46669000Y-35674000D02*
X40199000Y-35674000D01*
D12*
%TO.C,J3*%
X55626000Y-72898000D02*
X74422000Y-72898000D01*
X74422000Y-72898000D02*
X74422000Y-76962000D01*
X74422000Y-76962000D02*
X55626000Y-76962000D01*
X55626000Y-76962000D02*
X55626000Y-72898000D01*
D11*
%TO.C,TP4*%
X45146000Y-42672000D02*
G75*
G03*
X43246000Y-42672000I-950000J0D01*
G01*
X43246000Y-42672000D02*
G75*
G03*
X45146000Y-42672000I950000J0D01*
G01*
%TO.C,R6*%
X77430473Y-70173013D02*
X77737755Y-70173013D01*
X77430473Y-70933013D02*
X77737755Y-70933013D01*
%TO.C,C27*%
X55925764Y-53897034D02*
X56206924Y-53897034D01*
X55925764Y-54917034D02*
X56206924Y-54917034D01*
%TO.C,C29*%
X52887882Y-47687507D02*
X52887882Y-47406347D01*
X53907882Y-47687507D02*
X53907882Y-47406347D01*
%TO.C,R18*%
X89254359Y-44324000D02*
X89561641Y-44324000D01*
X89254359Y-45084000D02*
X89561641Y-45084000D01*
%TO.C,C31*%
X85457420Y-43940000D02*
X85738580Y-43940000D01*
X85457420Y-44960000D02*
X85738580Y-44960000D01*
%TO.C,C28*%
X54354174Y-48209934D02*
X54354174Y-47994262D01*
X55074174Y-48209934D02*
X55074174Y-47994262D01*
%TO.C,C33*%
X90705970Y-44331836D02*
X90705970Y-44116164D01*
X91425970Y-44331836D02*
X91425970Y-44116164D01*
%TO.C,D1*%
X73433000Y-35521000D02*
X74903000Y-35521000D01*
X74903000Y-35521000D02*
X74903000Y-33236000D01*
X73433000Y-33236000D02*
X73433000Y-35521000D01*
D12*
%TO.C,J8*%
X27432000Y-72136000D02*
X31496000Y-72136000D01*
X31496000Y-72136000D02*
X31496000Y-60452000D01*
X31496000Y-60452000D02*
X27432000Y-60452000D01*
X27432000Y-60452000D02*
X27432000Y-72136000D01*
D11*
%TO.C,TP5*%
X41082000Y-41910000D02*
G75*
G03*
X39182000Y-41910000I-950000J0D01*
G01*
X39182000Y-41910000D02*
G75*
G03*
X41082000Y-41910000I950000J0D01*
G01*
%TO.C,Y1*%
X65452000Y-48888000D02*
X65452000Y-51188000D01*
X65452000Y-51188000D02*
X68152000Y-51188000D01*
%TO.C,C35*%
X86252164Y-53234000D02*
X86467836Y-53234000D01*
X86252164Y-53954000D02*
X86467836Y-53954000D01*
%TO.C,R10*%
X48331463Y-35406359D02*
X48331463Y-35713641D01*
X47571463Y-35406359D02*
X47571463Y-35713641D01*
%TO.C,R14*%
X44095641Y-48894000D02*
X43788359Y-48894000D01*
X44095641Y-48134000D02*
X43788359Y-48134000D01*
%TO.C,C23*%
X103531511Y-61746769D02*
X103531511Y-61465609D01*
X104551511Y-61746769D02*
X104551511Y-61465609D01*
D12*
%TO.C,J6*%
X76708000Y-72898000D02*
X88392000Y-72898000D01*
X88392000Y-72898000D02*
X88392000Y-76962000D01*
X88392000Y-76962000D02*
X76708000Y-76962000D01*
X76708000Y-76962000D02*
X76708000Y-72898000D01*
D11*
%TO.C,R16*%
X45086000Y-48159641D02*
X45086000Y-47852359D01*
X45846000Y-48159641D02*
X45846000Y-47852359D01*
%TO.C,TP10*%
X82108500Y-47686000D02*
G75*
G03*
X80208500Y-47686000I-950000J0D01*
G01*
X80208500Y-47686000D02*
G75*
G03*
X82108500Y-47686000I950000J0D01*
G01*
%TO.C,D3*%
X54637000Y-25716600D02*
X56107000Y-25716600D01*
X56107000Y-25716600D02*
X56107000Y-23431600D01*
X54637000Y-23431600D02*
X54637000Y-25716600D01*
%TO.C,RV1*%
X45192000Y-62576000D02*
X45192000Y-58836000D01*
X45192000Y-62576000D02*
X44812000Y-62576000D01*
X45192000Y-58836000D02*
X43912000Y-58836000D01*
X43032000Y-62576000D02*
X42312000Y-62576000D01*
X41432000Y-58836000D02*
X40152000Y-58836000D01*
X40532000Y-62576000D02*
X40152000Y-62576000D01*
X40152000Y-62576000D02*
X40152000Y-58836000D01*
%TO.C,R8*%
X34423667Y-71153037D02*
X34423667Y-71460319D01*
X33663667Y-71153037D02*
X33663667Y-71460319D01*
%TO.C,C34*%
X87936800Y-48424220D02*
X87936800Y-48705380D01*
X86916800Y-48424220D02*
X86916800Y-48705380D01*
%TO.C,R5*%
X77200066Y-59388019D02*
X77200066Y-59695301D01*
X76440066Y-59388019D02*
X76440066Y-59695301D01*
%TO.C,C19*%
X60653200Y-34430580D02*
X60653200Y-34149420D01*
X61673200Y-34430580D02*
X61673200Y-34149420D01*
%TO.C,C6*%
X59524576Y-34397836D02*
X59524576Y-34182164D01*
X60244576Y-34397836D02*
X60244576Y-34182164D01*
%TO.C,JP1*%
X33068306Y-51997793D02*
X34398306Y-51997793D01*
X33068306Y-53327793D02*
X33068306Y-51997793D01*
X33068306Y-54597793D02*
X33068306Y-59737793D01*
X33068306Y-54597793D02*
X35728306Y-54597793D01*
X33068306Y-59737793D02*
X35728306Y-59737793D01*
X35728306Y-54597793D02*
X35728306Y-59737793D01*
D12*
%TO.C,J13*%
X109220000Y-40640000D02*
X105156000Y-40640000D01*
X105156000Y-40640000D02*
X105156000Y-59436000D01*
X105156000Y-59436000D02*
X109220000Y-59436000D01*
X109220000Y-59436000D02*
X109220000Y-40640000D01*
D11*
%TO.C,C12*%
X77880800Y-38601764D02*
X77880800Y-38817436D01*
X77160800Y-38601764D02*
X77160800Y-38817436D01*
%TO.C,R3*%
X59196500Y-27550342D02*
X59196500Y-28024858D01*
X58151500Y-27550342D02*
X58151500Y-28024858D01*
%TO.C,R9*%
X102391511Y-62267830D02*
X102391511Y-61960548D01*
X103151511Y-62267830D02*
X103151511Y-61960548D01*
%TO.C,TP9*%
X85424174Y-57010894D02*
G75*
G03*
X83524174Y-57010894I-950000J0D01*
G01*
X83524174Y-57010894D02*
G75*
G03*
X85424174Y-57010894I950000J0D01*
G01*
%TO.C,R21*%
X96135026Y-54945639D02*
X96135026Y-55420155D01*
X95090026Y-54945639D02*
X95090026Y-55420155D01*
D12*
%TO.C,J2*%
X34544000Y-72898000D02*
X53340000Y-72898000D01*
X53340000Y-72898000D02*
X53340000Y-76962000D01*
X53340000Y-76962000D02*
X34544000Y-76962000D01*
X34544000Y-76962000D02*
X34544000Y-72898000D01*
%TD*%
M02*
