%TF.GenerationSoftware,KiCad,Pcbnew,9.0.6*%
%TF.CreationDate,2026-01-25T18:40:06+01:00*%
%TF.ProjectId,dispo-board,64697370-6f2d-4626-9f61-72642e6b6963,rev?*%
%TF.SameCoordinates,Original*%
%TF.FileFunction,Soldermask,Top*%
%TF.FilePolarity,Negative*%
%FSLAX46Y46*%
G04 Gerber Fmt 4.6, Leading zero omitted, Abs format (unit mm)*
G04 Created by KiCad (PCBNEW 9.0.6) date 2026-01-25 18:40:06*
%MOMM*%
%LPD*%
G01*
G04 APERTURE LIST*
G04 Aperture macros list*
%AMRoundRect*
0 Rectangle with rounded corners*
0 $1 Rounding radius*
0 $2 $3 $4 $5 $6 $7 $8 $9 X,Y pos of 4 corners*
0 Add a 4 corners polygon primitive as box body*
4,1,4,$2,$3,$4,$5,$6,$7,$8,$9,$2,$3,0*
0 Add four circle primitives for the rounded corners*
1,1,$1+$1,$2,$3*
1,1,$1+$1,$4,$5*
1,1,$1+$1,$6,$7*
1,1,$1+$1,$8,$9*
0 Add four rect primitives between the rounded corners*
20,1,$1+$1,$2,$3,$4,$5,0*
20,1,$1+$1,$4,$5,$6,$7,0*
20,1,$1+$1,$6,$7,$8,$9,0*
20,1,$1+$1,$8,$9,$2,$3,0*%
G04 Aperture macros list end*
%ADD10RoundRect,0.140000X-0.170000X0.140000X-0.170000X-0.140000X0.170000X-0.140000X0.170000X0.140000X0*%
%ADD11RoundRect,0.200000X-0.200000X0.250000X-0.200000X-0.250000X0.200000X-0.250000X0.200000X0.250000X0*%
%ADD12RoundRect,0.135000X-0.135000X-0.185000X0.135000X-0.185000X0.135000X0.185000X-0.135000X0.185000X0*%
%ADD13RoundRect,0.140000X0.140000X0.170000X-0.140000X0.170000X-0.140000X-0.170000X0.140000X-0.170000X0*%
%ADD14RoundRect,0.140000X-0.140000X-0.170000X0.140000X-0.170000X0.140000X0.170000X-0.140000X0.170000X0*%
%ADD15RoundRect,0.250002X-1.499998X1.499998X-1.499998X-1.499998X1.499998X-1.499998X1.499998X1.499998X0*%
%ADD16C,3.500000*%
%ADD17RoundRect,0.150000X0.150000X-0.512500X0.150000X0.512500X-0.150000X0.512500X-0.150000X-0.512500X0*%
%ADD18R,1.000000X1.000000*%
%ADD19C,1.000000*%
%ADD20RoundRect,0.140000X0.170000X-0.140000X0.170000X0.140000X-0.170000X0.140000X-0.170000X-0.140000X0*%
%ADD21RoundRect,0.200000X0.275000X-0.200000X0.275000X0.200000X-0.275000X0.200000X-0.275000X-0.200000X0*%
%ADD22RoundRect,0.062500X-0.400000X-0.062500X0.400000X-0.062500X0.400000X0.062500X-0.400000X0.062500X0*%
%ADD23RoundRect,0.062500X-0.062500X-0.400000X0.062500X-0.400000X0.062500X0.400000X-0.062500X0.400000X0*%
%ADD24R,6.400000X6.400000*%
%ADD25R,0.450000X1.380000*%
%ADD26R,1.650000X1.300000*%
%ADD27R,1.425000X1.550000*%
%ADD28R,1.800000X1.900000*%
%ADD29R,1.000000X1.900000*%
%ADD30RoundRect,0.135000X-0.185000X0.135000X-0.185000X-0.135000X0.185000X-0.135000X0.185000X0.135000X0*%
%ADD31C,1.500000*%
%ADD32RoundRect,0.150000X-0.950000X-0.150000X0.950000X-0.150000X0.950000X0.150000X-0.950000X0.150000X0*%
%ADD33RoundRect,0.537500X-0.537500X-1.187500X0.537500X-1.187500X0.537500X1.187500X-0.537500X1.187500X0*%
%ADD34RoundRect,0.250002X1.499998X-1.499998X1.499998X1.499998X-1.499998X1.499998X-1.499998X-1.499998X0*%
%ADD35RoundRect,0.218750X0.256250X-0.218750X0.256250X0.218750X-0.256250X0.218750X-0.256250X-0.218750X0*%
%ADD36RoundRect,0.250002X-1.499998X-1.499998X1.499998X-1.499998X1.499998X1.499998X-1.499998X1.499998X0*%
%ADD37RoundRect,0.225000X-0.250000X0.225000X-0.250000X-0.225000X0.250000X-0.225000X0.250000X0.225000X0*%
%ADD38RoundRect,0.218750X0.218750X0.256250X-0.218750X0.256250X-0.218750X-0.256250X0.218750X-0.256250X0*%
%ADD39RoundRect,0.135000X0.185000X-0.135000X0.185000X0.135000X-0.185000X0.135000X-0.185000X-0.135000X0*%
%ADD40R,1.100000X0.250000*%
%ADD41RoundRect,0.250000X0.400000X0.550000X-0.400000X0.550000X-0.400000X-0.550000X0.400000X-0.550000X0*%
%ADD42RoundRect,0.250000X0.750000X0.550000X-0.750000X0.550000X-0.750000X-0.550000X0.750000X-0.550000X0*%
%ADD43RoundRect,0.225000X0.250000X-0.225000X0.250000X0.225000X-0.250000X0.225000X-0.250000X-0.225000X0*%
%ADD44RoundRect,0.135000X0.135000X0.185000X-0.135000X0.185000X-0.135000X-0.185000X0.135000X-0.185000X0*%
%ADD45RoundRect,0.250000X1.100000X-0.325000X1.100000X0.325000X-1.100000X0.325000X-1.100000X-0.325000X0*%
%ADD46R,1.700000X1.700000*%
%ADD47C,1.700000*%
%ADD48C,2.200000*%
%ADD49RoundRect,0.225000X0.225000X0.250000X-0.225000X0.250000X-0.225000X-0.250000X0.225000X-0.250000X0*%
%ADD50RoundRect,0.150000X-0.150000X0.512500X-0.150000X-0.512500X0.150000X-0.512500X0.150000X0.512500X0*%
%ADD51RoundRect,0.250000X-1.150000X-0.250000X1.150000X-0.250000X1.150000X0.250000X-1.150000X0.250000X0*%
G04 APERTURE END LIST*
D10*
%TO.C,C34*%
X64000000Y-45500000D03*
X64000000Y-46460000D03*
%TD*%
%TO.C,C2*%
X65100000Y-78220000D03*
X65100000Y-79180000D03*
%TD*%
D11*
%TO.C,Y1*%
X52650000Y-74700000D03*
X52650000Y-76100000D03*
X53750000Y-76100000D03*
X53750000Y-74700000D03*
%TD*%
D12*
%TO.C,R11*%
X45990000Y-66900000D03*
X47010000Y-66900000D03*
%TD*%
D13*
%TO.C,C11*%
X54780000Y-69575000D03*
X53820000Y-69575000D03*
%TD*%
%TO.C,C36*%
X51080288Y-33977569D03*
X50120288Y-33977569D03*
%TD*%
D14*
%TO.C,C8*%
X65320000Y-70700000D03*
X66280000Y-70700000D03*
%TD*%
D10*
%TO.C,C1*%
X65104541Y-76253046D03*
X65104541Y-77213046D03*
%TD*%
D15*
%TO.C,J2*%
X35276658Y-33857607D03*
D16*
X35276658Y-40857607D03*
%TD*%
D10*
%TO.C,C20*%
X39200000Y-85620000D03*
X39200000Y-86580000D03*
%TD*%
D17*
%TO.C,U5*%
X43050000Y-61387500D03*
X44000000Y-61387500D03*
X44950000Y-61387500D03*
X44950000Y-59112500D03*
X43050000Y-59112500D03*
%TD*%
D18*
%TO.C,J3*%
X65860000Y-91370000D03*
D19*
X65860000Y-90100000D03*
X67130000Y-91370000D03*
X67130000Y-90100000D03*
X68400000Y-91370000D03*
X68400000Y-90100000D03*
X69670000Y-91370000D03*
X69670000Y-90100000D03*
X70940000Y-91370000D03*
X70940000Y-90100000D03*
%TD*%
D20*
%TO.C,C27*%
X40945204Y-62766285D03*
X40945204Y-61806285D03*
%TD*%
D21*
%TO.C,R15*%
X72685741Y-56090041D03*
X72685741Y-54440041D03*
%TD*%
D22*
%TO.C,U1*%
X56062500Y-69850000D03*
X56062500Y-70250000D03*
X56062500Y-70650000D03*
X56062500Y-71050000D03*
X56062500Y-71450000D03*
X56062500Y-71850000D03*
X56062500Y-72250000D03*
X56062500Y-72650000D03*
X56062500Y-73050000D03*
X56062500Y-73450000D03*
X56062500Y-73850000D03*
X56062500Y-74250000D03*
X56062500Y-74650000D03*
X56062500Y-75050000D03*
X56062500Y-75450000D03*
X56062500Y-75850000D03*
X56062500Y-76250000D03*
D23*
X56750000Y-76937500D03*
X57150000Y-76937500D03*
X57550000Y-76937500D03*
X57950000Y-76937500D03*
X58350000Y-76937500D03*
X58750000Y-76937500D03*
X59150000Y-76937500D03*
X59550000Y-76937500D03*
X59950000Y-76937500D03*
X60350000Y-76937500D03*
X60750000Y-76937500D03*
X61150000Y-76937500D03*
X61550000Y-76937500D03*
X61950000Y-76937500D03*
X62350000Y-76937500D03*
X62750000Y-76937500D03*
X63150000Y-76937500D03*
D22*
X63837500Y-76250000D03*
X63837500Y-75850000D03*
X63837500Y-75450000D03*
X63837500Y-75050000D03*
X63837500Y-74650000D03*
X63837500Y-74250000D03*
X63837500Y-73850000D03*
X63837500Y-73450000D03*
X63837500Y-73050000D03*
X63837500Y-72650000D03*
X63837500Y-72250000D03*
X63837500Y-71850000D03*
X63837500Y-71450000D03*
X63837500Y-71050000D03*
X63837500Y-70650000D03*
X63837500Y-70250000D03*
X63837500Y-69850000D03*
D23*
X63150000Y-69162500D03*
X62750000Y-69162500D03*
X62350000Y-69162500D03*
X61950000Y-69162500D03*
X61550000Y-69162500D03*
X61150000Y-69162500D03*
X60750000Y-69162500D03*
X60350000Y-69162500D03*
X59950000Y-69162500D03*
X59550000Y-69162500D03*
X59150000Y-69162500D03*
X58750000Y-69162500D03*
X58350000Y-69162500D03*
X57950000Y-69162500D03*
X57550000Y-69162500D03*
X57150000Y-69162500D03*
X56750000Y-69162500D03*
D24*
X59950000Y-73050000D03*
%TD*%
D25*
%TO.C,J14*%
X61000000Y-27960000D03*
X60350000Y-27960000D03*
X59700000Y-27960000D03*
X59050000Y-27960000D03*
X58400000Y-27960000D03*
D26*
X63075000Y-25300000D03*
D27*
X62187500Y-27875000D03*
D28*
X60850000Y-25300000D03*
D29*
X58150000Y-25300000D03*
D27*
X57212500Y-27875000D03*
D26*
X56325000Y-25300000D03*
%TD*%
D12*
%TO.C,R19*%
X75040000Y-43250000D03*
X76060000Y-43250000D03*
%TD*%
D10*
%TO.C,C7*%
X64100000Y-78220000D03*
X64100000Y-79180000D03*
%TD*%
D30*
%TO.C,R22*%
X54750000Y-40010000D03*
X54750000Y-41030000D03*
%TD*%
D31*
%TO.C,TP10*%
X80400000Y-63900000D03*
%TD*%
D13*
%TO.C,C10*%
X54680000Y-72900000D03*
X53720000Y-72900000D03*
%TD*%
D32*
%TO.C,U7*%
X58750000Y-35980000D03*
X58750000Y-37250000D03*
X58750000Y-38520000D03*
X58750000Y-39790000D03*
X58750000Y-41060000D03*
D33*
X65050000Y-38520000D03*
%TD*%
D34*
%TO.C,J7*%
X35300000Y-60000000D03*
D16*
X35300000Y-53000000D03*
X35300000Y-46000000D03*
%TD*%
D34*
%TO.C,J13*%
X35323342Y-84542393D03*
D16*
X35323342Y-77542393D03*
%TD*%
D10*
%TO.C,C17*%
X80500000Y-73520000D03*
X80500000Y-74480000D03*
%TD*%
D12*
%TO.C,R2*%
X37090000Y-90900000D03*
X38110000Y-90900000D03*
%TD*%
D35*
%TO.C,D3*%
X54500000Y-43807500D03*
X54500000Y-42232500D03*
%TD*%
D36*
%TO.C,J6*%
X42257607Y-27323342D03*
D16*
X49257607Y-27323342D03*
%TD*%
D21*
%TO.C,R16*%
X41186679Y-60574196D03*
X41186679Y-58924196D03*
%TD*%
D10*
%TO.C,C4*%
X63100000Y-78220000D03*
X63100000Y-79180000D03*
%TD*%
D14*
%TO.C,C40*%
X58627775Y-33650615D03*
X59587775Y-33650615D03*
%TD*%
D37*
%TO.C,C23*%
X40667599Y-63995878D03*
X40667599Y-65545878D03*
%TD*%
D38*
%TO.C,D1*%
X35787500Y-90900000D03*
X34212500Y-90900000D03*
%TD*%
D13*
%TO.C,C16*%
X53746267Y-77424557D03*
X52786267Y-77424557D03*
%TD*%
D10*
%TO.C,C14*%
X51362519Y-74702289D03*
X51362519Y-75662289D03*
%TD*%
D39*
%TO.C,R1*%
X59025000Y-67685000D03*
X59025000Y-66665000D03*
%TD*%
D40*
%TO.C,U2*%
X46650000Y-65500000D03*
X46650000Y-65000000D03*
X46650000Y-64500000D03*
X46650000Y-64000000D03*
X46650000Y-63500000D03*
X42350000Y-63500000D03*
X42350000Y-64000000D03*
X42350000Y-64500000D03*
X42350000Y-65000000D03*
X42350000Y-65500000D03*
%TD*%
D13*
%TO.C,C42*%
X51030000Y-39700000D03*
X50070000Y-39700000D03*
%TD*%
D39*
%TO.C,R13*%
X79600000Y-57210000D03*
X79600000Y-56190000D03*
%TD*%
D12*
%TO.C,R7*%
X65129043Y-88000000D03*
X66149043Y-88000000D03*
%TD*%
D10*
%TO.C,C44*%
X56750000Y-40040000D03*
X56750000Y-41000000D03*
%TD*%
D38*
%TO.C,D2*%
X35800000Y-92700000D03*
X34225000Y-92700000D03*
%TD*%
D10*
%TO.C,C9*%
X58147773Y-78945000D03*
X58147773Y-79905000D03*
%TD*%
D41*
%TO.C,RV2*%
X39650000Y-56476481D03*
D42*
X40900000Y-53576481D03*
D41*
X42150000Y-56476481D03*
%TD*%
D10*
%TO.C,C43*%
X62017833Y-45490034D03*
X62017833Y-46450034D03*
%TD*%
D36*
%TO.C,J11*%
X62500000Y-98100000D03*
D16*
X69500000Y-98100000D03*
X76500000Y-98100000D03*
%TD*%
D30*
%TO.C,R9*%
X38200000Y-73290000D03*
X38200000Y-74310000D03*
%TD*%
D31*
%TO.C,TP5*%
X50500000Y-63000000D03*
%TD*%
D43*
%TO.C,C13*%
X55000000Y-67300000D03*
X55000000Y-65750000D03*
%TD*%
D20*
%TO.C,C15*%
X55100000Y-88280000D03*
X55100000Y-87320000D03*
%TD*%
D10*
%TO.C,C19*%
X39200000Y-73320000D03*
X39200000Y-74280000D03*
%TD*%
D31*
%TO.C,TP3*%
X69100000Y-59100000D03*
%TD*%
D39*
%TO.C,R17*%
X77544848Y-55188701D03*
X77544848Y-54168701D03*
%TD*%
D31*
%TO.C,TP4*%
X69100000Y-61700000D03*
%TD*%
D39*
%TO.C,R20*%
X46100000Y-49835000D03*
X46100000Y-48815000D03*
%TD*%
D44*
%TO.C,R8*%
X41210000Y-30100000D03*
X40190000Y-30100000D03*
%TD*%
D34*
%TO.C,J8*%
X84300000Y-60000000D03*
D16*
X84300000Y-53000000D03*
X84300000Y-46000000D03*
%TD*%
D30*
%TO.C,R21*%
X45100000Y-48815000D03*
X45100000Y-49835000D03*
%TD*%
D10*
%TO.C,C33*%
X56838197Y-37477251D03*
X56838197Y-38437251D03*
%TD*%
%TO.C,C39*%
X54838197Y-37477251D03*
X54838197Y-38437251D03*
%TD*%
%TO.C,C29*%
X71435741Y-54785041D03*
X71435741Y-55745041D03*
%TD*%
D30*
%TO.C,FB1*%
X57546470Y-32588154D03*
X57546470Y-33608154D03*
%TD*%
%TO.C,R10*%
X38200000Y-85590000D03*
X38200000Y-86610000D03*
%TD*%
D10*
%TO.C,C30*%
X39889524Y-59274308D03*
X39889524Y-60234308D03*
%TD*%
D45*
%TO.C,C31*%
X74950000Y-47525000D03*
X74950000Y-44575000D03*
%TD*%
D10*
%TO.C,C22*%
X74284962Y-62679728D03*
X74284962Y-63639728D03*
%TD*%
D36*
%TO.C,J5*%
X42500000Y-98100000D03*
D16*
X49500000Y-98100000D03*
X56500000Y-98100000D03*
%TD*%
D34*
%TO.C,J9*%
X84400000Y-92000000D03*
D16*
X84400000Y-85000000D03*
X84400000Y-78000000D03*
%TD*%
D44*
%TO.C,R6*%
X68110000Y-88000000D03*
X67090000Y-88000000D03*
%TD*%
D41*
%TO.C,RV1*%
X45023621Y-56473561D03*
D42*
X46273621Y-53573561D03*
D41*
X47523621Y-56473561D03*
%TD*%
D14*
%TO.C,C5*%
X65320000Y-69700000D03*
X66280000Y-69700000D03*
%TD*%
D39*
%TO.C,R14*%
X78570167Y-57242862D03*
X78570167Y-56222862D03*
%TD*%
D46*
%TO.C,J12*%
X78080000Y-27500000D03*
D47*
X75540000Y-27500000D03*
X73000000Y-27500000D03*
X70460000Y-27500000D03*
%TD*%
D10*
%TO.C,C45*%
X55750000Y-40040000D03*
X55750000Y-41000000D03*
%TD*%
D48*
%TO.C,REF\u002A\u002A*%
X34801999Y-98362001D03*
%TD*%
D30*
%TO.C,R12*%
X80600000Y-56190000D03*
X80600000Y-57210000D03*
%TD*%
D48*
%TO.C,REF\u002A\u002A*%
X84586001Y-98362001D03*
%TD*%
D20*
%TO.C,C12*%
X56250000Y-67580000D03*
X56250000Y-66620000D03*
%TD*%
D12*
%TO.C,R18*%
X77990000Y-53250000D03*
X79010000Y-53250000D03*
%TD*%
D48*
%TO.C,REF\u002A\u002A*%
X84586001Y-27137999D03*
%TD*%
D45*
%TO.C,C32*%
X45000000Y-47500000D03*
X45000000Y-44550000D03*
%TD*%
D49*
%TO.C,C25*%
X77525000Y-62705867D03*
X75975000Y-62705867D03*
%TD*%
D13*
%TO.C,C18*%
X41180000Y-31100000D03*
X40220000Y-31100000D03*
%TD*%
D43*
%TO.C,C26*%
X46679268Y-61853453D03*
X46679268Y-60303453D03*
%TD*%
D48*
%TO.C,REF\u002A\u002A*%
X34801999Y-27137999D03*
%TD*%
D31*
%TO.C,TP2*%
X50500000Y-65600000D03*
%TD*%
D14*
%TO.C,C6*%
X65320000Y-67700000D03*
X66280000Y-67700000D03*
%TD*%
D15*
%TO.C,J4*%
X84276658Y-33557607D03*
D16*
X84276658Y-40557607D03*
%TD*%
D34*
%TO.C,J10*%
X35323342Y-72242393D03*
D16*
X35323342Y-65242393D03*
%TD*%
D30*
%TO.C,R3*%
X54100000Y-87290000D03*
X54100000Y-88310000D03*
%TD*%
D31*
%TO.C,TP9*%
X38900000Y-62000000D03*
%TD*%
D34*
%TO.C,J1*%
X84323342Y-72442393D03*
D16*
X84323342Y-65442393D03*
%TD*%
D10*
%TO.C,C35*%
X55838197Y-37477251D03*
X55838197Y-38437251D03*
%TD*%
D31*
%TO.C,TP1*%
X69100000Y-56500000D03*
%TD*%
D10*
%TO.C,C21*%
X39352628Y-64023665D03*
X39352628Y-64983665D03*
%TD*%
%TO.C,C38*%
X63002157Y-45493953D03*
X63002157Y-46453953D03*
%TD*%
D31*
%TO.C,TP7*%
X69100000Y-64300000D03*
%TD*%
D50*
%TO.C,U6*%
X50950000Y-35562500D03*
X50000000Y-35562500D03*
X49050000Y-35562500D03*
X49050000Y-37837500D03*
X50950000Y-37837500D03*
%TD*%
D46*
%TO.C,JP1*%
X41450000Y-50580000D03*
D47*
X41450000Y-48040000D03*
X41450000Y-45500000D03*
%TD*%
D14*
%TO.C,C37*%
X58627775Y-32635709D03*
X59587775Y-32635709D03*
%TD*%
%TO.C,C41*%
X58752599Y-42721370D03*
X59712599Y-42721370D03*
%TD*%
D17*
%TO.C,U4*%
X74300000Y-56731633D03*
X75250000Y-56731633D03*
X76200000Y-56731633D03*
X76200000Y-54456633D03*
X74300000Y-54456633D03*
%TD*%
D37*
%TO.C,C24*%
X72975297Y-62690147D03*
X72975297Y-64240147D03*
%TD*%
D31*
%TO.C,TP8*%
X79100000Y-66200000D03*
%TD*%
D51*
%TO.C,SW1*%
X46100000Y-88200000D03*
X51900000Y-88200000D03*
X46100000Y-92200000D03*
X51900000Y-92200000D03*
%TD*%
D10*
%TO.C,C28*%
X77514396Y-56229269D03*
X77514396Y-57189269D03*
%TD*%
D46*
%TO.C,JP2*%
X78400000Y-50530000D03*
D47*
X78400000Y-47990000D03*
X78400000Y-45450000D03*
%TD*%
D12*
%TO.C,R4*%
X37102500Y-92700000D03*
X38122500Y-92700000D03*
%TD*%
D40*
%TO.C,U3*%
X73050000Y-59100000D03*
X73050000Y-59600000D03*
X73050000Y-60100000D03*
X73050000Y-60600000D03*
X73050000Y-61100000D03*
X77350000Y-61100000D03*
X77350000Y-60600000D03*
X77350000Y-60100000D03*
X77350000Y-59600000D03*
X77350000Y-59100000D03*
%TD*%
D31*
%TO.C,TP6*%
X50500000Y-60400000D03*
%TD*%
D14*
%TO.C,C3*%
X65300000Y-68700000D03*
X66260000Y-68700000D03*
%TD*%
D44*
%TO.C,FB2*%
X63007736Y-44494147D03*
X61987736Y-44494147D03*
%TD*%
D30*
%TO.C,R5*%
X81500000Y-73490000D03*
X81500000Y-74510000D03*
%TD*%
M02*
