%TF.GenerationSoftware,KiCad,Pcbnew,7.0.10*%
%TF.CreationDate,2024-05-02T22:21:23+08:00*%
%TF.ProjectId,dispo-board,64697370-6f2d-4626-9f61-72642e6b6963,rev?*%
%TF.SameCoordinates,Original*%
%TF.FileFunction,Copper,L4,Bot*%
%TF.FilePolarity,Positive*%
%FSLAX46Y46*%
G04 Gerber Fmt 4.6, Leading zero omitted, Abs format (unit mm)*
G04 Created by KiCad (PCBNEW 7.0.10) date 2024-05-02 22:21:23*
%MOMM*%
%LPD*%
G01*
G04 APERTURE LIST*
G04 Aperture macros list*
%AMRoundRect*
0 Rectangle with rounded corners*
0 $1 Rounding radius*
0 $2 $3 $4 $5 $6 $7 $8 $9 X,Y pos of 4 corners*
0 Add a 4 corners polygon primitive as box body*
4,1,4,$2,$3,$4,$5,$6,$7,$8,$9,$2,$3,0*
0 Add four circle primitives for the rounded corners*
1,1,$1+$1,$2,$3*
1,1,$1+$1,$4,$5*
1,1,$1+$1,$6,$7*
1,1,$1+$1,$8,$9*
0 Add four rect primitives between the rounded corners*
20,1,$1+$1,$2,$3,$4,$5,0*
20,1,$1+$1,$4,$5,$6,$7,0*
20,1,$1+$1,$6,$7,$8,$9,0*
20,1,$1+$1,$8,$9,$2,$3,0*%
G04 Aperture macros list end*
%TA.AperFunction,ComponentPad*%
%ADD10RoundRect,0.250002X1.499998X-1.499998X1.499998X1.499998X-1.499998X1.499998X-1.499998X-1.499998X0*%
%TD*%
%TA.AperFunction,ComponentPad*%
%ADD11C,3.500000*%
%TD*%
%TA.AperFunction,ComponentPad*%
%ADD12RoundRect,0.250002X-1.499998X1.499998X-1.499998X-1.499998X1.499998X-1.499998X1.499998X1.499998X0*%
%TD*%
%TA.AperFunction,ComponentPad*%
%ADD13RoundRect,0.250002X-1.499998X-1.499998X1.499998X-1.499998X1.499998X1.499998X-1.499998X1.499998X0*%
%TD*%
%TA.AperFunction,ComponentPad*%
%ADD14R,1.700000X1.700000*%
%TD*%
%TA.AperFunction,ComponentPad*%
%ADD15O,1.700000X1.700000*%
%TD*%
%TA.AperFunction,ComponentPad*%
%ADD16R,1.000000X1.000000*%
%TD*%
%TA.AperFunction,ComponentPad*%
%ADD17O,1.000000X1.000000*%
%TD*%
%TA.AperFunction,ViaPad*%
%ADD18C,0.450000*%
%TD*%
%TA.AperFunction,ViaPad*%
%ADD19C,0.800000*%
%TD*%
%TA.AperFunction,Conductor*%
%ADD20C,0.500000*%
%TD*%
%TA.AperFunction,Conductor*%
%ADD21C,0.250000*%
%TD*%
G04 APERTURE END LIST*
D10*
%TO.P,J10,1,Pin_1*%
%TO.N,GND*%
X29464000Y-37986393D03*
D11*
%TO.P,J10,2,Pin_2*%
%TO.N,GUITAR_IN_P*%
X29464000Y-30986393D03*
%TD*%
D12*
%TO.P,J11,1,Pin_1*%
%TO.N,GND*%
X107164658Y-30847607D03*
D11*
%TO.P,J11,2,Pin_2*%
%TO.N,GUITAR_OUT_P*%
X107164658Y-37847607D03*
%TD*%
D12*
%TO.P,J12,1,Pin_1*%
%TO.N,GUITAR_bypass*%
X29464000Y-43292000D03*
D11*
%TO.P,J12,2,Pin_2*%
%TO.N,GUITAR_IN_switch*%
X29464000Y-50292000D03*
%TO.P,J12,3,Pin_3*%
%TO.N,GUITAR_IN_\u00B5C*%
X29464000Y-57292000D03*
%TD*%
D13*
%TO.P,J1,1,Pin_1*%
%TO.N,GND*%
X35530000Y-25400000D03*
D11*
%TO.P,J1,2,Pin_2*%
%TO.N,ADC1_INP4*%
X42530000Y-25400000D03*
%TO.P,J1,3,Pin_3*%
%TO.N,+3.3VA*%
X49530000Y-25400000D03*
%TD*%
D14*
%TO.P,J4,1,Pin_1*%
%TO.N,GND*%
X90678000Y-25400000D03*
D15*
%TO.P,J4,2,Pin_2*%
%TO.N,I2C1_SDA*%
X93218000Y-25400000D03*
%TO.P,J4,3,Pin_3*%
%TO.N,I2C1_SCL*%
X95758000Y-25400000D03*
%TO.P,J4,4,Pin_4*%
%TO.N,+3V3*%
X98298000Y-25400000D03*
%TD*%
D13*
%TO.P,J7,1,Pin_1*%
%TO.N,DIG_IN2*%
X93077607Y-74953342D03*
D11*
%TO.P,J7,2,Pin_2*%
%TO.N,+3V3*%
X100077607Y-74953342D03*
%TD*%
D14*
%TO.P,JP2,1,A*%
%TO.N,GUITAR_OUT_switch*%
X102150438Y-53011352D03*
D15*
%TO.P,JP2,2,C*%
%TO.N,GUITAR_OUT_P*%
X102150438Y-55551352D03*
%TO.P,JP2,3,B*%
%TO.N,GUITAR_OUT_\u00B5C*%
X102150438Y-58091352D03*
%TD*%
D12*
%TO.P,J9,1,Pin_1*%
%TO.N,DIG_IN4*%
X107188000Y-62596000D03*
D11*
%TO.P,J9,2,Pin_2*%
%TO.N,+3V3*%
X107188000Y-69596000D03*
%TD*%
D16*
%TO.P,J14,1,VTref*%
%TO.N,+3V3*%
X45974000Y-33274000D03*
D17*
%TO.P,J14,2,SWDIO/TMS*%
%TO.N,SWDIO*%
X45974000Y-34544000D03*
%TO.P,J14,3,GND*%
%TO.N,GND*%
X44704000Y-33274000D03*
%TO.P,J14,4,SWCLK/TCK*%
%TO.N,SWCLK*%
X44704000Y-34544000D03*
%TO.P,J14,5,GND*%
%TO.N,GND*%
X43434000Y-33274000D03*
%TO.P,J14,6,SWO/TDO*%
%TO.N,SWO*%
X43434000Y-34544000D03*
%TO.P,J14,7,KEY*%
%TO.N,unconnected-(J14-KEY-Pad7)*%
X42164000Y-33274000D03*
%TO.P,J14,8,NC/TDI*%
%TO.N,unconnected-(J14-NC{slash}TDI-Pad8)*%
X42164000Y-34544000D03*
%TO.P,J14,9,GNDDetect*%
%TO.N,unconnected-(J14-GNDDetect-Pad9)*%
X40894000Y-33274000D03*
%TO.P,J14,10,~{RESET}*%
%TO.N,NRST*%
X40894000Y-34544000D03*
%TD*%
D13*
%TO.P,J3,1,Pin_1*%
%TO.N,GND*%
X58024000Y-74930000D03*
D11*
%TO.P,J3,2,Pin_2*%
%TO.N,ADC1_INP8*%
X65024000Y-74930000D03*
%TO.P,J3,3,Pin_3*%
%TO.N,+3.3VA*%
X72024000Y-74930000D03*
%TD*%
D10*
%TO.P,J8,1,Pin_1*%
%TO.N,DIG_IN3*%
X29487342Y-69736393D03*
D11*
%TO.P,J8,2,Pin_2*%
%TO.N,+3V3*%
X29487342Y-62736393D03*
%TD*%
D13*
%TO.P,J6,1,Pin_1*%
%TO.N,DIG_IN1*%
X79107607Y-74953342D03*
D11*
%TO.P,J6,2,Pin_2*%
%TO.N,+3V3*%
X86107607Y-74953342D03*
%TD*%
D14*
%TO.P,JP1,1,A*%
%TO.N,GUITAR_IN_switch*%
X34398306Y-53327793D03*
D15*
%TO.P,JP1,2,C*%
%TO.N,GUITAR_IN_P*%
X34398306Y-55867793D03*
%TO.P,JP1,3,B*%
%TO.N,GUITAR_IN_\u00B5C*%
X34398306Y-58407793D03*
%TD*%
D12*
%TO.P,J13,1,Pin_1*%
%TO.N,GUITAR_bypass*%
X107188000Y-43038000D03*
D11*
%TO.P,J13,2,Pin_2*%
%TO.N,GUITAR_OUT_switch*%
X107188000Y-50038000D03*
%TO.P,J13,3,Pin_3*%
%TO.N,GUITAR_OUT_\u00B5C*%
X107188000Y-57038000D03*
%TD*%
D13*
%TO.P,J2,1,Pin_1*%
%TO.N,GND*%
X36942000Y-74930000D03*
D11*
%TO.P,J2,2,Pin_2*%
%TO.N,ADC1_INP5*%
X43942000Y-74930000D03*
%TO.P,J2,3,Pin_3*%
%TO.N,+3.3VA*%
X50942000Y-74930000D03*
%TD*%
D18*
%TO.N,+3V3*%
X59944000Y-24130000D03*
X69596000Y-43688000D03*
X58928000Y-36830000D03*
X59182000Y-45974000D03*
X59182000Y-32004000D03*
D19*
X70306378Y-35745910D03*
D18*
X61976000Y-46228000D03*
D19*
%TO.N,GND*%
X63754000Y-43434000D03*
X52832000Y-26416000D03*
X63754000Y-39624000D03*
X30226000Y-34290000D03*
X91186000Y-62484000D03*
X96266000Y-42164000D03*
X85344000Y-64008000D03*
X47752000Y-42926000D03*
X60198000Y-67564000D03*
X85852000Y-40894000D03*
X80772000Y-69342000D03*
X28702000Y-53848000D03*
X61722000Y-42164000D03*
X89662000Y-31242000D03*
X69677788Y-46145625D03*
X95504000Y-69088000D03*
X75184000Y-40132000D03*
X58166000Y-30988000D03*
X70612000Y-30480000D03*
X81026000Y-60706000D03*
X53594000Y-69850000D03*
X53594000Y-67564000D03*
X74422000Y-38608000D03*
X50800000Y-29464000D03*
X55118000Y-44196000D03*
X93980000Y-60706000D03*
X37846000Y-60960000D03*
X47752000Y-29972000D03*
X46228000Y-70358000D03*
X82804000Y-74168000D03*
X89662000Y-36068000D03*
X44450000Y-44450000D03*
X62230000Y-49022000D03*
X45974000Y-24638000D03*
D18*
X68167663Y-48329870D03*
D19*
X69850000Y-69850000D03*
X64262000Y-38608000D03*
X99314000Y-29210000D03*
X60452000Y-50038000D03*
X79248000Y-63754000D03*
X61722000Y-75438000D03*
X47498000Y-75946000D03*
X40640000Y-54864000D03*
X28194000Y-65786000D03*
X34290000Y-51054000D03*
X68580000Y-74168000D03*
X28702000Y-34544000D03*
X59182000Y-54610000D03*
X49022000Y-64516000D03*
X33528000Y-39116000D03*
X30226000Y-46990000D03*
X71882000Y-24892000D03*
X62230000Y-68580000D03*
X37846000Y-47244000D03*
X71882000Y-23622000D03*
X103378000Y-43942000D03*
X64516000Y-35814000D03*
X83058000Y-75692000D03*
X60706000Y-22860000D03*
X50800000Y-42418000D03*
X101346000Y-47498000D03*
X101854000Y-41402000D03*
X82296000Y-66294000D03*
X98044000Y-32258000D03*
X73406000Y-66548000D03*
X42418000Y-56896000D03*
X78994000Y-33782000D03*
X47752000Y-74422000D03*
X98552000Y-49276000D03*
X104394000Y-55118000D03*
X77724000Y-30480000D03*
X61722000Y-58928000D03*
X77216000Y-35306000D03*
X64262000Y-51562000D03*
X56896000Y-26162000D03*
X58928000Y-47752000D03*
X71628000Y-26416000D03*
X88138000Y-69088000D03*
X62230000Y-38862000D03*
X64262000Y-33020000D03*
X99822000Y-57404000D03*
X28194000Y-46990000D03*
X48006000Y-31750000D03*
X87630000Y-31242000D03*
X68580000Y-76200000D03*
X52578000Y-24384000D03*
X94996000Y-36322000D03*
X59690000Y-58674000D03*
X30226000Y-53848000D03*
X37338000Y-32004000D03*
X71310212Y-43755326D03*
X52324000Y-43942000D03*
X67564000Y-66294000D03*
X69088000Y-54864000D03*
X39116000Y-25908000D03*
X100330000Y-66802000D03*
D18*
X68072000Y-52578000D03*
D19*
X34290000Y-68834000D03*
D18*
X67818000Y-51816000D03*
D19*
X87630000Y-37084000D03*
X43180000Y-69850000D03*
X46990000Y-67056000D03*
X66802000Y-41656000D03*
X36830000Y-64262000D03*
X64262000Y-54610000D03*
X37846000Y-44196000D03*
X40386000Y-74676000D03*
X38608000Y-39370000D03*
X72898000Y-70358000D03*
X80264000Y-24638000D03*
X38608000Y-36068000D03*
X40894000Y-44958000D03*
X97536000Y-53086000D03*
X38354000Y-50800000D03*
X30226000Y-66040000D03*
X34544000Y-33020000D03*
X97028000Y-28448000D03*
X74168000Y-36068000D03*
X54610000Y-30734000D03*
X59944000Y-33020000D03*
X67056000Y-33274000D03*
X32766000Y-64008000D03*
X55118000Y-59436000D03*
X42672000Y-67310000D03*
X39116000Y-24892000D03*
X90678000Y-56896000D03*
X62230000Y-70358000D03*
X39878000Y-70104000D03*
X46736000Y-44704000D03*
X91948000Y-38100000D03*
X65786000Y-70104000D03*
X78232000Y-66548000D03*
X87630000Y-60198000D03*
X61214000Y-25654000D03*
X51816000Y-51816000D03*
X65024000Y-66548000D03*
X85852000Y-25146000D03*
X94742000Y-31242000D03*
X76708000Y-40894000D03*
X87376000Y-46482000D03*
X88138000Y-51562000D03*
X58166000Y-66802000D03*
X37338000Y-70358000D03*
X71882000Y-46482000D03*
X51054000Y-32258000D03*
X85852000Y-46482000D03*
X40386000Y-75692000D03*
X86868000Y-38354000D03*
X71120000Y-62230000D03*
X34544000Y-44450000D03*
X32766000Y-36830000D03*
X52832000Y-42418000D03*
X38354000Y-67310000D03*
D18*
X66739987Y-48228822D03*
D19*
X45974000Y-26416000D03*
X66802000Y-40386000D03*
X61214000Y-74422000D03*
X97790000Y-56134000D03*
X65024000Y-61722000D03*
X87884000Y-66802000D03*
X94488000Y-66802000D03*
X61722000Y-40894000D03*
X34036000Y-42164000D03*
X45466000Y-64262000D03*
X56388000Y-70104000D03*
X96520000Y-45974000D03*
X34798000Y-61468000D03*
X99314000Y-47752000D03*
X64770000Y-43180000D03*
X89662000Y-34036000D03*
X97282000Y-65278000D03*
D18*
%TO.N,+3.3VA*%
X71882000Y-45212000D03*
X47244000Y-53594000D03*
X84328000Y-45720000D03*
X48822500Y-52393865D03*
%TO.N,NRST*%
X65786000Y-46228000D03*
X67056000Y-52324000D03*
%TO.N,Net-(C19-Pad1)*%
X60160200Y-36068000D03*
X58928000Y-43548000D03*
%TO.N,DIG_IN1*%
X56388000Y-39116000D03*
X65430400Y-68681600D03*
%TO.N,Net-(U5-OUT)*%
X96266000Y-47244000D03*
X94335600Y-45212000D03*
%TO.N,ADC1_INP4*%
X72228480Y-40825000D03*
%TO.N,ADC1_INP5*%
X62992000Y-60960000D03*
X73660000Y-39878000D03*
%TO.N,ADC1_INP8*%
X73914000Y-41148000D03*
X64262000Y-58420000D03*
%TO.N,I2C1_SDA*%
X58166000Y-41656000D03*
%TO.N,I2C1_SCL*%
X59182000Y-42825000D03*
%TO.N,LED_STATUS1*%
X64516000Y-29464000D03*
X66294000Y-35052000D03*
%TO.N,LED_STATUS2*%
X65785000Y-35814000D03*
X63754000Y-29972000D03*
%TO.N,I2S6_SDI*%
X51054000Y-55372000D03*
X74115766Y-46556326D03*
%TO.N,Net-(U3-OUT)*%
X38862000Y-52324000D03*
X38862000Y-54356000D03*
%TO.N,I2S6_CK*%
X73486200Y-50872200D03*
X73488960Y-46011602D03*
X53603996Y-52455548D03*
%TO.N,I2S6_WS*%
X70222956Y-52921836D03*
X72898000Y-45466000D03*
X58674000Y-53086000D03*
%TO.N,I2S6_MCK*%
X82030004Y-57889321D03*
X53848000Y-56388000D03*
X69088000Y-44450000D03*
%TO.N,I2S6_SDO*%
X73914000Y-43180000D03*
X77470000Y-47244000D03*
%TO.N,DIG_IN2*%
X87225638Y-68165360D03*
X57150000Y-39225000D03*
%TO.N,DIG_IN3*%
X58902600Y-60223400D03*
X56979290Y-39961290D03*
%TO.N,DIG_IN4*%
X57771100Y-40093292D03*
X86868000Y-67552600D03*
%TD*%
D20*
%TO.N,+3V3*%
X70306378Y-35745910D02*
X69867688Y-36184600D01*
D21*
X59944000Y-24130000D02*
X59944000Y-26670000D01*
X61976000Y-43434000D02*
X59436000Y-45974000D01*
X45974000Y-32512000D02*
X45466000Y-32004000D01*
X61976000Y-43434000D02*
X64516000Y-40894000D01*
X70306378Y-33222378D02*
X70306378Y-35745910D01*
X45466000Y-32004000D02*
X40386000Y-32004000D01*
X69596000Y-43767323D02*
X69565323Y-43798000D01*
X59944000Y-26670000D02*
X61468000Y-28194000D01*
X69596000Y-32512000D02*
X70306378Y-33222378D01*
D20*
X69225400Y-36184600D02*
X64516000Y-40894000D01*
X69867688Y-36184600D02*
X69225400Y-36184600D01*
D21*
X36576000Y-35814000D02*
X36576000Y-61976000D01*
X97006265Y-71882000D02*
X89178949Y-71882000D01*
X105434949Y-69596000D02*
X107188000Y-69596000D01*
X67420000Y-43798000D02*
X64516000Y-40894000D01*
X69596000Y-43688000D02*
X69596000Y-43767323D01*
X69565323Y-43798000D02*
X67420000Y-43798000D01*
X89178949Y-71882000D02*
X86107607Y-74953342D01*
X69675323Y-43688000D02*
X69596000Y-43688000D01*
X69088000Y-32004000D02*
X69596000Y-32512000D01*
X36576000Y-61976000D02*
X35815607Y-62736393D01*
X40386000Y-32004000D02*
X36576000Y-35814000D01*
X65278000Y-28194000D02*
X69596000Y-32512000D01*
X45974000Y-33274000D02*
X45974000Y-32512000D01*
X100077607Y-74953342D02*
X97006265Y-71882000D01*
X69665272Y-43698051D02*
X69675323Y-43688000D01*
X35815607Y-62736393D02*
X29487342Y-62736393D01*
X59436000Y-45974000D02*
X59182000Y-45974000D01*
X59182000Y-37084000D02*
X62992000Y-40894000D01*
X62992000Y-40894000D02*
X64516000Y-40894000D01*
X61976000Y-46228000D02*
X61976000Y-43434000D01*
X58928000Y-36830000D02*
X59182000Y-37084000D01*
X100077607Y-74953342D02*
X105434949Y-69596000D01*
X59182000Y-32004000D02*
X69088000Y-32004000D01*
X61468000Y-28194000D02*
X65278000Y-28194000D01*
%TO.N,+3.3VA*%
X71882000Y-45212000D02*
X70307200Y-46786800D01*
X64770000Y-57404000D02*
X50546000Y-57404000D01*
X49530000Y-25400000D02*
X49530000Y-51695558D01*
X77224400Y-44610800D02*
X72483200Y-44610800D01*
X50546000Y-57404000D02*
X48834779Y-55692779D01*
X48834779Y-55692779D02*
X48834779Y-52390779D01*
X69280800Y-72186800D02*
X72024000Y-74930000D01*
X70307200Y-51866800D02*
X64770000Y-57404000D01*
X49530000Y-51695558D02*
X48834779Y-52390779D01*
X50942000Y-68805896D02*
X50942000Y-74930000D01*
X72483200Y-44610800D02*
X71882000Y-45212000D01*
X53685200Y-72186800D02*
X69280800Y-72186800D01*
X84328000Y-45720000D02*
X78333600Y-45720000D01*
X47244000Y-53594000D02*
X47244000Y-65107896D01*
X78333600Y-45720000D02*
X77224400Y-44610800D01*
X70307200Y-46786800D02*
X70307200Y-51866800D01*
X47244000Y-65107896D02*
X50942000Y-68805896D01*
X50942000Y-74930000D02*
X53685200Y-72186800D01*
%TD*%
%TA.AperFunction,Conductor*%
%TO.N,GND*%
G36*
X44418199Y-33108993D02*
G01*
X44379000Y-33216694D01*
X44379000Y-33331306D01*
X44418199Y-33439007D01*
X44489517Y-33524000D01*
X43648483Y-33524000D01*
X43719801Y-33439007D01*
X43759000Y-33331306D01*
X43759000Y-33216694D01*
X43719801Y-33108993D01*
X43648483Y-33024000D01*
X44489517Y-33024000D01*
X44418199Y-33108993D01*
G37*
%TD.AperFunction*%
%TA.AperFunction,Conductor*%
G36*
X107191243Y-22098669D02*
G01*
X107321354Y-22105488D01*
X107534640Y-22117466D01*
X107547038Y-22118793D01*
X107706490Y-22144048D01*
X107707643Y-22144237D01*
X107888379Y-22174945D01*
X107899670Y-22177411D01*
X108061214Y-22220697D01*
X108063444Y-22221317D01*
X108233795Y-22270394D01*
X108243886Y-22273778D01*
X108402329Y-22334599D01*
X108405163Y-22335729D01*
X108566824Y-22402691D01*
X108575633Y-22406752D01*
X108727927Y-22484350D01*
X108731485Y-22486238D01*
X108883552Y-22570283D01*
X108891078Y-22574799D01*
X109034936Y-22668221D01*
X109039130Y-22671068D01*
X109180241Y-22771192D01*
X109186522Y-22775956D01*
X109320084Y-22884113D01*
X109324675Y-22888019D01*
X109453462Y-23003109D01*
X109458516Y-23007888D01*
X109580110Y-23129482D01*
X109584889Y-23134536D01*
X109699979Y-23263323D01*
X109703885Y-23267914D01*
X109812042Y-23401476D01*
X109816806Y-23407757D01*
X109916921Y-23548856D01*
X109919786Y-23553076D01*
X110013191Y-23696907D01*
X110017724Y-23704461D01*
X110098177Y-23850030D01*
X110101726Y-23856450D01*
X110103672Y-23860117D01*
X110153602Y-23958111D01*
X110181238Y-24012349D01*
X110185314Y-24021190D01*
X110252233Y-24182745D01*
X110253431Y-24185750D01*
X110263045Y-24210795D01*
X110314217Y-24344103D01*
X110317607Y-24354213D01*
X110366680Y-24524551D01*
X110367301Y-24526784D01*
X110410583Y-24688313D01*
X110413056Y-24699636D01*
X110443744Y-24880253D01*
X110443969Y-24881626D01*
X110469202Y-25040936D01*
X110470534Y-25053381D01*
X110482501Y-25266475D01*
X110482526Y-25266938D01*
X110489330Y-25396756D01*
X110489500Y-25403246D01*
X110489500Y-75180753D01*
X110489330Y-75187243D01*
X110482526Y-75317060D01*
X110482501Y-75317523D01*
X110470534Y-75530617D01*
X110469202Y-75543062D01*
X110443969Y-75702372D01*
X110443744Y-75703745D01*
X110413056Y-75884362D01*
X110410583Y-75895685D01*
X110367301Y-76057214D01*
X110366680Y-76059447D01*
X110317607Y-76229785D01*
X110314217Y-76239895D01*
X110253436Y-76398237D01*
X110252233Y-76401253D01*
X110185314Y-76562808D01*
X110181238Y-76571649D01*
X110103683Y-76723861D01*
X110101726Y-76727548D01*
X110017724Y-76879537D01*
X110013191Y-76887091D01*
X109919786Y-77030922D01*
X109916921Y-77035142D01*
X109816806Y-77176241D01*
X109812042Y-77182522D01*
X109703885Y-77316084D01*
X109699979Y-77320675D01*
X109584889Y-77449462D01*
X109580110Y-77454516D01*
X109458516Y-77576110D01*
X109453462Y-77580889D01*
X109324675Y-77695979D01*
X109320084Y-77699885D01*
X109186522Y-77808042D01*
X109180241Y-77812806D01*
X109039142Y-77912921D01*
X109034922Y-77915786D01*
X108891091Y-78009191D01*
X108883537Y-78013724D01*
X108731548Y-78097726D01*
X108727861Y-78099683D01*
X108575649Y-78177238D01*
X108566808Y-78181314D01*
X108405253Y-78248233D01*
X108402237Y-78249436D01*
X108243895Y-78310217D01*
X108233785Y-78313607D01*
X108063447Y-78362680D01*
X108061214Y-78363301D01*
X107899685Y-78406583D01*
X107888362Y-78409056D01*
X107707745Y-78439744D01*
X107706372Y-78439969D01*
X107547062Y-78465202D01*
X107534617Y-78466534D01*
X107321523Y-78478501D01*
X107321060Y-78478526D01*
X107191244Y-78485330D01*
X107184754Y-78485500D01*
X29467246Y-78485500D01*
X29460756Y-78485330D01*
X29330938Y-78478526D01*
X29330475Y-78478501D01*
X29117381Y-78466534D01*
X29104936Y-78465202D01*
X28945626Y-78439969D01*
X28944253Y-78439744D01*
X28763636Y-78409056D01*
X28752313Y-78406583D01*
X28590784Y-78363301D01*
X28588551Y-78362680D01*
X28418213Y-78313607D01*
X28408103Y-78310217D01*
X28249761Y-78249436D01*
X28246745Y-78248233D01*
X28085190Y-78181314D01*
X28076349Y-78177238D01*
X28022111Y-78149602D01*
X27924117Y-78099672D01*
X27920471Y-78097737D01*
X27768461Y-78013724D01*
X27760907Y-78009191D01*
X27617076Y-77915786D01*
X27612856Y-77912921D01*
X27471757Y-77812806D01*
X27465476Y-77808042D01*
X27331914Y-77699885D01*
X27327323Y-77695979D01*
X27198536Y-77580889D01*
X27193482Y-77576110D01*
X27071888Y-77454516D01*
X27067109Y-77449462D01*
X26952019Y-77320675D01*
X26948113Y-77316084D01*
X26839956Y-77182522D01*
X26835192Y-77176241D01*
X26791284Y-77114358D01*
X26735068Y-77035130D01*
X26732212Y-77030922D01*
X26707727Y-76993218D01*
X26638799Y-76887078D01*
X26634283Y-76879552D01*
X26550238Y-76727485D01*
X26548350Y-76723927D01*
X26470752Y-76571633D01*
X26466691Y-76562824D01*
X26399729Y-76401163D01*
X26398599Y-76398329D01*
X26337778Y-76239886D01*
X26334394Y-76229795D01*
X26285317Y-76059444D01*
X26284697Y-76057214D01*
X26241411Y-75895670D01*
X26238945Y-75884379D01*
X26208237Y-75703643D01*
X26208048Y-75702490D01*
X26182793Y-75543038D01*
X26181466Y-75530640D01*
X26169482Y-75317233D01*
X26169473Y-75317060D01*
X26162670Y-75187243D01*
X26162585Y-75184000D01*
X28108341Y-75184000D01*
X28128936Y-75419403D01*
X28128938Y-75419413D01*
X28190094Y-75647655D01*
X28190096Y-75647659D01*
X28190097Y-75647663D01*
X28216201Y-75703643D01*
X28289964Y-75861828D01*
X28289965Y-75861830D01*
X28425505Y-76055402D01*
X28592597Y-76222494D01*
X28786169Y-76358034D01*
X28786171Y-76358035D01*
X29000337Y-76457903D01*
X29228592Y-76519063D01*
X29405032Y-76534499D01*
X29405033Y-76534500D01*
X29405034Y-76534500D01*
X29522967Y-76534500D01*
X29522967Y-76534499D01*
X29699408Y-76519063D01*
X29927663Y-76457903D01*
X30141829Y-76358035D01*
X30335401Y-76222495D01*
X30502495Y-76055401D01*
X30638035Y-75861830D01*
X30737903Y-75647663D01*
X30799063Y-75419408D01*
X30819659Y-75184000D01*
X30799063Y-74948592D01*
X30737903Y-74720337D01*
X30719093Y-74680000D01*
X34692000Y-74680000D01*
X36208403Y-74680000D01*
X36181650Y-74756455D01*
X36162096Y-74930000D01*
X36181650Y-75103545D01*
X36208403Y-75180000D01*
X34692001Y-75180000D01*
X34692001Y-76479984D01*
X34702494Y-76582695D01*
X34757641Y-76749117D01*
X34757643Y-76749122D01*
X34849684Y-76898344D01*
X34973655Y-77022315D01*
X35122877Y-77114356D01*
X35122882Y-77114358D01*
X35289304Y-77169505D01*
X35289311Y-77169506D01*
X35392021Y-77179999D01*
X36691999Y-77179999D01*
X36692000Y-77179998D01*
X36692000Y-75663597D01*
X36768455Y-75690350D01*
X36898476Y-75705000D01*
X36985524Y-75705000D01*
X37115545Y-75690350D01*
X37192000Y-75663597D01*
X37192000Y-77179999D01*
X38491970Y-77179999D01*
X38491984Y-77179998D01*
X38594695Y-77169505D01*
X38761117Y-77114358D01*
X38761122Y-77114356D01*
X38910344Y-77022315D01*
X39034315Y-76898344D01*
X39126356Y-76749122D01*
X39126358Y-76749117D01*
X39181505Y-76582695D01*
X39181506Y-76582688D01*
X39191999Y-76479984D01*
X39192000Y-76479971D01*
X39192000Y-75180000D01*
X37675597Y-75180000D01*
X37702350Y-75103545D01*
X37721904Y-74930000D01*
X41886709Y-74930000D01*
X41905851Y-75209862D01*
X41905852Y-75209864D01*
X41962921Y-75484499D01*
X41962926Y-75484516D01*
X42056863Y-75748828D01*
X42056864Y-75748830D01*
X42185919Y-75997896D01*
X42347688Y-76227069D01*
X42347692Y-76227073D01*
X42347692Y-76227074D01*
X42369492Y-76250416D01*
X42539155Y-76432081D01*
X42756754Y-76609111D01*
X42756756Y-76609112D01*
X42756757Y-76609113D01*
X42996433Y-76754863D01*
X43180353Y-76834750D01*
X43253725Y-76866620D01*
X43523839Y-76942303D01*
X43768159Y-76975884D01*
X43801741Y-76980500D01*
X43801742Y-76980500D01*
X44082259Y-76980500D01*
X44112219Y-76976381D01*
X44360161Y-76942303D01*
X44630275Y-76866620D01*
X44887568Y-76754862D01*
X45127246Y-76609111D01*
X45344845Y-76432081D01*
X45536312Y-76227069D01*
X45698081Y-75997896D01*
X45827136Y-75748830D01*
X45921075Y-75484511D01*
X45921076Y-75484504D01*
X45921078Y-75484499D01*
X45973297Y-75233204D01*
X45978148Y-75209862D01*
X45997291Y-74930000D01*
X45978148Y-74650138D01*
X45948230Y-74506165D01*
X45921078Y-74375500D01*
X45921073Y-74375483D01*
X45895576Y-74303742D01*
X45827136Y-74111170D01*
X45698081Y-73862104D01*
X45536312Y-73632931D01*
X45536307Y-73632925D01*
X45344845Y-73427919D01*
X45127246Y-73250889D01*
X45127244Y-73250888D01*
X45127242Y-73250886D01*
X44887566Y-73105136D01*
X44630276Y-72993380D01*
X44360166Y-72917698D01*
X44360162Y-72917697D01*
X44360161Y-72917697D01*
X44178724Y-72892759D01*
X44082259Y-72879500D01*
X44082258Y-72879500D01*
X43801742Y-72879500D01*
X43801741Y-72879500D01*
X43523839Y-72917697D01*
X43523833Y-72917698D01*
X43253723Y-72993380D01*
X42996433Y-73105136D01*
X42756757Y-73250886D01*
X42539154Y-73427919D01*
X42347692Y-73632925D01*
X42347692Y-73632926D01*
X42347689Y-73632928D01*
X42347688Y-73632931D01*
X42282982Y-73724597D01*
X42185919Y-73862103D01*
X42056863Y-74111171D01*
X41962926Y-74375483D01*
X41962921Y-74375500D01*
X41905852Y-74650135D01*
X41905851Y-74650137D01*
X41886709Y-74930000D01*
X37721904Y-74930000D01*
X37702350Y-74756455D01*
X37675597Y-74680000D01*
X39191999Y-74680000D01*
X39191999Y-73380030D01*
X39191998Y-73380015D01*
X39181505Y-73277304D01*
X39126358Y-73110882D01*
X39126356Y-73110877D01*
X39034315Y-72961655D01*
X38910344Y-72837684D01*
X38761122Y-72745643D01*
X38761117Y-72745641D01*
X38594695Y-72690494D01*
X38594688Y-72690493D01*
X38491984Y-72680000D01*
X37192000Y-72680000D01*
X37192000Y-74196402D01*
X37115545Y-74169650D01*
X36985524Y-74155000D01*
X36898476Y-74155000D01*
X36768455Y-74169650D01*
X36692000Y-74196402D01*
X36692000Y-72680000D01*
X35392030Y-72680000D01*
X35392014Y-72680001D01*
X35289304Y-72690494D01*
X35122882Y-72745641D01*
X35122877Y-72745643D01*
X34973655Y-72837684D01*
X34849684Y-72961655D01*
X34757643Y-73110877D01*
X34757641Y-73110882D01*
X34702494Y-73277304D01*
X34702493Y-73277311D01*
X34692000Y-73380015D01*
X34692000Y-74680000D01*
X30719093Y-74680000D01*
X30638035Y-74506171D01*
X30638034Y-74506169D01*
X30502494Y-74312597D01*
X30335402Y-74145505D01*
X30141830Y-74009965D01*
X30141828Y-74009964D01*
X30034746Y-73960031D01*
X29927663Y-73910097D01*
X29927659Y-73910096D01*
X29927655Y-73910094D01*
X29699413Y-73848938D01*
X29699403Y-73848936D01*
X29522967Y-73833500D01*
X29522966Y-73833500D01*
X29405034Y-73833500D01*
X29405033Y-73833500D01*
X29228596Y-73848936D01*
X29228586Y-73848938D01*
X29000344Y-73910094D01*
X29000335Y-73910098D01*
X28786171Y-74009964D01*
X28786169Y-74009965D01*
X28592597Y-74145505D01*
X28425506Y-74312597D01*
X28425501Y-74312604D01*
X28289967Y-74506165D01*
X28289965Y-74506169D01*
X28190098Y-74720335D01*
X28190094Y-74720344D01*
X28128938Y-74948586D01*
X28128936Y-74948596D01*
X28108341Y-75183999D01*
X28108341Y-75184000D01*
X26162585Y-75184000D01*
X26162500Y-75180754D01*
X26162500Y-71279491D01*
X27436842Y-71279491D01*
X27447465Y-71367953D01*
X27447466Y-71367956D01*
X27498808Y-71498151D01*
X27502982Y-71508736D01*
X27594419Y-71629315D01*
X27714998Y-71720752D01*
X27715001Y-71720754D01*
X27855779Y-71776269D01*
X27944244Y-71786893D01*
X31030440Y-71786893D01*
X31118905Y-71776269D01*
X31259683Y-71720754D01*
X31380264Y-71629315D01*
X31471703Y-71508734D01*
X31527218Y-71367956D01*
X31537842Y-71279491D01*
X31537842Y-68193295D01*
X31527218Y-68104830D01*
X31471703Y-67964052D01*
X31471701Y-67964049D01*
X31380264Y-67843470D01*
X31259685Y-67752033D01*
X31259683Y-67752032D01*
X31118905Y-67696517D01*
X31118902Y-67696516D01*
X31030440Y-67685893D01*
X27944244Y-67685893D01*
X27855781Y-67696516D01*
X27855780Y-67696516D01*
X27855779Y-67696517D01*
X27759626Y-67734434D01*
X27714998Y-67752033D01*
X27594419Y-67843470D01*
X27502982Y-67964049D01*
X27447466Y-68104831D01*
X27447465Y-68104832D01*
X27436842Y-68193294D01*
X27436842Y-71279491D01*
X26162500Y-71279491D01*
X26162500Y-62736393D01*
X27432051Y-62736393D01*
X27451193Y-63016255D01*
X27451194Y-63016257D01*
X27508263Y-63290892D01*
X27508268Y-63290909D01*
X27602205Y-63555221D01*
X27602206Y-63555223D01*
X27731261Y-63804289D01*
X27893030Y-64033462D01*
X27893034Y-64033466D01*
X27893034Y-64033467D01*
X28074304Y-64227560D01*
X28084497Y-64238474D01*
X28302096Y-64415504D01*
X28302098Y-64415505D01*
X28302099Y-64415506D01*
X28541775Y-64561256D01*
X28713569Y-64635876D01*
X28799067Y-64673013D01*
X29069181Y-64748696D01*
X29313501Y-64782277D01*
X29347083Y-64786893D01*
X29347084Y-64786893D01*
X29627601Y-64786893D01*
X29657561Y-64782774D01*
X29905503Y-64748696D01*
X30175617Y-64673013D01*
X30432910Y-64561255D01*
X30672588Y-64415504D01*
X30890187Y-64238474D01*
X31081654Y-64033462D01*
X31243423Y-63804289D01*
X31372478Y-63555223D01*
X31466417Y-63290904D01*
X31467900Y-63283766D01*
X31472702Y-63260663D01*
X31505615Y-63199031D01*
X31566624Y-63164977D01*
X31594108Y-63161893D01*
X35882999Y-63161893D01*
X35883000Y-63161893D01*
X35905967Y-63154429D01*
X35924883Y-63149888D01*
X35948733Y-63146112D01*
X35970243Y-63135150D01*
X35988221Y-63127703D01*
X36011188Y-63120242D01*
X36030725Y-63106046D01*
X36047313Y-63095881D01*
X36068827Y-63084921D01*
X36164135Y-62989613D01*
X36164135Y-62989612D01*
X36811778Y-62341967D01*
X36811781Y-62341966D01*
X36829219Y-62324528D01*
X36829220Y-62324528D01*
X36924528Y-62229220D01*
X36935493Y-62207698D01*
X36945658Y-62191112D01*
X36959849Y-62171581D01*
X36967310Y-62148614D01*
X36974759Y-62130634D01*
X36985718Y-62109128D01*
X36985718Y-62109127D01*
X36985719Y-62109126D01*
X36989495Y-62085276D01*
X36994036Y-62066360D01*
X37001500Y-62043393D01*
X37001500Y-61908607D01*
X37001500Y-54356000D01*
X38331965Y-54356000D01*
X38348148Y-54478921D01*
X38350026Y-54493181D01*
X38350027Y-54493186D01*
X38402974Y-54621015D01*
X38402975Y-54621017D01*
X38402976Y-54621018D01*
X38487209Y-54730791D01*
X38596982Y-54815024D01*
X38724817Y-54867974D01*
X38847702Y-54884152D01*
X38861999Y-54886035D01*
X38862000Y-54886035D01*
X38862001Y-54886035D01*
X38874947Y-54884330D01*
X38999183Y-54867974D01*
X39127018Y-54815024D01*
X39236791Y-54730791D01*
X39321024Y-54621018D01*
X39373974Y-54493183D01*
X39392035Y-54356000D01*
X39373974Y-54218817D01*
X39321024Y-54090983D01*
X39236791Y-53981209D01*
X39236789Y-53981208D01*
X39236789Y-53981207D01*
X39139061Y-53906217D01*
X39127018Y-53896976D01*
X39127017Y-53896975D01*
X39127015Y-53896974D01*
X38999186Y-53844027D01*
X38999184Y-53844026D01*
X38999183Y-53844026D01*
X38907727Y-53831985D01*
X38862001Y-53825965D01*
X38861999Y-53825965D01*
X38793408Y-53834995D01*
X38724817Y-53844026D01*
X38724816Y-53844026D01*
X38724813Y-53844027D01*
X38596985Y-53896974D01*
X38487209Y-53981209D01*
X38402974Y-54090985D01*
X38350027Y-54218813D01*
X38350026Y-54218816D01*
X38350026Y-54218817D01*
X38346454Y-54245951D01*
X38332682Y-54350557D01*
X38331965Y-54356000D01*
X37001500Y-54356000D01*
X37001500Y-53594000D01*
X46713965Y-53594000D01*
X46732026Y-53731181D01*
X46732027Y-53731186D01*
X46784975Y-53859016D01*
X46784977Y-53859020D01*
X46792872Y-53869308D01*
X46818070Y-53934476D01*
X46818500Y-53944799D01*
X46818500Y-65175290D01*
X46825962Y-65198254D01*
X46830503Y-65217169D01*
X46833470Y-65235906D01*
X46834281Y-65241023D01*
X46845243Y-65262537D01*
X46852688Y-65280511D01*
X46860150Y-65303476D01*
X46874340Y-65323006D01*
X46884508Y-65339599D01*
X46895470Y-65361114D01*
X50480181Y-68945825D01*
X50513666Y-69007148D01*
X50516500Y-69033506D01*
X50516500Y-72825720D01*
X50496815Y-72892759D01*
X50444011Y-72938514D01*
X50425956Y-72945121D01*
X50253728Y-72993378D01*
X50253723Y-72993380D01*
X49996433Y-73105136D01*
X49756757Y-73250886D01*
X49539154Y-73427919D01*
X49347692Y-73632925D01*
X49347692Y-73632926D01*
X49347689Y-73632928D01*
X49347688Y-73632931D01*
X49282982Y-73724597D01*
X49185919Y-73862103D01*
X49056863Y-74111171D01*
X48962926Y-74375483D01*
X48962921Y-74375500D01*
X48905852Y-74650135D01*
X48905851Y-74650137D01*
X48886709Y-74930000D01*
X48905851Y-75209862D01*
X48905852Y-75209864D01*
X48962921Y-75484499D01*
X48962926Y-75484516D01*
X49056863Y-75748828D01*
X49056864Y-75748830D01*
X49185919Y-75997896D01*
X49347688Y-76227069D01*
X49347692Y-76227073D01*
X49347692Y-76227074D01*
X49369492Y-76250416D01*
X49539155Y-76432081D01*
X49756754Y-76609111D01*
X49756756Y-76609112D01*
X49756757Y-76609113D01*
X49996433Y-76754863D01*
X50180353Y-76834750D01*
X50253725Y-76866620D01*
X50523839Y-76942303D01*
X50768159Y-76975884D01*
X50801741Y-76980500D01*
X50801742Y-76980500D01*
X51082259Y-76980500D01*
X51112219Y-76976381D01*
X51360161Y-76942303D01*
X51630275Y-76866620D01*
X51887568Y-76754862D01*
X52127246Y-76609111D01*
X52344845Y-76432081D01*
X52536312Y-76227069D01*
X52698081Y-75997896D01*
X52827136Y-75748830D01*
X52921075Y-75484511D01*
X52921076Y-75484504D01*
X52921078Y-75484499D01*
X52973297Y-75233204D01*
X52978148Y-75209862D01*
X52997291Y-74930000D01*
X52978148Y-74650138D01*
X52948230Y-74506165D01*
X52921078Y-74375500D01*
X52921073Y-74375483D01*
X52895576Y-74303742D01*
X52827136Y-74111170D01*
X52710323Y-73885730D01*
X52696959Y-73817155D01*
X52722793Y-73752236D01*
X52732732Y-73741014D01*
X53825129Y-72648619D01*
X53886452Y-72615134D01*
X53912810Y-72612300D01*
X55983953Y-72612300D01*
X56050992Y-72631985D01*
X56096747Y-72684789D01*
X56106691Y-72753947D01*
X56077666Y-72817503D01*
X56060863Y-72833567D01*
X56055654Y-72837685D01*
X55931684Y-72961655D01*
X55839643Y-73110877D01*
X55839641Y-73110882D01*
X55784494Y-73277304D01*
X55784493Y-73277311D01*
X55774000Y-73380015D01*
X55774000Y-74680000D01*
X57290403Y-74680000D01*
X57263650Y-74756455D01*
X57244096Y-74930000D01*
X57263650Y-75103545D01*
X57290403Y-75180000D01*
X55774001Y-75180000D01*
X55774001Y-76479984D01*
X55784494Y-76582695D01*
X55839641Y-76749117D01*
X55839643Y-76749122D01*
X55931684Y-76898344D01*
X56055655Y-77022315D01*
X56204877Y-77114356D01*
X56204882Y-77114358D01*
X56371304Y-77169505D01*
X56371311Y-77169506D01*
X56474021Y-77179999D01*
X57773999Y-77179999D01*
X57774000Y-77179998D01*
X57774000Y-75663597D01*
X57850455Y-75690350D01*
X57980476Y-75705000D01*
X58067524Y-75705000D01*
X58197545Y-75690350D01*
X58274000Y-75663597D01*
X58274000Y-77179999D01*
X59573970Y-77179999D01*
X59573984Y-77179998D01*
X59676695Y-77169505D01*
X59843117Y-77114358D01*
X59843122Y-77114356D01*
X59992344Y-77022315D01*
X60116315Y-76898344D01*
X60208356Y-76749122D01*
X60208358Y-76749117D01*
X60263505Y-76582695D01*
X60263506Y-76582688D01*
X60273999Y-76479984D01*
X60274000Y-76479971D01*
X60274000Y-75180000D01*
X58757597Y-75180000D01*
X58784350Y-75103545D01*
X58803904Y-74930000D01*
X62968709Y-74930000D01*
X62987851Y-75209862D01*
X62987852Y-75209864D01*
X63044921Y-75484499D01*
X63044926Y-75484516D01*
X63138863Y-75748828D01*
X63138864Y-75748830D01*
X63267919Y-75997896D01*
X63429688Y-76227069D01*
X63429692Y-76227073D01*
X63429692Y-76227074D01*
X63451492Y-76250416D01*
X63621155Y-76432081D01*
X63838754Y-76609111D01*
X63838756Y-76609112D01*
X63838757Y-76609113D01*
X64078433Y-76754863D01*
X64262353Y-76834750D01*
X64335725Y-76866620D01*
X64605839Y-76942303D01*
X64850159Y-76975884D01*
X64883741Y-76980500D01*
X64883742Y-76980500D01*
X65164259Y-76980500D01*
X65194219Y-76976381D01*
X65442161Y-76942303D01*
X65712275Y-76866620D01*
X65969568Y-76754862D01*
X66209246Y-76609111D01*
X66426845Y-76432081D01*
X66618312Y-76227069D01*
X66780081Y-75997896D01*
X66909136Y-75748830D01*
X67003075Y-75484511D01*
X67003076Y-75484504D01*
X67003078Y-75484499D01*
X67055297Y-75233204D01*
X67060148Y-75209862D01*
X67079291Y-74930000D01*
X67060148Y-74650138D01*
X67030230Y-74506165D01*
X67003078Y-74375500D01*
X67003073Y-74375483D01*
X66977576Y-74303742D01*
X66909136Y-74111170D01*
X66780081Y-73862104D01*
X66618312Y-73632931D01*
X66618307Y-73632925D01*
X66426845Y-73427919D01*
X66209246Y-73250889D01*
X66209244Y-73250888D01*
X66209242Y-73250886D01*
X65969566Y-73105136D01*
X65712276Y-72993380D01*
X65442166Y-72917698D01*
X65442162Y-72917697D01*
X65442161Y-72917697D01*
X65260724Y-72892759D01*
X65164259Y-72879500D01*
X65164258Y-72879500D01*
X64883742Y-72879500D01*
X64883741Y-72879500D01*
X64605839Y-72917697D01*
X64605833Y-72917698D01*
X64335723Y-72993380D01*
X64078433Y-73105136D01*
X63838757Y-73250886D01*
X63621154Y-73427919D01*
X63429692Y-73632925D01*
X63429692Y-73632926D01*
X63429689Y-73632928D01*
X63429688Y-73632931D01*
X63364982Y-73724597D01*
X63267919Y-73862103D01*
X63138863Y-74111171D01*
X63044926Y-74375483D01*
X63044921Y-74375500D01*
X62987852Y-74650135D01*
X62987851Y-74650137D01*
X62968709Y-74930000D01*
X58803904Y-74930000D01*
X58784350Y-74756455D01*
X58757597Y-74680000D01*
X60273999Y-74680000D01*
X60273999Y-73380030D01*
X60273998Y-73380015D01*
X60263505Y-73277304D01*
X60208358Y-73110882D01*
X60208356Y-73110877D01*
X60116315Y-72961655D01*
X59992345Y-72837685D01*
X59987137Y-72833567D01*
X59946760Y-72776546D01*
X59943620Y-72706747D01*
X59978715Y-72646330D01*
X60040903Y-72614479D01*
X60064047Y-72612300D01*
X69053190Y-72612300D01*
X69120229Y-72631985D01*
X69140871Y-72648619D01*
X70233257Y-73741005D01*
X70266742Y-73802328D01*
X70261758Y-73872020D01*
X70255674Y-73885734D01*
X70138863Y-74111171D01*
X70044926Y-74375483D01*
X70044921Y-74375500D01*
X69987852Y-74650135D01*
X69987851Y-74650137D01*
X69968709Y-74930000D01*
X69987851Y-75209862D01*
X69987852Y-75209864D01*
X70044921Y-75484499D01*
X70044926Y-75484516D01*
X70138863Y-75748828D01*
X70138864Y-75748830D01*
X70267919Y-75997896D01*
X70429688Y-76227069D01*
X70429692Y-76227073D01*
X70429692Y-76227074D01*
X70451492Y-76250416D01*
X70621155Y-76432081D01*
X70838754Y-76609111D01*
X70838756Y-76609112D01*
X70838757Y-76609113D01*
X71078433Y-76754863D01*
X71262353Y-76834750D01*
X71335725Y-76866620D01*
X71605839Y-76942303D01*
X71850159Y-76975884D01*
X71883741Y-76980500D01*
X71883742Y-76980500D01*
X72164259Y-76980500D01*
X72194219Y-76976381D01*
X72442161Y-76942303D01*
X72712275Y-76866620D01*
X72969568Y-76754862D01*
X73209246Y-76609111D01*
X73347737Y-76496440D01*
X77057107Y-76496440D01*
X77067730Y-76584902D01*
X77067731Y-76584905D01*
X77122528Y-76723861D01*
X77123247Y-76725685D01*
X77214684Y-76846264D01*
X77335263Y-76937701D01*
X77335266Y-76937703D01*
X77476044Y-76993218D01*
X77564509Y-77003842D01*
X80650705Y-77003842D01*
X80739170Y-76993218D01*
X80879948Y-76937703D01*
X81000529Y-76846264D01*
X81091968Y-76725683D01*
X81147483Y-76584905D01*
X81158107Y-76496440D01*
X81158107Y-74953342D01*
X84052316Y-74953342D01*
X84071458Y-75233204D01*
X84071459Y-75233206D01*
X84128528Y-75507841D01*
X84128533Y-75507858D01*
X84214175Y-75748830D01*
X84222471Y-75772172D01*
X84351526Y-76021238D01*
X84513295Y-76250411D01*
X84513299Y-76250415D01*
X84513299Y-76250416D01*
X84613807Y-76358034D01*
X84704762Y-76455423D01*
X84922361Y-76632453D01*
X84922363Y-76632454D01*
X84922364Y-76632455D01*
X85162040Y-76778205D01*
X85292221Y-76834750D01*
X85419332Y-76889962D01*
X85689446Y-76965645D01*
X85933766Y-76999226D01*
X85967348Y-77003842D01*
X85967349Y-77003842D01*
X86247866Y-77003842D01*
X86277826Y-76999723D01*
X86525768Y-76965645D01*
X86795882Y-76889962D01*
X87053175Y-76778204D01*
X87292853Y-76632453D01*
X87460035Y-76496440D01*
X91027107Y-76496440D01*
X91037730Y-76584902D01*
X91037731Y-76584905D01*
X91092528Y-76723861D01*
X91093247Y-76725685D01*
X91184684Y-76846264D01*
X91305263Y-76937701D01*
X91305266Y-76937703D01*
X91446044Y-76993218D01*
X91534509Y-77003842D01*
X94620705Y-77003842D01*
X94709170Y-76993218D01*
X94849948Y-76937703D01*
X94970529Y-76846264D01*
X95061968Y-76725683D01*
X95117483Y-76584905D01*
X95128107Y-76496440D01*
X95128107Y-73410244D01*
X95117483Y-73321779D01*
X95061968Y-73181001D01*
X95049496Y-73164554D01*
X94970529Y-73060419D01*
X94849950Y-72968982D01*
X94849948Y-72968981D01*
X94709170Y-72913466D01*
X94709167Y-72913465D01*
X94620705Y-72902842D01*
X91534509Y-72902842D01*
X91446046Y-72913465D01*
X91446045Y-72913465D01*
X91446044Y-72913466D01*
X91365772Y-72945121D01*
X91305263Y-72968982D01*
X91184684Y-73060419D01*
X91093247Y-73180998D01*
X91081774Y-73210092D01*
X91055270Y-73277304D01*
X91037731Y-73321780D01*
X91037730Y-73321781D01*
X91027107Y-73410243D01*
X91027107Y-76496440D01*
X87460035Y-76496440D01*
X87510452Y-76455423D01*
X87701919Y-76250411D01*
X87863688Y-76021238D01*
X87992743Y-75772172D01*
X88086682Y-75507853D01*
X88086683Y-75507846D01*
X88086685Y-75507841D01*
X88126332Y-75317046D01*
X88143755Y-75233204D01*
X88162898Y-74953342D01*
X88143755Y-74673480D01*
X88108988Y-74506171D01*
X88086685Y-74398842D01*
X88086680Y-74398825D01*
X87992743Y-74134513D01*
X87992743Y-74134512D01*
X87875930Y-73909072D01*
X87862566Y-73840497D01*
X87888400Y-73775578D01*
X87898339Y-73764356D01*
X89318878Y-72343819D01*
X89380201Y-72310334D01*
X89406559Y-72307500D01*
X96778655Y-72307500D01*
X96845694Y-72327185D01*
X96866336Y-72343819D01*
X98286864Y-73764347D01*
X98320349Y-73825670D01*
X98315365Y-73895362D01*
X98309281Y-73909076D01*
X98192470Y-74134513D01*
X98098533Y-74398825D01*
X98098528Y-74398842D01*
X98041459Y-74673477D01*
X98041458Y-74673479D01*
X98022316Y-74953342D01*
X98041458Y-75233204D01*
X98041459Y-75233206D01*
X98098528Y-75507841D01*
X98098533Y-75507858D01*
X98184175Y-75748830D01*
X98192471Y-75772172D01*
X98321526Y-76021238D01*
X98483295Y-76250411D01*
X98483299Y-76250415D01*
X98483299Y-76250416D01*
X98583807Y-76358034D01*
X98674762Y-76455423D01*
X98892361Y-76632453D01*
X98892363Y-76632454D01*
X98892364Y-76632455D01*
X99132040Y-76778205D01*
X99262221Y-76834750D01*
X99389332Y-76889962D01*
X99659446Y-76965645D01*
X99903766Y-76999226D01*
X99937348Y-77003842D01*
X99937349Y-77003842D01*
X100217866Y-77003842D01*
X100247826Y-76999723D01*
X100495768Y-76965645D01*
X100765882Y-76889962D01*
X101023175Y-76778204D01*
X101262853Y-76632453D01*
X101480452Y-76455423D01*
X101671919Y-76250411D01*
X101833688Y-76021238D01*
X101962743Y-75772172D01*
X102056682Y-75507853D01*
X102056683Y-75507846D01*
X102056685Y-75507841D01*
X102096332Y-75317046D01*
X102113755Y-75233204D01*
X102117121Y-75184000D01*
X105832341Y-75184000D01*
X105852936Y-75419403D01*
X105852938Y-75419413D01*
X105914094Y-75647655D01*
X105914096Y-75647659D01*
X105914097Y-75647663D01*
X105940201Y-75703643D01*
X106013964Y-75861828D01*
X106013965Y-75861830D01*
X106149505Y-76055402D01*
X106316597Y-76222494D01*
X106510169Y-76358034D01*
X106510171Y-76358035D01*
X106724337Y-76457903D01*
X106952592Y-76519063D01*
X107129032Y-76534499D01*
X107129033Y-76534500D01*
X107129034Y-76534500D01*
X107246967Y-76534500D01*
X107246967Y-76534499D01*
X107423408Y-76519063D01*
X107651663Y-76457903D01*
X107865829Y-76358035D01*
X108059401Y-76222495D01*
X108226495Y-76055401D01*
X108362035Y-75861830D01*
X108461903Y-75647663D01*
X108523063Y-75419408D01*
X108543659Y-75184000D01*
X108523063Y-74948592D01*
X108461903Y-74720337D01*
X108362035Y-74506171D01*
X108362034Y-74506169D01*
X108226494Y-74312597D01*
X108059402Y-74145505D01*
X107865830Y-74009965D01*
X107865828Y-74009964D01*
X107758746Y-73960031D01*
X107651663Y-73910097D01*
X107651659Y-73910096D01*
X107651655Y-73910094D01*
X107423413Y-73848938D01*
X107423403Y-73848936D01*
X107246967Y-73833500D01*
X107246966Y-73833500D01*
X107129034Y-73833500D01*
X107129033Y-73833500D01*
X106952596Y-73848936D01*
X106952586Y-73848938D01*
X106724344Y-73910094D01*
X106724335Y-73910098D01*
X106510171Y-74009964D01*
X106510169Y-74009965D01*
X106316597Y-74145505D01*
X106149506Y-74312597D01*
X106149501Y-74312604D01*
X106013967Y-74506165D01*
X106013965Y-74506169D01*
X105914098Y-74720335D01*
X105914094Y-74720344D01*
X105852938Y-74948586D01*
X105852936Y-74948596D01*
X105832341Y-75183999D01*
X105832341Y-75184000D01*
X102117121Y-75184000D01*
X102132898Y-74953342D01*
X102113755Y-74673480D01*
X102078988Y-74506171D01*
X102056685Y-74398842D01*
X102056680Y-74398825D01*
X101962743Y-74134513D01*
X101962743Y-74134512D01*
X101845930Y-73909072D01*
X101832566Y-73840497D01*
X101858400Y-73775578D01*
X101868340Y-73764355D01*
X105154035Y-70478660D01*
X105215356Y-70445177D01*
X105285048Y-70450161D01*
X105340981Y-70492033D01*
X105351809Y-70509291D01*
X105431919Y-70663896D01*
X105593688Y-70893069D01*
X105593692Y-70893073D01*
X105593692Y-70893074D01*
X105785154Y-71098080D01*
X105785155Y-71098081D01*
X106002754Y-71275111D01*
X106002756Y-71275112D01*
X106002757Y-71275113D01*
X106242433Y-71420863D01*
X106420367Y-71498150D01*
X106499725Y-71532620D01*
X106769839Y-71608303D01*
X107014159Y-71641884D01*
X107047741Y-71646500D01*
X107047742Y-71646500D01*
X107328259Y-71646500D01*
X107358219Y-71642381D01*
X107606161Y-71608303D01*
X107876275Y-71532620D01*
X108133568Y-71420862D01*
X108373246Y-71275111D01*
X108590845Y-71098081D01*
X108782312Y-70893069D01*
X108944081Y-70663896D01*
X109073136Y-70414830D01*
X109167075Y-70150511D01*
X109167076Y-70150504D01*
X109167078Y-70150499D01*
X109193571Y-70023005D01*
X109224148Y-69875862D01*
X109243291Y-69596000D01*
X109224148Y-69316138D01*
X109170172Y-69056391D01*
X109167078Y-69041500D01*
X109167073Y-69041483D01*
X109087925Y-68818783D01*
X109073136Y-68777170D01*
X108944081Y-68528104D01*
X108782312Y-68298931D01*
X108782307Y-68298925D01*
X108590845Y-68093919D01*
X108373246Y-67916889D01*
X108373244Y-67916888D01*
X108373242Y-67916886D01*
X108133566Y-67771136D01*
X107876276Y-67659380D01*
X107606166Y-67583698D01*
X107606162Y-67583697D01*
X107606161Y-67583697D01*
X107467209Y-67564598D01*
X107328259Y-67545500D01*
X107328258Y-67545500D01*
X107047742Y-67545500D01*
X107047741Y-67545500D01*
X106769839Y-67583697D01*
X106769833Y-67583698D01*
X106499723Y-67659380D01*
X106242433Y-67771136D01*
X106002757Y-67916886D01*
X105785154Y-68093919D01*
X105593692Y-68298925D01*
X105593692Y-68298926D01*
X105593689Y-68298928D01*
X105593688Y-68298931D01*
X105588127Y-68306809D01*
X105431919Y-68528103D01*
X105302863Y-68777171D01*
X105208929Y-69041475D01*
X105208925Y-69041489D01*
X105169561Y-69230913D01*
X105136648Y-69292545D01*
X105135836Y-69293364D01*
X101264645Y-73164554D01*
X101203322Y-73198039D01*
X101133630Y-73193055D01*
X101112536Y-73182821D01*
X101023173Y-73128478D01*
X100765883Y-73016722D01*
X100495773Y-72941040D01*
X100495769Y-72941039D01*
X100495768Y-72941039D01*
X100325943Y-72917697D01*
X100217866Y-72902842D01*
X100217865Y-72902842D01*
X99937349Y-72902842D01*
X99937348Y-72902842D01*
X99659446Y-72941039D01*
X99659440Y-72941040D01*
X99389330Y-73016722D01*
X99132042Y-73128478D01*
X99042675Y-73182822D01*
X98975167Y-73200835D01*
X98908638Y-73179491D01*
X98890567Y-73164554D01*
X97259483Y-71533470D01*
X97237968Y-71522508D01*
X97221375Y-71512340D01*
X97201845Y-71498150D01*
X97178880Y-71490688D01*
X97160906Y-71483243D01*
X97139392Y-71472281D01*
X97134275Y-71471470D01*
X97115538Y-71468503D01*
X97096623Y-71463962D01*
X97073659Y-71456500D01*
X97073658Y-71456500D01*
X97039753Y-71456500D01*
X89246342Y-71456500D01*
X89111556Y-71456500D01*
X89111554Y-71456500D01*
X89111550Y-71456501D01*
X89088591Y-71463961D01*
X89069673Y-71468503D01*
X89045827Y-71472279D01*
X89045819Y-71472282D01*
X89024301Y-71483245D01*
X89006338Y-71490686D01*
X88983366Y-71498151D01*
X88983365Y-71498151D01*
X88963833Y-71512342D01*
X88947252Y-71522504D01*
X88925729Y-71533472D01*
X88925728Y-71533472D01*
X88901755Y-71557446D01*
X87294645Y-73164554D01*
X87233322Y-73198039D01*
X87163630Y-73193055D01*
X87142536Y-73182821D01*
X87053173Y-73128478D01*
X86795883Y-73016722D01*
X86525773Y-72941040D01*
X86525769Y-72941039D01*
X86525768Y-72941039D01*
X86355943Y-72917697D01*
X86247866Y-72902842D01*
X86247865Y-72902842D01*
X85967349Y-72902842D01*
X85967348Y-72902842D01*
X85689446Y-72941039D01*
X85689440Y-72941040D01*
X85419330Y-73016722D01*
X85162040Y-73128478D01*
X84922364Y-73274228D01*
X84704761Y-73451261D01*
X84513299Y-73656267D01*
X84513299Y-73656268D01*
X84351526Y-73885445D01*
X84222470Y-74134513D01*
X84128533Y-74398825D01*
X84128528Y-74398842D01*
X84071459Y-74673477D01*
X84071458Y-74673479D01*
X84052316Y-74953342D01*
X81158107Y-74953342D01*
X81158107Y-73410244D01*
X81147483Y-73321779D01*
X81091968Y-73181001D01*
X81079496Y-73164554D01*
X81000529Y-73060419D01*
X80879950Y-72968982D01*
X80879948Y-72968981D01*
X80739170Y-72913466D01*
X80739167Y-72913465D01*
X80650705Y-72902842D01*
X77564509Y-72902842D01*
X77476046Y-72913465D01*
X77476045Y-72913465D01*
X77476044Y-72913466D01*
X77395772Y-72945121D01*
X77335263Y-72968982D01*
X77214684Y-73060419D01*
X77123247Y-73180998D01*
X77111774Y-73210092D01*
X77085270Y-73277304D01*
X77067731Y-73321780D01*
X77067730Y-73321781D01*
X77057107Y-73410243D01*
X77057107Y-76496440D01*
X73347737Y-76496440D01*
X73426845Y-76432081D01*
X73618312Y-76227069D01*
X73780081Y-75997896D01*
X73909136Y-75748830D01*
X74003075Y-75484511D01*
X74003076Y-75484504D01*
X74003078Y-75484499D01*
X74055297Y-75233204D01*
X74060148Y-75209862D01*
X74079291Y-74930000D01*
X74060148Y-74650138D01*
X74030230Y-74506165D01*
X74003078Y-74375500D01*
X74003073Y-74375483D01*
X73977576Y-74303742D01*
X73909136Y-74111170D01*
X73780081Y-73862104D01*
X73618312Y-73632931D01*
X73618307Y-73632925D01*
X73426845Y-73427919D01*
X73209246Y-73250889D01*
X73209244Y-73250888D01*
X73209242Y-73250886D01*
X72969566Y-73105136D01*
X72712276Y-72993380D01*
X72442166Y-72917698D01*
X72442162Y-72917697D01*
X72442161Y-72917697D01*
X72260724Y-72892759D01*
X72164259Y-72879500D01*
X72164258Y-72879500D01*
X71883742Y-72879500D01*
X71883741Y-72879500D01*
X71605839Y-72917697D01*
X71605833Y-72917698D01*
X71335723Y-72993380D01*
X71078435Y-73105136D01*
X70989068Y-73159480D01*
X70921560Y-73177493D01*
X70855031Y-73156149D01*
X70836960Y-73141212D01*
X69534018Y-71838270D01*
X69512503Y-71827308D01*
X69495910Y-71817140D01*
X69476380Y-71802950D01*
X69453415Y-71795488D01*
X69435441Y-71788043D01*
X69413927Y-71777081D01*
X69408793Y-71776268D01*
X69390073Y-71773303D01*
X69371158Y-71768762D01*
X69348194Y-71761300D01*
X69348193Y-71761300D01*
X69314288Y-71761300D01*
X53752593Y-71761300D01*
X53617807Y-71761300D01*
X53617804Y-71761301D01*
X53594835Y-71768763D01*
X53575922Y-71773303D01*
X53552074Y-71777080D01*
X53530559Y-71788042D01*
X53512589Y-71795485D01*
X53489621Y-71802948D01*
X53489617Y-71802949D01*
X53470080Y-71817144D01*
X53453498Y-71827306D01*
X53431983Y-71838269D01*
X53431980Y-71838271D01*
X53408006Y-71862246D01*
X52129038Y-73141212D01*
X52067715Y-73174697D01*
X51998023Y-73169713D01*
X51976929Y-73159479D01*
X51887566Y-73105136D01*
X51630276Y-72993380D01*
X51630271Y-72993378D01*
X51458044Y-72945121D01*
X51398802Y-72908079D01*
X51368991Y-72844889D01*
X51367500Y-72825720D01*
X51367500Y-68738502D01*
X51367499Y-68738497D01*
X51360039Y-68715539D01*
X51355495Y-68696615D01*
X51353117Y-68681600D01*
X64900365Y-68681600D01*
X64912947Y-68777170D01*
X64918426Y-68818781D01*
X64918427Y-68818786D01*
X64971374Y-68946615D01*
X64971375Y-68946617D01*
X64971376Y-68946618D01*
X65055609Y-69056391D01*
X65165382Y-69140624D01*
X65293217Y-69193574D01*
X65416102Y-69209752D01*
X65430399Y-69211635D01*
X65430400Y-69211635D01*
X65430401Y-69211635D01*
X65443347Y-69209930D01*
X65567583Y-69193574D01*
X65695418Y-69140624D01*
X65805191Y-69056391D01*
X65889424Y-68946618D01*
X65942374Y-68818783D01*
X65960435Y-68681600D01*
X65959272Y-68672770D01*
X65956440Y-68651259D01*
X65942374Y-68544417D01*
X65889424Y-68416583D01*
X65805191Y-68306809D01*
X65805189Y-68306808D01*
X65805189Y-68306807D01*
X65695415Y-68222574D01*
X65567586Y-68169627D01*
X65567584Y-68169626D01*
X65567583Y-68169626D01*
X65476127Y-68157585D01*
X65430401Y-68151565D01*
X65430399Y-68151565D01*
X65361808Y-68160595D01*
X65293217Y-68169626D01*
X65293216Y-68169626D01*
X65293213Y-68169627D01*
X65165385Y-68222574D01*
X65055609Y-68306809D01*
X64971374Y-68416585D01*
X64918427Y-68544413D01*
X64918426Y-68544418D01*
X64901528Y-68672770D01*
X64900365Y-68681600D01*
X51353117Y-68681600D01*
X51353117Y-68681599D01*
X51351719Y-68672770D01*
X51340757Y-68651258D01*
X51333309Y-68633275D01*
X51330420Y-68624384D01*
X51325850Y-68610315D01*
X51311653Y-68590774D01*
X51301491Y-68574192D01*
X51290528Y-68552676D01*
X51195220Y-68457368D01*
X50290452Y-67552600D01*
X86337965Y-67552600D01*
X86342662Y-67588280D01*
X86356026Y-67689781D01*
X86356027Y-67689786D01*
X86408974Y-67817615D01*
X86408975Y-67817617D01*
X86408976Y-67817618D01*
X86493209Y-67927391D01*
X86602982Y-68011624D01*
X86622098Y-68019542D01*
X86676501Y-68063380D01*
X86698568Y-68129674D01*
X86697587Y-68150282D01*
X86695603Y-68165357D01*
X86695603Y-68165360D01*
X86713188Y-68298931D01*
X86713664Y-68302541D01*
X86713665Y-68302546D01*
X86766612Y-68430375D01*
X86766613Y-68430377D01*
X86766614Y-68430378D01*
X86850847Y-68540151D01*
X86960620Y-68624384D01*
X87088455Y-68677334D01*
X87211340Y-68693512D01*
X87225637Y-68695395D01*
X87225638Y-68695395D01*
X87225639Y-68695395D01*
X87238585Y-68693690D01*
X87362821Y-68677334D01*
X87490656Y-68624384D01*
X87600429Y-68540151D01*
X87684662Y-68430378D01*
X87737612Y-68302543D01*
X87755673Y-68165360D01*
X87737612Y-68028177D01*
X87684662Y-67900343D01*
X87600429Y-67790569D01*
X87600427Y-67790568D01*
X87600427Y-67790567D01*
X87571524Y-67768389D01*
X87490656Y-67706336D01*
X87481667Y-67702612D01*
X87471536Y-67698416D01*
X87417133Y-67654574D01*
X87395069Y-67588280D01*
X87396051Y-67567668D01*
X87398035Y-67552599D01*
X87396152Y-67538302D01*
X87379974Y-67415417D01*
X87327024Y-67287583D01*
X87242791Y-67177809D01*
X87242789Y-67177808D01*
X87242789Y-67177807D01*
X87133015Y-67093574D01*
X87005186Y-67040627D01*
X87005184Y-67040626D01*
X87005183Y-67040626D01*
X86913727Y-67028585D01*
X86868001Y-67022565D01*
X86867999Y-67022565D01*
X86799408Y-67031595D01*
X86730817Y-67040626D01*
X86730816Y-67040626D01*
X86730813Y-67040627D01*
X86602985Y-67093574D01*
X86493209Y-67177809D01*
X86408974Y-67287585D01*
X86356027Y-67415413D01*
X86356026Y-67415416D01*
X86356026Y-67415417D01*
X86337965Y-67552600D01*
X50290452Y-67552600D01*
X47705819Y-64967967D01*
X47672334Y-64906644D01*
X47669500Y-64880286D01*
X47669500Y-64139098D01*
X105137500Y-64139098D01*
X105148123Y-64227560D01*
X105148124Y-64227563D01*
X105152427Y-64238474D01*
X105203640Y-64368343D01*
X105295077Y-64488922D01*
X105390465Y-64561256D01*
X105415659Y-64580361D01*
X105556437Y-64635876D01*
X105644902Y-64646500D01*
X108731098Y-64646500D01*
X108819563Y-64635876D01*
X108960341Y-64580361D01*
X109080922Y-64488922D01*
X109172361Y-64368341D01*
X109227876Y-64227563D01*
X109238500Y-64139098D01*
X109238500Y-61052902D01*
X109227876Y-60964437D01*
X109172361Y-60823659D01*
X109172359Y-60823656D01*
X109080922Y-60703077D01*
X108960343Y-60611640D01*
X108960341Y-60611639D01*
X108819563Y-60556124D01*
X108819560Y-60556123D01*
X108731098Y-60545500D01*
X105644902Y-60545500D01*
X105556439Y-60556123D01*
X105556438Y-60556123D01*
X105556437Y-60556124D01*
X105482687Y-60585207D01*
X105415656Y-60611640D01*
X105295077Y-60703077D01*
X105203640Y-60823656D01*
X105148124Y-60964438D01*
X105148123Y-60964439D01*
X105137500Y-61052901D01*
X105137500Y-64139098D01*
X47669500Y-64139098D01*
X47669500Y-60960000D01*
X62461965Y-60960000D01*
X62474772Y-61057279D01*
X62480026Y-61097181D01*
X62480027Y-61097186D01*
X62532974Y-61225015D01*
X62532975Y-61225017D01*
X62532976Y-61225018D01*
X62617209Y-61334791D01*
X62726982Y-61419024D01*
X62854817Y-61471974D01*
X62977702Y-61488152D01*
X62991999Y-61490035D01*
X62992000Y-61490035D01*
X62992001Y-61490035D01*
X63004947Y-61488330D01*
X63129183Y-61471974D01*
X63257018Y-61419024D01*
X63366791Y-61334791D01*
X63451024Y-61225018D01*
X63503974Y-61097183D01*
X63522035Y-60960000D01*
X63503974Y-60822817D01*
X63451024Y-60694983D01*
X63366791Y-60585209D01*
X63366789Y-60585208D01*
X63366789Y-60585207D01*
X63257015Y-60500974D01*
X63129186Y-60448027D01*
X63129184Y-60448026D01*
X63129183Y-60448026D01*
X63037727Y-60435985D01*
X62992001Y-60429965D01*
X62991999Y-60429965D01*
X62923408Y-60438995D01*
X62854817Y-60448026D01*
X62854816Y-60448026D01*
X62854813Y-60448027D01*
X62726985Y-60500974D01*
X62617209Y-60585209D01*
X62532974Y-60694985D01*
X62480027Y-60822813D01*
X62480026Y-60822818D01*
X62468347Y-60911529D01*
X62461965Y-60960000D01*
X47669500Y-60960000D01*
X47669500Y-60223400D01*
X58372565Y-60223400D01*
X58390626Y-60360581D01*
X58390627Y-60360586D01*
X58443574Y-60488415D01*
X58443575Y-60488417D01*
X58443576Y-60488418D01*
X58527809Y-60598191D01*
X58637582Y-60682424D01*
X58637583Y-60682424D01*
X58637584Y-60682425D01*
X58680193Y-60700074D01*
X58765417Y-60735374D01*
X58888302Y-60751552D01*
X58902599Y-60753435D01*
X58902600Y-60753435D01*
X58902601Y-60753435D01*
X58915547Y-60751730D01*
X59039783Y-60735374D01*
X59167618Y-60682424D01*
X59277391Y-60598191D01*
X59361624Y-60488418D01*
X59414574Y-60360583D01*
X59432635Y-60223400D01*
X59414574Y-60086217D01*
X59361624Y-59958383D01*
X59277391Y-59848609D01*
X59277389Y-59848608D01*
X59277389Y-59848607D01*
X59167615Y-59764374D01*
X59039786Y-59711427D01*
X59039784Y-59711426D01*
X59039783Y-59711426D01*
X58948327Y-59699385D01*
X58902601Y-59693365D01*
X58902599Y-59693365D01*
X58834008Y-59702395D01*
X58765417Y-59711426D01*
X58765416Y-59711426D01*
X58765413Y-59711427D01*
X58637585Y-59764374D01*
X58527809Y-59848609D01*
X58443574Y-59958385D01*
X58390627Y-60086213D01*
X58390626Y-60086218D01*
X58372565Y-60223399D01*
X58372565Y-60223400D01*
X47669500Y-60223400D01*
X47669500Y-53944799D01*
X47689185Y-53877760D01*
X47695128Y-53869308D01*
X47703022Y-53859020D01*
X47703024Y-53859018D01*
X47755974Y-53731183D01*
X47774035Y-53594000D01*
X47755974Y-53456817D01*
X47703024Y-53328983D01*
X47618791Y-53219209D01*
X47618789Y-53219208D01*
X47618789Y-53219207D01*
X47540707Y-53159292D01*
X47509018Y-53134976D01*
X47509017Y-53134975D01*
X47509015Y-53134974D01*
X47381186Y-53082027D01*
X47381184Y-53082026D01*
X47381183Y-53082026D01*
X47289727Y-53069985D01*
X47244001Y-53063965D01*
X47243999Y-53063965D01*
X47175408Y-53072995D01*
X47106817Y-53082026D01*
X47106816Y-53082026D01*
X47106813Y-53082027D01*
X46978985Y-53134974D01*
X46869209Y-53219209D01*
X46784974Y-53328985D01*
X46732027Y-53456813D01*
X46732026Y-53456818D01*
X46713965Y-53593999D01*
X46713965Y-53594000D01*
X37001500Y-53594000D01*
X37001500Y-52324000D01*
X38331965Y-52324000D01*
X38342998Y-52407805D01*
X38350026Y-52461181D01*
X38350027Y-52461186D01*
X38402974Y-52589015D01*
X38402975Y-52589017D01*
X38402976Y-52589018D01*
X38487209Y-52698791D01*
X38596982Y-52783024D01*
X38596983Y-52783024D01*
X38596984Y-52783025D01*
X38600917Y-52784654D01*
X38724817Y-52835974D01*
X38847702Y-52852152D01*
X38861999Y-52854035D01*
X38862000Y-52854035D01*
X38862001Y-52854035D01*
X38874947Y-52852330D01*
X38999183Y-52835974D01*
X39127018Y-52783024D01*
X39236791Y-52698791D01*
X39321024Y-52589018D01*
X39373974Y-52461183D01*
X39392035Y-52324000D01*
X39373974Y-52186817D01*
X39330042Y-52080755D01*
X39321025Y-52058985D01*
X39321024Y-52058984D01*
X39321024Y-52058983D01*
X39236791Y-51949209D01*
X39236789Y-51949208D01*
X39236789Y-51949207D01*
X39142727Y-51877030D01*
X39127018Y-51864976D01*
X39127017Y-51864975D01*
X39127015Y-51864974D01*
X38999186Y-51812027D01*
X38999184Y-51812026D01*
X38999183Y-51812026D01*
X38871343Y-51795195D01*
X38862001Y-51793965D01*
X38861999Y-51793965D01*
X38852657Y-51795195D01*
X38724817Y-51812026D01*
X38724816Y-51812026D01*
X38724813Y-51812027D01*
X38596985Y-51864974D01*
X38487209Y-51949209D01*
X38402974Y-52058985D01*
X38350027Y-52186813D01*
X38350026Y-52186816D01*
X38350026Y-52186817D01*
X38331965Y-52324000D01*
X37001500Y-52324000D01*
X37001500Y-36041610D01*
X37021185Y-35974571D01*
X37037819Y-35953929D01*
X38451722Y-34540026D01*
X39884928Y-33106819D01*
X39946249Y-33073336D01*
X40015941Y-33078320D01*
X40071874Y-33120192D01*
X40096291Y-33185656D01*
X40095827Y-33208385D01*
X40088435Y-33273995D01*
X40088435Y-33274003D01*
X40108630Y-33453249D01*
X40108631Y-33453254D01*
X40168211Y-33623523D01*
X40264184Y-33776262D01*
X40264185Y-33776263D01*
X40309241Y-33821320D01*
X40342725Y-33882643D01*
X40337740Y-33952335D01*
X40309241Y-33996680D01*
X40264184Y-34041737D01*
X40168211Y-34194476D01*
X40108631Y-34364745D01*
X40108630Y-34364750D01*
X40088435Y-34543996D01*
X40088435Y-34544003D01*
X40108630Y-34723249D01*
X40108631Y-34723254D01*
X40168211Y-34893523D01*
X40181592Y-34914818D01*
X40264184Y-35046262D01*
X40391738Y-35173816D01*
X40544478Y-35269789D01*
X40627730Y-35298920D01*
X40714745Y-35329368D01*
X40714750Y-35329369D01*
X40893996Y-35349565D01*
X40894000Y-35349565D01*
X40894004Y-35349565D01*
X41073249Y-35329369D01*
X41073252Y-35329368D01*
X41073255Y-35329368D01*
X41243522Y-35269789D01*
X41396262Y-35173816D01*
X41441319Y-35128759D01*
X41502642Y-35095274D01*
X41572334Y-35100258D01*
X41616681Y-35128759D01*
X41661738Y-35173816D01*
X41814478Y-35269789D01*
X41897730Y-35298920D01*
X41984745Y-35329368D01*
X41984750Y-35329369D01*
X42163996Y-35349565D01*
X42164000Y-35349565D01*
X42164004Y-35349565D01*
X42343249Y-35329369D01*
X42343252Y-35329368D01*
X42343255Y-35329368D01*
X42513522Y-35269789D01*
X42666262Y-35173816D01*
X42711319Y-35128759D01*
X42772642Y-35095274D01*
X42842334Y-35100258D01*
X42886681Y-35128759D01*
X42931738Y-35173816D01*
X43084478Y-35269789D01*
X43167730Y-35298920D01*
X43254745Y-35329368D01*
X43254750Y-35329369D01*
X43433996Y-35349565D01*
X43434000Y-35349565D01*
X43434004Y-35349565D01*
X43613249Y-35329369D01*
X43613252Y-35329368D01*
X43613255Y-35329368D01*
X43783522Y-35269789D01*
X43936262Y-35173816D01*
X43981319Y-35128759D01*
X44042642Y-35095274D01*
X44112334Y-35100258D01*
X44156681Y-35128759D01*
X44201738Y-35173816D01*
X44354478Y-35269789D01*
X44437730Y-35298920D01*
X44524745Y-35329368D01*
X44524750Y-35329369D01*
X44703996Y-35349565D01*
X44704000Y-35349565D01*
X44704004Y-35349565D01*
X44883249Y-35329369D01*
X44883252Y-35329368D01*
X44883255Y-35329368D01*
X45053522Y-35269789D01*
X45206262Y-35173816D01*
X45251319Y-35128759D01*
X45312642Y-35095274D01*
X45382334Y-35100258D01*
X45426681Y-35128759D01*
X45471738Y-35173816D01*
X45624478Y-35269789D01*
X45707730Y-35298920D01*
X45794745Y-35329368D01*
X45794750Y-35329369D01*
X45973996Y-35349565D01*
X45974000Y-35349565D01*
X45974004Y-35349565D01*
X46153249Y-35329369D01*
X46153252Y-35329368D01*
X46153255Y-35329368D01*
X46323522Y-35269789D01*
X46476262Y-35173816D01*
X46603816Y-35046262D01*
X46699789Y-34893522D01*
X46759368Y-34723255D01*
X46764556Y-34677209D01*
X46779565Y-34544003D01*
X46779565Y-34543996D01*
X46759369Y-34364750D01*
X46759366Y-34364737D01*
X46699790Y-34194481D01*
X46699789Y-34194477D01*
X46667006Y-34142304D01*
X46648006Y-34075068D01*
X46668374Y-34008232D01*
X46684315Y-33988655D01*
X46726206Y-33946765D01*
X46771585Y-33843991D01*
X46774500Y-33818865D01*
X46774499Y-32729136D01*
X46774497Y-32729117D01*
X46771586Y-32704012D01*
X46771585Y-32704010D01*
X46771585Y-32704009D01*
X46726206Y-32601235D01*
X46646765Y-32521794D01*
X46633582Y-32515973D01*
X46543992Y-32476415D01*
X46518868Y-32473500D01*
X46518865Y-32473500D01*
X46504556Y-32473500D01*
X46437517Y-32453815D01*
X46391762Y-32401011D01*
X46386625Y-32387818D01*
X46383719Y-32378876D01*
X46383719Y-32378874D01*
X46372753Y-32357354D01*
X46365308Y-32339378D01*
X46357849Y-32316420D01*
X46357849Y-32316419D01*
X46343649Y-32296875D01*
X46333493Y-32280300D01*
X46322528Y-32258780D01*
X46227220Y-32163472D01*
X45743194Y-31679446D01*
X45719220Y-31655472D01*
X45719218Y-31655470D01*
X45697703Y-31644508D01*
X45681110Y-31634340D01*
X45661580Y-31620150D01*
X45638615Y-31612688D01*
X45620641Y-31605243D01*
X45599127Y-31594281D01*
X45594010Y-31593470D01*
X45575273Y-31590503D01*
X45556358Y-31585962D01*
X45533394Y-31578500D01*
X45533393Y-31578500D01*
X45499488Y-31578500D01*
X40453393Y-31578500D01*
X40318607Y-31578500D01*
X40318604Y-31578501D01*
X40295635Y-31585963D01*
X40276722Y-31590503D01*
X40252874Y-31594280D01*
X40231359Y-31605242D01*
X40213389Y-31612685D01*
X40190421Y-31620148D01*
X40190417Y-31620149D01*
X40170880Y-31634344D01*
X40154298Y-31644506D01*
X40132783Y-31655469D01*
X40132780Y-31655471D01*
X38204140Y-33584112D01*
X36322780Y-35465472D01*
X36277228Y-35511024D01*
X36227471Y-35560780D01*
X36216510Y-35582293D01*
X36206346Y-35598878D01*
X36192152Y-35618414D01*
X36192151Y-35618417D01*
X36184688Y-35641385D01*
X36177243Y-35659358D01*
X36166280Y-35680873D01*
X36162503Y-35704722D01*
X36157962Y-35723639D01*
X36150500Y-35746604D01*
X36150500Y-61748390D01*
X36130815Y-61815429D01*
X36114181Y-61836071D01*
X35675678Y-62274574D01*
X35614355Y-62308059D01*
X35587997Y-62310893D01*
X31594108Y-62310893D01*
X31527069Y-62291208D01*
X31481314Y-62238404D01*
X31472702Y-62212123D01*
X31466418Y-62181887D01*
X31466415Y-62181876D01*
X31432086Y-62085283D01*
X31372478Y-61917563D01*
X31243423Y-61668497D01*
X31081654Y-61439324D01*
X31081649Y-61439318D01*
X30890187Y-61234312D01*
X30878759Y-61225015D01*
X30672588Y-61057282D01*
X30672586Y-61057281D01*
X30672584Y-61057279D01*
X30432908Y-60911529D01*
X30175618Y-60799773D01*
X29905508Y-60724091D01*
X29905504Y-60724090D01*
X29905503Y-60724090D01*
X29752623Y-60703077D01*
X29627601Y-60685893D01*
X29627600Y-60685893D01*
X29347084Y-60685893D01*
X29347083Y-60685893D01*
X29069181Y-60724090D01*
X29069175Y-60724091D01*
X28799065Y-60799773D01*
X28541775Y-60911529D01*
X28302099Y-61057279D01*
X28084496Y-61234312D01*
X27893034Y-61439318D01*
X27893034Y-61439319D01*
X27893031Y-61439321D01*
X27893030Y-61439324D01*
X27869984Y-61471973D01*
X27731261Y-61668496D01*
X27602205Y-61917564D01*
X27508268Y-62181876D01*
X27508263Y-62181893D01*
X27451194Y-62456528D01*
X27451193Y-62456530D01*
X27432051Y-62736393D01*
X26162500Y-62736393D01*
X26162500Y-57292000D01*
X27408709Y-57292000D01*
X27427851Y-57571862D01*
X27427852Y-57571864D01*
X27484921Y-57846499D01*
X27484926Y-57846516D01*
X27577110Y-58105896D01*
X27578864Y-58110830D01*
X27707919Y-58359896D01*
X27869688Y-58589069D01*
X27869692Y-58589073D01*
X27869692Y-58589074D01*
X27989270Y-58717111D01*
X28061155Y-58794081D01*
X28278754Y-58971111D01*
X28278756Y-58971112D01*
X28278757Y-58971113D01*
X28518433Y-59116863D01*
X28678062Y-59186199D01*
X28775725Y-59228620D01*
X29045839Y-59304303D01*
X29290159Y-59337884D01*
X29323741Y-59342500D01*
X29323742Y-59342500D01*
X29604259Y-59342500D01*
X29634219Y-59338381D01*
X29882161Y-59304303D01*
X30152275Y-59228620D01*
X30409568Y-59116862D01*
X30649246Y-58971111D01*
X30866845Y-58794081D01*
X31058312Y-58589069D01*
X31186271Y-58407793D01*
X33242877Y-58407793D01*
X33262550Y-58620103D01*
X33320902Y-58825185D01*
X33320902Y-58825187D01*
X33415938Y-59016046D01*
X33498708Y-59125650D01*
X33544434Y-59186200D01*
X33702004Y-59329845D01*
X33883287Y-59442091D01*
X34082108Y-59519114D01*
X34291696Y-59558293D01*
X34291698Y-59558293D01*
X34504914Y-59558293D01*
X34504916Y-59558293D01*
X34714504Y-59519114D01*
X34913325Y-59442091D01*
X35094608Y-59329845D01*
X35252178Y-59186200D01*
X35380672Y-59016048D01*
X35381989Y-59013404D01*
X35475709Y-58825187D01*
X35475709Y-58825186D01*
X35475711Y-58825182D01*
X35534062Y-58620103D01*
X35553735Y-58407793D01*
X35534062Y-58195483D01*
X35475711Y-57990404D01*
X35475709Y-57990399D01*
X35475709Y-57990398D01*
X35380673Y-57799539D01*
X35252178Y-57629386D01*
X35211715Y-57592499D01*
X35094608Y-57485741D01*
X34913325Y-57373495D01*
X34913323Y-57373494D01*
X34813914Y-57334983D01*
X34714504Y-57296472D01*
X34517691Y-57259681D01*
X34455412Y-57228014D01*
X34420139Y-57167701D01*
X34423073Y-57097893D01*
X34463282Y-57040753D01*
X34517690Y-57015904D01*
X34714504Y-56979114D01*
X34913325Y-56902091D01*
X35094608Y-56789845D01*
X35252178Y-56646200D01*
X35380672Y-56476048D01*
X35475711Y-56285182D01*
X35534062Y-56080103D01*
X35553735Y-55867793D01*
X35534062Y-55655483D01*
X35475711Y-55450404D01*
X35475709Y-55450399D01*
X35475709Y-55450398D01*
X35380673Y-55259539D01*
X35252178Y-55089386D01*
X35151063Y-54997207D01*
X35094608Y-54945741D01*
X34913325Y-54833495D01*
X34913323Y-54833494D01*
X34757026Y-54772945D01*
X34714504Y-54756472D01*
X34541762Y-54724180D01*
X34479482Y-54692512D01*
X34444209Y-54632200D01*
X34447143Y-54562392D01*
X34487352Y-54505252D01*
X34552070Y-54478921D01*
X34564539Y-54478292D01*
X35293170Y-54478292D01*
X35293185Y-54478290D01*
X35293188Y-54478290D01*
X35318293Y-54475379D01*
X35318294Y-54475378D01*
X35318297Y-54475378D01*
X35421071Y-54429999D01*
X35500512Y-54350558D01*
X35545891Y-54247784D01*
X35548806Y-54222658D01*
X35548805Y-52432929D01*
X35548803Y-52432910D01*
X35545892Y-52407805D01*
X35545891Y-52407803D01*
X35545891Y-52407802D01*
X35500512Y-52305028D01*
X35421071Y-52225587D01*
X35421069Y-52225586D01*
X35318298Y-52180208D01*
X35293171Y-52177293D01*
X33503449Y-52177293D01*
X33503423Y-52177295D01*
X33478318Y-52180206D01*
X33478314Y-52180208D01*
X33375541Y-52225586D01*
X33296100Y-52305027D01*
X33250721Y-52407799D01*
X33250721Y-52407801D01*
X33247806Y-52432924D01*
X33247806Y-54222649D01*
X33247808Y-54222675D01*
X33250719Y-54247780D01*
X33250721Y-54247784D01*
X33296099Y-54350557D01*
X33296100Y-54350558D01*
X33375541Y-54429999D01*
X33478315Y-54475378D01*
X33503441Y-54478293D01*
X34232064Y-54478292D01*
X34299101Y-54497976D01*
X34344856Y-54550780D01*
X34354800Y-54619939D01*
X34325775Y-54683495D01*
X34266997Y-54721269D01*
X34254848Y-54724181D01*
X34219494Y-54730790D01*
X34082108Y-54756472D01*
X34082106Y-54756472D01*
X34082104Y-54756473D01*
X33883288Y-54833494D01*
X33883286Y-54833495D01*
X33702005Y-54945740D01*
X33544433Y-55089386D01*
X33415938Y-55259539D01*
X33320902Y-55450398D01*
X33320902Y-55450400D01*
X33262550Y-55655482D01*
X33249862Y-55792416D01*
X33242877Y-55867793D01*
X33262550Y-56080103D01*
X33311123Y-56250818D01*
X33320902Y-56285185D01*
X33320902Y-56285187D01*
X33415938Y-56476046D01*
X33498708Y-56585650D01*
X33544434Y-56646200D01*
X33702004Y-56789845D01*
X33883287Y-56902091D01*
X34082108Y-56979114D01*
X34278919Y-57015904D01*
X34341199Y-57047572D01*
X34376472Y-57107885D01*
X34373538Y-57177693D01*
X34333329Y-57234833D01*
X34278919Y-57259681D01*
X34082108Y-57296472D01*
X34082105Y-57296472D01*
X34082105Y-57296473D01*
X33883288Y-57373494D01*
X33883286Y-57373495D01*
X33702005Y-57485740D01*
X33544433Y-57629386D01*
X33415938Y-57799539D01*
X33320902Y-57990398D01*
X33320902Y-57990400D01*
X33262550Y-58195482D01*
X33242877Y-58407792D01*
X33242877Y-58407793D01*
X31186271Y-58407793D01*
X31220081Y-58359896D01*
X31349136Y-58110830D01*
X31443075Y-57846511D01*
X31443076Y-57846504D01*
X31443078Y-57846499D01*
X31495857Y-57592511D01*
X31500148Y-57571862D01*
X31519291Y-57292000D01*
X31500148Y-57012138D01*
X31476395Y-56897834D01*
X31443078Y-56737500D01*
X31443073Y-56737483D01*
X31410631Y-56646200D01*
X31349136Y-56473170D01*
X31220081Y-56224104D01*
X31058312Y-55994931D01*
X31058307Y-55994925D01*
X30866845Y-55789919D01*
X30806631Y-55740931D01*
X30649246Y-55612889D01*
X30649244Y-55612888D01*
X30649242Y-55612886D01*
X30409566Y-55467136D01*
X30152276Y-55355380D01*
X29882166Y-55279698D01*
X29882162Y-55279697D01*
X29882161Y-55279697D01*
X29735494Y-55259538D01*
X29604259Y-55241500D01*
X29604258Y-55241500D01*
X29323742Y-55241500D01*
X29323741Y-55241500D01*
X29045839Y-55279697D01*
X29045833Y-55279698D01*
X28775723Y-55355380D01*
X28518433Y-55467136D01*
X28278757Y-55612886D01*
X28061154Y-55789919D01*
X27869692Y-55994925D01*
X27869692Y-55994926D01*
X27869689Y-55994928D01*
X27869688Y-55994931D01*
X27856786Y-56013209D01*
X27707919Y-56224103D01*
X27578863Y-56473171D01*
X27484926Y-56737483D01*
X27484921Y-56737500D01*
X27427852Y-57012135D01*
X27427851Y-57012137D01*
X27408709Y-57292000D01*
X26162500Y-57292000D01*
X26162500Y-50292000D01*
X27408709Y-50292000D01*
X27427851Y-50571862D01*
X27427852Y-50571864D01*
X27484921Y-50846499D01*
X27484926Y-50846516D01*
X27577110Y-51105896D01*
X27578864Y-51110830D01*
X27707919Y-51359896D01*
X27869688Y-51589069D01*
X27869692Y-51589073D01*
X27869692Y-51589074D01*
X28032080Y-51762949D01*
X28061155Y-51794081D01*
X28278754Y-51971111D01*
X28278756Y-51971112D01*
X28278757Y-51971113D01*
X28518433Y-52116863D01*
X28679487Y-52186818D01*
X28775725Y-52228620D01*
X29045839Y-52304303D01*
X29290159Y-52337884D01*
X29323741Y-52342500D01*
X29323742Y-52342500D01*
X29604259Y-52342500D01*
X29634219Y-52338381D01*
X29882161Y-52304303D01*
X30152275Y-52228620D01*
X30381969Y-52128850D01*
X30409566Y-52116863D01*
X30409568Y-52116862D01*
X30649246Y-51971111D01*
X30866845Y-51794081D01*
X31058312Y-51589069D01*
X31220081Y-51359896D01*
X31349136Y-51110830D01*
X31443075Y-50846511D01*
X31443076Y-50846504D01*
X31443078Y-50846499D01*
X31469571Y-50719005D01*
X31500148Y-50571862D01*
X31519291Y-50292000D01*
X31500148Y-50012138D01*
X31480443Y-49917315D01*
X31443078Y-49737500D01*
X31443073Y-49737483D01*
X31349136Y-49473171D01*
X31349136Y-49473170D01*
X31220081Y-49224104D01*
X31058312Y-48994931D01*
X31058307Y-48994925D01*
X30866845Y-48789919D01*
X30806631Y-48740931D01*
X30649246Y-48612889D01*
X30649244Y-48612888D01*
X30649242Y-48612886D01*
X30409566Y-48467136D01*
X30152276Y-48355380D01*
X29882166Y-48279698D01*
X29882162Y-48279697D01*
X29882161Y-48279697D01*
X29743209Y-48260598D01*
X29604259Y-48241500D01*
X29604258Y-48241500D01*
X29323742Y-48241500D01*
X29323741Y-48241500D01*
X29045839Y-48279697D01*
X29045833Y-48279698D01*
X28775723Y-48355380D01*
X28518433Y-48467136D01*
X28278757Y-48612886D01*
X28061154Y-48789919D01*
X27869692Y-48994925D01*
X27869692Y-48994926D01*
X27707919Y-49224103D01*
X27578863Y-49473171D01*
X27484926Y-49737483D01*
X27484921Y-49737500D01*
X27427852Y-50012135D01*
X27427851Y-50012137D01*
X27408709Y-50292000D01*
X26162500Y-50292000D01*
X26162500Y-44835098D01*
X27413500Y-44835098D01*
X27424123Y-44923560D01*
X27424124Y-44923563D01*
X27476344Y-45055985D01*
X27479640Y-45064343D01*
X27571077Y-45184922D01*
X27689620Y-45274815D01*
X27691659Y-45276361D01*
X27832437Y-45331876D01*
X27920902Y-45342500D01*
X31007098Y-45342500D01*
X31095563Y-45331876D01*
X31236341Y-45276361D01*
X31356922Y-45184922D01*
X31448361Y-45064341D01*
X31503876Y-44923563D01*
X31514500Y-44835098D01*
X31514500Y-41748902D01*
X31503876Y-41660437D01*
X31448361Y-41519659D01*
X31448359Y-41519656D01*
X31356922Y-41399077D01*
X31236343Y-41307640D01*
X31236341Y-41307639D01*
X31095563Y-41252124D01*
X31095560Y-41252123D01*
X31007098Y-41241500D01*
X27920902Y-41241500D01*
X27832439Y-41252123D01*
X27832438Y-41252123D01*
X27832437Y-41252124D01*
X27767200Y-41277850D01*
X27691656Y-41307640D01*
X27571077Y-41399077D01*
X27479640Y-41519656D01*
X27479639Y-41519659D01*
X27424308Y-41659972D01*
X27424124Y-41660438D01*
X27424123Y-41660439D01*
X27413500Y-41748901D01*
X27413500Y-44835098D01*
X26162500Y-44835098D01*
X26162500Y-37736393D01*
X27214000Y-37736393D01*
X28730403Y-37736393D01*
X28703650Y-37812848D01*
X28684096Y-37986393D01*
X28703650Y-38159938D01*
X28730403Y-38236393D01*
X27214001Y-38236393D01*
X27214001Y-39536377D01*
X27224494Y-39639088D01*
X27279641Y-39805510D01*
X27279643Y-39805515D01*
X27371684Y-39954737D01*
X27495655Y-40078708D01*
X27644877Y-40170749D01*
X27644882Y-40170751D01*
X27811304Y-40225898D01*
X27811311Y-40225899D01*
X27914021Y-40236392D01*
X29213999Y-40236392D01*
X29214000Y-40236391D01*
X29214000Y-38719990D01*
X29290455Y-38746743D01*
X29420476Y-38761393D01*
X29507524Y-38761393D01*
X29637545Y-38746743D01*
X29714000Y-38719990D01*
X29714000Y-40236392D01*
X31013970Y-40236392D01*
X31013984Y-40236391D01*
X31116695Y-40225898D01*
X31283117Y-40170751D01*
X31283122Y-40170749D01*
X31432344Y-40078708D01*
X31556315Y-39954737D01*
X31648356Y-39805515D01*
X31648358Y-39805510D01*
X31703505Y-39639088D01*
X31703506Y-39639081D01*
X31713999Y-39536377D01*
X31714000Y-39536364D01*
X31714000Y-38236393D01*
X30197597Y-38236393D01*
X30224350Y-38159938D01*
X30243904Y-37986393D01*
X30224350Y-37812848D01*
X30197597Y-37736393D01*
X31713999Y-37736393D01*
X31713999Y-36436423D01*
X31713998Y-36436408D01*
X31703505Y-36333697D01*
X31648358Y-36167275D01*
X31648356Y-36167270D01*
X31556315Y-36018048D01*
X31432344Y-35894077D01*
X31283122Y-35802036D01*
X31283117Y-35802034D01*
X31116695Y-35746887D01*
X31116688Y-35746886D01*
X31013984Y-35736393D01*
X29714000Y-35736393D01*
X29714000Y-37252795D01*
X29637545Y-37226043D01*
X29507524Y-37211393D01*
X29420476Y-37211393D01*
X29290455Y-37226043D01*
X29214000Y-37252795D01*
X29214000Y-35736393D01*
X27914030Y-35736393D01*
X27914014Y-35736394D01*
X27811304Y-35746887D01*
X27644882Y-35802034D01*
X27644877Y-35802036D01*
X27495655Y-35894077D01*
X27371684Y-36018048D01*
X27279643Y-36167270D01*
X27279641Y-36167275D01*
X27224494Y-36333697D01*
X27224493Y-36333704D01*
X27214000Y-36436408D01*
X27214000Y-37736393D01*
X26162500Y-37736393D01*
X26162500Y-30986393D01*
X27408709Y-30986393D01*
X27427851Y-31266255D01*
X27427852Y-31266257D01*
X27484921Y-31540892D01*
X27484926Y-31540909D01*
X27555322Y-31738983D01*
X27578864Y-31805223D01*
X27707919Y-32054289D01*
X27869688Y-32283462D01*
X27869692Y-32283466D01*
X27869692Y-32283467D01*
X28006077Y-32429500D01*
X28061155Y-32488474D01*
X28278754Y-32665504D01*
X28278756Y-32665505D01*
X28278757Y-32665506D01*
X28518433Y-32811256D01*
X28646261Y-32866779D01*
X28775725Y-32923013D01*
X29045839Y-32998696D01*
X29287874Y-33031963D01*
X29323741Y-33036893D01*
X29323742Y-33036893D01*
X29604259Y-33036893D01*
X29640126Y-33031963D01*
X29882161Y-32998696D01*
X30152275Y-32923013D01*
X30409568Y-32811255D01*
X30649246Y-32665504D01*
X30866845Y-32488474D01*
X31058312Y-32283462D01*
X31220081Y-32054289D01*
X31349136Y-31805223D01*
X31443075Y-31540904D01*
X31443076Y-31540897D01*
X31443078Y-31540892D01*
X31479250Y-31366819D01*
X31500148Y-31266255D01*
X31519291Y-30986393D01*
X31500148Y-30706531D01*
X31453900Y-30483973D01*
X31443078Y-30431893D01*
X31443073Y-30431876D01*
X31349136Y-30167564D01*
X31349136Y-30167563D01*
X31220081Y-29918497D01*
X31058312Y-29689324D01*
X31058307Y-29689318D01*
X30866845Y-29484312D01*
X30836995Y-29460027D01*
X30649246Y-29307282D01*
X30649244Y-29307281D01*
X30649242Y-29307279D01*
X30409566Y-29161529D01*
X30152276Y-29049773D01*
X29882166Y-28974091D01*
X29882162Y-28974090D01*
X29882161Y-28974090D01*
X29721634Y-28952026D01*
X29604259Y-28935893D01*
X29604258Y-28935893D01*
X29323742Y-28935893D01*
X29323741Y-28935893D01*
X29045839Y-28974090D01*
X29045833Y-28974091D01*
X28775723Y-29049773D01*
X28518433Y-29161529D01*
X28278757Y-29307279D01*
X28061154Y-29484312D01*
X27869692Y-29689318D01*
X27869692Y-29689319D01*
X27869689Y-29689321D01*
X27869688Y-29689324D01*
X27841671Y-29729015D01*
X27707919Y-29918496D01*
X27578863Y-30167564D01*
X27484926Y-30431876D01*
X27484921Y-30431893D01*
X27427852Y-30706528D01*
X27427851Y-30706530D01*
X27408709Y-30986393D01*
X26162500Y-30986393D01*
X26162500Y-25403244D01*
X26162585Y-25400000D01*
X28108341Y-25400000D01*
X28128936Y-25635403D01*
X28128938Y-25635413D01*
X28190094Y-25863655D01*
X28190096Y-25863659D01*
X28190097Y-25863663D01*
X28232463Y-25954516D01*
X28289964Y-26077828D01*
X28289965Y-26077830D01*
X28425505Y-26271402D01*
X28592597Y-26438494D01*
X28786169Y-26574034D01*
X28786171Y-26574035D01*
X29000337Y-26673903D01*
X29228592Y-26735063D01*
X29405032Y-26750499D01*
X29405033Y-26750500D01*
X29405034Y-26750500D01*
X29522967Y-26750500D01*
X29522967Y-26750499D01*
X29699408Y-26735063D01*
X29927663Y-26673903D01*
X30141829Y-26574035D01*
X30335401Y-26438495D01*
X30502495Y-26271401D01*
X30638035Y-26077830D01*
X30737903Y-25863663D01*
X30799063Y-25635408D01*
X30819659Y-25400000D01*
X30819588Y-25399194D01*
X30811256Y-25303951D01*
X30799063Y-25164592D01*
X30795153Y-25150000D01*
X33280000Y-25150000D01*
X34796403Y-25150000D01*
X34769650Y-25226455D01*
X34750096Y-25400000D01*
X34769650Y-25573545D01*
X34796403Y-25650000D01*
X33280001Y-25650000D01*
X33280001Y-26949984D01*
X33290494Y-27052695D01*
X33345641Y-27219117D01*
X33345643Y-27219122D01*
X33437684Y-27368344D01*
X33561655Y-27492315D01*
X33710877Y-27584356D01*
X33710882Y-27584358D01*
X33877304Y-27639505D01*
X33877311Y-27639506D01*
X33980021Y-27649999D01*
X35279999Y-27649999D01*
X35280000Y-27649998D01*
X35280000Y-26133597D01*
X35356455Y-26160350D01*
X35486476Y-26175000D01*
X35573524Y-26175000D01*
X35703545Y-26160350D01*
X35780000Y-26133597D01*
X35780000Y-27649999D01*
X37079970Y-27649999D01*
X37079984Y-27649998D01*
X37182695Y-27639505D01*
X37349117Y-27584358D01*
X37349122Y-27584356D01*
X37498344Y-27492315D01*
X37622315Y-27368344D01*
X37714356Y-27219122D01*
X37714358Y-27219117D01*
X37769505Y-27052695D01*
X37769506Y-27052688D01*
X37779999Y-26949984D01*
X37780000Y-26949971D01*
X37780000Y-25650000D01*
X36263597Y-25650000D01*
X36290350Y-25573545D01*
X36309904Y-25400000D01*
X40474709Y-25400000D01*
X40493851Y-25679862D01*
X40493852Y-25679864D01*
X40550921Y-25954499D01*
X40550926Y-25954516D01*
X40644863Y-26218828D01*
X40644864Y-26218830D01*
X40773919Y-26467896D01*
X40935688Y-26697069D01*
X40935692Y-26697073D01*
X40935692Y-26697074D01*
X41111305Y-26885110D01*
X41127155Y-26902081D01*
X41344754Y-27079111D01*
X41344756Y-27079112D01*
X41344757Y-27079113D01*
X41584433Y-27224863D01*
X41793257Y-27315567D01*
X41841725Y-27336620D01*
X42111839Y-27412303D01*
X42356159Y-27445884D01*
X42389741Y-27450500D01*
X42389742Y-27450500D01*
X42670259Y-27450500D01*
X42700219Y-27446381D01*
X42948161Y-27412303D01*
X43218275Y-27336620D01*
X43475568Y-27224862D01*
X43715246Y-27079111D01*
X43932845Y-26902081D01*
X44124312Y-26697069D01*
X44286081Y-26467896D01*
X44415136Y-26218830D01*
X44509075Y-25954511D01*
X44509076Y-25954504D01*
X44509078Y-25954499D01*
X44555563Y-25730798D01*
X44566148Y-25679862D01*
X44585291Y-25400000D01*
X47474709Y-25400000D01*
X47493851Y-25679862D01*
X47493852Y-25679864D01*
X47550921Y-25954499D01*
X47550926Y-25954516D01*
X47644863Y-26218828D01*
X47644864Y-26218830D01*
X47773919Y-26467896D01*
X47935688Y-26697069D01*
X47935692Y-26697073D01*
X47935692Y-26697074D01*
X48111305Y-26885110D01*
X48127155Y-26902081D01*
X48344754Y-27079111D01*
X48344756Y-27079112D01*
X48344757Y-27079113D01*
X48584433Y-27224863D01*
X48793257Y-27315567D01*
X48841725Y-27336620D01*
X49013956Y-27384876D01*
X49073197Y-27421918D01*
X49103009Y-27485108D01*
X49104500Y-27504278D01*
X49104500Y-51467947D01*
X49084815Y-51534986D01*
X49068181Y-51555628D01*
X48780263Y-51843545D01*
X48718940Y-51877030D01*
X48708770Y-51878803D01*
X48685315Y-51881891D01*
X48557485Y-51934839D01*
X48447709Y-52019074D01*
X48363474Y-52128850D01*
X48310527Y-52256678D01*
X48310526Y-52256683D01*
X48299228Y-52342500D01*
X48292465Y-52393865D01*
X48310227Y-52528779D01*
X48310526Y-52531046D01*
X48310527Y-52531051D01*
X48363474Y-52658880D01*
X48363475Y-52658881D01*
X48363476Y-52658883D01*
X48383654Y-52685179D01*
X48408849Y-52750347D01*
X48409279Y-52760666D01*
X48409279Y-55760173D01*
X48416741Y-55783137D01*
X48421282Y-55802052D01*
X48424249Y-55820789D01*
X48425060Y-55825906D01*
X48436022Y-55847420D01*
X48443467Y-55865394D01*
X48450929Y-55888359D01*
X48465119Y-55907889D01*
X48475287Y-55924482D01*
X48486249Y-55945997D01*
X48486251Y-55945999D01*
X48510225Y-55969973D01*
X50197472Y-57657220D01*
X50292780Y-57752528D01*
X50314299Y-57763492D01*
X50330878Y-57773651D01*
X50350419Y-57787849D01*
X50373381Y-57795309D01*
X50391354Y-57802753D01*
X50412874Y-57813719D01*
X50436724Y-57817495D01*
X50455645Y-57822039D01*
X50477489Y-57829136D01*
X50478607Y-57829500D01*
X50478608Y-57829500D01*
X63803556Y-57829500D01*
X63870595Y-57849185D01*
X63916350Y-57901989D01*
X63926294Y-57971147D01*
X63897269Y-58034703D01*
X63891237Y-58041181D01*
X63887213Y-58045204D01*
X63802974Y-58154985D01*
X63750027Y-58282813D01*
X63750026Y-58282816D01*
X63750026Y-58282817D01*
X63731965Y-58420000D01*
X63747774Y-58540081D01*
X63750026Y-58557181D01*
X63750027Y-58557186D01*
X63802974Y-58685015D01*
X63802975Y-58685017D01*
X63802976Y-58685018D01*
X63887209Y-58794791D01*
X63996982Y-58879024D01*
X64124817Y-58931974D01*
X64247702Y-58948152D01*
X64261999Y-58950035D01*
X64262000Y-58950035D01*
X64262001Y-58950035D01*
X64274947Y-58948330D01*
X64399183Y-58931974D01*
X64527018Y-58879024D01*
X64636791Y-58794791D01*
X64721024Y-58685018D01*
X64773974Y-58557183D01*
X64792035Y-58420000D01*
X64773974Y-58282817D01*
X64721024Y-58154983D01*
X64636791Y-58045209D01*
X64636789Y-58045207D01*
X64636788Y-58045206D01*
X64632759Y-58041177D01*
X64599277Y-57979852D01*
X64604265Y-57910160D01*
X64619867Y-57889321D01*
X81499969Y-57889321D01*
X81513276Y-57990398D01*
X81518030Y-58026502D01*
X81518031Y-58026507D01*
X81570978Y-58154336D01*
X81570979Y-58154338D01*
X81570980Y-58154339D01*
X81655213Y-58264112D01*
X81764986Y-58348345D01*
X81892821Y-58401295D01*
X82015706Y-58417473D01*
X82030003Y-58419356D01*
X82030004Y-58419356D01*
X82030005Y-58419356D01*
X82042951Y-58417651D01*
X82167187Y-58401295D01*
X82295022Y-58348345D01*
X82404795Y-58264112D01*
X82489028Y-58154339D01*
X82515118Y-58091352D01*
X100995009Y-58091352D01*
X101014682Y-58303662D01*
X101042461Y-58401295D01*
X101073034Y-58508744D01*
X101073034Y-58508746D01*
X101168070Y-58699605D01*
X101291358Y-58862863D01*
X101296566Y-58869759D01*
X101454136Y-59013404D01*
X101635419Y-59125650D01*
X101834240Y-59202673D01*
X102043828Y-59241852D01*
X102043830Y-59241852D01*
X102257046Y-59241852D01*
X102257048Y-59241852D01*
X102466636Y-59202673D01*
X102665457Y-59125650D01*
X102846740Y-59013404D01*
X103004310Y-58869759D01*
X103132804Y-58699607D01*
X103172392Y-58620103D01*
X103227841Y-58508746D01*
X103227841Y-58508745D01*
X103227843Y-58508741D01*
X103286194Y-58303662D01*
X103305867Y-58091352D01*
X103286194Y-57879042D01*
X103227843Y-57673963D01*
X103227841Y-57673958D01*
X103227841Y-57673957D01*
X103132805Y-57483098D01*
X103004310Y-57312945D01*
X102986240Y-57296472D01*
X102846740Y-57169300D01*
X102665457Y-57057054D01*
X102665455Y-57057053D01*
X102616273Y-57038000D01*
X105132709Y-57038000D01*
X105151851Y-57317862D01*
X105151852Y-57317864D01*
X105208921Y-57592499D01*
X105208926Y-57592516D01*
X105302863Y-57856828D01*
X105302864Y-57856830D01*
X105431919Y-58105896D01*
X105593688Y-58335069D01*
X105593692Y-58335073D01*
X105593692Y-58335074D01*
X105755888Y-58508744D01*
X105785155Y-58540081D01*
X106002754Y-58717111D01*
X106002756Y-58717112D01*
X106002757Y-58717113D01*
X106242433Y-58862863D01*
X106401544Y-58931974D01*
X106499725Y-58974620D01*
X106769839Y-59050303D01*
X107014159Y-59083884D01*
X107047741Y-59088500D01*
X107047742Y-59088500D01*
X107328259Y-59088500D01*
X107358219Y-59084381D01*
X107606161Y-59050303D01*
X107876275Y-58974620D01*
X108096359Y-58879024D01*
X108133566Y-58862863D01*
X108245506Y-58794791D01*
X108373246Y-58717111D01*
X108590845Y-58540081D01*
X108782312Y-58335069D01*
X108944081Y-58105896D01*
X109073136Y-57856830D01*
X109167075Y-57592511D01*
X109167076Y-57592504D01*
X109167078Y-57592499D01*
X109193571Y-57465005D01*
X109224148Y-57317862D01*
X109243291Y-57038000D01*
X109224148Y-56758138D01*
X109200887Y-56646199D01*
X109167078Y-56483500D01*
X109167073Y-56483483D01*
X109096598Y-56285185D01*
X109073136Y-56219170D01*
X108944081Y-55970104D01*
X108782312Y-55740931D01*
X108782307Y-55740925D01*
X108590845Y-55535919D01*
X108506299Y-55467136D01*
X108373246Y-55358889D01*
X108373244Y-55358888D01*
X108373242Y-55358886D01*
X108133566Y-55213136D01*
X107876276Y-55101380D01*
X107606166Y-55025698D01*
X107606162Y-55025697D01*
X107606161Y-55025697D01*
X107467209Y-55006598D01*
X107328259Y-54987500D01*
X107328258Y-54987500D01*
X107047742Y-54987500D01*
X107047741Y-54987500D01*
X106769839Y-55025697D01*
X106769833Y-55025698D01*
X106499723Y-55101380D01*
X106242433Y-55213136D01*
X106002757Y-55358886D01*
X105785154Y-55535919D01*
X105593692Y-55740925D01*
X105593692Y-55740926D01*
X105593689Y-55740928D01*
X105593688Y-55740931D01*
X105577643Y-55763662D01*
X105431919Y-55970103D01*
X105302863Y-56219171D01*
X105208926Y-56483483D01*
X105208921Y-56483500D01*
X105151852Y-56758135D01*
X105151851Y-56758137D01*
X105132709Y-57038000D01*
X102616273Y-57038000D01*
X102549507Y-57012135D01*
X102466636Y-56980031D01*
X102269823Y-56943240D01*
X102207544Y-56911573D01*
X102172271Y-56851260D01*
X102175205Y-56781452D01*
X102215414Y-56724312D01*
X102269822Y-56699463D01*
X102466636Y-56662673D01*
X102665457Y-56585650D01*
X102846740Y-56473404D01*
X103004310Y-56329759D01*
X103132804Y-56159607D01*
X103214805Y-55994925D01*
X103227841Y-55968746D01*
X103227841Y-55968745D01*
X103227843Y-55968741D01*
X103286194Y-55763662D01*
X103305867Y-55551352D01*
X103286194Y-55339042D01*
X103227843Y-55133963D01*
X103227841Y-55133958D01*
X103227841Y-55133957D01*
X103132805Y-54943098D01*
X103004310Y-54772945D01*
X102986240Y-54756472D01*
X102846740Y-54629300D01*
X102665457Y-54517054D01*
X102665455Y-54517053D01*
X102557875Y-54475377D01*
X102466636Y-54440031D01*
X102293894Y-54407739D01*
X102231614Y-54376071D01*
X102196341Y-54315759D01*
X102199275Y-54245951D01*
X102239484Y-54188811D01*
X102304202Y-54162480D01*
X102316671Y-54161851D01*
X103045302Y-54161851D01*
X103045317Y-54161849D01*
X103045320Y-54161849D01*
X103070425Y-54158938D01*
X103070426Y-54158937D01*
X103070429Y-54158937D01*
X103173203Y-54113558D01*
X103252644Y-54034117D01*
X103298023Y-53931343D01*
X103300938Y-53906217D01*
X103300937Y-52116488D01*
X103298852Y-52098506D01*
X103298024Y-52091364D01*
X103298023Y-52091362D01*
X103298023Y-52091361D01*
X103252644Y-51988587D01*
X103173203Y-51909146D01*
X103132421Y-51891139D01*
X103070430Y-51863767D01*
X103045303Y-51860852D01*
X101255581Y-51860852D01*
X101255555Y-51860854D01*
X101230450Y-51863765D01*
X101230446Y-51863767D01*
X101127673Y-51909145D01*
X101048232Y-51988586D01*
X101002853Y-52091358D01*
X101002853Y-52091360D01*
X100999938Y-52116483D01*
X100999938Y-53906208D01*
X100999940Y-53906234D01*
X101002851Y-53931339D01*
X101002853Y-53931343D01*
X101048231Y-54034116D01*
X101048232Y-54034117D01*
X101127673Y-54113558D01*
X101230447Y-54158937D01*
X101255573Y-54161852D01*
X101984196Y-54161851D01*
X102051233Y-54181535D01*
X102096988Y-54234339D01*
X102106932Y-54303498D01*
X102077907Y-54367054D01*
X102019129Y-54404828D01*
X102006980Y-54407740D01*
X101950554Y-54418287D01*
X101834240Y-54440031D01*
X101834238Y-54440031D01*
X101834236Y-54440032D01*
X101635420Y-54517053D01*
X101635418Y-54517054D01*
X101454137Y-54629299D01*
X101296565Y-54772945D01*
X101168070Y-54943098D01*
X101073034Y-55133957D01*
X101073034Y-55133959D01*
X101014682Y-55339041D01*
X100998236Y-55516531D01*
X100995009Y-55551352D01*
X101014682Y-55763662D01*
X101033848Y-55831024D01*
X101073034Y-55968744D01*
X101073034Y-55968746D01*
X101168070Y-56159605D01*
X101262905Y-56285185D01*
X101296566Y-56329759D01*
X101454136Y-56473404D01*
X101635419Y-56585650D01*
X101834240Y-56662673D01*
X102031051Y-56699463D01*
X102093331Y-56731131D01*
X102128604Y-56791444D01*
X102125670Y-56861252D01*
X102085461Y-56918392D01*
X102031051Y-56943240D01*
X101834240Y-56980031D01*
X101834237Y-56980031D01*
X101834237Y-56980032D01*
X101635420Y-57057053D01*
X101635418Y-57057054D01*
X101454137Y-57169299D01*
X101296565Y-57312945D01*
X101168070Y-57483098D01*
X101073034Y-57673957D01*
X101073034Y-57673959D01*
X101014682Y-57879041D01*
X101004364Y-57990398D01*
X100995009Y-58091352D01*
X82515118Y-58091352D01*
X82541978Y-58026504D01*
X82560039Y-57889321D01*
X82541978Y-57752138D01*
X82489028Y-57624304D01*
X82404795Y-57514530D01*
X82404793Y-57514529D01*
X82404793Y-57514528D01*
X82295019Y-57430295D01*
X82167190Y-57377348D01*
X82167188Y-57377347D01*
X82167187Y-57377347D01*
X82075731Y-57365306D01*
X82030005Y-57359286D01*
X82030003Y-57359286D01*
X81961412Y-57368316D01*
X81892821Y-57377347D01*
X81892820Y-57377347D01*
X81892817Y-57377348D01*
X81764989Y-57430295D01*
X81655213Y-57514530D01*
X81570978Y-57624306D01*
X81518031Y-57752134D01*
X81518030Y-57752137D01*
X81518030Y-57752138D01*
X81511789Y-57799539D01*
X81505605Y-57846516D01*
X81499969Y-57889321D01*
X64619867Y-57889321D01*
X64646140Y-57854229D01*
X64711605Y-57829815D01*
X64720445Y-57829500D01*
X64837392Y-57829500D01*
X64837393Y-57829500D01*
X64860360Y-57822036D01*
X64879276Y-57817495D01*
X64903126Y-57813719D01*
X64924636Y-57802757D01*
X64942614Y-57795310D01*
X64965581Y-57787849D01*
X64985118Y-57773653D01*
X65001706Y-57763488D01*
X65023220Y-57752528D01*
X65118528Y-57657220D01*
X69587955Y-53187791D01*
X69649276Y-53154308D01*
X69718968Y-53159292D01*
X69774009Y-53199987D01*
X69848162Y-53296624D01*
X69848163Y-53296625D01*
X69848165Y-53296627D01*
X69957938Y-53380860D01*
X70085773Y-53433810D01*
X70208658Y-53449988D01*
X70222955Y-53451871D01*
X70222956Y-53451871D01*
X70222957Y-53451871D01*
X70235903Y-53450166D01*
X70360139Y-53433810D01*
X70487974Y-53380860D01*
X70597747Y-53296627D01*
X70681980Y-53186854D01*
X70734930Y-53059019D01*
X70752991Y-52921836D01*
X70734930Y-52784653D01*
X70681980Y-52656819D01*
X70597747Y-52547045D01*
X70597744Y-52547043D01*
X70597743Y-52547041D01*
X70501107Y-52472889D01*
X70459905Y-52416461D01*
X70455750Y-52346715D01*
X70488909Y-52286837D01*
X70631753Y-52143995D01*
X70655728Y-52120020D01*
X70666693Y-52098498D01*
X70676854Y-52081918D01*
X70691049Y-52062381D01*
X70698509Y-52039416D01*
X70705959Y-52021434D01*
X70716918Y-51999928D01*
X70716918Y-51999927D01*
X70716919Y-51999926D01*
X70720695Y-51976076D01*
X70725236Y-51957160D01*
X70732700Y-51934193D01*
X70732700Y-51799407D01*
X70732700Y-50872200D01*
X72956165Y-50872200D01*
X72974226Y-51009381D01*
X72974227Y-51009386D01*
X73027174Y-51137215D01*
X73027175Y-51137217D01*
X73027176Y-51137218D01*
X73111409Y-51246991D01*
X73221182Y-51331224D01*
X73349017Y-51384174D01*
X73471902Y-51400352D01*
X73486199Y-51402235D01*
X73486200Y-51402235D01*
X73486201Y-51402235D01*
X73499147Y-51400530D01*
X73623383Y-51384174D01*
X73751218Y-51331224D01*
X73860991Y-51246991D01*
X73945224Y-51137218D01*
X73998174Y-51009383D01*
X74016235Y-50872200D01*
X73998174Y-50735017D01*
X73945224Y-50607183D01*
X73860991Y-50497409D01*
X73860989Y-50497408D01*
X73860989Y-50497407D01*
X73751215Y-50413174D01*
X73623386Y-50360227D01*
X73623384Y-50360226D01*
X73623383Y-50360226D01*
X73531927Y-50348185D01*
X73486201Y-50342165D01*
X73486199Y-50342165D01*
X73417608Y-50351195D01*
X73349017Y-50360226D01*
X73349016Y-50360226D01*
X73349013Y-50360227D01*
X73221185Y-50413174D01*
X73111409Y-50497409D01*
X73027174Y-50607185D01*
X72974227Y-50735013D01*
X72974226Y-50735018D01*
X72956165Y-50872199D01*
X72956165Y-50872200D01*
X70732700Y-50872200D01*
X70732700Y-50038000D01*
X105132709Y-50038000D01*
X105151851Y-50317862D01*
X105151852Y-50317864D01*
X105208921Y-50592499D01*
X105208926Y-50592516D01*
X105299198Y-50846516D01*
X105302864Y-50856830D01*
X105431919Y-51105896D01*
X105593688Y-51335069D01*
X105593692Y-51335073D01*
X105593692Y-51335074D01*
X105656416Y-51402235D01*
X105785155Y-51540081D01*
X106002754Y-51717111D01*
X106002756Y-51717112D01*
X106002757Y-51717113D01*
X106242433Y-51862863D01*
X106408140Y-51934839D01*
X106499725Y-51974620D01*
X106769839Y-52050303D01*
X106991408Y-52080757D01*
X107047741Y-52088500D01*
X107047742Y-52088500D01*
X107328259Y-52088500D01*
X107376225Y-52081907D01*
X107606161Y-52050303D01*
X107876275Y-51974620D01*
X108109517Y-51873309D01*
X108133566Y-51862863D01*
X108136870Y-51860854D01*
X108373246Y-51717111D01*
X108590845Y-51540081D01*
X108782312Y-51335069D01*
X108944081Y-51105896D01*
X109073136Y-50856830D01*
X109167075Y-50592511D01*
X109167076Y-50592504D01*
X109167078Y-50592499D01*
X109215344Y-50360227D01*
X109224148Y-50317862D01*
X109243291Y-50038000D01*
X109224148Y-49758138D01*
X109204443Y-49663315D01*
X109167078Y-49483500D01*
X109167073Y-49483483D01*
X109141576Y-49411742D01*
X109073136Y-49219170D01*
X108944081Y-48970104D01*
X108782312Y-48740931D01*
X108782307Y-48740925D01*
X108590845Y-48535919D01*
X108373242Y-48358886D01*
X108133566Y-48213136D01*
X107876276Y-48101380D01*
X107606166Y-48025698D01*
X107606162Y-48025697D01*
X107606161Y-48025697D01*
X107467209Y-48006598D01*
X107328259Y-47987500D01*
X107328258Y-47987500D01*
X107047742Y-47987500D01*
X107047741Y-47987500D01*
X106769839Y-48025697D01*
X106769833Y-48025698D01*
X106499723Y-48101380D01*
X106242433Y-48213136D01*
X106002757Y-48358886D01*
X105785154Y-48535919D01*
X105593692Y-48740925D01*
X105593692Y-48740926D01*
X105431919Y-48970103D01*
X105302863Y-49219171D01*
X105208926Y-49483483D01*
X105208921Y-49483500D01*
X105151852Y-49758135D01*
X105151851Y-49758137D01*
X105132709Y-50038000D01*
X70732700Y-50038000D01*
X70732700Y-47244000D01*
X76939965Y-47244000D01*
X76958026Y-47381181D01*
X76958027Y-47381186D01*
X77010974Y-47509015D01*
X77010975Y-47509017D01*
X77010976Y-47509018D01*
X77095209Y-47618791D01*
X77204982Y-47703024D01*
X77332817Y-47755974D01*
X77455702Y-47772152D01*
X77469999Y-47774035D01*
X77470000Y-47774035D01*
X77470001Y-47774035D01*
X77482947Y-47772330D01*
X77607183Y-47755974D01*
X77735018Y-47703024D01*
X77844791Y-47618791D01*
X77929024Y-47509018D01*
X77981974Y-47381183D01*
X78000035Y-47244000D01*
X95735965Y-47244000D01*
X95754026Y-47381181D01*
X95754027Y-47381186D01*
X95806974Y-47509015D01*
X95806975Y-47509017D01*
X95806976Y-47509018D01*
X95891209Y-47618791D01*
X96000982Y-47703024D01*
X96128817Y-47755974D01*
X96251702Y-47772152D01*
X96265999Y-47774035D01*
X96266000Y-47774035D01*
X96266001Y-47774035D01*
X96278947Y-47772330D01*
X96403183Y-47755974D01*
X96531018Y-47703024D01*
X96640791Y-47618791D01*
X96725024Y-47509018D01*
X96777974Y-47381183D01*
X96796035Y-47244000D01*
X96777974Y-47106817D01*
X96725024Y-46978983D01*
X96640791Y-46869209D01*
X96640789Y-46869208D01*
X96640789Y-46869207D01*
X96531015Y-46784974D01*
X96403186Y-46732027D01*
X96403184Y-46732026D01*
X96403183Y-46732026D01*
X96307312Y-46719404D01*
X96266001Y-46713965D01*
X96265999Y-46713965D01*
X96224665Y-46719407D01*
X96128817Y-46732026D01*
X96128816Y-46732026D01*
X96128813Y-46732027D01*
X96000985Y-46784974D01*
X95891209Y-46869209D01*
X95806974Y-46978985D01*
X95754027Y-47106813D01*
X95754026Y-47106818D01*
X95735965Y-47243999D01*
X95735965Y-47244000D01*
X78000035Y-47244000D01*
X77981974Y-47106817D01*
X77929024Y-46978983D01*
X77844791Y-46869209D01*
X77844789Y-46869208D01*
X77844789Y-46869207D01*
X77735015Y-46784974D01*
X77607186Y-46732027D01*
X77607184Y-46732026D01*
X77607183Y-46732026D01*
X77511312Y-46719404D01*
X77470001Y-46713965D01*
X77469999Y-46713965D01*
X77428665Y-46719407D01*
X77332817Y-46732026D01*
X77332816Y-46732026D01*
X77332813Y-46732027D01*
X77204985Y-46784974D01*
X77095209Y-46869209D01*
X77010974Y-46978985D01*
X76958027Y-47106813D01*
X76958026Y-47106818D01*
X76939965Y-47243999D01*
X76939965Y-47244000D01*
X70732700Y-47244000D01*
X70732700Y-47014409D01*
X70752385Y-46947370D01*
X70769014Y-46926732D01*
X71934823Y-45760923D01*
X71996144Y-45727440D01*
X72006289Y-45725671D01*
X72019183Y-45723974D01*
X72147018Y-45671024D01*
X72221498Y-45613873D01*
X72286667Y-45588678D01*
X72355112Y-45602716D01*
X72405102Y-45651530D01*
X72411546Y-45664796D01*
X72438974Y-45731015D01*
X72438975Y-45731017D01*
X72438976Y-45731018D01*
X72523209Y-45840791D01*
X72632982Y-45925024D01*
X72760817Y-45977974D01*
X72863581Y-45991503D01*
X72927476Y-46019770D01*
X72965947Y-46078094D01*
X72970333Y-46098255D01*
X72976986Y-46148784D01*
X72976987Y-46148788D01*
X73029934Y-46276617D01*
X73029935Y-46276619D01*
X73029936Y-46276620D01*
X73114169Y-46386393D01*
X73223942Y-46470626D01*
X73351777Y-46523576D01*
X73488960Y-46541637D01*
X73488961Y-46541636D01*
X73491136Y-46541923D01*
X73555032Y-46570190D01*
X73593503Y-46628514D01*
X73597889Y-46648675D01*
X73603792Y-46693508D01*
X73603793Y-46693512D01*
X73656740Y-46821341D01*
X73656741Y-46821343D01*
X73656742Y-46821344D01*
X73740975Y-46931117D01*
X73850748Y-47015350D01*
X73978583Y-47068300D01*
X74101468Y-47084478D01*
X74115765Y-47086361D01*
X74115766Y-47086361D01*
X74115767Y-47086361D01*
X74128713Y-47084656D01*
X74252949Y-47068300D01*
X74380784Y-47015350D01*
X74490557Y-46931117D01*
X74574790Y-46821344D01*
X74627740Y-46693509D01*
X74645801Y-46556326D01*
X74627740Y-46419143D01*
X74574790Y-46291309D01*
X74490557Y-46181535D01*
X74490555Y-46181534D01*
X74490555Y-46181533D01*
X74423029Y-46129718D01*
X74380784Y-46097302D01*
X74380783Y-46097301D01*
X74380781Y-46097300D01*
X74252952Y-46044353D01*
X74252950Y-46044352D01*
X74252949Y-46044352D01*
X74196288Y-46036892D01*
X74113589Y-46026004D01*
X74049692Y-45997737D01*
X74011222Y-45939412D01*
X74006836Y-45919250D01*
X74002658Y-45887518D01*
X74000934Y-45874419D01*
X73947984Y-45746585D01*
X73863751Y-45636811D01*
X73863749Y-45636810D01*
X73863749Y-45636809D01*
X73753975Y-45552576D01*
X73626146Y-45499629D01*
X73626144Y-45499628D01*
X73626143Y-45499628D01*
X73589572Y-45494813D01*
X73523379Y-45486098D01*
X73459482Y-45457831D01*
X73421012Y-45399506D01*
X73416626Y-45379345D01*
X73409974Y-45328817D01*
X73379358Y-45254903D01*
X73359828Y-45207752D01*
X73352359Y-45138283D01*
X73383634Y-45075804D01*
X73443724Y-45040152D01*
X73474389Y-45036300D01*
X76996790Y-45036300D01*
X77063829Y-45055985D01*
X77084471Y-45072619D01*
X77985072Y-45973220D01*
X78080380Y-46068528D01*
X78101896Y-46079491D01*
X78118478Y-46089653D01*
X78138019Y-46103850D01*
X78160983Y-46111311D01*
X78178962Y-46118757D01*
X78200474Y-46129719D01*
X78224321Y-46133495D01*
X78243243Y-46138039D01*
X78266201Y-46145499D01*
X78266207Y-46145500D01*
X78300112Y-46145500D01*
X83977200Y-46145500D01*
X84044239Y-46165185D01*
X84052685Y-46171123D01*
X84062982Y-46179024D01*
X84190817Y-46231974D01*
X84313702Y-46248152D01*
X84327999Y-46250035D01*
X84328000Y-46250035D01*
X84328001Y-46250035D01*
X84340947Y-46248330D01*
X84465183Y-46231974D01*
X84593018Y-46179024D01*
X84702791Y-46094791D01*
X84787024Y-45985018D01*
X84839974Y-45857183D01*
X84858035Y-45720000D01*
X84839974Y-45582817D01*
X84787024Y-45454983D01*
X84702791Y-45345209D01*
X84702789Y-45345208D01*
X84702789Y-45345207D01*
X84611053Y-45274815D01*
X84593018Y-45260976D01*
X84593017Y-45260975D01*
X84593015Y-45260974D01*
X84474778Y-45212000D01*
X93805565Y-45212000D01*
X93821347Y-45331876D01*
X93823626Y-45349181D01*
X93823627Y-45349186D01*
X93876574Y-45477015D01*
X93876575Y-45477017D01*
X93876576Y-45477018D01*
X93960809Y-45586791D01*
X94070582Y-45671024D01*
X94198417Y-45723974D01*
X94321302Y-45740152D01*
X94335599Y-45742035D01*
X94335600Y-45742035D01*
X94335601Y-45742035D01*
X94348547Y-45740330D01*
X94472783Y-45723974D01*
X94600618Y-45671024D01*
X94710391Y-45586791D01*
X94794624Y-45477018D01*
X94847574Y-45349183D01*
X94865635Y-45212000D01*
X94847574Y-45074817D01*
X94808314Y-44980035D01*
X94794625Y-44946985D01*
X94794624Y-44946984D01*
X94794624Y-44946983D01*
X94710391Y-44837209D01*
X94710389Y-44837208D01*
X94710389Y-44837207D01*
X94643820Y-44786127D01*
X94600618Y-44752976D01*
X94600617Y-44752975D01*
X94600615Y-44752974D01*
X94472786Y-44700027D01*
X94472784Y-44700026D01*
X94472783Y-44700026D01*
X94368527Y-44686300D01*
X94335601Y-44681965D01*
X94335599Y-44681965D01*
X94302673Y-44686300D01*
X94198417Y-44700026D01*
X94198416Y-44700026D01*
X94198413Y-44700027D01*
X94070585Y-44752974D01*
X93960809Y-44837209D01*
X93876574Y-44946985D01*
X93823627Y-45074813D01*
X93823627Y-45074814D01*
X93823626Y-45074817D01*
X93805565Y-45212000D01*
X84474778Y-45212000D01*
X84465186Y-45208027D01*
X84465184Y-45208026D01*
X84465183Y-45208026D01*
X84373727Y-45195985D01*
X84328001Y-45189965D01*
X84327999Y-45189965D01*
X84259408Y-45198995D01*
X84190817Y-45208026D01*
X84190816Y-45208026D01*
X84190813Y-45208027D01*
X84062984Y-45260974D01*
X84062983Y-45260975D01*
X84052686Y-45268877D01*
X83987517Y-45294070D01*
X83977201Y-45294500D01*
X78561210Y-45294500D01*
X78494171Y-45274815D01*
X78473529Y-45258181D01*
X77796446Y-44581098D01*
X105137500Y-44581098D01*
X105148123Y-44669560D01*
X105148124Y-44669563D01*
X105184028Y-44760610D01*
X105203640Y-44810343D01*
X105295077Y-44930922D01*
X105415656Y-45022359D01*
X105415659Y-45022361D01*
X105556437Y-45077876D01*
X105644902Y-45088500D01*
X108731098Y-45088500D01*
X108819563Y-45077876D01*
X108960341Y-45022361D01*
X109080922Y-44930922D01*
X109172361Y-44810341D01*
X109227876Y-44669563D01*
X109238500Y-44581098D01*
X109238500Y-41494902D01*
X109227876Y-41406437D01*
X109172361Y-41265659D01*
X109166492Y-41257919D01*
X109080922Y-41145077D01*
X108960343Y-41053640D01*
X108960341Y-41053639D01*
X108819563Y-40998124D01*
X108819560Y-40998123D01*
X108731098Y-40987500D01*
X105644902Y-40987500D01*
X105556439Y-40998123D01*
X105556438Y-40998123D01*
X105556437Y-40998124D01*
X105460284Y-41036041D01*
X105415656Y-41053640D01*
X105295077Y-41145077D01*
X105203640Y-41265656D01*
X105197508Y-41281207D01*
X105151027Y-41399077D01*
X105148124Y-41406438D01*
X105148123Y-41406439D01*
X105137500Y-41494901D01*
X105137500Y-44581098D01*
X77796446Y-44581098D01*
X77477618Y-44262270D01*
X77456103Y-44251308D01*
X77439510Y-44241140D01*
X77419980Y-44226950D01*
X77397015Y-44219488D01*
X77379041Y-44212043D01*
X77357527Y-44201081D01*
X77350530Y-44199973D01*
X77333673Y-44197303D01*
X77314758Y-44192762D01*
X77291794Y-44185300D01*
X77291793Y-44185300D01*
X77257888Y-44185300D01*
X72550593Y-44185300D01*
X72415807Y-44185300D01*
X72415804Y-44185300D01*
X72392839Y-44192762D01*
X72373922Y-44197303D01*
X72350073Y-44201080D01*
X72328558Y-44212043D01*
X72310585Y-44219488D01*
X72287618Y-44226950D01*
X72287616Y-44226951D01*
X72268083Y-44241143D01*
X72251501Y-44251305D01*
X72229981Y-44262270D01*
X72229979Y-44262272D01*
X72179435Y-44312817D01*
X72134672Y-44357580D01*
X72134671Y-44357581D01*
X71905070Y-44587181D01*
X71829177Y-44663074D01*
X71767854Y-44696558D01*
X71757689Y-44698330D01*
X71744822Y-44700024D01*
X71744814Y-44700026D01*
X71616985Y-44752974D01*
X71507209Y-44837209D01*
X71422974Y-44946985D01*
X71370026Y-45074814D01*
X71370024Y-45074822D01*
X71368330Y-45087689D01*
X71340060Y-45151584D01*
X71333073Y-45159177D01*
X70373494Y-46118758D01*
X70053980Y-46438272D01*
X70021626Y-46470626D01*
X69958671Y-46533580D01*
X69947710Y-46555093D01*
X69937546Y-46571678D01*
X69923352Y-46591214D01*
X69923351Y-46591217D01*
X69915888Y-46614185D01*
X69908443Y-46632158D01*
X69897480Y-46653673D01*
X69893703Y-46677522D01*
X69889162Y-46696439D01*
X69881700Y-46719404D01*
X69881700Y-51639190D01*
X69862015Y-51706229D01*
X69845381Y-51726871D01*
X64630071Y-56942181D01*
X64568748Y-56975666D01*
X64542390Y-56978500D01*
X54306445Y-56978500D01*
X54239406Y-56958815D01*
X54193651Y-56906011D01*
X54183707Y-56836853D01*
X54212732Y-56773297D01*
X54218764Y-56766819D01*
X54222786Y-56762796D01*
X54222788Y-56762793D01*
X54222791Y-56762791D01*
X54307024Y-56653018D01*
X54359974Y-56525183D01*
X54378035Y-56388000D01*
X54359974Y-56250817D01*
X54307024Y-56122983D01*
X54222791Y-56013209D01*
X54222789Y-56013208D01*
X54222789Y-56013207D01*
X54113015Y-55928974D01*
X53985186Y-55876027D01*
X53985184Y-55876026D01*
X53985183Y-55876026D01*
X53893727Y-55863985D01*
X53848001Y-55857965D01*
X53847999Y-55857965D01*
X53791573Y-55865394D01*
X53710817Y-55876026D01*
X53710816Y-55876026D01*
X53710813Y-55876027D01*
X53582985Y-55928974D01*
X53473209Y-56013209D01*
X53388974Y-56122985D01*
X53336027Y-56250813D01*
X53336026Y-56250818D01*
X53317965Y-56387999D01*
X53317965Y-56388000D01*
X53336026Y-56525181D01*
X53336027Y-56525186D01*
X53388974Y-56653015D01*
X53473213Y-56762796D01*
X53477236Y-56766819D01*
X53510721Y-56828142D01*
X53505737Y-56897834D01*
X53463865Y-56953767D01*
X53398401Y-56978184D01*
X53389555Y-56978500D01*
X50773610Y-56978500D01*
X50706571Y-56958815D01*
X50685929Y-56942181D01*
X49296598Y-55552850D01*
X49263113Y-55491527D01*
X49260279Y-55465169D01*
X49260279Y-55372000D01*
X50523965Y-55372000D01*
X50539701Y-55491527D01*
X50542026Y-55509181D01*
X50542027Y-55509186D01*
X50594974Y-55637015D01*
X50594975Y-55637017D01*
X50594976Y-55637018D01*
X50679209Y-55746791D01*
X50788982Y-55831024D01*
X50916817Y-55883974D01*
X51039702Y-55900152D01*
X51053999Y-55902035D01*
X51054000Y-55902035D01*
X51054001Y-55902035D01*
X51066947Y-55900330D01*
X51191183Y-55883974D01*
X51319018Y-55831024D01*
X51428791Y-55746791D01*
X51513024Y-55637018D01*
X51565974Y-55509183D01*
X51584035Y-55372000D01*
X51565974Y-55234817D01*
X51513024Y-55106983D01*
X51428791Y-54997209D01*
X51428789Y-54997208D01*
X51428789Y-54997207D01*
X51319015Y-54912974D01*
X51191186Y-54860027D01*
X51191184Y-54860026D01*
X51191183Y-54860026D01*
X51099727Y-54847985D01*
X51054001Y-54841965D01*
X51053999Y-54841965D01*
X50985408Y-54850995D01*
X50916817Y-54860026D01*
X50916816Y-54860026D01*
X50916813Y-54860027D01*
X50788985Y-54912974D01*
X50679209Y-54997209D01*
X50594974Y-55106985D01*
X50542027Y-55234813D01*
X50542026Y-55234818D01*
X50525692Y-55358886D01*
X50523965Y-55372000D01*
X49260279Y-55372000D01*
X49260279Y-53086000D01*
X58143965Y-53086000D01*
X58162026Y-53223181D01*
X58162027Y-53223186D01*
X58214974Y-53351015D01*
X58214975Y-53351017D01*
X58214976Y-53351018D01*
X58299209Y-53460791D01*
X58408982Y-53545024D01*
X58536817Y-53597974D01*
X58659702Y-53614152D01*
X58673999Y-53616035D01*
X58674000Y-53616035D01*
X58674001Y-53616035D01*
X58686947Y-53614330D01*
X58811183Y-53597974D01*
X58939018Y-53545024D01*
X59048791Y-53460791D01*
X59133024Y-53351018D01*
X59185974Y-53223183D01*
X59204035Y-53086000D01*
X59185974Y-52948817D01*
X59146714Y-52854035D01*
X59133025Y-52820985D01*
X59133024Y-52820984D01*
X59133024Y-52820983D01*
X59048791Y-52711209D01*
X59048789Y-52711208D01*
X59048789Y-52711207D01*
X58980597Y-52658881D01*
X58939018Y-52626976D01*
X58939017Y-52626975D01*
X58939015Y-52626974D01*
X58811186Y-52574027D01*
X58811184Y-52574026D01*
X58811183Y-52574026D01*
X58719727Y-52561985D01*
X58674001Y-52555965D01*
X58673999Y-52555965D01*
X58605408Y-52564995D01*
X58536817Y-52574026D01*
X58536816Y-52574026D01*
X58536813Y-52574027D01*
X58408985Y-52626974D01*
X58299209Y-52711209D01*
X58214974Y-52820985D01*
X58162027Y-52948813D01*
X58162026Y-52948818D01*
X58143965Y-53085999D01*
X58143965Y-53086000D01*
X49260279Y-53086000D01*
X49260279Y-52728663D01*
X49278520Y-52666539D01*
X49277458Y-52665926D01*
X49281519Y-52658889D01*
X49281524Y-52658883D01*
X49334474Y-52531048D01*
X49334773Y-52528773D01*
X49335560Y-52526994D01*
X49336576Y-52523203D01*
X49337167Y-52523361D01*
X49363033Y-52464880D01*
X49370018Y-52457286D01*
X49371756Y-52455548D01*
X53073961Y-52455548D01*
X53089559Y-52574026D01*
X53092022Y-52592729D01*
X53092023Y-52592734D01*
X53144970Y-52720563D01*
X53144971Y-52720565D01*
X53144972Y-52720566D01*
X53229205Y-52830339D01*
X53338978Y-52914572D01*
X53466813Y-52967522D01*
X53589698Y-52983700D01*
X53603995Y-52985583D01*
X53603996Y-52985583D01*
X53603997Y-52985583D01*
X53616943Y-52983878D01*
X53741179Y-52967522D01*
X53869014Y-52914572D01*
X53978787Y-52830339D01*
X54063020Y-52720566D01*
X54115970Y-52592731D01*
X54134031Y-52455548D01*
X54116712Y-52324000D01*
X66525965Y-52324000D01*
X66536998Y-52407805D01*
X66544026Y-52461181D01*
X66544027Y-52461186D01*
X66596974Y-52589015D01*
X66596975Y-52589017D01*
X66596976Y-52589018D01*
X66681209Y-52698791D01*
X66790982Y-52783024D01*
X66790983Y-52783024D01*
X66790984Y-52783025D01*
X66794917Y-52784654D01*
X66918817Y-52835974D01*
X67041702Y-52852152D01*
X67055999Y-52854035D01*
X67056000Y-52854035D01*
X67056001Y-52854035D01*
X67068947Y-52852330D01*
X67193183Y-52835974D01*
X67321018Y-52783024D01*
X67430791Y-52698791D01*
X67515024Y-52589018D01*
X67567974Y-52461183D01*
X67586035Y-52324000D01*
X67567974Y-52186817D01*
X67524042Y-52080755D01*
X67515025Y-52058985D01*
X67515024Y-52058984D01*
X67515024Y-52058983D01*
X67430791Y-51949209D01*
X67430789Y-51949208D01*
X67430789Y-51949207D01*
X67336727Y-51877030D01*
X67321018Y-51864976D01*
X67321017Y-51864975D01*
X67321015Y-51864974D01*
X67193186Y-51812027D01*
X67193184Y-51812026D01*
X67193183Y-51812026D01*
X67065343Y-51795195D01*
X67056001Y-51793965D01*
X67055999Y-51793965D01*
X67046657Y-51795195D01*
X66918817Y-51812026D01*
X66918816Y-51812026D01*
X66918813Y-51812027D01*
X66790985Y-51864974D01*
X66681209Y-51949209D01*
X66596974Y-52058985D01*
X66544027Y-52186813D01*
X66544026Y-52186816D01*
X66544026Y-52186817D01*
X66525965Y-52324000D01*
X54116712Y-52324000D01*
X54115970Y-52318365D01*
X54063020Y-52190531D01*
X53978787Y-52080757D01*
X53978785Y-52080756D01*
X53978785Y-52080755D01*
X53873450Y-51999928D01*
X53869014Y-51996524D01*
X53869013Y-51996523D01*
X53869011Y-51996522D01*
X53741182Y-51943575D01*
X53741180Y-51943574D01*
X53741179Y-51943574D01*
X53617334Y-51927269D01*
X53603997Y-51925513D01*
X53603995Y-51925513D01*
X53538082Y-51934191D01*
X53466813Y-51943574D01*
X53466812Y-51943574D01*
X53466809Y-51943575D01*
X53338981Y-51996522D01*
X53229205Y-52080757D01*
X53144970Y-52190533D01*
X53092023Y-52318361D01*
X53092022Y-52318364D01*
X53092022Y-52318365D01*
X53073961Y-52455548D01*
X49371756Y-52455548D01*
X49854554Y-51972752D01*
X49878528Y-51948778D01*
X49889488Y-51927264D01*
X49899653Y-51910676D01*
X49913849Y-51891139D01*
X49921310Y-51868172D01*
X49928759Y-51850192D01*
X49939718Y-51828686D01*
X49939718Y-51828685D01*
X49939719Y-51828684D01*
X49943495Y-51804834D01*
X49948036Y-51785918D01*
X49955500Y-51762951D01*
X49955500Y-51628165D01*
X49955500Y-43548000D01*
X58397965Y-43548000D01*
X58412922Y-43661609D01*
X58416026Y-43685181D01*
X58416027Y-43685186D01*
X58468974Y-43813015D01*
X58468975Y-43813017D01*
X58468976Y-43813018D01*
X58553209Y-43922791D01*
X58662982Y-44007024D01*
X58790817Y-44059974D01*
X58913702Y-44076152D01*
X58927999Y-44078035D01*
X58928000Y-44078035D01*
X58928001Y-44078035D01*
X58940947Y-44076330D01*
X59065183Y-44059974D01*
X59193018Y-44007024D01*
X59302791Y-43922791D01*
X59387024Y-43813018D01*
X59439974Y-43685183D01*
X59458035Y-43548000D01*
X59439974Y-43410817D01*
X59438232Y-43406613D01*
X59430761Y-43337146D01*
X59462034Y-43274665D01*
X59477299Y-43260787D01*
X59556791Y-43199791D01*
X59641024Y-43090018D01*
X59693974Y-42962183D01*
X59712035Y-42825000D01*
X59693974Y-42687817D01*
X59641024Y-42559983D01*
X59556791Y-42450209D01*
X59556789Y-42450208D01*
X59556789Y-42450207D01*
X59447015Y-42365974D01*
X59319186Y-42313027D01*
X59319184Y-42313026D01*
X59319183Y-42313026D01*
X59227727Y-42300985D01*
X59182001Y-42294965D01*
X59181999Y-42294965D01*
X59113408Y-42303995D01*
X59044817Y-42313026D01*
X59044816Y-42313026D01*
X59044813Y-42313027D01*
X58916985Y-42365974D01*
X58807209Y-42450209D01*
X58722974Y-42559985D01*
X58670027Y-42687813D01*
X58670026Y-42687816D01*
X58670026Y-42687817D01*
X58651965Y-42825000D01*
X58670026Y-42962183D01*
X58671770Y-42966393D01*
X58679236Y-43035862D01*
X58647959Y-43098340D01*
X58632695Y-43112216D01*
X58573075Y-43157965D01*
X58553209Y-43173209D01*
X58551047Y-43176027D01*
X58468974Y-43282985D01*
X58416027Y-43410813D01*
X58416026Y-43410816D01*
X58416026Y-43410817D01*
X58397965Y-43548000D01*
X49955500Y-43548000D01*
X49955500Y-41656000D01*
X57635965Y-41656000D01*
X57654026Y-41793181D01*
X57654027Y-41793186D01*
X57706974Y-41921015D01*
X57706975Y-41921017D01*
X57706976Y-41921018D01*
X57791209Y-42030791D01*
X57900982Y-42115024D01*
X58028817Y-42167974D01*
X58151702Y-42184152D01*
X58165999Y-42186035D01*
X58166000Y-42186035D01*
X58166001Y-42186035D01*
X58178947Y-42184330D01*
X58303183Y-42167974D01*
X58431018Y-42115024D01*
X58540791Y-42030791D01*
X58625024Y-41921018D01*
X58677974Y-41793183D01*
X58696035Y-41656000D01*
X58677974Y-41518817D01*
X58625024Y-41390983D01*
X58540791Y-41281209D01*
X58540789Y-41281208D01*
X58540789Y-41281207D01*
X58474220Y-41230127D01*
X58431018Y-41196976D01*
X58431017Y-41196975D01*
X58431015Y-41196974D01*
X58303186Y-41144027D01*
X58303184Y-41144026D01*
X58303183Y-41144026D01*
X58211727Y-41131985D01*
X58166001Y-41125965D01*
X58165999Y-41125965D01*
X58097408Y-41134995D01*
X58028817Y-41144026D01*
X58028816Y-41144026D01*
X58028813Y-41144027D01*
X57900985Y-41196974D01*
X57791209Y-41281209D01*
X57706974Y-41390985D01*
X57654027Y-41518813D01*
X57654026Y-41518818D01*
X57635965Y-41655999D01*
X57635965Y-41656000D01*
X49955500Y-41656000D01*
X49955500Y-39116000D01*
X55857965Y-39116000D01*
X55872315Y-39224999D01*
X55876026Y-39253181D01*
X55876027Y-39253186D01*
X55928974Y-39381015D01*
X55928975Y-39381017D01*
X55928976Y-39381018D01*
X56013209Y-39490791D01*
X56122982Y-39575024D01*
X56122983Y-39575024D01*
X56122984Y-39575025D01*
X56165593Y-39592674D01*
X56250817Y-39627974D01*
X56372943Y-39644052D01*
X56436839Y-39672318D01*
X56475310Y-39730643D01*
X56476141Y-39800508D01*
X56471320Y-39814439D01*
X56467317Y-39824103D01*
X56467316Y-39824106D01*
X56467316Y-39824107D01*
X56462602Y-39859910D01*
X56449255Y-39961289D01*
X56449255Y-39961290D01*
X56467316Y-40098471D01*
X56467317Y-40098476D01*
X56520264Y-40226305D01*
X56520265Y-40226307D01*
X56520266Y-40226308D01*
X56604499Y-40336081D01*
X56714272Y-40420314D01*
X56714273Y-40420314D01*
X56714274Y-40420315D01*
X56742922Y-40432181D01*
X56842107Y-40473264D01*
X56964992Y-40489442D01*
X56979289Y-40491325D01*
X56979290Y-40491325D01*
X56979291Y-40491325D01*
X56992237Y-40489620D01*
X57116473Y-40473264D01*
X57243932Y-40420469D01*
X57313399Y-40413001D01*
X57375878Y-40444276D01*
X57389754Y-40459541D01*
X57396309Y-40468083D01*
X57506082Y-40552316D01*
X57633917Y-40605266D01*
X57756802Y-40621444D01*
X57771099Y-40623327D01*
X57771100Y-40623327D01*
X57771101Y-40623327D01*
X57784047Y-40621622D01*
X57908283Y-40605266D01*
X58036118Y-40552316D01*
X58145891Y-40468083D01*
X58230124Y-40358310D01*
X58283074Y-40230475D01*
X58301135Y-40093292D01*
X58283074Y-39956109D01*
X58230124Y-39828275D01*
X58145891Y-39718501D01*
X58145889Y-39718500D01*
X58145889Y-39718499D01*
X58051453Y-39646035D01*
X58036118Y-39634268D01*
X58036117Y-39634267D01*
X58036115Y-39634266D01*
X57908286Y-39581319D01*
X57908284Y-39581318D01*
X57908283Y-39581318D01*
X57816827Y-39569277D01*
X57771101Y-39563257D01*
X57764266Y-39563257D01*
X57697227Y-39543572D01*
X57651472Y-39490768D01*
X57641528Y-39421610D01*
X57649704Y-39391806D01*
X57654172Y-39381018D01*
X57661974Y-39362183D01*
X57680035Y-39225000D01*
X57661974Y-39087817D01*
X57609024Y-38959983D01*
X57524791Y-38850209D01*
X57524789Y-38850208D01*
X57524789Y-38850207D01*
X57415015Y-38765974D01*
X57287186Y-38713027D01*
X57287184Y-38713026D01*
X57287183Y-38713026D01*
X57195727Y-38700985D01*
X57150001Y-38694965D01*
X57149999Y-38694965D01*
X57081408Y-38703995D01*
X57012817Y-38713026D01*
X57012816Y-38713026D01*
X57012813Y-38713027D01*
X56892640Y-38762804D01*
X56823171Y-38770273D01*
X56770836Y-38744075D01*
X56769239Y-38746157D01*
X56726064Y-38713027D01*
X56653018Y-38656976D01*
X56653017Y-38656975D01*
X56653015Y-38656974D01*
X56525186Y-38604027D01*
X56525184Y-38604026D01*
X56525183Y-38604026D01*
X56433727Y-38591985D01*
X56388001Y-38585965D01*
X56387999Y-38585965D01*
X56319408Y-38594995D01*
X56250817Y-38604026D01*
X56250816Y-38604026D01*
X56250813Y-38604027D01*
X56122985Y-38656974D01*
X56013209Y-38741209D01*
X55928974Y-38850985D01*
X55876027Y-38978813D01*
X55876026Y-38978816D01*
X55876026Y-38978817D01*
X55857965Y-39116000D01*
X49955500Y-39116000D01*
X49955500Y-36830000D01*
X58397965Y-36830000D01*
X58416026Y-36967181D01*
X58416027Y-36967186D01*
X58468974Y-37095015D01*
X58468975Y-37095017D01*
X58468976Y-37095018D01*
X58553209Y-37204791D01*
X58662982Y-37289024D01*
X58662983Y-37289024D01*
X58662984Y-37289025D01*
X58672813Y-37293096D01*
X58790817Y-37341974D01*
X58803680Y-37343667D01*
X58867576Y-37371932D01*
X58875177Y-37378925D01*
X62643472Y-41147220D01*
X62738780Y-41242528D01*
X62760296Y-41253491D01*
X62776878Y-41263653D01*
X62796419Y-41277850D01*
X62819383Y-41285311D01*
X62837362Y-41292757D01*
X62858874Y-41303719D01*
X62882721Y-41307495D01*
X62901643Y-41312039D01*
X62924601Y-41319499D01*
X62924607Y-41319500D01*
X62958512Y-41319500D01*
X63189390Y-41319500D01*
X63256429Y-41339185D01*
X63302184Y-41391989D01*
X63312128Y-41461147D01*
X63283103Y-41524703D01*
X63277071Y-41531181D01*
X61698805Y-43109447D01*
X59386318Y-45421932D01*
X59324995Y-45455417D01*
X59282451Y-45457190D01*
X59182001Y-45443965D01*
X59181999Y-45443965D01*
X59113408Y-45452995D01*
X59044817Y-45462026D01*
X59044816Y-45462026D01*
X59044813Y-45462027D01*
X58916985Y-45514974D01*
X58807209Y-45599209D01*
X58722974Y-45708985D01*
X58670027Y-45836813D01*
X58670026Y-45836816D01*
X58670026Y-45836817D01*
X58665075Y-45874420D01*
X58653416Y-45962982D01*
X58651965Y-45974000D01*
X58668198Y-46097302D01*
X58670026Y-46111181D01*
X58670027Y-46111186D01*
X58722974Y-46239015D01*
X58722975Y-46239017D01*
X58722976Y-46239018D01*
X58807209Y-46348791D01*
X58916982Y-46433024D01*
X59044817Y-46485974D01*
X59167702Y-46502152D01*
X59181999Y-46504035D01*
X59182000Y-46504035D01*
X59182001Y-46504035D01*
X59194947Y-46502330D01*
X59319183Y-46485974D01*
X59447018Y-46433024D01*
X59464487Y-46419619D01*
X59501652Y-46400065D01*
X59503391Y-46399500D01*
X59503393Y-46399500D01*
X59526358Y-46392037D01*
X59545276Y-46387495D01*
X59569126Y-46383719D01*
X59590636Y-46372757D01*
X59608614Y-46365310D01*
X59631581Y-46357849D01*
X59651118Y-46343653D01*
X59667706Y-46333488D01*
X59689220Y-46322528D01*
X59784528Y-46227220D01*
X61338819Y-44672929D01*
X61400142Y-44639444D01*
X61469834Y-44644428D01*
X61525767Y-44686300D01*
X61550184Y-44751764D01*
X61550500Y-44760610D01*
X61550500Y-45877201D01*
X61530815Y-45944240D01*
X61524876Y-45952687D01*
X61516975Y-45962982D01*
X61464027Y-46090813D01*
X61464026Y-46090816D01*
X61464026Y-46090817D01*
X61445965Y-46228000D01*
X61463060Y-46357849D01*
X61464026Y-46365181D01*
X61464027Y-46365186D01*
X61516974Y-46493015D01*
X61516975Y-46493017D01*
X61516976Y-46493018D01*
X61601209Y-46602791D01*
X61710982Y-46687024D01*
X61710983Y-46687024D01*
X61710984Y-46687025D01*
X61733712Y-46696439D01*
X61838817Y-46739974D01*
X61961702Y-46756152D01*
X61975999Y-46758035D01*
X61976000Y-46758035D01*
X61976001Y-46758035D01*
X61988947Y-46756330D01*
X62113183Y-46739974D01*
X62241018Y-46687024D01*
X62350791Y-46602791D01*
X62435024Y-46493018D01*
X62487974Y-46365183D01*
X62506035Y-46228000D01*
X65255965Y-46228000D01*
X65273060Y-46357849D01*
X65274026Y-46365181D01*
X65274027Y-46365186D01*
X65326974Y-46493015D01*
X65326975Y-46493017D01*
X65326976Y-46493018D01*
X65411209Y-46602791D01*
X65520982Y-46687024D01*
X65520983Y-46687024D01*
X65520984Y-46687025D01*
X65543712Y-46696439D01*
X65648817Y-46739974D01*
X65771702Y-46756152D01*
X65785999Y-46758035D01*
X65786000Y-46758035D01*
X65786001Y-46758035D01*
X65798947Y-46756330D01*
X65923183Y-46739974D01*
X66051018Y-46687024D01*
X66160791Y-46602791D01*
X66245024Y-46493018D01*
X66297974Y-46365183D01*
X66316035Y-46228000D01*
X66297974Y-46090817D01*
X66254150Y-45985015D01*
X66245025Y-45962985D01*
X66245024Y-45962984D01*
X66245024Y-45962983D01*
X66160791Y-45853209D01*
X66160789Y-45853208D01*
X66160789Y-45853207D01*
X66051015Y-45768974D01*
X65923186Y-45716027D01*
X65923184Y-45716026D01*
X65923183Y-45716026D01*
X65831727Y-45703985D01*
X65786001Y-45697965D01*
X65785999Y-45697965D01*
X65717408Y-45706995D01*
X65648817Y-45716026D01*
X65648816Y-45716026D01*
X65648813Y-45716027D01*
X65520985Y-45768974D01*
X65411209Y-45853209D01*
X65326974Y-45962985D01*
X65274027Y-46090813D01*
X65274026Y-46090816D01*
X65274026Y-46090817D01*
X65255965Y-46228000D01*
X62506035Y-46228000D01*
X62487974Y-46090817D01*
X62458546Y-46019770D01*
X62435024Y-45962982D01*
X62427124Y-45952687D01*
X62401930Y-45887518D01*
X62401500Y-45877201D01*
X62401500Y-43661609D01*
X62421185Y-43594570D01*
X62437814Y-43573933D01*
X64428319Y-41583427D01*
X64489642Y-41549943D01*
X64559334Y-41554927D01*
X64603680Y-41583427D01*
X67071470Y-44051218D01*
X67071472Y-44051220D01*
X67166780Y-44146528D01*
X67188301Y-44157493D01*
X67204880Y-44167653D01*
X67224419Y-44181849D01*
X67247381Y-44189309D01*
X67265354Y-44196753D01*
X67286874Y-44207719D01*
X67310724Y-44211495D01*
X67329645Y-44216039D01*
X67340260Y-44219488D01*
X67352607Y-44223500D01*
X67386512Y-44223500D01*
X68446390Y-44223500D01*
X68513429Y-44243185D01*
X68559184Y-44295989D01*
X68569329Y-44363686D01*
X68557965Y-44449999D01*
X68557965Y-44450000D01*
X68576026Y-44587181D01*
X68576027Y-44587186D01*
X68628974Y-44715015D01*
X68628975Y-44715017D01*
X68628976Y-44715018D01*
X68713209Y-44824791D01*
X68822982Y-44909024D01*
X68950817Y-44961974D01*
X69073702Y-44978152D01*
X69087999Y-44980035D01*
X69088000Y-44980035D01*
X69088001Y-44980035D01*
X69100947Y-44978330D01*
X69225183Y-44961974D01*
X69353018Y-44909024D01*
X69462791Y-44824791D01*
X69547024Y-44715018D01*
X69599974Y-44587183D01*
X69618035Y-44450000D01*
X69604198Y-44344904D01*
X69614963Y-44275872D01*
X69661342Y-44223616D01*
X69689874Y-44212948D01*
X69689156Y-44210739D01*
X69698445Y-44207719D01*
X69698449Y-44207719D01*
X69698451Y-44207717D01*
X69704010Y-44205911D01*
X69726155Y-44200898D01*
X69733183Y-44199974D01*
X69733185Y-44199973D01*
X69733186Y-44199973D01*
X69776944Y-44181848D01*
X69861018Y-44147024D01*
X69970791Y-44062791D01*
X70055024Y-43953018D01*
X70107974Y-43825183D01*
X70126035Y-43688000D01*
X70107974Y-43550817D01*
X70055024Y-43422983D01*
X69970791Y-43313209D01*
X69970789Y-43313208D01*
X69970789Y-43313207D01*
X69861015Y-43228974D01*
X69742778Y-43180000D01*
X73383965Y-43180000D01*
X73397660Y-43284024D01*
X73402026Y-43317181D01*
X73402027Y-43317186D01*
X73454974Y-43445015D01*
X73454975Y-43445017D01*
X73454976Y-43445018D01*
X73539209Y-43554791D01*
X73648982Y-43639024D01*
X73776817Y-43691974D01*
X73899702Y-43708152D01*
X73913999Y-43710035D01*
X73914000Y-43710035D01*
X73914001Y-43710035D01*
X73926947Y-43708330D01*
X74051183Y-43691974D01*
X74179018Y-43639024D01*
X74288791Y-43554791D01*
X74373024Y-43445018D01*
X74425974Y-43317183D01*
X74444035Y-43180000D01*
X74425974Y-43042817D01*
X74373024Y-42914983D01*
X74288791Y-42805209D01*
X74288789Y-42805208D01*
X74288789Y-42805207D01*
X74179015Y-42720974D01*
X74051186Y-42668027D01*
X74051184Y-42668026D01*
X74051183Y-42668026D01*
X73959727Y-42655985D01*
X73914001Y-42649965D01*
X73913999Y-42649965D01*
X73845408Y-42658995D01*
X73776817Y-42668026D01*
X73776816Y-42668026D01*
X73776813Y-42668027D01*
X73648985Y-42720974D01*
X73539209Y-42805209D01*
X73454974Y-42914985D01*
X73402027Y-43042813D01*
X73402026Y-43042816D01*
X73402026Y-43042817D01*
X73383965Y-43180000D01*
X69742778Y-43180000D01*
X69733186Y-43176027D01*
X69733184Y-43176026D01*
X69733183Y-43176026D01*
X69641727Y-43163985D01*
X69596001Y-43157965D01*
X69595999Y-43157965D01*
X69527408Y-43166995D01*
X69458817Y-43176026D01*
X69458816Y-43176026D01*
X69458813Y-43176027D01*
X69330985Y-43228974D01*
X69221207Y-43313210D01*
X69212939Y-43323987D01*
X69156511Y-43365189D01*
X69114563Y-43372500D01*
X67647609Y-43372500D01*
X67580570Y-43352815D01*
X67559928Y-43336181D01*
X66409782Y-42186035D01*
X65293814Y-41070066D01*
X65260331Y-41008746D01*
X65265315Y-40939054D01*
X65293814Y-40894709D01*
X65363523Y-40825000D01*
X71698445Y-40825000D01*
X71716506Y-40962181D01*
X71716507Y-40962186D01*
X71769454Y-41090015D01*
X71769455Y-41090017D01*
X71769456Y-41090018D01*
X71853689Y-41199791D01*
X71963462Y-41284024D01*
X71963463Y-41284024D01*
X71963464Y-41284025D01*
X71984548Y-41292758D01*
X72091297Y-41336974D01*
X72214182Y-41353152D01*
X72228479Y-41355035D01*
X72228480Y-41355035D01*
X72228481Y-41355035D01*
X72241427Y-41353330D01*
X72365663Y-41336974D01*
X72493498Y-41284024D01*
X72603271Y-41199791D01*
X72643012Y-41148000D01*
X73383965Y-41148000D01*
X73401873Y-41284024D01*
X73402026Y-41285181D01*
X73402027Y-41285186D01*
X73454974Y-41413015D01*
X73454975Y-41413017D01*
X73454976Y-41413018D01*
X73539209Y-41522791D01*
X73648982Y-41607024D01*
X73776817Y-41659974D01*
X73899702Y-41676152D01*
X73913999Y-41678035D01*
X73914000Y-41678035D01*
X73914001Y-41678035D01*
X73926947Y-41676330D01*
X74051183Y-41659974D01*
X74179018Y-41607024D01*
X74288791Y-41522791D01*
X74373024Y-41413018D01*
X74425974Y-41285183D01*
X74444035Y-41148000D01*
X74425974Y-41010817D01*
X74373024Y-40882983D01*
X74288791Y-40773209D01*
X74288789Y-40773208D01*
X74288789Y-40773207D01*
X74179015Y-40688974D01*
X74051186Y-40636027D01*
X74051184Y-40636026D01*
X74051183Y-40636026D01*
X73954727Y-40623327D01*
X73914001Y-40617965D01*
X73913996Y-40617965D01*
X73869694Y-40623797D01*
X73800788Y-40613051D01*
X73770656Y-40638540D01*
X73767941Y-40639702D01*
X73648986Y-40688974D01*
X73539209Y-40773209D01*
X73454974Y-40882985D01*
X73402027Y-41010813D01*
X73402026Y-41010816D01*
X73402026Y-41010817D01*
X73383965Y-41148000D01*
X72643012Y-41148000D01*
X72687504Y-41090018D01*
X72740454Y-40962183D01*
X72758515Y-40825000D01*
X72740454Y-40687817D01*
X72687504Y-40559983D01*
X72603271Y-40450209D01*
X72603269Y-40450208D01*
X72603269Y-40450207D01*
X72493495Y-40365974D01*
X72365666Y-40313027D01*
X72365664Y-40313026D01*
X72365663Y-40313026D01*
X72274207Y-40300985D01*
X72228481Y-40294965D01*
X72228479Y-40294965D01*
X72159888Y-40303995D01*
X72091297Y-40313026D01*
X72091296Y-40313026D01*
X72091293Y-40313027D01*
X71963465Y-40365974D01*
X71853689Y-40450209D01*
X71769454Y-40559985D01*
X71716507Y-40687813D01*
X71716506Y-40687816D01*
X71716506Y-40687817D01*
X71707475Y-40756408D01*
X71698445Y-40824999D01*
X71698445Y-40825000D01*
X65363523Y-40825000D01*
X66310523Y-39878000D01*
X73129965Y-39878000D01*
X73148026Y-40015181D01*
X73148027Y-40015186D01*
X73200974Y-40143015D01*
X73200975Y-40143017D01*
X73200976Y-40143018D01*
X73285209Y-40252791D01*
X73394982Y-40337024D01*
X73522817Y-40389974D01*
X73645702Y-40406152D01*
X73659999Y-40408035D01*
X73659999Y-40408034D01*
X73660000Y-40408035D01*
X73704303Y-40402202D01*
X73773211Y-40412947D01*
X73803346Y-40387458D01*
X73805951Y-40386341D01*
X73925018Y-40337024D01*
X74034791Y-40252791D01*
X74119024Y-40143018D01*
X74171974Y-40015183D01*
X74190035Y-39878000D01*
X74171974Y-39740817D01*
X74129834Y-39639081D01*
X74119025Y-39612985D01*
X74119024Y-39612984D01*
X74119024Y-39612983D01*
X74034791Y-39503209D01*
X74034789Y-39503208D01*
X74034789Y-39503207D01*
X73968220Y-39452127D01*
X73925018Y-39418976D01*
X73925017Y-39418975D01*
X73925015Y-39418974D01*
X73797186Y-39366027D01*
X73797184Y-39366026D01*
X73797183Y-39366026D01*
X73705727Y-39353985D01*
X73660001Y-39347965D01*
X73659999Y-39347965D01*
X73591408Y-39356995D01*
X73522817Y-39366026D01*
X73522816Y-39366026D01*
X73522813Y-39366027D01*
X73394985Y-39418974D01*
X73285209Y-39503209D01*
X73200974Y-39612985D01*
X73148027Y-39740813D01*
X73148026Y-39740818D01*
X73129965Y-39877999D01*
X73129965Y-39878000D01*
X66310523Y-39878000D01*
X68340917Y-37847607D01*
X105109367Y-37847607D01*
X105128509Y-38127469D01*
X105128510Y-38127471D01*
X105185579Y-38402106D01*
X105185584Y-38402123D01*
X105279521Y-38666435D01*
X105279522Y-38666437D01*
X105408577Y-38915503D01*
X105570346Y-39144676D01*
X105570350Y-39144680D01*
X105570350Y-39144681D01*
X105760204Y-39347965D01*
X105761813Y-39349688D01*
X105979412Y-39526718D01*
X105979414Y-39526719D01*
X105979415Y-39526720D01*
X106219091Y-39672470D01*
X106325066Y-39718501D01*
X106476383Y-39784227D01*
X106746497Y-39859910D01*
X106990817Y-39893491D01*
X107024399Y-39898107D01*
X107024400Y-39898107D01*
X107304917Y-39898107D01*
X107334877Y-39893988D01*
X107582819Y-39859910D01*
X107852933Y-39784227D01*
X108069921Y-39689976D01*
X108110224Y-39672470D01*
X108153695Y-39646035D01*
X108349904Y-39526718D01*
X108567503Y-39349688D01*
X108758970Y-39144676D01*
X108920739Y-38915503D01*
X109049794Y-38666437D01*
X109143733Y-38402118D01*
X109143734Y-38402111D01*
X109143736Y-38402106D01*
X109178171Y-38236393D01*
X109200806Y-38127469D01*
X109219949Y-37847607D01*
X109200806Y-37567745D01*
X109161094Y-37376639D01*
X109143736Y-37293107D01*
X109143731Y-37293088D01*
X109049794Y-37028778D01*
X109049794Y-37028777D01*
X108920739Y-36779711D01*
X108758970Y-36550538D01*
X108758965Y-36550532D01*
X108567503Y-36345526D01*
X108405638Y-36213839D01*
X108349904Y-36168496D01*
X108349902Y-36168495D01*
X108349900Y-36168493D01*
X108110224Y-36022743D01*
X107852934Y-35910987D01*
X107582824Y-35835305D01*
X107582820Y-35835304D01*
X107582819Y-35835304D01*
X107427814Y-35813999D01*
X107304917Y-35797107D01*
X107304916Y-35797107D01*
X107024400Y-35797107D01*
X107024399Y-35797107D01*
X106746497Y-35835304D01*
X106746491Y-35835305D01*
X106476381Y-35910987D01*
X106219091Y-36022743D01*
X105979415Y-36168493D01*
X105761812Y-36345526D01*
X105570350Y-36550532D01*
X105570350Y-36550533D01*
X105570347Y-36550535D01*
X105570346Y-36550538D01*
X105549568Y-36579974D01*
X105408577Y-36779710D01*
X105279521Y-37028778D01*
X105185585Y-37293088D01*
X105185579Y-37293107D01*
X105128510Y-37567742D01*
X105128509Y-37567744D01*
X105109367Y-37847607D01*
X68340917Y-37847607D01*
X69417105Y-36771419D01*
X69478428Y-36737934D01*
X69504786Y-36735100D01*
X69856166Y-36735100D01*
X69860398Y-36735172D01*
X69862362Y-36735239D01*
X69924514Y-36737362D01*
X69964443Y-36727630D01*
X69976880Y-36725267D01*
X70017608Y-36719670D01*
X70034071Y-36712518D01*
X70054104Y-36705781D01*
X70071540Y-36701533D01*
X70107383Y-36681378D01*
X70118703Y-36675757D01*
X70156408Y-36659380D01*
X70170320Y-36648060D01*
X70187811Y-36636157D01*
X70203443Y-36627368D01*
X70203441Y-36627368D01*
X70203447Y-36627366D01*
X70232510Y-36598301D01*
X70241915Y-36589813D01*
X70273796Y-36563878D01*
X70284147Y-36549211D01*
X70297755Y-36533055D01*
X70357663Y-36473148D01*
X70415662Y-36440438D01*
X70556603Y-36405700D01*
X70707227Y-36326646D01*
X70707228Y-36326644D01*
X70707230Y-36326644D01*
X70834561Y-36213839D01*
X70931196Y-36073840D01*
X70991518Y-35914782D01*
X71012023Y-35745910D01*
X70991518Y-35577038D01*
X70931196Y-35417980D01*
X70834561Y-35277981D01*
X70779081Y-35228830D01*
X70773651Y-35224019D01*
X70736524Y-35164830D01*
X70731878Y-35131204D01*
X70731878Y-33154986D01*
X70731877Y-33154982D01*
X70724417Y-33132023D01*
X70719873Y-33113099D01*
X70718879Y-33106821D01*
X70716097Y-33089252D01*
X70705131Y-33067732D01*
X70697686Y-33049756D01*
X70690227Y-33026797D01*
X70676031Y-33007258D01*
X70665871Y-32990679D01*
X70654906Y-32969158D01*
X70559598Y-32873850D01*
X70552533Y-32866785D01*
X70552526Y-32866779D01*
X69873194Y-32187446D01*
X69334155Y-31648407D01*
X69334148Y-31648401D01*
X68283354Y-30597607D01*
X104914658Y-30597607D01*
X106431061Y-30597607D01*
X106404308Y-30674062D01*
X106384754Y-30847607D01*
X106404308Y-31021152D01*
X106431061Y-31097607D01*
X104914659Y-31097607D01*
X104914659Y-32397591D01*
X104925152Y-32500302D01*
X104980299Y-32666724D01*
X104980301Y-32666729D01*
X105072342Y-32815951D01*
X105196313Y-32939922D01*
X105345535Y-33031963D01*
X105345540Y-33031965D01*
X105511962Y-33087112D01*
X105511969Y-33087113D01*
X105614679Y-33097606D01*
X106914657Y-33097606D01*
X106914658Y-33097605D01*
X106914658Y-31581204D01*
X106991113Y-31607957D01*
X107121134Y-31622607D01*
X107208182Y-31622607D01*
X107338203Y-31607957D01*
X107414658Y-31581204D01*
X107414658Y-33097606D01*
X108714628Y-33097606D01*
X108714642Y-33097605D01*
X108817353Y-33087112D01*
X108983775Y-33031965D01*
X108983780Y-33031963D01*
X109133002Y-32939922D01*
X109256973Y-32815951D01*
X109349014Y-32666729D01*
X109349016Y-32666724D01*
X109404163Y-32500302D01*
X109404164Y-32500295D01*
X109414657Y-32397591D01*
X109414658Y-32397578D01*
X109414658Y-31097607D01*
X107898255Y-31097607D01*
X107925008Y-31021152D01*
X107944562Y-30847607D01*
X107925008Y-30674062D01*
X107898255Y-30597607D01*
X109414657Y-30597607D01*
X109414657Y-29297637D01*
X109414656Y-29297622D01*
X109404163Y-29194911D01*
X109349016Y-29028489D01*
X109349014Y-29028484D01*
X109256973Y-28879262D01*
X109133002Y-28755291D01*
X108983780Y-28663250D01*
X108983775Y-28663248D01*
X108817353Y-28608101D01*
X108817346Y-28608100D01*
X108714642Y-28597607D01*
X107414658Y-28597607D01*
X107414658Y-30114009D01*
X107338203Y-30087257D01*
X107208182Y-30072607D01*
X107121134Y-30072607D01*
X106991113Y-30087257D01*
X106914658Y-30114009D01*
X106914658Y-28597607D01*
X105614688Y-28597607D01*
X105614672Y-28597608D01*
X105511962Y-28608101D01*
X105345540Y-28663248D01*
X105345535Y-28663250D01*
X105196313Y-28755291D01*
X105072342Y-28879262D01*
X104980301Y-29028484D01*
X104980299Y-29028489D01*
X104925152Y-29194911D01*
X104925151Y-29194918D01*
X104914658Y-29297622D01*
X104914658Y-30597607D01*
X68283354Y-30597607D01*
X65555194Y-27869446D01*
X65531218Y-27845470D01*
X65509703Y-27834508D01*
X65493110Y-27824340D01*
X65473580Y-27810150D01*
X65450615Y-27802688D01*
X65432641Y-27795243D01*
X65411127Y-27784281D01*
X65406010Y-27783470D01*
X65387273Y-27780503D01*
X65368358Y-27775962D01*
X65345394Y-27768500D01*
X65345393Y-27768500D01*
X65311488Y-27768500D01*
X61695610Y-27768500D01*
X61628571Y-27748815D01*
X61607929Y-27732181D01*
X60405819Y-26530071D01*
X60372334Y-26468748D01*
X60369500Y-26442390D01*
X60369500Y-26297844D01*
X89328000Y-26297844D01*
X89334401Y-26357372D01*
X89334403Y-26357379D01*
X89384645Y-26492086D01*
X89384649Y-26492093D01*
X89470809Y-26607187D01*
X89470812Y-26607190D01*
X89585906Y-26693350D01*
X89585913Y-26693354D01*
X89720620Y-26743596D01*
X89720627Y-26743598D01*
X89780155Y-26749999D01*
X89780172Y-26750000D01*
X90428000Y-26750000D01*
X90428000Y-25835501D01*
X90535685Y-25884680D01*
X90642237Y-25900000D01*
X90713763Y-25900000D01*
X90820315Y-25884680D01*
X90928000Y-25835501D01*
X90928000Y-26750000D01*
X91575828Y-26750000D01*
X91575844Y-26749999D01*
X91635372Y-26743598D01*
X91635379Y-26743596D01*
X91770086Y-26693354D01*
X91770093Y-26693350D01*
X91885187Y-26607190D01*
X91885190Y-26607187D01*
X91971350Y-26492093D01*
X91971354Y-26492086D01*
X92021596Y-26357379D01*
X92021598Y-26357372D01*
X92027999Y-26297844D01*
X92028000Y-26297827D01*
X92028000Y-26103268D01*
X92047685Y-26036229D01*
X92100489Y-25990474D01*
X92169647Y-25980530D01*
X92233203Y-26009555D01*
X92250950Y-26028537D01*
X92364128Y-26178407D01*
X92521698Y-26322052D01*
X92702981Y-26434298D01*
X92901802Y-26511321D01*
X93111390Y-26550500D01*
X93111392Y-26550500D01*
X93324608Y-26550500D01*
X93324610Y-26550500D01*
X93534198Y-26511321D01*
X93733019Y-26434298D01*
X93914302Y-26322052D01*
X94071872Y-26178407D01*
X94200366Y-26008255D01*
X94261111Y-25886262D01*
X94295403Y-25817394D01*
X94295403Y-25817393D01*
X94295405Y-25817389D01*
X94353756Y-25612310D01*
X94364529Y-25496047D01*
X94390315Y-25431111D01*
X94432622Y-25400804D01*
X94541130Y-25400804D01*
X94577503Y-25421668D01*
X94609693Y-25483681D01*
X94611471Y-25496048D01*
X94622244Y-25612310D01*
X94680596Y-25817392D01*
X94680596Y-25817394D01*
X94775632Y-26008253D01*
X94847385Y-26103268D01*
X94904128Y-26178407D01*
X95061698Y-26322052D01*
X95242981Y-26434298D01*
X95441802Y-26511321D01*
X95651390Y-26550500D01*
X95651392Y-26550500D01*
X95864608Y-26550500D01*
X95864610Y-26550500D01*
X96074198Y-26511321D01*
X96273019Y-26434298D01*
X96454302Y-26322052D01*
X96611872Y-26178407D01*
X96740366Y-26008255D01*
X96801111Y-25886262D01*
X96835403Y-25817394D01*
X96835403Y-25817393D01*
X96835405Y-25817389D01*
X96893756Y-25612310D01*
X96904529Y-25496047D01*
X96930315Y-25431111D01*
X96972622Y-25400804D01*
X97081130Y-25400804D01*
X97117503Y-25421668D01*
X97149693Y-25483681D01*
X97151471Y-25496048D01*
X97162244Y-25612310D01*
X97220596Y-25817392D01*
X97220596Y-25817394D01*
X97315632Y-26008253D01*
X97387385Y-26103268D01*
X97444128Y-26178407D01*
X97601698Y-26322052D01*
X97782981Y-26434298D01*
X97981802Y-26511321D01*
X98191390Y-26550500D01*
X98191392Y-26550500D01*
X98404608Y-26550500D01*
X98404610Y-26550500D01*
X98614198Y-26511321D01*
X98813019Y-26434298D01*
X98994302Y-26322052D01*
X99151872Y-26178407D01*
X99280366Y-26008255D01*
X99341111Y-25886262D01*
X99375403Y-25817394D01*
X99375403Y-25817393D01*
X99375405Y-25817389D01*
X99433756Y-25612310D01*
X99453429Y-25400000D01*
X105832341Y-25400000D01*
X105852936Y-25635403D01*
X105852938Y-25635413D01*
X105914094Y-25863655D01*
X105914096Y-25863659D01*
X105914097Y-25863663D01*
X105956463Y-25954516D01*
X106013964Y-26077828D01*
X106013965Y-26077830D01*
X106149505Y-26271402D01*
X106316597Y-26438494D01*
X106510169Y-26574034D01*
X106510171Y-26574035D01*
X106724337Y-26673903D01*
X106952592Y-26735063D01*
X107129032Y-26750499D01*
X107129033Y-26750500D01*
X107129034Y-26750500D01*
X107246967Y-26750500D01*
X107246967Y-26750499D01*
X107423408Y-26735063D01*
X107651663Y-26673903D01*
X107865829Y-26574035D01*
X108059401Y-26438495D01*
X108226495Y-26271401D01*
X108362035Y-26077830D01*
X108461903Y-25863663D01*
X108523063Y-25635408D01*
X108543659Y-25400000D01*
X108543588Y-25399194D01*
X108535256Y-25303951D01*
X108523063Y-25164592D01*
X108461903Y-24936337D01*
X108362035Y-24722171D01*
X108362034Y-24722169D01*
X108226494Y-24528597D01*
X108059402Y-24361505D01*
X107865830Y-24225965D01*
X107865828Y-24225964D01*
X107758746Y-24176031D01*
X107651663Y-24126097D01*
X107651659Y-24126096D01*
X107651655Y-24126094D01*
X107423413Y-24064938D01*
X107423403Y-24064936D01*
X107246967Y-24049500D01*
X107246966Y-24049500D01*
X107129034Y-24049500D01*
X107129033Y-24049500D01*
X106952596Y-24064936D01*
X106952586Y-24064938D01*
X106724344Y-24126094D01*
X106724335Y-24126098D01*
X106510171Y-24225964D01*
X106510169Y-24225965D01*
X106316597Y-24361505D01*
X106149506Y-24528597D01*
X106149501Y-24528604D01*
X106013967Y-24722165D01*
X106013965Y-24722169D01*
X105914098Y-24936335D01*
X105914094Y-24936344D01*
X105852938Y-25164586D01*
X105852936Y-25164596D01*
X105832341Y-25399999D01*
X105832341Y-25400000D01*
X99453429Y-25400000D01*
X99433756Y-25187690D01*
X99375405Y-24982611D01*
X99375403Y-24982606D01*
X99375403Y-24982605D01*
X99280367Y-24791746D01*
X99151872Y-24621593D01*
X99107530Y-24581170D01*
X98994302Y-24477948D01*
X98813019Y-24365702D01*
X98813017Y-24365701D01*
X98663829Y-24307906D01*
X98614198Y-24288679D01*
X98404610Y-24249500D01*
X98191390Y-24249500D01*
X97981802Y-24288679D01*
X97981799Y-24288679D01*
X97981799Y-24288680D01*
X97782982Y-24365701D01*
X97782980Y-24365702D01*
X97601699Y-24477947D01*
X97444127Y-24621593D01*
X97315632Y-24791746D01*
X97220596Y-24982605D01*
X97220596Y-24982607D01*
X97162244Y-25187689D01*
X97151471Y-25303951D01*
X97125685Y-25368888D01*
X97081130Y-25400804D01*
X96972622Y-25400804D01*
X96974869Y-25399194D01*
X96938497Y-25378331D01*
X96906307Y-25316318D01*
X96904529Y-25303951D01*
X96903849Y-25296613D01*
X96893756Y-25187690D01*
X96835405Y-24982611D01*
X96835403Y-24982606D01*
X96835403Y-24982605D01*
X96740367Y-24791746D01*
X96611872Y-24621593D01*
X96567530Y-24581170D01*
X96454302Y-24477948D01*
X96273019Y-24365702D01*
X96273017Y-24365701D01*
X96123829Y-24307906D01*
X96074198Y-24288679D01*
X95864610Y-24249500D01*
X95651390Y-24249500D01*
X95441802Y-24288679D01*
X95441799Y-24288679D01*
X95441799Y-24288680D01*
X95242982Y-24365701D01*
X95242980Y-24365702D01*
X95061699Y-24477947D01*
X94904127Y-24621593D01*
X94775632Y-24791746D01*
X94680596Y-24982605D01*
X94680596Y-24982607D01*
X94622244Y-25187689D01*
X94611471Y-25303951D01*
X94585685Y-25368888D01*
X94541130Y-25400804D01*
X94432622Y-25400804D01*
X94434869Y-25399194D01*
X94398497Y-25378331D01*
X94366307Y-25316318D01*
X94364529Y-25303951D01*
X94363849Y-25296613D01*
X94353756Y-25187690D01*
X94295405Y-24982611D01*
X94295403Y-24982606D01*
X94295403Y-24982605D01*
X94200367Y-24791746D01*
X94071872Y-24621593D01*
X94027530Y-24581170D01*
X93914302Y-24477948D01*
X93733019Y-24365702D01*
X93733017Y-24365701D01*
X93583829Y-24307906D01*
X93534198Y-24288679D01*
X93324610Y-24249500D01*
X93111390Y-24249500D01*
X92901802Y-24288679D01*
X92901799Y-24288679D01*
X92901799Y-24288680D01*
X92702982Y-24365701D01*
X92702980Y-24365702D01*
X92521699Y-24477947D01*
X92364127Y-24621593D01*
X92250954Y-24771458D01*
X92194845Y-24813094D01*
X92125133Y-24817785D01*
X92063951Y-24784043D01*
X92030724Y-24722579D01*
X92028000Y-24696731D01*
X92028000Y-24502172D01*
X92027999Y-24502155D01*
X92021598Y-24442627D01*
X92021596Y-24442620D01*
X91971354Y-24307913D01*
X91971350Y-24307906D01*
X91885190Y-24192812D01*
X91885187Y-24192809D01*
X91770093Y-24106649D01*
X91770086Y-24106645D01*
X91635379Y-24056403D01*
X91635372Y-24056401D01*
X91575844Y-24050000D01*
X90928000Y-24050000D01*
X90928000Y-24964498D01*
X90820315Y-24915320D01*
X90713763Y-24900000D01*
X90642237Y-24900000D01*
X90535685Y-24915320D01*
X90428000Y-24964498D01*
X90428000Y-24050000D01*
X89780155Y-24050000D01*
X89720627Y-24056401D01*
X89720620Y-24056403D01*
X89585913Y-24106645D01*
X89585906Y-24106649D01*
X89470812Y-24192809D01*
X89470809Y-24192812D01*
X89384649Y-24307906D01*
X89384645Y-24307913D01*
X89334403Y-24442620D01*
X89334401Y-24442627D01*
X89328000Y-24502155D01*
X89328000Y-25150000D01*
X90244314Y-25150000D01*
X90218507Y-25190156D01*
X90178000Y-25328111D01*
X90178000Y-25471889D01*
X90218507Y-25609844D01*
X90244314Y-25650000D01*
X89328000Y-25650000D01*
X89328000Y-26297844D01*
X60369500Y-26297844D01*
X60369500Y-24480799D01*
X60389185Y-24413760D01*
X60395128Y-24405308D01*
X60403022Y-24395020D01*
X60403024Y-24395018D01*
X60455974Y-24267183D01*
X60474035Y-24130000D01*
X60455974Y-23992817D01*
X60403024Y-23864983D01*
X60318791Y-23755209D01*
X60318789Y-23755208D01*
X60318789Y-23755207D01*
X60209015Y-23670974D01*
X60081186Y-23618027D01*
X60081184Y-23618026D01*
X60081183Y-23618026D01*
X59989727Y-23605985D01*
X59944001Y-23599965D01*
X59943999Y-23599965D01*
X59875408Y-23608995D01*
X59806817Y-23618026D01*
X59806816Y-23618026D01*
X59806813Y-23618027D01*
X59678985Y-23670974D01*
X59569209Y-23755209D01*
X59484974Y-23864985D01*
X59432027Y-23992813D01*
X59432026Y-23992816D01*
X59432026Y-23992817D01*
X59413965Y-24130000D01*
X59426599Y-24225965D01*
X59432026Y-24267181D01*
X59432027Y-24267186D01*
X59484975Y-24395016D01*
X59484977Y-24395020D01*
X59492872Y-24405308D01*
X59518070Y-24470476D01*
X59518500Y-24480799D01*
X59518500Y-26737394D01*
X59525962Y-26760358D01*
X59530503Y-26779273D01*
X59533470Y-26798010D01*
X59534281Y-26803127D01*
X59545243Y-26824641D01*
X59552688Y-26842615D01*
X59560150Y-26865580D01*
X59574340Y-26885110D01*
X59584508Y-26901703D01*
X59595470Y-26923218D01*
X59595472Y-26923220D01*
X59619446Y-26947194D01*
X61119472Y-28447220D01*
X61214780Y-28542528D01*
X61236300Y-28553493D01*
X61252875Y-28563649D01*
X61272419Y-28577849D01*
X61295381Y-28585309D01*
X61313354Y-28592753D01*
X61334874Y-28603719D01*
X61358724Y-28607495D01*
X61377645Y-28612039D01*
X61399489Y-28619136D01*
X61400607Y-28619500D01*
X61434512Y-28619500D01*
X65050390Y-28619500D01*
X65117429Y-28639185D01*
X65138071Y-28655819D01*
X66569509Y-30087257D01*
X67849072Y-31366819D01*
X67882557Y-31428142D01*
X67877573Y-31497834D01*
X67835701Y-31553767D01*
X67770237Y-31578184D01*
X67761391Y-31578500D01*
X59532800Y-31578500D01*
X59465761Y-31558815D01*
X59457315Y-31552877D01*
X59447017Y-31544975D01*
X59319186Y-31492027D01*
X59319184Y-31492026D01*
X59319183Y-31492026D01*
X59227727Y-31479985D01*
X59182001Y-31473965D01*
X59181999Y-31473965D01*
X59113408Y-31482995D01*
X59044817Y-31492026D01*
X59044816Y-31492026D01*
X59044813Y-31492027D01*
X58916985Y-31544974D01*
X58807209Y-31629209D01*
X58722974Y-31738985D01*
X58670027Y-31866813D01*
X58670026Y-31866818D01*
X58651965Y-32003999D01*
X58651965Y-32004000D01*
X58670026Y-32141181D01*
X58670027Y-32141186D01*
X58722974Y-32269015D01*
X58722975Y-32269017D01*
X58722976Y-32269018D01*
X58807209Y-32378791D01*
X58916982Y-32463024D01*
X58916983Y-32463024D01*
X58916984Y-32463025D01*
X58942274Y-32473500D01*
X59044817Y-32515974D01*
X59167702Y-32532152D01*
X59181999Y-32534035D01*
X59182000Y-32534035D01*
X59182001Y-32534035D01*
X59194947Y-32532330D01*
X59319183Y-32515974D01*
X59447018Y-32463024D01*
X59457315Y-32455123D01*
X59522484Y-32429930D01*
X59532800Y-32429500D01*
X68860390Y-32429500D01*
X68927429Y-32449185D01*
X68948071Y-32465819D01*
X69271446Y-32789194D01*
X69571504Y-33089252D01*
X69844559Y-33362306D01*
X69878044Y-33423629D01*
X69880878Y-33449987D01*
X69880878Y-35131204D01*
X69861193Y-35198243D01*
X69839105Y-35224019D01*
X69778196Y-35277979D01*
X69681560Y-35417978D01*
X69681560Y-35417979D01*
X69629948Y-35554071D01*
X69587770Y-35609774D01*
X69522173Y-35633831D01*
X69514006Y-35634100D01*
X69236922Y-35634100D01*
X69232690Y-35634028D01*
X69217970Y-35633525D01*
X69168574Y-35631838D01*
X69168573Y-35631838D01*
X69168571Y-35631838D01*
X69128655Y-35641565D01*
X69116184Y-35643935D01*
X69075479Y-35649530D01*
X69059016Y-35656681D01*
X69038975Y-35663420D01*
X69021550Y-35667666D01*
X69021545Y-35667668D01*
X68985734Y-35687803D01*
X68974370Y-35693447D01*
X68936678Y-35709820D01*
X68922757Y-35721146D01*
X68905283Y-35733038D01*
X68889646Y-35741830D01*
X68889639Y-35741836D01*
X68860585Y-35770889D01*
X68851163Y-35779391D01*
X68819293Y-35805319D01*
X68808941Y-35819985D01*
X68795320Y-35836154D01*
X64199294Y-40432181D01*
X64137971Y-40465666D01*
X64111613Y-40468500D01*
X63219610Y-40468500D01*
X63152571Y-40448815D01*
X63131929Y-40432181D01*
X59476925Y-36777177D01*
X59443440Y-36715854D01*
X59441667Y-36705679D01*
X59441121Y-36701533D01*
X59439974Y-36692817D01*
X59397303Y-36589800D01*
X59387025Y-36564985D01*
X59387024Y-36564984D01*
X59387024Y-36564983D01*
X59302791Y-36455209D01*
X59302789Y-36455208D01*
X59302789Y-36455207D01*
X59193015Y-36370974D01*
X59065186Y-36318027D01*
X59065184Y-36318026D01*
X59065183Y-36318026D01*
X58973727Y-36305985D01*
X58928001Y-36299965D01*
X58927999Y-36299965D01*
X58859408Y-36308995D01*
X58790817Y-36318026D01*
X58790816Y-36318026D01*
X58790813Y-36318027D01*
X58662985Y-36370974D01*
X58553209Y-36455209D01*
X58468974Y-36564985D01*
X58416027Y-36692813D01*
X58416026Y-36692816D01*
X58416026Y-36692817D01*
X58414333Y-36705679D01*
X58397965Y-36829999D01*
X58397965Y-36830000D01*
X49955500Y-36830000D01*
X49955500Y-36068000D01*
X59630165Y-36068000D01*
X59648226Y-36205181D01*
X59648227Y-36205186D01*
X59701174Y-36333015D01*
X59701175Y-36333017D01*
X59701176Y-36333018D01*
X59785409Y-36442791D01*
X59895182Y-36527024D01*
X60023017Y-36579974D01*
X60145902Y-36596152D01*
X60160199Y-36598035D01*
X60160200Y-36598035D01*
X60160201Y-36598035D01*
X60173147Y-36596330D01*
X60297383Y-36579974D01*
X60425218Y-36527024D01*
X60534991Y-36442791D01*
X60619224Y-36333018D01*
X60672174Y-36205183D01*
X60690235Y-36068000D01*
X60672174Y-35930817D01*
X60623787Y-35814000D01*
X65254965Y-35814000D01*
X65273026Y-35951181D01*
X65273027Y-35951186D01*
X65325974Y-36079015D01*
X65325975Y-36079017D01*
X65325976Y-36079018D01*
X65410209Y-36188791D01*
X65519982Y-36273024D01*
X65647817Y-36325974D01*
X65770702Y-36342152D01*
X65784999Y-36344035D01*
X65785000Y-36344035D01*
X65785001Y-36344035D01*
X65797947Y-36342330D01*
X65922183Y-36325974D01*
X66050018Y-36273024D01*
X66159791Y-36188791D01*
X66244024Y-36079018D01*
X66296974Y-35951183D01*
X66315035Y-35814000D01*
X66300842Y-35706201D01*
X66311607Y-35637169D01*
X66357986Y-35584913D01*
X66407594Y-35567079D01*
X66431183Y-35563974D01*
X66559018Y-35511024D01*
X66668791Y-35426791D01*
X66753024Y-35317018D01*
X66805974Y-35189183D01*
X66824035Y-35052000D01*
X66805974Y-34914817D01*
X66753024Y-34786983D01*
X66668791Y-34677209D01*
X66668789Y-34677208D01*
X66668789Y-34677207D01*
X66559015Y-34592974D01*
X66431186Y-34540027D01*
X66431184Y-34540026D01*
X66431183Y-34540026D01*
X66339727Y-34527985D01*
X66294001Y-34521965D01*
X66293999Y-34521965D01*
X66225408Y-34530995D01*
X66156817Y-34540026D01*
X66156816Y-34540026D01*
X66156813Y-34540027D01*
X66028985Y-34592974D01*
X65919209Y-34677209D01*
X65834974Y-34786985D01*
X65782027Y-34914813D01*
X65782026Y-34914816D01*
X65782026Y-34914817D01*
X65763965Y-35052000D01*
X65770318Y-35100258D01*
X65778157Y-35159795D01*
X65767392Y-35228830D01*
X65721012Y-35281086D01*
X65671407Y-35298920D01*
X65647816Y-35302026D01*
X65647813Y-35302027D01*
X65519985Y-35354974D01*
X65410209Y-35439209D01*
X65325974Y-35548985D01*
X65273027Y-35676813D01*
X65273026Y-35676818D01*
X65254965Y-35813999D01*
X65254965Y-35814000D01*
X60623787Y-35814000D01*
X60619224Y-35802983D01*
X60534991Y-35693209D01*
X60534989Y-35693208D01*
X60534989Y-35693207D01*
X60437524Y-35618419D01*
X60425218Y-35608976D01*
X60425217Y-35608975D01*
X60425215Y-35608974D01*
X60297386Y-35556027D01*
X60297384Y-35556026D01*
X60297383Y-35556026D01*
X60205927Y-35543985D01*
X60160201Y-35537965D01*
X60160199Y-35537965D01*
X60091608Y-35546995D01*
X60023017Y-35556026D01*
X60023016Y-35556026D01*
X60023013Y-35556027D01*
X59895185Y-35608974D01*
X59785409Y-35693209D01*
X59701174Y-35802985D01*
X59648227Y-35930813D01*
X59648226Y-35930818D01*
X59630165Y-36067999D01*
X59630165Y-36068000D01*
X49955500Y-36068000D01*
X49955500Y-29972000D01*
X63223965Y-29972000D01*
X63239139Y-30087257D01*
X63242026Y-30109181D01*
X63242027Y-30109186D01*
X63294974Y-30237015D01*
X63294975Y-30237017D01*
X63294976Y-30237018D01*
X63379209Y-30346791D01*
X63488982Y-30431024D01*
X63616817Y-30483974D01*
X63739702Y-30500152D01*
X63753999Y-30502035D01*
X63754000Y-30502035D01*
X63754001Y-30502035D01*
X63766947Y-30500330D01*
X63891183Y-30483974D01*
X64019018Y-30431024D01*
X64128791Y-30346791D01*
X64213024Y-30237018D01*
X64265974Y-30109183D01*
X64268950Y-30086576D01*
X64297214Y-30022684D01*
X64355537Y-29984212D01*
X64408070Y-29979825D01*
X64516000Y-29994035D01*
X64653183Y-29975974D01*
X64781018Y-29923024D01*
X64890791Y-29838791D01*
X64975024Y-29729018D01*
X65027974Y-29601183D01*
X65046035Y-29464000D01*
X65027974Y-29326817D01*
X64975024Y-29198983D01*
X64890791Y-29089209D01*
X64890789Y-29089208D01*
X64890789Y-29089207D01*
X64781015Y-29004974D01*
X64653186Y-28952027D01*
X64653184Y-28952026D01*
X64653183Y-28952026D01*
X64561727Y-28939985D01*
X64516001Y-28933965D01*
X64515999Y-28933965D01*
X64447408Y-28942995D01*
X64378817Y-28952026D01*
X64378816Y-28952026D01*
X64378813Y-28952027D01*
X64250985Y-29004974D01*
X64141209Y-29089209D01*
X64056974Y-29198985D01*
X64004027Y-29326813D01*
X64004026Y-29326817D01*
X64001050Y-29349422D01*
X63972783Y-29413318D01*
X63914458Y-29451788D01*
X63861925Y-29456174D01*
X63754001Y-29441965D01*
X63753999Y-29441965D01*
X63685408Y-29450995D01*
X63616817Y-29460026D01*
X63616816Y-29460026D01*
X63616813Y-29460027D01*
X63488985Y-29512974D01*
X63379209Y-29597209D01*
X63294974Y-29706985D01*
X63242027Y-29834813D01*
X63242026Y-29834818D01*
X63228879Y-29934679D01*
X63223965Y-29972000D01*
X49955500Y-29972000D01*
X49955500Y-27504278D01*
X49975185Y-27437239D01*
X50027989Y-27391484D01*
X50046038Y-27384878D01*
X50218275Y-27336620D01*
X50475568Y-27224862D01*
X50715246Y-27079111D01*
X50932845Y-26902081D01*
X51124312Y-26697069D01*
X51286081Y-26467896D01*
X51415136Y-26218830D01*
X51509075Y-25954511D01*
X51509076Y-25954504D01*
X51509078Y-25954499D01*
X51555563Y-25730798D01*
X51566148Y-25679862D01*
X51585291Y-25400000D01*
X51566148Y-25120138D01*
X51546443Y-25025315D01*
X51509078Y-24845500D01*
X51509073Y-24845483D01*
X51465246Y-24722165D01*
X51415136Y-24581170D01*
X51286081Y-24332104D01*
X51124312Y-24102931D01*
X51124307Y-24102925D01*
X50932845Y-23897919D01*
X50881873Y-23856450D01*
X50715246Y-23720889D01*
X50715244Y-23720888D01*
X50715242Y-23720886D01*
X50475566Y-23575136D01*
X50218276Y-23463380D01*
X49948166Y-23387698D01*
X49948162Y-23387697D01*
X49948161Y-23387697D01*
X49809209Y-23368598D01*
X49670259Y-23349500D01*
X49670258Y-23349500D01*
X49389742Y-23349500D01*
X49389741Y-23349500D01*
X49111839Y-23387697D01*
X49111833Y-23387698D01*
X48841723Y-23463380D01*
X48584433Y-23575136D01*
X48344757Y-23720886D01*
X48127154Y-23897919D01*
X47935692Y-24102925D01*
X47935692Y-24102926D01*
X47935689Y-24102928D01*
X47935688Y-24102931D01*
X47879349Y-24182745D01*
X47773919Y-24332103D01*
X47644863Y-24581171D01*
X47550926Y-24845483D01*
X47550921Y-24845500D01*
X47493852Y-25120135D01*
X47493851Y-25120137D01*
X47474709Y-25400000D01*
X44585291Y-25400000D01*
X44566148Y-25120138D01*
X44546443Y-25025315D01*
X44509078Y-24845500D01*
X44509073Y-24845483D01*
X44465246Y-24722165D01*
X44415136Y-24581170D01*
X44286081Y-24332104D01*
X44124312Y-24102931D01*
X44124307Y-24102925D01*
X43932845Y-23897919D01*
X43881873Y-23856450D01*
X43715246Y-23720889D01*
X43715244Y-23720888D01*
X43715242Y-23720886D01*
X43475566Y-23575136D01*
X43218276Y-23463380D01*
X42948166Y-23387698D01*
X42948162Y-23387697D01*
X42948161Y-23387697D01*
X42809209Y-23368598D01*
X42670259Y-23349500D01*
X42670258Y-23349500D01*
X42389742Y-23349500D01*
X42389741Y-23349500D01*
X42111839Y-23387697D01*
X42111833Y-23387698D01*
X41841723Y-23463380D01*
X41584433Y-23575136D01*
X41344757Y-23720886D01*
X41127154Y-23897919D01*
X40935692Y-24102925D01*
X40935692Y-24102926D01*
X40935689Y-24102928D01*
X40935688Y-24102931D01*
X40879349Y-24182745D01*
X40773919Y-24332103D01*
X40644863Y-24581171D01*
X40550926Y-24845483D01*
X40550921Y-24845500D01*
X40493852Y-25120135D01*
X40493851Y-25120137D01*
X40474709Y-25400000D01*
X36309904Y-25400000D01*
X36290350Y-25226455D01*
X36263597Y-25150000D01*
X37779999Y-25150000D01*
X37779999Y-23850030D01*
X37779998Y-23850015D01*
X37769505Y-23747304D01*
X37714358Y-23580882D01*
X37714356Y-23580877D01*
X37622315Y-23431655D01*
X37498344Y-23307684D01*
X37349122Y-23215643D01*
X37349117Y-23215641D01*
X37182695Y-23160494D01*
X37182688Y-23160493D01*
X37079984Y-23150000D01*
X35780000Y-23150000D01*
X35780000Y-24666402D01*
X35703545Y-24639650D01*
X35573524Y-24625000D01*
X35486476Y-24625000D01*
X35356455Y-24639650D01*
X35280000Y-24666402D01*
X35280000Y-23150000D01*
X33980030Y-23150000D01*
X33980014Y-23150001D01*
X33877304Y-23160494D01*
X33710882Y-23215641D01*
X33710877Y-23215643D01*
X33561655Y-23307684D01*
X33437684Y-23431655D01*
X33345643Y-23580877D01*
X33345641Y-23580882D01*
X33290494Y-23747304D01*
X33290493Y-23747311D01*
X33280000Y-23850015D01*
X33280000Y-25150000D01*
X30795153Y-25150000D01*
X30737903Y-24936337D01*
X30638035Y-24722171D01*
X30638034Y-24722169D01*
X30502494Y-24528597D01*
X30335402Y-24361505D01*
X30141830Y-24225965D01*
X30141828Y-24225964D01*
X30034746Y-24176031D01*
X29927663Y-24126097D01*
X29927659Y-24126096D01*
X29927655Y-24126094D01*
X29699413Y-24064938D01*
X29699403Y-24064936D01*
X29522967Y-24049500D01*
X29522966Y-24049500D01*
X29405034Y-24049500D01*
X29405033Y-24049500D01*
X29228596Y-24064936D01*
X29228586Y-24064938D01*
X29000344Y-24126094D01*
X29000335Y-24126098D01*
X28786171Y-24225964D01*
X28786169Y-24225965D01*
X28592597Y-24361505D01*
X28425506Y-24528597D01*
X28425501Y-24528604D01*
X28289967Y-24722165D01*
X28289965Y-24722169D01*
X28190098Y-24936335D01*
X28190094Y-24936344D01*
X28128938Y-25164586D01*
X28128936Y-25164596D01*
X28108341Y-25399999D01*
X28108341Y-25400000D01*
X26162585Y-25400000D01*
X26162670Y-25396755D01*
X26169498Y-25266475D01*
X26181466Y-25053355D01*
X26182792Y-25040965D01*
X26208057Y-24881451D01*
X26208228Y-24880411D01*
X26238947Y-24699611D01*
X26241409Y-24688338D01*
X26284713Y-24526724D01*
X26285301Y-24524611D01*
X26334398Y-24354190D01*
X26337772Y-24344126D01*
X26398620Y-24185613D01*
X26399707Y-24182888D01*
X26466699Y-24021155D01*
X26470743Y-24012385D01*
X26548375Y-23860022D01*
X26550212Y-23856562D01*
X26634297Y-23704422D01*
X26638783Y-23696945D01*
X26732251Y-23553017D01*
X26735037Y-23548914D01*
X26835217Y-23407723D01*
X26839930Y-23401510D01*
X26948134Y-23267889D01*
X26951998Y-23263347D01*
X27067142Y-23134500D01*
X27071853Y-23129518D01*
X27193518Y-23007853D01*
X27198500Y-23003142D01*
X27327347Y-22887998D01*
X27331889Y-22884134D01*
X27465510Y-22775930D01*
X27471723Y-22771217D01*
X27612914Y-22671037D01*
X27617017Y-22668251D01*
X27760945Y-22574783D01*
X27768422Y-22570297D01*
X27920562Y-22486212D01*
X27924022Y-22484375D01*
X28076385Y-22406743D01*
X28085155Y-22402699D01*
X28246888Y-22335707D01*
X28249613Y-22334620D01*
X28408126Y-22273772D01*
X28418190Y-22270398D01*
X28588611Y-22221301D01*
X28590724Y-22220713D01*
X28752338Y-22177409D01*
X28763611Y-22174947D01*
X28944411Y-22144228D01*
X28945451Y-22144057D01*
X29104965Y-22118792D01*
X29117355Y-22117466D01*
X29330579Y-22105492D01*
X29460756Y-22098669D01*
X29467245Y-22098500D01*
X107184755Y-22098500D01*
X107191243Y-22098669D01*
G37*
%TD.AperFunction*%
%TD*%
M02*
