M48
; DRILL file {KiCad 7.0.10} date Do 02 Mai 2024 22:21:17 CST
; FORMAT={-:-/ absolute / inch / decimal}
; #@! TF.CreationDate,2024-05-02T22:21:17+08:00
; #@! TF.GenerationSoftware,Kicad,Pcbnew,7.0.10
; #@! TF.FileFunction,Plated,1,4,PTH
FMAT,2
INCH
; #@! TA.AperFunction,Plated,PTH,ViaDrill
T1C0.0079
; #@! TA.AperFunction,Plated,PTH,ViaDrill
T2C0.0118
; #@! TA.AperFunction,Plated,PTH,ViaDrill
T3C0.0157
; #@! TA.AperFunction,Plated,PTH,ComponentDrill
T4C0.0256
; #@! TA.AperFunction,Plated,PTH,ComponentDrill
T5C0.0394
; #@! TA.AperFunction,Plated,PTH,ComponentDrill
T6C0.0610
%
G90
G05
T1
X1.53Y-2.06
X1.53Y-2.14
X1.86Y-2.11
X1.9221Y-2.0628
X2.01Y-2.18
X2.1104Y-2.0652
X2.12Y-2.22
X2.22Y-1.54
X2.2433Y-1.5733
X2.25Y-1.5443
X2.2745Y-1.5785
X2.29Y-1.64
X2.31Y-2.09
X2.319Y-2.371
X2.32Y-1.45
X2.32Y-1.7145
X2.33Y-1.26
X2.33Y-1.686
X2.33Y-1.81
X2.36Y-0.95
X2.3685Y-1.42
X2.44Y-1.82
X2.48Y-2.4
X2.51Y-1.18
X2.53Y-2.3
X2.54Y-1.16
X2.576Y-2.704
X2.59Y-1.41
X2.59Y-1.82
X2.61Y-1.38
X2.6276Y-1.8988
X2.64Y-2.06
X2.67Y-2.04
X2.68Y-2.07
X2.6838Y-1.9028
X2.72Y-1.75
X2.74Y-1.72
X2.7647Y-2.0835
X2.83Y-1.78
X2.8436Y-1.6073
X2.87Y-1.79
X2.8932Y-2.0028
X2.8933Y-1.8115
X2.9Y-1.57
X2.91Y-1.62
X2.91Y-1.7
X2.9179Y-1.8329
X3.05Y-1.86
X3.2295Y-2.2791
X3.32Y-1.8
X3.42Y-2.6596
X3.4341Y-2.6837
X3.714Y-1.78
X3.79Y-1.86
T2
X2.8075Y-1.7227
T3
X1.11Y-1.85
X1.11Y-2.59
X1.13Y-1.36
X1.13Y-2.12
X1.19Y-1.35
X1.19Y-1.85
X1.19Y-2.12
X1.19Y-2.6
X1.29Y-1.45
X1.29Y-2.52
X1.32Y-1.54
X1.34Y-1.66
X1.35Y-2.01
X1.35Y-2.71
X1.36Y-1.3
X1.36Y-1.75
X1.37Y-2.42
X1.45Y-2.53
X1.47Y-1.26
X1.47Y-2.77
X1.49Y-1.74
X1.49Y-1.86
X1.49Y-2.4
X1.51Y-2.0
X1.51Y-2.65
X1.52Y-1.42
X1.52Y-1.55
X1.54Y-0.98
X1.54Y-1.02
X1.57Y-2.76
X1.59Y-2.94
X1.59Y-2.98
X1.6Y-2.16
X1.61Y-1.77
X1.67Y-2.24
X1.68Y-2.65
X1.7Y-2.75
X1.75Y-1.75
X1.79Y-2.53
X1.81Y-0.97
X1.81Y-1.04
X1.82Y-2.77
X1.84Y-1.76
X1.85Y-2.64
X1.87Y-2.99
X1.88Y-1.18
X1.88Y-1.69
X1.88Y-2.93
X1.89Y-1.25
X1.93Y-2.54
X2.0Y-1.16
X2.0Y-1.67
X2.01Y-1.27
X2.04Y-2.04
X2.06Y-1.73
X2.07Y-0.96
X2.08Y-1.04
X2.08Y-1.67
X2.11Y-2.66
X2.11Y-2.75
X2.15Y-1.21
X2.17Y-1.74
X2.17Y-2.34
X2.22Y-2.76
X2.24Y-1.03
X2.29Y-1.22
X2.29Y-2.63
X2.32Y-1.88
X2.33Y-2.15
X2.35Y-2.31
X2.36Y-1.3
X2.37Y-2.66
X2.38Y-1.97
X2.39Y-0.9
X2.41Y-1.01
X2.41Y-2.93
X2.43Y-1.61
X2.43Y-1.66
X2.43Y-2.32
X2.43Y-2.97
X2.45Y-1.53
X2.45Y-1.93
X2.45Y-2.7
X2.45Y-2.77
X2.51Y-1.56
X2.51Y-1.71
X2.53Y-1.3
X2.53Y-1.52
X2.53Y-2.03
X2.53Y-2.15
X2.54Y-1.41
X2.55Y-1.7
X2.56Y-2.43
X2.56Y-2.62
X2.59Y-2.76
X2.63Y-1.59
X2.63Y-1.64
X2.64Y-1.31
X2.66Y-2.61
X2.7Y-2.92
X2.7Y-3.0
X2.72Y-2.16
X2.7432Y-1.8168
X2.75Y-2.75
X2.768Y-1.4073
X2.78Y-1.2
X2.8Y-2.45
X2.82Y-1.04
X2.83Y-0.93
X2.83Y-0.98
X2.83Y-1.83
X2.87Y-2.77
X2.89Y-2.62
X2.92Y-1.42
X2.93Y-1.52
X2.96Y-1.58
X3.02Y-1.61
X3.04Y-1.39
X3.06Y-1.2
X3.08Y-2.62
X3.11Y-1.33
X3.12Y-2.51
X3.16Y-0.97
X3.18Y-2.73
X3.19Y-2.39
X3.24Y-2.61
X3.26Y-2.92
X3.27Y-2.98
X3.36Y-2.52
X3.38Y-0.99
X3.38Y-1.61
X3.38Y-1.83
X3.42Y-1.51
X3.44Y-1.83
X3.45Y-1.23
X3.45Y-1.46
X3.45Y-2.37
X3.46Y-2.63
X3.47Y-2.03
X3.47Y-2.72
X3.53Y-1.23
X3.53Y-1.34
X3.53Y-1.42
X3.57Y-2.24
X3.59Y-2.46
X3.62Y-1.5
X3.7Y-2.39
X3.72Y-2.63
X3.73Y-1.23
X3.74Y-1.43
X3.76Y-2.72
X3.79Y-1.66
X3.8Y-1.81
X3.82Y-1.12
X3.83Y-2.57
X3.84Y-2.09
X3.85Y-2.21
X3.86Y-1.27
X3.88Y-1.94
X3.91Y-1.15
X3.91Y-1.88
X3.93Y-2.26
X3.95Y-2.63
X3.99Y-1.87
X4.01Y-1.63
X4.07Y-1.73
X4.11Y-2.17
T4
X1.61Y-1.31
X1.61Y-1.36
X1.66Y-1.31
X1.66Y-1.36
X1.71Y-1.31
X1.71Y-1.36
X1.76Y-1.31
X1.76Y-1.36
X1.81Y-1.31
X1.81Y-1.36
T5
X1.3543Y-2.0995
X1.3543Y-2.1995
X1.3543Y-2.2995
X3.57Y-1.0
X3.67Y-1.0
X3.77Y-1.0
X3.87Y-1.0
X4.0217Y-2.0871
X4.0217Y-2.1871
X4.0217Y-2.2871
T6
X1.16Y-1.2199
X1.16Y-1.4955
X1.16Y-1.7044
X1.16Y-1.98
X1.16Y-2.2556
X1.1609Y-2.4699
X1.1609Y-2.7455
X1.3988Y-1.0
X1.4544Y-2.95
X1.6744Y-1.0
X1.73Y-2.95
X1.95Y-1.0
X2.0056Y-2.95
X2.2844Y-2.95
X2.56Y-2.95
X2.8356Y-2.95
X3.1145Y-2.9509
X3.3901Y-2.9509
X3.6645Y-2.9509
X3.9401Y-2.9509
X4.2191Y-1.2145
X4.2191Y-1.4901
X4.22Y-1.6944
X4.22Y-1.97
X4.22Y-2.2456
X4.22Y-2.4644
X4.22Y-2.74
M30
